<svg width="240" height="240" viewBox="0 0 240 240" fill="none" xmlns="http://www.w3.org/2000/svg">
<path d="M157.722 36.624C140.442 33.96 122.61 36.864 109.286 47.664C96.3256 58.1712 90.4456 75.7584 76.9288 85.5264C56.0536 100.642 26.404 95.6208 14.2936 122.755C9.97356 132.442 8.85996 143.266 9.01356 153.869C9.19116 167.15 11.356 180.59 17.092 192.566C22.828 204.542 32.38 214.992 44.6008 220.186C62.6392 227.866 83.5432 223.272 101.649 215.779C109.118 212.693 116.615 209.059 124.689 208.646C134.855 208.114 144.479 212.698 154.137 215.918C165.724 219.792 178.559 221.741 190.065 217.622C199.07 214.402 206.471 207.725 212.409 200.227C223.017 186.777 229.54 170.563 231.201 153.514C235.804 105.206 210.878 44.808 157.722 36.624Z" fill="#5CB0FF"/>
<path opacity="0.7" d="M157.722 36.624C140.442 33.96 122.61 36.864 109.286 47.664C96.3256 58.1712 90.4456 75.7584 76.9288 85.5264C56.0536 100.642 26.404 95.6208 14.2936 122.755C9.97356 132.442 8.85996 143.266 9.01356 153.869C9.19116 167.15 11.356 180.59 17.092 192.566C22.828 204.542 32.38 214.992 44.6008 220.186C62.6392 227.866 83.5432 223.272 101.649 215.779C109.118 212.693 116.615 209.059 124.689 208.646C134.855 208.114 144.479 212.698 154.137 215.918C165.724 219.792 178.559 221.741 190.065 217.622C199.07 214.402 206.471 207.725 212.409 200.227C223.017 186.777 229.54 170.563 231.201 153.514C235.804 105.206 210.878 44.808 157.722 36.624Z" fill="white"/>
<path d="M76.9728 178.81C76.9728 178.81 62.4192 178.627 59.016 173.184H21C21 173.184 24.0912 178.762 28.8912 178.81H76.9728Z" fill="white" stroke="#263238" stroke-width="0.5" stroke-miterlimit="10"/>
<path d="M57.9118 174.979H26.9422C26.9422 174.979 27.5182 176.237 25.939 176.928C26.9345 177.848 28.1839 178.447 29.5246 178.647H68.9518C68.9518 178.647 63.931 178.167 61.2094 176.583C61.2094 176.583 58.0558 177.043 57.9118 174.979Z" fill="white" stroke="#263238" stroke-width="0.5" stroke-miterlimit="10"/>
<path d="M71.232 222.322H158.602V211.512H71.232V222.322Z" fill="#263238" stroke="#263238" stroke-width="0.5" stroke-miterlimit="10"/>
<path d="M23.1504 222.322H110.52V211.512H23.1504V222.322Z" fill="white" stroke="#263238" stroke-width="0.5" stroke-miterlimit="10"/>
<path d="M109.915 214.397H88.5791" stroke="#263238" stroke-width="0.5" stroke-miterlimit="10"/>
<path d="M105.705 216.802H74.7549" stroke="#263238" stroke-width="0.5" stroke-miterlimit="10"/>
<path d="M93.3843 218.961H98.7939" stroke="#263238" stroke-width="0.5" stroke-miterlimit="10"/>
<path d="M100.901 218.961H109.613" stroke="#263238" stroke-width="0.5" stroke-miterlimit="10"/>
<path d="M23.6641 218.481H51.0097" stroke="#263238" stroke-width="0.5" stroke-miterlimit="10"/>
<path d="M26.0688 217.042H29.6736" stroke="#263238" stroke-width="0.5" stroke-miterlimit="10"/>
<path d="M46.5026 216.802H34.4834" stroke="#263238" stroke-width="0.5" stroke-miterlimit="10"/>
<path d="M23.6641 213.917H34.1809" stroke="#263238" stroke-width="0.5" stroke-miterlimit="10"/>
<path d="M157.397 216.077H151.987" stroke="#8A8A8A" stroke-width="0.5" stroke-miterlimit="10"/>
<path d="M158.602 218.481H141.773" stroke="#8A8A8A" stroke-width="0.5" stroke-miterlimit="10"/>
<path d="M111.417 219.922H119.534" stroke="#8A8A8A" stroke-width="0.5" stroke-miterlimit="10"/>
<path d="M110.515 216.077H132.456" stroke="#8A8A8A" stroke-width="0.5" stroke-miterlimit="10"/>
<path d="M151.387 212.957H138.768" stroke="#8A8A8A" stroke-width="0.5" stroke-miterlimit="10"/>
<path d="M63.0288 222.082H73.248V211.512H63.0288V222.082Z" fill="white" stroke="#263238" stroke-width="0.5" stroke-miterlimit="10"/>
<path d="M70.1089 211.426H157.479V200.616H70.1089V211.426Z" fill="#263238" stroke="#263238" stroke-width="0.5" stroke-miterlimit="10"/>
<path d="M22.0269 211.426H109.396V200.616H22.0269V211.426Z" fill="white" stroke="#263238" stroke-width="0.5" stroke-miterlimit="10"/>
<path d="M108.792 203.496H87.4561" stroke="#263238" stroke-width="0.5" stroke-miterlimit="10"/>
<path d="M104.587 205.896H73.6318" stroke="#263238" stroke-width="0.5" stroke-miterlimit="10"/>
<path d="M92.2656 208.061H97.6752" stroke="#263238" stroke-width="0.5" stroke-miterlimit="10"/>
<path d="M99.7773 208.061H108.494" stroke="#263238" stroke-width="0.5" stroke-miterlimit="10"/>
<path d="M22.541 207.581H49.8914" stroke="#263238" stroke-width="0.5" stroke-miterlimit="10"/>
<path d="M24.9453 206.136H28.5501" stroke="#263238" stroke-width="0.5" stroke-miterlimit="10"/>
<path d="M45.3839 205.896H33.3599" stroke="#263238" stroke-width="0.5" stroke-miterlimit="10"/>
<path d="M22.541 203.016H33.0626" stroke="#263238" stroke-width="0.5" stroke-miterlimit="10"/>
<path d="M156.278 205.176H150.869" stroke="#8A8A8A" stroke-width="0.5" stroke-miterlimit="10"/>
<path d="M157.478 207.581H140.649" stroke="#8A8A8A" stroke-width="0.5" stroke-miterlimit="10"/>
<path d="M110.299 209.021H118.411" stroke="#8A8A8A" stroke-width="0.5" stroke-miterlimit="10"/>
<path d="M109.396 205.176H131.332" stroke="#8A8A8A" stroke-width="0.5" stroke-miterlimit="10"/>
<path d="M150.269 202.056H137.645" stroke="#8A8A8A" stroke-width="0.5" stroke-miterlimit="10"/>
<path d="M61.9102 211.186H72.1294V200.616H61.9102V211.186Z" fill="white" stroke="#263238" stroke-width="0.5" stroke-miterlimit="10"/>
<path d="M73.6607 200.525H161.03V189.715H73.6607V200.525Z" fill="#263238" stroke="#263238" stroke-width="0.5" stroke-miterlimit="10"/>
<path d="M25.5791 200.525H112.949V189.715H25.5791V200.525Z" fill="white" stroke="#263238" stroke-width="0.5" stroke-miterlimit="10"/>
<path d="M112.344 192.595H91.0078" stroke="#263238" stroke-width="0.5" stroke-miterlimit="10"/>
<path d="M108.134 194.995H77.1841" stroke="#263238" stroke-width="0.5" stroke-miterlimit="10"/>
<path d="M95.813 197.16H101.223" stroke="#263238" stroke-width="0.5" stroke-miterlimit="10"/>
<path d="M103.33 197.16H112.042" stroke="#263238" stroke-width="0.5" stroke-miterlimit="10"/>
<path d="M26.0928 196.68H53.4384" stroke="#263238" stroke-width="0.5" stroke-miterlimit="10"/>
<path d="M28.4976 195.235H32.1024" stroke="#263238" stroke-width="0.5" stroke-miterlimit="10"/>
<path d="M48.9313 194.995H36.9121" stroke="#263238" stroke-width="0.5" stroke-miterlimit="10"/>
<path d="M26.0928 192.115H36.6096" stroke="#263238" stroke-width="0.5" stroke-miterlimit="10"/>
<path d="M159.826 194.275H154.416" stroke="#8A8A8A" stroke-width="0.5" stroke-miterlimit="10"/>
<path d="M161.03 196.68H144.202" stroke="#8A8A8A" stroke-width="0.5" stroke-miterlimit="10"/>
<path d="M113.846 198.12H121.963" stroke="#8A8A8A" stroke-width="0.5" stroke-miterlimit="10"/>
<path d="M112.944 194.275H134.885" stroke="#8A8A8A" stroke-width="0.5" stroke-miterlimit="10"/>
<path d="M153.816 191.155H141.197" stroke="#8A8A8A" stroke-width="0.5" stroke-miterlimit="10"/>
<path d="M65.4576 200.285H75.6768V189.715H65.4576V200.285Z" fill="white" stroke="#263238" stroke-width="0.5" stroke-miterlimit="10"/>
<path d="M70.9488 189.619H158.318V178.81H70.9488V189.619Z" fill="#263238" stroke="#263238" stroke-width="0.5" stroke-miterlimit="10"/>
<path d="M22.8672 189.619H110.237V178.81H22.8672V189.619Z" fill="white" stroke="#263238" stroke-width="0.5" stroke-miterlimit="10"/>
<path d="M109.637 181.694H88.2959" stroke="#263238" stroke-width="0.5" stroke-miterlimit="10"/>
<path d="M105.427 184.095H74.4722" stroke="#263238" stroke-width="0.5" stroke-miterlimit="10"/>
<path d="M93.1055 186.254H98.5151" stroke="#263238" stroke-width="0.5" stroke-miterlimit="10"/>
<path d="M100.618 186.254H109.334" stroke="#263238" stroke-width="0.5" stroke-miterlimit="10"/>
<path d="M23.3809 185.774H50.7313" stroke="#263238" stroke-width="0.5" stroke-miterlimit="10"/>
<path d="M25.7856 184.334H29.3952" stroke="#263238" stroke-width="0.5" stroke-miterlimit="10"/>
<path d="M46.2242 184.095H34.2002" stroke="#263238" stroke-width="0.5" stroke-miterlimit="10"/>
<path d="M23.3809 181.214H33.9025" stroke="#263238" stroke-width="0.5" stroke-miterlimit="10"/>
<path d="M157.119 183.375H151.709" stroke="#8A8A8A" stroke-width="0.5" stroke-miterlimit="10"/>
<path d="M158.319 185.774H141.49" stroke="#8A8A8A" stroke-width="0.5" stroke-miterlimit="10"/>
<path d="M111.139 187.219H119.251" stroke="#8A8A8A" stroke-width="0.5" stroke-miterlimit="10"/>
<path d="M110.237 183.375H132.173" stroke="#8A8A8A" stroke-width="0.5" stroke-miterlimit="10"/>
<path d="M151.109 180.25H138.485" stroke="#8A8A8A" stroke-width="0.5" stroke-miterlimit="10"/>
<path d="M62.7505 189.379H72.9697V178.81H62.7505V189.379Z" fill="white" stroke="#263238" stroke-width="0.5" stroke-miterlimit="10"/>
<path d="M216.313 56.9375H132.678V222.326H216.313V56.9375Z" fill="#263238" stroke="#263238" stroke-width="0.5" stroke-miterlimit="10"/>
<path d="M207.271 57.6909V86.3229" stroke="#8A8A8A" stroke-width="0.5" stroke-miterlimit="10"/>
<path d="M212.545 64.8481V76.9057" stroke="#8A8A8A" stroke-width="0.5" stroke-miterlimit="10"/>
<path d="M209.91 62.2129V105.158" stroke="#8A8A8A" stroke-width="0.5" stroke-miterlimit="10"/>
<path d="M214.432 56.9375V113.074" stroke="#8A8A8A" stroke-width="0.5" stroke-miterlimit="10"/>
<path d="M208.024 221.947V192.562" stroke="#8A8A8A" stroke-width="0.5" stroke-miterlimit="10"/>
<path d="M211.039 222.326V215.918" stroke="#8A8A8A" stroke-width="0.5" stroke-miterlimit="10"/>
<path d="M211.792 213.658V187.666" stroke="#8A8A8A" stroke-width="0.5" stroke-miterlimit="10"/>
<path d="M208.403 188.793V146.222" stroke="#8A8A8A" stroke-width="0.5" stroke-miterlimit="10"/>
<path d="M204.635 56.9375H121V222.326H204.635V56.9375Z" fill="#5CB0FF" stroke="#263238" stroke-width="0.5" stroke-miterlimit="10"/>
<path d="M197.478 68.6397C195.844 68.636 194.273 68.0068 193.087 66.8812C191.902 65.7557 191.192 64.2191 191.104 62.5869H134.541C134.455 64.2216 133.744 65.7609 132.557 66.8871C131.369 68.0134 129.794 68.6407 128.157 68.6397C127.778 68.6388 127.401 68.6034 127.029 68.5341V207.36C127.401 207.293 127.778 207.258 128.157 207.254C129.263 207.254 130.35 207.54 131.312 208.085C132.274 208.63 133.079 209.415 133.648 210.363C134.217 211.312 134.531 212.391 134.558 213.497C134.586 214.602 134.327 215.696 133.806 216.672H191.829C191.307 215.696 191.047 214.602 191.074 213.496C191.101 212.39 191.414 211.31 191.983 210.361C192.552 209.412 193.358 208.627 194.321 208.083C195.284 207.538 196.372 207.253 197.478 207.254C197.857 207.258 198.234 207.293 198.606 207.36V68.5101C198.235 68.5875 197.858 68.6309 197.478 68.6397ZM161.123 164.683C147.909 164.683 137.2 153.048 137.2 138.691C137.2 124.334 147.909 112.694 161.123 112.694C174.338 112.694 185.046 124.334 185.046 138.691C185.046 153.048 174.333 164.683 161.123 164.683Z" fill="white" stroke="#263238" stroke-width="0.5" stroke-miterlimit="10"/>
<path d="M216.16 129.648H121.375V146.602H216.16V129.648Z" fill="white" stroke="#263238" stroke-width="0.5" stroke-miterlimit="10"/>
<path d="M216.16 129.648H204.817V146.602H216.16V129.648Z" fill="#3D3D3D" stroke="#8A8A8A" stroke-width="0.5" stroke-miterlimit="10"/>
<path d="M44.5984 212.018L41.8048 216.209L36.3472 220.529V222.31H55.0144L54.376 216.07V213.276C54.376 213.276 46.7584 209.983 44.5984 212.018Z" fill="#263238" stroke="#263238" stroke-width="0.5" stroke-miterlimit="10"/>
<path d="M54.8464 220.654H36.3472V222.305H55.0144L54.8464 220.654Z" fill="white" stroke="#263238" stroke-width="0.5" stroke-miterlimit="10"/>
<path d="M75.4238 212.018L78.3998 216.209L84.2222 220.529V222.31H64.3262L65.003 216.07V213.276C65.003 213.276 73.1246 209.983 75.4238 212.018Z" fill="#263238" stroke="#263238" stroke-width="0.5" stroke-miterlimit="10"/>
<path d="M64.5038 220.654H84.2222V222.305H64.3262L64.5038 220.654Z" fill="white" stroke="#263238" stroke-width="0.5" stroke-miterlimit="10"/>
<path d="M36.2705 125.105C36.2705 125.105 40.6289 174.295 40.9409 183.636C41.2529 192.977 44.2097 205.587 44.2097 205.587L42.8321 207.766L44.2337 212.59C44.2337 212.59 47.5025 211.812 49.2161 212.436C50.9297 213.06 54.0161 213.838 54.0161 213.838C54.0161 213.838 55.5761 209.633 55.7297 207.766C55.8833 205.899 53.8721 201.382 53.8721 201.382L53.5601 145.188H56.3633L63.5153 204.651L63.2033 208.231L64.6049 213.838C64.6049 213.838 72.8561 212.124 73.4753 211.966C73.9483 211.895 74.4317 211.949 74.8769 212.124C74.8769 212.124 75.8369 210.099 75.8369 209.475C75.8369 208.851 74.5889 205.275 74.5889 205.275L74.2769 177.411V124.639L36.2945 123.862L36.2705 125.105Z" fill="#5CB0FF" stroke="#263238" stroke-width="0.5" stroke-miterlimit="10"/>
<path d="M72.9375 146.83L73.7871 165.44L70.1631 165.766V168.075L72.7983 168.238" stroke="#263238" stroke-width="0.5" stroke-linecap="round" stroke-linejoin="round"/>
<path d="M72.3042 132.987L72.8562 145.006" stroke="#263238" stroke-width="0.5" stroke-linecap="round" stroke-linejoin="round"/>
<path d="M70.7197 179.12C70.8397 182.446 71.1037 185.331 71.6461 185.532C72.9661 186.012 73.2925 186.521 73.2925 186.521" stroke="#263238" stroke-width="0.5" stroke-linecap="round" stroke-linejoin="round"/>
<path d="M70.6722 168.732C70.6722 168.732 70.5858 172.937 70.6722 177.142" stroke="#263238" stroke-width="0.5" stroke-linecap="round" stroke-linejoin="round"/>
<path d="M49.7393 143.527L56.3249 144.022" stroke="#263238" stroke-width="0.5" stroke-linecap="round" stroke-linejoin="round"/>
<path d="M51.8799 127.716L52.0431 136.937L55.0095 139.083" stroke="#263238" stroke-width="0.5" stroke-linecap="round" stroke-linejoin="round"/>
<path d="M55.0098 131.009L55.5042 142.375" stroke="#263238" stroke-width="0.5" stroke-linecap="round" stroke-linejoin="round"/>
<path d="M52.9746 183.728L53.1954 195.089" stroke="#263238" stroke-width="0.5" stroke-linecap="round" stroke-linejoin="round"/>
<path d="M52.2061 144.185L52.9212 180.919" stroke="#263238" stroke-width="0.5" stroke-linecap="round" stroke-linejoin="round"/>
<path d="M65.5503 132.492C65.5503 132.492 67.8591 137.268 72.1407 135.785" stroke="#263238" stroke-width="0.5" stroke-linecap="round" stroke-linejoin="round"/>
<path d="M42.491 132.492C42.491 132.492 40.8398 136.116 38.2046 136.611" stroke="#263238" stroke-width="0.5" stroke-linecap="round" stroke-linejoin="round"/>
<path d="M52.2732 70.2173L47.3244 71.7149L43.1772 124.899L65.0508 125.249L66.2028 70.5629L52.2732 70.2173Z" fill="white" stroke="#263238" stroke-width="0.5" stroke-miterlimit="10"/>
<path d="M50.5118 68.1388H49.3502L48.7646 69.6556L48.9998 82.4956L56.2382 77.83L63.3566 84.598L64.2926 69.3052C64.2926 69.3052 64.643 68.6044 63.5918 68.1388C62.5406 67.6732 62.1902 67.5532 62.1902 67.5532L50.5118 68.1388Z" fill="white" stroke="#263238" stroke-width="0.5" stroke-miterlimit="10"/>
<path d="M49.8158 64.3945L50.1662 69.6745C50.1662 69.6745 53.5262 77.0281 55.7678 78.0793C58.0094 79.1305 63.1262 69.3241 63.1262 69.3241L62.7758 63.4873H49.6958L49.8158 64.3945Z" fill="white" stroke="#263238" stroke-width="0.5" stroke-miterlimit="10"/>
<path d="M49.8159 64.3947C49.8159 64.3947 54.0159 73.5147 56.4687 73.8555C58.9215 74.1963 62.8911 65.4459 62.8911 64.6299C62.8911 63.8139 49.8159 64.3947 49.8159 64.3947Z" fill="#263238" stroke="#263238" stroke-width="0.5" stroke-miterlimit="10"/>
<path d="M47.5984 56.5805C47.5984 56.5805 45.5728 54.9197 45.2944 57.2237C45.016 59.5277 47.968 61.6493 47.968 61.6493L47.5984 56.5805Z" fill="white" stroke="#263238" stroke-width="0.5" stroke-miterlimit="10"/>
<path d="M64.0621 56.5805C64.0621 56.5805 66.0925 54.9197 66.3709 57.2237C66.6493 59.5277 63.6973 61.6493 63.6973 61.6493L64.0621 56.5805Z" fill="white" stroke="#263238" stroke-width="0.5" stroke-miterlimit="10"/>
<path d="M47.2291 56.854C47.2291 56.854 48.3379 63.31 49.2595 64.5052C50.1811 65.7004 53.0371 69.8524 55.7107 70.5916C58.3843 71.3308 62.5363 66.166 63.3619 64.414C64.1875 62.662 64.4707 54.9196 64.4707 54.9196L64.3795 50.7724C64.3795 50.7724 64.1011 47.7292 62.9011 46.0684C61.7011 44.4076 56.5411 43.3036 53.1331 44.6188C49.7251 45.934 46.8643 51.8764 46.8643 53.0764C46.8643 54.2764 47.2291 56.854 47.2291 56.854Z" fill="white" stroke="#263238" stroke-width="0.5" stroke-miterlimit="10"/>
<path d="M53.3153 49.6634C53.3153 49.6634 50.4353 52.985 49.1681 53.6282C48.5923 53.8936 48.0371 54.2016 47.5073 54.5498L47.6897 58.4234L46.2161 53.1434C46.2161 53.1434 44.3729 47.5418 44.7521 45.0554C45.1313 42.569 53.5073 40.169 56.4593 39.2474C59.4113 38.3258 60.5153 40.169 62.4497 41.6474C64.3841 43.1258 66.4145 44.2298 66.1409 46.721C65.9025 48.4538 65.4694 50.1542 64.8497 51.7898C64.8497 51.7898 64.3697 58.7018 64.3697 58.9898C64.3697 59.2778 63.5393 52.169 63.5393 52.169C63.0685 52.0453 62.6438 51.7875 62.3166 51.4271C61.9895 51.0667 61.7739 50.6191 61.6961 50.1386C61.451 48.9224 61.2907 47.6907 61.2161 46.4522C61.2161 46.4522 60.0161 48.9434 58.8161 50.1386C57.6161 51.3338 54.6689 52.4426 54.2081 52.3514C53.7473 52.2602 54.6881 50.0474 54.6881 50.0474L53.0273 51.617L53.3153 49.6634Z" fill="#263238" stroke="#263238" stroke-width="0.5" stroke-miterlimit="10"/>
<path d="M54.0542 62.5709C54.5108 62.9771 55.0423 63.2902 55.619 63.4925C56.3582 63.6749 57.6494 62.5709 58.019 62.2925" stroke="#263238" stroke-width="0.5" stroke-miterlimit="10"/>
<path d="M53.7759 65.1529C53.7759 65.1529 55.8975 66.8089 58.7535 64.8745L53.7759 65.1529Z" fill="white"/>
<path d="M53.7759 65.1529C53.7759 65.1529 55.8975 66.8089 58.7535 64.8745" stroke="#263238" stroke-width="0.5" stroke-miterlimit="10"/>
<path d="M52.3456 59.2492C52.677 59.2492 52.9456 58.7958 52.9456 58.2364C52.9456 57.6771 52.677 57.2236 52.3456 57.2236C52.0142 57.2236 51.7456 57.6771 51.7456 58.2364C51.7456 58.7958 52.0142 59.2492 52.3456 59.2492Z" fill="#263238"/>
<path d="M59.3534 59.2492C59.6848 59.2492 59.9534 58.7958 59.9534 58.2364C59.9534 57.6771 59.6848 57.2236 59.3534 57.2236C59.022 57.2236 58.7534 57.6771 58.7534 58.2364C58.7534 58.7958 59.022 59.2492 59.3534 59.2492Z" fill="#263238"/>
<path d="M57.9233 55.0106C58.5176 54.6993 59.1955 54.585 59.859 54.6842C60.5225 54.7834 61.1373 55.0911 61.6145 55.5626" stroke="#263238" stroke-width="0.5" stroke-miterlimit="10"/>
<path d="M53.0366 54.9193C52.567 54.6411 52.0146 54.5368 51.4759 54.6245C50.9372 54.7123 50.4464 54.9865 50.0894 55.3993" stroke="#263238" stroke-width="0.5" stroke-miterlimit="10"/>
<path d="M59.584 59.9881L61.6144 59.5273" stroke="#263238" stroke-width="0.5" stroke-miterlimit="10"/>
<path d="M50.272 59.436L51.9328 59.988" stroke="#263238" stroke-width="0.5" stroke-miterlimit="10"/>
<path d="M48.8798 81.5788L47.8286 131.979L35.8286 131.398L35.1038 130.011C35.1038 130.011 33.4718 130.011 33.2366 128.724C33.0014 127.438 34.8686 99.19 34.8686 99.19L24.5918 98.254L31.4798 84.814C31.4798 84.814 33.5822 75.4732 34.0478 74.7724C34.5134 74.0716 49.1102 69.0508 49.1102 69.0508L48.8798 81.5788Z" fill="#263238" stroke="#263238" stroke-width="0.5" stroke-miterlimit="10"/>
<path d="M63.8274 68.7529L62.1138 132.113L77.5218 131.955L78.1458 129.622L79.701 128.532V123.55C79.701 121.059 76.7442 103.001 76.7442 103.001C76.7442 103.001 84.5298 101.911 84.6834 100.356C84.837 98.8009 81.4146 75.2953 79.5474 73.5817C77.6802 71.8681 63.8274 68.7529 63.8274 68.7529Z" fill="#263238" stroke="#263238" stroke-width="0.5" stroke-miterlimit="10"/>
<path d="M67.6914 104.882L69.741 110.786C69.741 110.786 70.9266 107.935 70.749 106.14C70.5714 104.345 70.5666 103.802 70.029 103.711C69.4914 103.62 67.7922 103.265 67.6914 104.882Z" fill="white" stroke="#263238" stroke-width="0.5" stroke-miterlimit="10"/>
<path d="M47.2095 89.542L53.7711 102.579L60.6927 99.1612L54.8511 85.4092L47.2095 89.542Z" fill="#5CB0FF" stroke="#263238" stroke-width="0.5" stroke-miterlimit="10"/>
<path d="M58.59 98.6377C58.5115 98.4301 58.5178 98.1999 58.6076 97.9969C58.6974 97.7939 58.8635 97.6344 59.07 97.5529C59.1083 97.5483 59.147 97.5483 59.1852 97.5529L54.8652 87.4297C54.8259 87.5243 54.7658 87.6087 54.6894 87.6769C54.6129 87.745 54.5221 87.7951 54.4236 87.8233C54.276 87.8576 54.1215 87.8467 53.9802 87.7919C53.8389 87.7371 53.7175 87.641 53.6316 87.5161L49.0716 89.9689C49.1304 90.0571 49.1742 90.1544 49.2012 90.2569C49.2649 90.4406 49.2665 90.6401 49.2058 90.8248C49.1451 91.0095 49.0254 91.1691 48.8652 91.2793L53.4204 100.298C53.5018 100.208 53.6064 100.142 53.7228 100.106C53.9161 100.07 54.1161 100.103 54.2868 100.201C54.4575 100.299 54.5877 100.454 54.654 100.639L58.6044 98.6905L58.59 98.6377ZM54.6924 96.3049C53.8524 96.5401 52.9452 95.9209 52.662 94.9177C52.3788 93.9145 52.8252 92.9065 53.6604 92.6713C54.4956 92.4361 55.4076 93.0553 55.6908 94.0585C55.974 95.0617 55.5276 96.0649 54.6924 96.3049Z" fill="white" stroke="#263238" stroke-width="0.5" stroke-miterlimit="10"/>
<path d="M50.0176 87.9388L53.5216 102.104L61.0288 100.308L58.384 85.606L50.0176 87.9388Z" fill="#5CB0FF" stroke="#263238" stroke-width="0.5" stroke-miterlimit="10"/>
<path d="M59.0944 99.3388C59.0781 99.2288 59.0837 99.1166 59.1109 99.0087C59.138 98.9009 59.1862 98.7994 59.2526 98.7103C59.3191 98.6211 59.4025 98.5459 59.4981 98.489C59.5937 98.4321 59.6995 98.3947 59.8096 98.3788C59.8479 98.3742 59.8866 98.3742 59.9248 98.3788L58.0048 87.5548C57.9447 87.6378 57.8672 87.7066 57.7776 87.7563C57.688 87.8061 57.5886 87.8356 57.4864 87.8428C57.3339 87.8418 57.185 87.7958 57.0586 87.7103C56.9321 87.6249 56.8338 87.504 56.776 87.3628L51.7552 88.7788C51.7949 88.8783 51.8176 88.9838 51.8224 89.0908C51.8434 89.2842 51.8002 89.4791 51.6996 89.6456C51.599 89.8121 51.4466 89.941 51.2656 90.0124L53.6896 99.8188C53.7886 99.7496 53.905 99.7097 54.0256 99.7036C54.2217 99.7082 54.4095 99.7836 54.5542 99.916C54.699 100.048 54.7908 100.229 54.8128 100.424L59.0992 99.4012L59.0944 99.3388ZM55.792 96.19C54.9232 96.238 54.1744 95.4316 54.1216 94.39C54.0688 93.3484 54.7264 92.47 55.5952 92.422C56.464 92.374 57.208 93.1852 57.2656 94.2268C57.3232 95.2684 56.68 96.1468 55.792 96.19Z" fill="white" stroke="#263238" stroke-width="0.5" stroke-miterlimit="10"/>
<path d="M54.1697 86.8442L53.3633 101.412L61.0673 101.902L62.8529 87.065L54.1697 86.8442Z" fill="#5CB0FF" stroke="#263238" stroke-width="0.5" stroke-miterlimit="10"/>
<path d="M59.5022 100.4C59.5377 100.18 59.6584 99.9829 59.8382 99.8517C60.0179 99.7205 60.2422 99.6655 60.4622 99.6987C60.5023 99.7081 60.5411 99.7226 60.5774 99.7419L61.8926 88.8171C61.8114 88.8801 61.717 88.924 61.6164 88.9456C61.5159 88.9672 61.4118 88.9659 61.3118 88.9419C61.1661 88.8981 61.0369 88.8116 60.9411 88.6935C60.8452 88.5753 60.7871 88.4311 60.7742 88.2795L55.5854 88.1499C55.5947 88.2548 55.585 88.3605 55.5566 88.4619C55.5204 88.6532 55.4224 88.8273 55.2775 88.9574C55.1327 89.0875 54.9491 89.1664 54.755 89.1819L54.1982 99.2619C54.3159 99.2282 54.4406 99.2282 54.5582 99.2619C54.7445 99.3255 54.9015 99.4543 55.0003 99.6246C55.0991 99.7948 55.133 99.995 55.0958 100.188L59.4974 100.467C59.4933 100.444 59.495 100.421 59.5022 100.4ZM57.2846 96.4299C56.4446 96.2187 55.9646 95.2299 56.219 94.2171C56.4734 93.2043 57.3614 92.5563 58.2062 92.7771C59.051 92.9979 59.5214 93.9819 59.2718 94.9947C59.0222 96.0075 58.1294 96.6411 57.2846 96.4299Z" fill="white" stroke="#263238" stroke-width="0.5" stroke-miterlimit="10"/>
<path d="M70.029 101.105C69.1803 100.978 68.3403 100.798 67.5138 100.567C67.1538 100.39 64.5474 99.4874 62.4786 98.4122C60.4098 97.337 58.7058 98.4122 55.7586 98.9498C52.8114 99.4874 51.981 99.6698 51.981 100.39C51.981 101.11 53.5122 101.287 53.5122 101.287C53.5122 101.287 52.0722 101.465 52.7922 102.454C53.2163 103.041 53.8139 103.481 54.501 103.711C54.899 104.371 55.4167 104.951 56.0274 105.42C56.925 106.049 57.5538 106.591 57.5538 106.591C58.1166 107.292 58.865 107.821 59.7138 108.118C60.9714 108.478 68.0706 106.318 68.0706 106.318C68.0706 106.318 70.2258 106.947 70.7682 105.78C71.3106 104.614 70.029 101.105 70.029 101.105Z" fill="white" stroke="#263238" stroke-width="0.5" stroke-linecap="round" stroke-linejoin="round"/>
<path d="M53.4927 101.287C53.4927 101.287 58.8831 101.105 60.5919 100.567" stroke="#263238" stroke-width="0.5" stroke-linecap="round" stroke-linejoin="round"/>
<path d="M54.4814 103.712C55.9673 103.95 57.4695 104.07 58.9742 104.072C59.8603 104.054 60.7267 103.808 61.4894 103.356" stroke="#263238" stroke-width="0.5" stroke-linecap="round" stroke-linejoin="round"/>
<path d="M56.752 105.963C56.752 105.963 59.896 106.923 62.032 106.232" stroke="#263238" stroke-width="0.5" stroke-linecap="round" stroke-linejoin="round"/>
<path d="M72.6977 85.7212L74.4113 99.1084L69.5825 100.51C69.5825 100.51 70.3649 104.556 70.0625 106.428C69.8596 107.872 69.7553 109.329 69.7505 110.787C69.7505 110.787 75.0305 109.073 78.4673 108.761C81.9041 108.449 84.8513 106.894 85.7825 104.403C86.7137 101.912 83.7617 93.3628 83.7617 93.3628" fill="#263238"/>
<path d="M72.6977 85.7212L74.4113 99.1084L69.5825 100.51C69.5825 100.51 70.3649 104.556 70.0625 106.428C69.8596 107.872 69.7553 109.329 69.7505 110.787C69.7505 110.787 75.0305 109.073 78.4673 108.761C81.9041 108.449 84.8513 106.894 85.7825 104.403C86.7137 101.912 83.7617 93.3628 83.7617 93.3628" stroke="#263238" stroke-width="0.5" stroke-miterlimit="10"/>
<path d="M72.0591 100.116L74.4111 99.1082L80.3631 97.5098" stroke="#6B6B6B" stroke-width="0.5" stroke-miterlimit="10"/>
<path d="M74.411 99.1081L72.563 83.2969" stroke="#6B6B6B" stroke-width="0.5" stroke-miterlimit="10"/>
<path d="M43.9744 98.801C43.9744 98.801 42.8992 94.0394 42.448 93.137C41.9968 92.2346 39.568 94.7594 39.3904 95.5658C39.2128 96.3722 43.2544 98.8922 43.9744 98.801Z" fill="white" stroke="#263238" stroke-width="0.5" stroke-miterlimit="10"/>
<path d="M41.6274 88.7788L39.3042 91.5052C39.3042 91.5052 39.9522 95.4988 40.4706 95.6572C40.989 95.8156 44.6946 92.9596 44.6946 92.9596L41.6274 88.7788Z" fill="white" stroke="#263238" stroke-width="0.5" stroke-miterlimit="10"/>
<path d="M45.9423 83.3112C45.9423 83.3112 41.8959 87.2664 41.6223 88.7928C41.3487 90.3192 44.2287 93.1992 44.5887 93.468C44.9487 93.7368 47.5551 91.668 47.6415 91.308C47.7279 90.948 45.9375 88.164 45.9375 88.164C46.7622 88.568 47.5635 89.0184 48.3375 89.5128C48.6063 89.7816 50.3151 92.2104 50.9439 92.028C51.5727 91.8456 51.3039 90.6792 50.9439 89.604C50.5839 88.5288 46.7199 84.9288 46.7199 84.9288L49.3263 85.5576C49.3263 85.5576 52.3839 88.524 53.1039 88.524C53.8239 88.524 53.4639 87.804 53.0127 87.1752C52.5615 86.5464 50.4063 84.0312 49.8687 83.4024C49.3311 82.7736 47.2623 82.4136 46.9887 82.4136C46.7151 82.4136 45.9423 83.3112 45.9423 83.3112Z" fill="white" stroke="#263238" stroke-width="0.5" stroke-linecap="round" stroke-linejoin="round"/>
<path d="M45.9422 88.1643L44.6846 86.9067" stroke="#263238" stroke-width="0.5" stroke-linecap="round" stroke-linejoin="round"/>
<path d="M43.0669 88.4331L46.3021 92.3883" stroke="#263238" stroke-width="0.5" stroke-linecap="round" stroke-linejoin="round"/>
<path d="M39.2127 91.0728C39.2127 91.0728 39.8415 93.228 40.2015 94.5768C40.5615 95.9256 43.9743 98.8008 43.9743 98.8008C43.9743 98.8008 39.1215 103.922 34.8063 106.169C30.4911 108.415 25.4223 107.287 23.8959 105.492C22.3695 103.697 22.9983 98.484 24.2559 97.404C25.5135 96.324 32.8287 94.9368 34.6287 93.948C36.4287 92.9592 39.2127 91.0728 39.2127 91.0728Z" fill="#263238" stroke="#263238" stroke-width="0.5" stroke-miterlimit="10"/>
<path d="M39.2125 91.0728L27.3853 96.852" stroke="#6B6B6B" stroke-width="0.5" stroke-miterlimit="10"/>
<path d="M37.6768 91.8315V86.3115" stroke="#6B6B6B" stroke-width="0.5" stroke-miterlimit="10"/>
<path d="M111.262 213.096C111.262 213.096 109.822 213.504 105.982 210.658C102.142 207.811 97.6494 203.746 97.6494 203.746C97.6494 203.746 102.085 203.15 104.134 202.07C106.39 200.875 109.03 198.053 109.03 198.053C109.03 198.053 117.973 210.25 129.157 209.438C128.963 210.478 128.509 211.452 127.837 212.269C127.166 213.087 126.299 213.721 125.317 214.114C121.832 215.534 111.262 213.096 111.262 213.096Z" fill="#5CB0FF" stroke="#263238" stroke-width="0.5" stroke-linejoin="round"/>
<path d="M125.773 210.835C125.773 210.835 116.279 208.344 111.147 202.896C110.9 202.963 110.641 202.975 110.389 202.93C110.136 202.885 109.897 202.784 109.689 202.636C109.48 202.487 109.307 202.293 109.183 202.069C109.058 201.845 108.985 201.597 108.968 201.341C107.174 203.025 104.874 204.07 102.426 204.312C102.426 204.312 102.579 205.402 102.114 205.714C102.114 205.714 109.429 212.098 113.634 212.875C116.552 213.459 119.54 213.621 122.504 213.355C123.784 213.22 124.987 212.675 125.931 211.8C125.931 211.8 124.371 211.459 125.773 210.835ZM116.807 210.485C116.466 211.325 114.771 211.445 113.019 210.715C111.267 209.986 110.139 208.752 110.456 207.917C110.773 207.082 112.491 206.957 114.243 207.686C115.995 208.416 117.143 209.65 116.807 210.485Z" fill="white" stroke="#263238" stroke-width="0.5" stroke-miterlimit="10"/>
<path d="M109.822 212.842C109.822 212.842 114.718 214.858 118.582 214.858C120.844 214.871 123.099 214.621 125.302 214.114C125.302 214.114 123.982 214.834 121.837 213.456C120.613 212.669 119.825 210.917 119.825 210.917C116.596 212.019 113.23 212.667 109.822 212.842Z" fill="#5CB0FF" stroke="#263238" stroke-width="0.5" stroke-linejoin="round"/>
<path d="M164.821 192.341C164.821 192.341 173.734 189.408 178.947 185.928L184.491 195.048C184.491 195.048 171.234 205.372 167.754 202.656L164.821 192.341Z" fill="#5CB0FF" stroke="#263238" stroke-width="0.5" stroke-linejoin="round"/>
<path d="M180.69 194.515C180.701 194.252 180.797 194 180.964 193.797C181.132 193.593 181.36 193.449 181.616 193.387L179.154 189.302C178.948 189.372 178.732 189.408 178.515 189.408C178.251 189.422 177.988 189.372 177.748 189.261C177.508 189.151 177.299 188.984 177.138 188.774C172.534 191.995 165.474 193.646 165.474 193.646L166.885 199.19C166.885 199.19 166.669 202.234 170.47 201.47C173.418 200.88 178.962 197.15 181.318 195.523C181.133 195.427 180.977 195.282 180.867 195.105C180.756 194.928 180.695 194.724 180.69 194.515ZM171.19 198.595C169.525 198.974 167.974 198.408 167.725 197.328C167.475 196.248 168.627 195.058 170.293 194.674C171.958 194.29 173.514 194.861 173.763 195.941C174.013 197.021 172.861 198.211 171.19 198.595Z" fill="white" stroke="#263238" stroke-width="0.5" stroke-miterlimit="10"/>
<path d="M163.515 188.213L169.601 200.275C169.601 200.275 167.537 201.36 167.753 202.675L161.888 191.155C161.888 191.155 161.125 189.298 163.515 188.213Z" fill="#5CB0FF" stroke="#263238" stroke-width="0.5" stroke-linejoin="round"/>
<path d="M162.406 192.168L166.928 201.038C167.12 200.612 167.462 200.271 167.888 200.078L162.862 191.256L162.406 192.168Z" fill="white" stroke="#263238" stroke-width="0.5" stroke-miterlimit="10"/>
<path d="M97.4624 125.011L97.5584 148.133L109.626 148.08L109.664 124.488L97.4624 125.011Z" fill="#5CB0FF" stroke="#263238" stroke-width="0.5" stroke-miterlimit="10"/>
<path d="M106.981 145.863C106.991 145.69 107.036 145.521 107.112 145.366C107.189 145.211 107.295 145.072 107.426 144.959C107.556 144.845 107.708 144.759 107.872 144.705C108.037 144.65 108.21 144.63 108.382 144.643C108.443 144.656 108.502 144.674 108.56 144.696L108.536 127.095C108.429 127.191 108.302 127.262 108.164 127.303C108.026 127.343 107.881 127.353 107.739 127.33C107.528 127.278 107.336 127.165 107.188 127.006C107.039 126.846 106.941 126.647 106.904 126.432L99.6272 126.744C99.6509 126.894 99.6509 127.046 99.6272 127.195C99.603 127.469 99.4883 127.726 99.3014 127.927C99.1145 128.128 98.866 128.26 98.5952 128.304V144.624C98.7717 144.553 98.9642 144.532 99.152 144.562C99.4512 144.649 99.7107 144.837 99.8859 145.095C100.061 145.352 100.141 145.663 100.112 145.973L107.005 145.944C106.981 145.906 106.976 145.882 106.981 145.863ZM102.987 139.786C101.648 139.541 100.765 138.019 101.014 136.383C101.264 134.746 102.565 133.618 103.894 133.867C105.224 134.117 106.122 135.634 105.867 137.271C105.613 138.907 104.312 140.035 102.987 139.786Z" fill="white" stroke="#263238" stroke-width="0.5" stroke-miterlimit="10"/>
<path d="M210.296 27.1777L193.467 44.0065L202.251 52.7905L219.522 35.7217L210.296 27.1777Z" fill="#5CB0FF" stroke="#263238" stroke-width="0.5" stroke-miterlimit="10"/>
<path d="M201.953 49.2721C202.087 49.1524 202.244 49.0608 202.414 49.0028C202.584 48.9449 202.764 48.9217 202.943 48.9347C203.122 48.9477 203.297 48.9966 203.457 49.0784C203.616 49.1603 203.758 49.2735 203.873 49.4113C203.91 49.4656 203.94 49.5235 203.965 49.5841L216.805 36.7921C216.656 36.7844 216.511 36.7433 216.381 36.6718C216.25 36.6003 216.138 36.5003 216.051 36.3793C215.936 36.1866 215.88 35.9645 215.889 35.7402C215.898 35.5159 215.973 35.2993 216.104 35.1169L210.593 30.0049C210.499 30.1303 210.388 30.2418 210.262 30.3361C210.045 30.5171 209.773 30.6198 209.49 30.6276C209.207 30.6354 208.929 30.548 208.702 30.3793L196.765 42.1873C196.944 42.2616 197.098 42.3847 197.211 42.5425C197.369 42.8237 197.423 43.1514 197.363 43.4682C197.303 43.785 197.134 44.0708 196.885 44.2753L201.901 49.2961L201.953 49.2721ZM203.489 41.9377C202.693 40.7809 203.168 39.0289 204.545 38.0257C205.923 37.0225 207.689 37.1569 208.481 38.3137C209.273 39.4705 208.798 41.2273 207.421 42.2257C206.043 43.2241 204.267 43.0753 203.489 41.9137V41.9377Z" fill="white" stroke="#263238" stroke-width="0.5" stroke-miterlimit="10"/>
<path d="M94.3474 97.7232L117.762 88.464L112.928 76.2432L88.981 85.5504L94.3474 97.7232Z" fill="#5CB0FF" stroke="#263238" stroke-width="0.5" stroke-miterlimit="10"/>
<path d="M111.723 79.8046C110.874 79.9918 110.072 79.5742 109.933 78.8446C109.928 78.7759 109.928 78.7069 109.933 78.6382L92.0816 85.6366C92.2227 85.7069 92.346 85.8082 92.4424 85.9329C92.5388 86.0576 92.6058 86.2024 92.6384 86.3566C92.6686 86.5914 92.6297 86.8299 92.5266 87.043C92.4234 87.2561 92.2605 87.4346 92.0576 87.5566L95.2496 94.8718C95.4002 94.7896 95.5618 94.7298 95.7296 94.6942C96.0162 94.6097 96.3229 94.6238 96.6006 94.7344C96.8782 94.8449 97.1107 95.0454 97.2608 95.3038L113.816 88.8622C113.672 88.7156 113.574 88.5306 113.533 88.3294C113.495 87.9895 113.58 87.6473 113.772 87.3641C113.963 87.0809 114.25 86.8752 114.579 86.7838L111.814 79.7998L111.723 79.8046ZM107.154 86.2798C107.437 87.7198 106.242 89.2414 104.48 89.6398C102.718 90.0382 101.067 89.1598 100.784 87.7198C100.501 86.2798 101.696 84.763 103.458 84.3598C105.219 83.9566 106.87 84.8206 107.154 86.2798Z" fill="white" stroke="#263238" stroke-width="0.5" stroke-miterlimit="10"/>
<path d="M176.989 27.1007C176.989 27.1007 178.429 27.4799 180.281 31.9007C182.134 36.3215 183.91 42.1007 183.91 42.1007C183.91 42.1007 179.792 40.3439 177.478 40.2239C174.925 40.0943 171.214 41.1839 171.214 41.1839C171.214 41.1839 169.774 26.1263 159.747 21.1103C160.445 20.3078 161.335 19.696 162.334 19.3324C163.334 18.9689 164.409 18.8654 165.459 19.0319C169.155 19.5983 176.989 27.1007 176.989 27.1007Z" fill="#5CB0FF" stroke="#263238" stroke-width="0.5" stroke-linejoin="round"/>
<path d="M163.366 21.6193C163.366 21.6193 170.249 28.6321 171.877 35.9233C172.123 35.9927 172.351 36.1159 172.544 36.284C172.738 36.4521 172.891 36.661 172.994 36.8956C173.097 37.1301 173.146 37.3846 173.139 37.6406C173.132 37.8966 173.068 38.1478 172.952 38.3761C175.354 37.8547 177.862 38.1415 180.085 39.1921C180.085 39.1921 180.507 38.1745 181.069 38.1457C181.069 38.1457 178.045 28.9201 174.829 26.1025C172.615 24.1104 170.127 22.4455 167.441 21.1585C166.271 20.6236 164.961 20.4789 163.702 20.7457C163.702 20.7457 164.907 21.8017 163.366 21.6193ZM170.893 26.5057C171.608 25.9633 173.12 26.7409 174.253 28.2481C175.385 29.7553 175.741 31.4161 175.021 31.9633C174.301 32.5105 172.793 31.7281 171.661 30.2209C170.528 28.7137 170.187 27.0529 170.893 26.5057Z" fill="white" stroke="#263238" stroke-width="0.5" stroke-miterlimit="10"/>
<path d="M178.097 28.0562C178.097 28.0562 174.92 23.8322 171.598 21.8402C169.667 20.671 167.607 19.7288 165.459 19.0322C165.459 19.0322 166.961 19.0898 168.099 21.3698C168.747 22.6754 168.531 24.581 168.531 24.581C171.865 25.2918 175.085 26.4613 178.097 28.0562Z" fill="#5CB0FF" stroke="#263238" stroke-width="0.5" stroke-linejoin="round"/>
<path d="M52.7744 15L55.0928 23.496C55.0928 23.496 43.5056 32.0784 26 29.6736L26.96 20.4912C26.96 20.4912 33.824 21.864 40.088 20.5776C46.352 19.2912 52.7744 15 52.7744 15Z" fill="#5CB0FF" stroke="#263238" stroke-width="0.5" stroke-miterlimit="10"/>
<path d="M51.4495 23.1215C51.4737 22.9126 51.5611 22.7161 51.7001 22.5582C51.8391 22.4004 52.023 22.2888 52.2271 22.2383L50.8591 18.4607C50.6595 18.5275 50.4504 18.5616 50.2399 18.5615C49.8778 18.5675 49.5231 18.4582 49.2271 18.2495C47.3071 19.2575 43.7023 21.0143 40.1071 21.7583C36.8323 22.3459 33.4924 22.4816 30.1807 22.1615C30.0525 22.2989 29.8946 22.4054 29.7192 22.4727C29.5437 22.5401 29.3552 22.5666 29.1679 22.5503L28.7119 27.6959C28.8271 27.6959 28.9471 27.6959 29.0671 27.6959C30.0271 27.6959 30.7807 27.9839 30.7807 28.3391C30.7747 28.3961 30.7556 28.4509 30.7247 28.4993C30.6939 28.5476 30.6523 28.5881 30.6031 28.6175C41.7247 29.0399 49.5103 25.1951 51.8719 23.8511C51.7466 23.774 51.6423 23.667 51.5686 23.5396C51.4949 23.4123 51.454 23.2686 51.4495 23.1215ZM40.4431 25.8047C38.7439 26.1455 37.2559 25.8575 37.1167 25.1615C36.9775 24.4655 38.2399 23.6303 39.9391 23.2895C41.6383 22.9487 43.1263 23.2367 43.2655 23.9327C43.4047 24.6287 42.1423 25.4639 40.4431 25.8047Z" fill="white" stroke="#263238" stroke-width="0.5" stroke-miterlimit="10"/>
<path d="M209.105 204.202L211.419 212.698C211.419 212.698 199.837 221.28 182.326 218.875L183.286 209.693C183.286 209.693 190.15 211.066 196.419 209.779C202.688 208.493 209.105 204.202 209.105 204.202Z" fill="#5CB0FF" stroke="#263238" stroke-width="0.5" stroke-miterlimit="10"/>
<path d="M207.776 212.328C207.799 212.118 207.886 211.921 208.026 211.762C208.165 211.603 208.349 211.491 208.554 211.44L207.186 207.672C206.985 207.735 206.777 207.767 206.567 207.768C206.197 207.778 205.834 207.67 205.53 207.461C203.653 208.464 200.029 210.221 196.439 210.965C193.164 211.553 189.824 211.688 186.512 211.368C186.384 211.506 186.226 211.612 186.051 211.679C185.875 211.747 185.687 211.773 185.499 211.757L185.067 216.903C185.183 216.903 185.303 216.903 185.427 216.903C186.387 216.903 187.136 217.186 187.136 217.541C187.13 217.598 187.111 217.653 187.08 217.701C187.049 217.749 187.008 217.79 186.959 217.819C198.08 218.247 205.866 214.402 208.232 213.053C208.101 212.98 207.991 212.876 207.911 212.749C207.831 212.622 207.785 212.478 207.776 212.328ZM196.77 215.007C195.071 215.347 193.583 215.059 193.443 214.368C193.304 213.677 194.567 212.832 196.266 212.491C197.965 212.151 199.453 212.443 199.592 213.135C199.731 213.826 198.469 214.671 196.77 215.007Z" fill="white" stroke="#263238" stroke-width="0.5" stroke-miterlimit="10"/>
<path d="M87.7427 25.8288C87.7427 25.8288 96.6515 22.896 101.869 19.416L107.413 28.536C107.413 28.536 94.1555 38.8704 90.6755 36.1536L87.7427 25.8288Z" fill="#5CB0FF" stroke="#263238" stroke-width="0.5" stroke-linejoin="round"/>
<path d="M103.606 28.0035C103.619 27.7401 103.716 27.4877 103.884 27.2843C104.052 27.081 104.281 26.9375 104.537 26.8755L102.07 22.7907C101.866 22.8612 101.652 22.8969 101.437 22.8963C101.173 22.9104 100.91 22.8602 100.67 22.7498C100.429 22.6394 100.22 22.4722 100.059 22.2627C95.4558 25.4835 88.395 27.1347 88.395 27.1347L89.8062 32.6787C89.8062 32.6787 89.5902 35.7219 93.3918 34.9587C96.3342 34.3683 101.878 30.6387 104.24 29.0115C104.054 28.9155 103.897 28.7713 103.785 28.594C103.674 28.4167 103.612 28.2128 103.606 28.0035ZM94.1118 32.0835C92.4462 32.4627 90.891 31.8963 90.6462 30.8163C90.4014 29.7363 91.5486 28.5459 93.2142 28.1619C94.8798 27.7779 96.435 28.3491 96.6846 29.4339C96.9342 30.5187 95.787 31.6995 94.1118 32.0835Z" fill="white" stroke="#263238" stroke-width="0.5" stroke-miterlimit="10"/>
<path d="M86.4367 21.7007L92.5231 33.7631C92.5231 33.7631 90.4591 34.8479 90.6751 36.1631L84.8047 24.6431C84.8047 24.6431 84.0463 22.7855 86.4367 21.7007Z" fill="#5CB0FF" stroke="#263238" stroke-width="0.5" stroke-linejoin="round"/>
<path d="M85.3281 25.6561L89.8449 34.5265C90.0373 34.1003 90.3787 33.7589 90.8049 33.5665L85.7841 24.7441L85.3281 25.6561Z" fill="white" stroke="#263238" stroke-width="0.5" stroke-miterlimit="10"/>
<path d="M162.272 79.3296L145.443 96.1584L154.227 104.938L171.503 87.8688L162.272 79.3296Z" fill="#5CB0FF" stroke="#263238" stroke-width="0.5" stroke-miterlimit="10"/>
<path d="M153.934 101.4C154.068 101.28 154.225 101.189 154.395 101.131C154.565 101.073 154.744 101.05 154.924 101.063C155.103 101.076 155.277 101.124 155.437 101.206C155.597 101.288 155.739 101.401 155.854 101.539C155.889 101.594 155.918 101.652 155.94 101.712L168.795 88.9343C168.647 88.9281 168.502 88.8875 168.372 88.8159C168.242 88.7443 168.131 88.6435 168.046 88.5215C167.93 88.3293 167.873 88.1074 167.882 87.8832C167.89 87.6589 167.964 87.442 168.094 87.2591L162.584 82.1567C162.491 82.2818 162.379 82.3919 162.252 82.4831C162.036 82.6657 161.764 82.7697 161.481 82.7784C161.198 82.7871 160.92 82.7 160.692 82.5311L148.755 94.3343C148.934 94.4109 149.089 94.5355 149.201 94.6943C149.359 94.9755 149.413 95.3032 149.353 95.6201C149.293 95.9369 149.124 96.2226 148.875 96.4271L153.867 101.443L153.934 101.4ZM155.465 94.0655C154.673 92.9039 155.148 91.1567 156.526 90.1535C157.904 89.1503 159.665 89.2847 160.457 90.4415C161.249 91.5983 160.779 93.3503 159.396 94.3535C158.014 95.3567 156.267 95.2223 155.465 94.0655Z" fill="white" stroke="#263238" stroke-width="0.5" stroke-miterlimit="10"/>
<path d="M193.035 120.389L216.032 122.789L217.28 110.789L193.832 108.202L193.035 120.389Z" fill="#5CB0FF" stroke="#263238" stroke-width="0.5" stroke-miterlimit="10"/>
<path d="M214.789 113.174C214.618 113.145 214.456 113.083 214.31 112.99C214.164 112.898 214.038 112.777 213.939 112.636C213.841 112.494 213.771 112.334 213.735 112.165C213.698 111.997 213.696 111.822 213.728 111.653C213.748 111.593 213.774 111.535 213.805 111.48L196.299 109.603C196.384 109.72 196.441 109.854 196.467 109.996C196.493 110.139 196.486 110.285 196.448 110.424C196.375 110.625 196.246 110.801 196.076 110.931C195.905 111.06 195.701 111.137 195.488 111.153L195.008 118.435C195.16 118.43 195.312 118.446 195.459 118.483C195.729 118.537 195.972 118.68 196.152 118.889C196.331 119.098 196.435 119.36 196.448 119.635L212.657 121.416C212.605 121.234 212.605 121.041 212.657 120.859C212.773 120.568 212.987 120.326 213.263 120.177C213.538 120.028 213.858 119.98 214.165 120.043L214.875 113.189L214.789 113.174ZM208.318 116.534C207.929 117.84 206.321 118.555 204.723 118.128C203.125 117.701 202.141 116.289 202.529 114.984C202.918 113.678 204.531 112.963 206.129 113.39C207.728 113.817 208.707 115.2 208.318 116.51V116.534Z" fill="white" stroke="#263238" stroke-width="0.5" stroke-miterlimit="10"/>
<path d="M219.234 142.118C219.234 142.118 220.674 142.497 222.526 146.918C224.379 151.339 226.15 157.118 226.15 157.118C226.15 157.118 222.037 155.361 219.718 155.241C217.17 155.112 213.478 156.201 213.478 156.201C213.478 156.201 212.038 141.144 202.011 136.128C202.712 135.332 203.603 134.727 204.601 134.369C205.599 134.011 206.672 133.913 207.718 134.083C211.395 134.616 219.234 142.118 219.234 142.118Z" fill="#5CB0FF" stroke="#263238" stroke-width="0.5" stroke-linejoin="round"/>
<path d="M205.606 136.632C205.606 136.632 212.494 143.631 214.122 150.941C214.369 151.009 214.597 151.131 214.791 151.299C214.985 151.466 215.138 151.675 215.241 151.909C215.344 152.144 215.394 152.398 215.386 152.654C215.378 152.91 215.314 153.161 215.197 153.389C217.597 152.865 220.103 153.148 222.325 154.195C222.325 154.195 222.752 153.178 223.309 153.149C223.309 153.149 220.29 143.923 217.069 141.106C214.859 139.11 212.375 137.442 209.691 136.152C208.521 135.617 207.21 135.473 205.952 135.739C205.952 135.739 207.147 136.819 205.606 136.632ZM213.133 141.519C213.853 140.976 215.36 141.754 216.493 143.261C217.626 144.768 217.981 146.429 217.261 146.976C216.541 147.523 215.034 146.741 213.901 145.234C212.768 143.727 212.427 142.071 213.133 141.523V141.519Z" fill="white" stroke="#263238" stroke-width="0.5" stroke-miterlimit="10"/>
<path d="M220.338 143.074C220.338 143.074 217.16 138.835 213.843 136.858C211.91 135.694 209.848 134.759 207.699 134.069C207.699 134.069 209.206 134.126 210.339 136.406C210.992 137.712 210.771 139.618 210.771 139.618C214.105 140.322 217.324 141.485 220.338 143.074Z" fill="#5CB0FF" stroke="#263238" stroke-width="0.5" stroke-linejoin="round"/>
<path d="M208.107 86.6303C208.107 86.6303 200.336 91.8863 196.266 96.6575L188.427 89.3903C188.427 89.3903 198.358 75.8351 202.448 77.5007L208.107 86.6303Z" fill="#5CB0FF" stroke="#263238" stroke-width="0.5" stroke-linejoin="round"/>
<path d="M192.267 88.8768C192.328 89.1326 192.303 89.4013 192.198 89.6421C192.092 89.8829 191.911 90.0827 191.681 90.2112L195.166 93.4704C195.345 93.3479 195.543 93.2554 195.752 93.1968C196.001 93.1108 196.268 93.0869 196.529 93.1271C196.79 93.1672 197.037 93.2702 197.249 93.4272C200.801 89.0736 207.142 85.5552 207.142 85.5552L204.262 80.6064C204.262 80.6064 203.638 77.6208 200.187 79.392C197.518 80.7648 193.198 85.848 191.379 88.08C191.585 88.1206 191.776 88.216 191.933 88.3563C192.089 88.4965 192.204 88.6764 192.267 88.8768ZM200.288 82.3584C201.785 81.5328 203.437 81.6576 203.969 82.6272C204.502 83.5968 203.72 85.0608 202.222 85.8816C200.725 86.7024 199.073 86.5824 198.536 85.608C197.998 84.6336 198.771 83.1792 200.273 82.3584H200.288Z" fill="white" stroke="#263238" stroke-width="0.5" stroke-miterlimit="10"/>
<path d="M210.507 90.245L201.358 80.3042C201.358 80.3042 203.048 78.6962 202.482 77.501L211.275 86.9762C211.275 86.9762 212.494 88.5458 210.507 90.245Z" fill="#5CB0FF" stroke="#263238" stroke-width="0.5" stroke-linejoin="round"/>
<path d="M210.479 86.1358L203.711 78.8398C203.649 79.3035 203.422 79.7294 203.072 80.0398L210.272 87.139L210.479 86.1358Z" fill="white" stroke="#263238" stroke-width="0.5" stroke-miterlimit="10"/>
</svg>
