<svg width="240" height="240" viewBox="0 0 240 240" fill="none" xmlns="http://www.w3.org/2000/svg">
<path d="M221.338 54.0962C220.579 52.8162 219.779 51.5522 218.938 50.3042C207.84 33.8162 188.669 22.5602 169.834 17.4434C161.57 15.2447 153.08 14.0062 144.533 13.7522C88.5551 11.8322 66.2639 55.9682 47.7599 67.3538C29.2559 78.7394 0.801523 98.189 2.69752 138.984C4.59352 179.779 34.0079 218.184 90.9311 220.584C147.854 222.984 151.646 197.338 183.432 187.853C204.461 181.575 219.432 160.368 226.723 140.77C236.698 114.053 236.227 79.3586 221.338 54.0962Z" fill="#5CB0FF"/>
<path opacity="0.7" d="M221.338 54.0962C220.579 52.8162 219.779 51.5522 218.938 50.3042C207.84 33.8162 188.669 22.5602 169.834 17.4434C161.57 15.2447 153.08 14.0062 144.533 13.7522C88.5551 11.8322 66.2639 55.9682 47.7599 67.3538C29.2559 78.7394 0.801523 98.189 2.69752 138.984C4.59352 179.779 34.0079 218.184 90.9311 220.584C147.854 222.984 151.646 197.338 183.432 187.853C204.461 181.575 219.432 160.368 226.723 140.77C236.698 114.053 236.227 79.3586 221.338 54.0962Z" fill="white"/>
<path d="M171.178 57.2832H70.3583C68.7466 57.2832 67.4399 58.5898 67.4399 60.2016V212.285C67.4399 213.897 68.7466 215.203 70.3583 215.203H171.178C172.789 215.203 174.096 213.897 174.096 212.285V60.2016C174.096 58.5898 172.789 57.2832 171.178 57.2832Z" fill="#263238" stroke="#263238" stroke-width="0.5" stroke-linecap="round" stroke-linejoin="round"/>
<path d="M168.672 60.8447H72.8589V209.122H168.672V60.8447Z" fill="white" stroke="#263238" stroke-width="0.5" stroke-linecap="round" stroke-linejoin="round"/>
<path d="M128.832 44.8414C128.617 44.8414 128.41 44.7559 128.258 44.6038C128.106 44.4517 128.02 44.2453 128.02 44.0302V39.4462C128.02 39.2182 127.975 38.9925 127.888 38.782C127.801 38.5714 127.673 38.3802 127.511 38.2192C127.35 38.0582 127.158 37.9307 126.947 37.8439C126.737 37.7571 126.511 37.7128 126.283 37.7134H118.896C118.668 37.7128 118.442 37.7571 118.232 37.844C118.021 37.9309 117.83 38.0585 117.669 38.2195C117.508 38.3805 117.38 38.5718 117.293 38.7823C117.207 38.9928 117.162 39.2185 117.163 39.4462V44.0302C117.163 44.1371 117.142 44.243 117.101 44.3417C117.06 44.4405 116.999 44.5301 116.924 44.6055C116.848 44.6809 116.758 44.7405 116.659 44.781C116.56 44.8215 116.454 44.842 116.347 44.8414C116.24 44.8414 116.134 44.8625 116.035 44.9036C115.937 44.9447 115.847 45.0048 115.772 45.0807C115.696 45.1565 115.637 45.2465 115.596 45.3455C115.556 45.4445 115.535 45.5505 115.536 45.6574V58.0798H129.648V45.6574C129.648 45.5502 129.627 45.4441 129.586 45.3451C129.545 45.2461 129.484 45.1562 129.409 45.0804C129.333 45.0046 129.243 44.9445 129.144 44.9035C129.045 44.8625 128.939 44.8414 128.832 44.8414ZM122.592 44.4142C122.142 44.4142 121.702 44.2807 121.328 44.0307C120.953 43.7807 120.662 43.4254 120.49 43.0097C120.317 42.5939 120.272 42.1365 120.36 41.6951C120.448 41.2538 120.665 40.8484 120.983 40.5302C121.301 40.212 121.706 39.9953 122.148 39.9075C122.589 39.8197 123.047 39.8648 123.462 40.037C123.878 40.2092 124.233 40.5008 124.483 40.875C124.733 41.2491 124.867 41.689 124.867 42.139C124.866 42.742 124.625 43.32 124.199 43.7464C123.773 44.1728 123.195 44.4129 122.592 44.4142Z" fill="#263238" stroke="#263238" stroke-width="0.5" stroke-linecap="round" stroke-linejoin="round"/>
<path d="M104.702 54.1294H140.477C141.578 54.1294 142.634 54.5668 143.413 55.3455C144.191 56.1241 144.629 57.1802 144.629 58.2814V61.9486H100.55V58.2814C100.55 57.1802 100.988 56.1241 101.766 55.3455C102.545 54.5668 103.601 54.1294 104.702 54.1294Z" fill="white" stroke="#263238" stroke-width="0.5" stroke-linecap="round" stroke-linejoin="round"/>
<path d="M101.645 55.483H143.52C143.132 55.0567 142.659 54.7161 142.132 54.483C141.605 54.2499 141.034 54.1295 140.458 54.1294H104.703C104.127 54.1296 103.557 54.2501 103.031 54.4832C102.504 54.7163 102.032 55.0568 101.645 55.483Z" fill="#263238" stroke="#263238" stroke-width="0.5" stroke-linecap="round" stroke-linejoin="round"/>
<path d="M144.629 61.9102H100.55V64.4782H144.629V61.9102Z" fill="white" stroke="#263238" stroke-width="0.5" stroke-linecap="round" stroke-linejoin="round"/>
<path d="M134.146 86.3999H141.586" stroke="#263238" stroke-width="0.5" stroke-miterlimit="10"/>
<path d="M82.5459 86.3999H128.386" stroke="#263238" stroke-width="0.5" stroke-miterlimit="10"/>
<path d="M123.106 92.1602H141.586" stroke="#263238" stroke-width="0.5" stroke-miterlimit="10"/>
<path d="M94.7861 92.1602H118.066" stroke="#263238" stroke-width="0.5" stroke-miterlimit="10"/>
<path d="M82.5459 92.1602H90.4659" stroke="#263238" stroke-width="0.5" stroke-miterlimit="10"/>
<path d="M105.586 97.9199H141.586" stroke="#263238" stroke-width="0.5" stroke-miterlimit="10"/>
<path d="M82.5459 97.9199H97.6659" stroke="#263238" stroke-width="0.5" stroke-miterlimit="10"/>
<path d="M158.626 97.9199C162.072 97.9199 164.866 95.1262 164.866 91.6799C164.866 88.2337 162.072 85.4399 158.626 85.4399C155.179 85.4399 152.386 88.2337 152.386 91.6799C152.386 95.1262 155.179 97.9199 158.626 97.9199Z" stroke="#263238" stroke-width="0.5" stroke-miterlimit="10"/>
<path d="M89.9859 112.08H82.5459" stroke="#263238" stroke-width="0.5" stroke-miterlimit="10"/>
<path d="M141.586 112.08H95.7461" stroke="#263238" stroke-width="0.5" stroke-miterlimit="10"/>
<path d="M101.026 117.84H82.5459" stroke="#263238" stroke-width="0.5" stroke-miterlimit="10"/>
<path d="M129.346 117.84H106.066" stroke="#263238" stroke-width="0.5" stroke-miterlimit="10"/>
<path d="M141.586 117.84H133.666" stroke="#263238" stroke-width="0.5" stroke-miterlimit="10"/>
<path d="M118.546 123.6H82.5459" stroke="#263238" stroke-width="0.5" stroke-miterlimit="10"/>
<path d="M141.586 123.6H126.466" stroke="#263238" stroke-width="0.5" stroke-miterlimit="10"/>
<path d="M158.626 123.6C162.072 123.6 164.866 120.806 164.866 117.36C164.866 113.914 162.072 111.12 158.626 111.12C155.179 111.12 152.386 113.914 152.386 117.36C152.386 120.806 155.179 123.6 158.626 123.6Z" stroke="#263238" stroke-width="0.5" stroke-miterlimit="10"/>
<path d="M134.146 137.76H141.586" stroke="#263238" stroke-width="0.5" stroke-miterlimit="10"/>
<path d="M82.5459 137.76H128.386" stroke="#263238" stroke-width="0.5" stroke-miterlimit="10"/>
<path d="M123.106 143.52H141.586" stroke="#263238" stroke-width="0.5" stroke-miterlimit="10"/>
<path d="M94.7861 143.52H118.066" stroke="#263238" stroke-width="0.5" stroke-miterlimit="10"/>
<path d="M82.5459 143.52H90.4659" stroke="#263238" stroke-width="0.5" stroke-miterlimit="10"/>
<path d="M105.586 149.28H141.586" stroke="#263238" stroke-width="0.5" stroke-miterlimit="10"/>
<path d="M82.5459 149.28H97.6659" stroke="#263238" stroke-width="0.5" stroke-miterlimit="10"/>
<path d="M158.626 149.28C162.072 149.28 164.866 146.486 164.866 143.04C164.866 139.594 162.072 136.8 158.626 136.8C155.179 136.8 152.386 139.594 152.386 143.04C152.386 146.486 155.179 149.28 158.626 149.28Z" stroke="#263238" stroke-width="0.5" stroke-miterlimit="10"/>
<path d="M156.25 116.323L157.944 119.338L164.352 113.122" stroke="#5CB0FF" stroke-width="0.5" stroke-miterlimit="10" stroke-linecap="round"/>
<path d="M156.25 90.3696L157.944 93.3888L164.352 87.168" stroke="#5CB0FF" stroke-width="0.5" stroke-miterlimit="10" stroke-linecap="round"/>
<path d="M155.352 140.808L157.046 143.827L163.454 137.606" stroke="#5CB0FF" stroke-width="0.5" stroke-miterlimit="10" stroke-linecap="round"/>
<path d="M92.6306 191.448L87.749 221.05L95.2322 212.592L103.363 221.376L100.435 190.795L92.6306 191.448Z" fill="#5CB0FF" stroke="#263238" stroke-width="0.5" stroke-miterlimit="10"/>
<path d="M96.8691 191.698L98.1123 221.674L103.719 211.872L113.468 218.818L104.386 189.471L96.8691 191.698Z" fill="#5CB0FF" stroke="#263238" stroke-width="0.5" stroke-miterlimit="10"/>
<path d="M115.094 185.28C115.094 184.416 116.942 183.427 116.822 182.597C116.702 181.767 114.648 181.315 114.422 180.509C114.197 179.703 115.675 178.215 115.32 177.447C114.965 176.679 112.877 176.837 112.44 176.122C112.003 175.407 112.997 173.573 112.44 172.935C111.883 172.296 109.925 173.04 109.282 172.483C108.638 171.927 109.104 169.882 108.389 169.416C107.674 168.951 105.989 170.227 105.23 169.872C104.472 169.517 104.328 167.429 103.507 167.184C102.686 166.939 101.458 168.624 100.627 168.519C99.7969 168.413 99.0817 166.426 98.2273 166.426C97.3729 166.426 96.6481 168.399 95.8273 168.519C95.0065 168.639 93.7393 166.949 92.9473 167.184C92.1553 167.419 91.9873 169.522 91.2241 169.872C90.4609 170.223 88.7809 168.96 88.0657 169.416C87.3505 169.872 87.8161 171.927 87.1729 172.483C86.5297 173.04 84.5713 172.291 84.0097 172.935C83.4481 173.578 84.4897 175.407 84.0097 176.127C83.5297 176.847 81.4561 176.669 81.1009 177.447C80.7457 178.224 82.2433 179.683 82.0033 180.509C81.7633 181.335 79.7137 181.743 79.6033 182.597C79.4929 183.451 81.3313 184.416 81.3313 185.28C81.3313 186.144 79.4833 187.128 79.6033 187.963C79.7233 188.799 81.7777 189.245 82.0033 190.051C82.2289 190.858 80.7505 192.346 81.1009 193.114C81.4513 193.882 83.5489 193.723 84.0097 194.434C84.4705 195.144 83.4481 196.983 84.0097 197.626C84.5713 198.269 86.5249 197.52 87.1681 198.077C87.8113 198.634 87.3457 200.679 88.0609 201.139C88.7761 201.6 90.4609 200.333 91.2193 200.688C91.9777 201.043 92.1217 203.131 92.9425 203.371C93.7633 203.611 94.9921 201.931 95.8225 202.042C96.6529 202.152 97.3729 204.135 98.2225 204.135C99.0721 204.135 99.8017 202.162 100.622 202.042C101.443 201.922 102.715 203.611 103.502 203.371C104.29 203.131 104.462 201.039 105.226 200.688C105.989 200.338 107.669 201.6 108.384 201.139C109.099 200.679 108.634 198.634 109.277 198.077C109.92 197.52 111.878 198.269 112.435 197.626C112.992 196.983 111.955 195.154 112.435 194.434C112.915 193.714 114.984 193.891 115.344 193.114C115.704 192.336 114.197 190.877 114.442 190.051C114.686 189.226 116.731 188.813 116.842 187.963C116.952 187.114 115.094 186.13 115.094 185.28Z" fill="#263238"/>
<path d="M98.1601 198.71C105.585 198.71 111.605 192.691 111.605 185.266C111.605 177.84 105.585 171.821 98.1601 171.821C90.7348 171.821 84.7153 177.84 84.7153 185.266C84.7153 192.691 90.7348 198.71 98.1601 198.71Z" fill="white" stroke="#263238" stroke-width="0.5" stroke-linecap="round" stroke-linejoin="round"/>
<path d="M104.801 191.904C108.468 188.237 108.468 182.293 104.801 178.626C101.135 174.96 95.1902 174.96 91.5237 178.626C87.8571 182.293 87.8571 188.237 91.5237 191.904C95.1902 195.571 101.135 195.571 104.801 191.904Z" fill="white" stroke="#263238" stroke-width="0.5" stroke-linecap="round" stroke-linejoin="round"/>
<path d="M98.1744 192.624C102.252 192.624 105.557 189.319 105.557 185.242C105.557 181.165 102.252 177.859 98.1744 177.859C94.0972 177.859 90.792 181.165 90.792 185.242C90.792 189.319 94.0972 192.624 98.1744 192.624Z" fill="#5CB0FF"/>
<path d="M95.8414 183.859H93.4798C93.2704 183.859 93.1006 184.029 93.1006 184.239V188.779C93.1006 188.989 93.2704 189.159 93.4798 189.159H95.8414C96.0508 189.159 96.2206 188.989 96.2206 188.779V184.239C96.2206 184.029 96.0508 183.859 95.8414 183.859Z" fill="white"/>
<path d="M102.638 184.627C103.43 183.461 102.341 183.115 102.341 183.115H99.4944L99.5424 182.866C99.5424 182.866 99.792 180.946 99.4704 180.341C99.1488 179.736 97.9824 179.501 97.9344 179.722C97.8864 179.942 97.9584 180.936 97.8576 181.478C97.5637 182.373 97.1994 183.243 96.768 184.08C96.7223 184.15 96.6636 184.21 96.5952 184.258V188.664C96.7877 188.784 97.0116 188.844 97.2384 188.837H101.376C101.499 188.801 101.613 188.74 101.712 188.659C101.812 188.578 101.894 188.478 101.954 188.365C102.013 188.252 102.05 188.128 102.061 188C102.073 187.873 102.058 187.744 102.019 187.622C102.258 187.485 102.443 187.27 102.542 187.013C102.642 186.757 102.65 186.474 102.566 186.211C102.699 186.129 102.81 186.016 102.889 185.881C102.968 185.746 103.014 185.594 103.021 185.438C103.028 185.282 102.997 185.127 102.93 184.985C102.863 184.844 102.763 184.721 102.638 184.627Z" fill="white"/>
<path d="M184.229 144.384C184.229 144.384 183.96 156.648 184.368 160.555C184.776 164.462 187.114 184.363 188.026 191.275C188.938 198.187 189.336 211.435 189.336 211.435C189.336 211.435 188.29 211.699 188.29 212.611C188.288 213.181 188.244 213.751 188.16 214.315C187.576 215.037 186.918 215.695 186.197 216.278C185.41 216.801 181.094 217.848 181.747 218.894C182.4 219.94 192.739 219.417 192.739 219.417C192.739 219.417 189.336 220.987 187.373 221.38C185.41 221.774 186.067 223.473 188.549 223.603C191.03 223.732 194.045 223.996 196.795 223.996C199.546 223.996 200.722 222.95 202.944 222.82C205.166 222.691 205.954 222.686 206.347 222.427C206.741 222.168 207 218.371 207 218.371L206.477 214.574C206.477 214.574 209.059 200.913 208.046 191.678C207.081 182.275 207.302 172.788 208.704 163.44C208.704 163.44 211.234 154.603 210.83 150.7C210.427 146.798 209.76 142.651 209.76 142.651L184.896 143.472L184.229 144.384Z" fill="#263238" stroke="#263238" stroke-width="0.5" stroke-linecap="round" stroke-linejoin="round"/>
<path d="M192.854 106.848C192.854 106.848 188.299 110.294 186.998 112.637C185.698 114.979 185.626 127.954 185.486 131.582C185.347 135.211 184.018 139.997 184.046 142.051C184.075 144.106 183.974 146.65 191.117 146.64C198.259 146.63 208.32 145.147 209.525 144.182C210.73 143.218 211.21 143.088 211.747 140.995C212.285 138.902 216.01 124.949 216.384 120.523C216.758 116.098 216.614 114.086 212.794 108.389C208.973 102.691 204.144 101.856 204.144 101.856L195.293 105.408L192.854 106.848Z" fill="white" stroke="#263238" stroke-width="0.5" stroke-linecap="round" stroke-linejoin="round"/>
<path d="M192.854 106.848L193.061 111.235L187.498 139.363L189.749 144.979L194.606 138.965L194.314 110.952L196.368 108.168L195.293 105.408L192.854 106.848Z" fill="#263238" stroke="#263238" stroke-width="0.5" stroke-linecap="round" stroke-linejoin="round"/>
<path d="M194.674 103.493L192.696 104.611L190.675 109.253L192.854 106.848L193.863 107.265L196.416 104.645L194.674 103.493Z" fill="white" stroke="#263238" stroke-width="0.5" stroke-linecap="round" stroke-linejoin="round"/>
<path d="M188.443 83.5917C188.443 83.5917 188.414 89.635 188.601 90.691C188.789 91.747 188.659 93.9597 189.619 95.5869C190.579 97.2141 191.424 100.425 192.134 100.867C192.732 101.184 193.383 101.387 194.054 101.467L194.606 106.113L203.04 99.5037L202.641 94.6222C203.461 93.825 203.934 92.7367 203.957 91.5934C203.99 89.6734 203.798 88.5598 202.872 88.2334C202.266 87.9976 201.709 87.6545 201.225 87.2206L201.95 83.8941C201.95 83.8941 203.75 81.3981 198.494 80.4717C193.238 79.5453 188.837 81.9309 188.443 83.5917Z" fill="white" stroke="#263238" stroke-width="0.5" stroke-linecap="round" stroke-linejoin="round"/>
<path d="M186.528 82.0318C186.528 82.0318 186.283 83.347 190.848 84.667C195.413 85.987 197.865 85.8142 197.865 85.8142C197.865 85.8142 197.222 86.2558 197.755 86.6686C198.087 86.9203 198.466 87.1045 198.869 87.211C198.869 87.211 199.07 90.9214 199.473 91.051C199.877 91.1806 200.64 90.7438 200.64 90.7438C200.64 90.7438 200.534 89.3038 201.345 88.7758C201.812 88.4786 202.338 88.2884 202.886 88.219C202.886 88.219 204.293 82.459 202.521 80.515C200.75 78.571 198.451 78.0334 193.041 78.9166C187.632 79.7998 186.033 81.3934 186.528 82.0318Z" fill="#263238" stroke="#263238" stroke-width="0.5" stroke-linecap="round" stroke-linejoin="round"/>
<path d="M193.2 95.1696L191.409 95.352L191.232 90.3936L189.888 88.9104L188.904 88.584" stroke="#263238" stroke-width="0.5" stroke-linecap="round" stroke-linejoin="round"/>
<path d="M192.159 97.214C192.703 97.2425 193.249 97.2233 193.791 97.1564C194.316 97.0729 194.837 96.9623 195.351 96.8252C195.351 96.8252 194.127 97.9244 193.239 98.0972C192.351 98.27 192.159 97.214 192.159 97.214Z" stroke="#263238" stroke-width="0.5" stroke-linecap="round" stroke-linejoin="round"/>
<path d="M194.035 101.486C194.035 101.486 194.107 101.649 195.149 101.241C196.021 100.817 196.837 100.285 197.578 99.6572" stroke="#263238" stroke-width="0.5" stroke-linecap="round" stroke-linejoin="round"/>
<path d="M196.392 88.3436C195.35 87.9644 192.691 88.6556 192.691 88.6556" stroke="#263238" stroke-width="0.5" stroke-linecap="round" stroke-linejoin="round"/>
<path d="M195.36 90.643C195.384 91.0318 195.23 91.3582 195.014 91.3726C194.798 91.387 194.602 91.0846 194.573 90.6958C194.544 90.307 194.698 89.9854 194.918 89.9662C195.139 89.947 195.36 90.2398 195.36 90.643Z" fill="#263238"/>
<path d="M190.819 90.9308C190.819 91.3196 190.689 91.646 190.473 91.6604C190.257 91.6748 190.061 91.3772 190.032 90.9884C190.003 90.5996 190.157 90.2732 190.377 90.2588C190.598 90.2444 190.79 90.5468 190.819 90.9308Z" fill="#263238"/>
<path d="M194.4 105.178L196.646 109.325L205.358 101.083L203.654 99.0527L194.4 105.178Z" fill="white" stroke="#263238" stroke-width="0.5" stroke-linecap="round" stroke-linejoin="round"/>
<path d="M170.75 118.065L186.835 120.715L189.307 141.571L174.816 139.272L170.75 118.065Z" fill="#5CB0FF" stroke="#263238" stroke-width="0.5" stroke-miterlimit="10"/>
<path d="M171.437 122.736C171.437 122.736 170.39 122.822 170.126 123.605C170.007 123.936 169.969 124.291 170.014 124.64C170.06 124.989 170.189 125.322 170.39 125.611C170.741 126.048 172.397 126.571 173.27 126.307C174.144 126.043 174.408 125.347 173.794 124.915C173.225 124.587 172.608 124.35 171.965 124.214L171.437 122.736Z" fill="white" stroke="#263238" stroke-width="0.5" stroke-linecap="round" stroke-linejoin="round"/>
<path d="M170.4 125.611C170.4 125.611 170.05 126.744 170.659 127.353C171.269 127.963 172.93 128.14 173.453 127.531C173.976 126.921 173.275 126.307 173.275 126.307C173.275 126.307 171 126.134 170.4 125.611Z" fill="white" stroke="#263238" stroke-width="0.5" stroke-linecap="round" stroke-linejoin="round"/>
<path d="M170.914 128.16C170.914 128.16 170.827 129.988 171.523 130.776C172.219 131.563 173.006 131.126 172.834 130.425C172.721 129.995 172.545 129.584 172.31 129.206L170.914 128.16Z" fill="white" stroke="#263238" stroke-width="0.5" stroke-linecap="round" stroke-linejoin="round"/>
<path d="M170.65 127.354C170.611 127.621 170.648 127.893 170.757 128.14C170.865 128.387 171.041 128.598 171.264 128.75C172.046 129.274 173.184 129.797 173.53 129.014C173.63 128.777 173.674 128.52 173.659 128.263C173.644 128.005 173.57 127.755 173.443 127.531C173.443 127.531 171.696 127.968 170.65 127.354Z" fill="white" stroke="#263238" stroke-width="0.5" stroke-linecap="round" stroke-linejoin="round"/>
<path d="M174.878 119.27L175.013 120.12L182.947 121.512V120.221C182.948 119.988 182.874 119.762 182.737 119.574C182.599 119.387 182.406 119.248 182.184 119.179L181.291 118.896L181.109 118.257C181.059 118.083 180.961 117.927 180.826 117.806C180.691 117.686 180.524 117.606 180.346 117.576L177.437 117.096C177.298 117.072 177.156 117.08 177.021 117.118C176.885 117.155 176.76 117.223 176.653 117.314C176.546 117.406 176.461 117.52 176.403 117.648C176.345 117.776 176.316 117.915 176.318 118.056H176.011C175.853 118.048 175.696 118.075 175.55 118.135C175.403 118.195 175.272 118.285 175.164 118.401C175.056 118.516 174.975 118.654 174.926 118.804C174.876 118.954 174.86 119.113 174.878 119.27Z" fill="#263238" stroke="#263238" stroke-width="0.5" stroke-linecap="round" stroke-linejoin="round"/>
<path d="M192.447 130.315C192.447 130.315 191.362 129.139 190.872 128.746C190.383 128.352 187.724 128.352 187.724 128.352V130.022C187.724 130.022 183.596 130.315 182.415 130.502C181.234 130.69 181.037 131.29 181.335 131.784C181.632 132.278 184.58 131.981 184.58 131.981L186.053 132.178C186.053 132.178 183.792 132.768 183.101 132.864C182.41 132.96 181.037 132.864 181.037 133.344C181.037 133.824 181.234 134.126 182.314 134.227C183.394 134.328 185.17 134.323 186.346 134.621C187.522 134.918 184.383 135.101 183.495 135.101C182.607 135.101 182.535 135.888 183.101 136.085C183.668 136.282 185.564 136.565 185.564 136.565C186.274 136.96 187.034 137.257 187.824 137.448C189.298 137.842 188.304 137.645 191.559 137.448C193.154 137.401 194.739 137.171 196.282 136.762L196.378 132.235L193.33 131.275L192.447 130.315Z" fill="white" stroke="#263238" stroke-width="0.5" stroke-linecap="round" stroke-linejoin="round"/>
<path d="M187.723 130.022L189.494 130.219" stroke="#263238" stroke-width="0.5" stroke-linecap="round" stroke-linejoin="round"/>
<path d="M185.563 136.613L188.51 136.709" stroke="#263238" stroke-width="0.5" stroke-linecap="round" stroke-linejoin="round"/>
<path d="M196.377 132.283L195.984 137.889L198.048 137.99L198.245 132.384L196.377 132.283Z" fill="white" stroke="#263238" stroke-width="0.5" stroke-linecap="round" stroke-linejoin="round"/>
<path d="M208.32 104.16C209.794 104.64 218.117 109.44 218.117 113.644C218.117 117.849 216.941 133.804 216.547 137.52C216.154 141.235 214.973 140.472 210.744 140.472C206.515 140.472 200.126 140.275 198.946 139.78C198.615 139.635 198.345 139.378 198.183 139.055C198.021 138.731 197.977 138.362 198.058 138.009L198.24 132.384C198.24 132.384 198.538 131.006 199.522 130.809C200.506 130.612 206.88 131.52 206.88 131.52C206.88 131.52 208.061 120.801 208.258 118.737C208.454 116.673 207.71 112.977 209.285 112.099" fill="white"/>
<path d="M208.32 104.16C209.794 104.64 218.117 109.44 218.117 113.644C218.117 117.849 216.941 133.804 216.547 137.52C216.154 141.235 214.973 140.472 210.744 140.472C206.515 140.472 200.126 140.275 198.946 139.78C198.615 139.635 198.345 139.378 198.183 139.055C198.021 138.731 197.977 138.362 198.058 138.009L198.24 132.384C198.24 132.384 198.538 131.006 199.522 130.809C200.506 130.612 206.88 131.52 206.88 131.52C206.88 131.52 208.061 120.801 208.258 118.737C208.454 116.673 207.71 112.977 209.285 112.099" stroke="#263238" stroke-width="0.5" stroke-linecap="round" stroke-linejoin="round"/>
<path d="M211.521 134.644C210.048 134.054 206.88 131.52 206.88 131.52C206.88 131.52 210.619 132.504 211.109 132.408" stroke="#263238" stroke-width="0.5" stroke-linecap="round" stroke-linejoin="round"/>
<path d="M38.2273 103.68C38.7718 104.453 39.1629 105.323 39.3793 106.243C39.6337 107.587 39.1201 108.422 38.0977 108.355C37.7867 108.318 37.4915 108.197 37.2431 108.006C36.9948 107.815 36.8025 107.561 36.6865 107.27C36.6865 107.27 36.8833 109.445 37.6465 110.472C38.4097 111.499 38.9905 111.365 43.4737 111.878C47.9569 112.392 54.6817 111.878 56.5393 111.624C58.3969 111.369 59.6113 111.048 60.2497 110.088C60.8173 109.158 61.3317 108.196 61.7905 107.208C61.7905 107.208 59.8705 108.619 58.8433 108.297C57.8161 107.976 57.8161 105.926 58.1377 105.096C58.3791 104.503 58.6581 103.925 58.9729 103.368C59.3703 102.187 59.6061 100.959 59.6737 99.715C59.6737 98.1166 59.0977 96.451 58.0753 92.7358C57.0529 89.0206 53.9137 85.7566 51.5425 83.3854C49.1713 81.0142 46.6129 82.6174 43.7281 84.091C40.8433 85.5646 37.5793 93.5662 37.0081 96.835C36.4369 100.104 38.2273 103.68 38.2273 103.68Z" fill="#263238" stroke="#263238" stroke-width="0.5" stroke-miterlimit="10"/>
<path d="M43.4541 109.776L48.8589 105.84L54.5325 109.776L49.1325 122.87L43.4541 109.776Z" fill="white" stroke="#263238" stroke-width="0.5" stroke-miterlimit="10"/>
<path d="M47.064 110.712L48.792 113.529L47.256 119.933L49.368 123.715L51.6096 119.357L49.8192 113.529L51.096 110.904L49.0512 107.765L47.064 110.712Z" fill="#263238" stroke="#263238" stroke-width="0.5" stroke-miterlimit="10"/>
<path d="M45.4604 100.32C45.4604 100.32 45.5276 105.633 45.6524 106.08C45.7772 106.526 48.3452 109.157 48.854 109.349C49.3628 109.541 51.6764 106.08 51.8684 105.825C52.0604 105.571 51.9308 100.445 51.9308 100.445L45.4604 100.32Z" fill="white" stroke="#263238" stroke-width="0.5" stroke-miterlimit="10"/>
<path d="M49.8192 83.1744C49.8192 83.1744 47.64 85.7376 45.0768 88.2336C42.5136 90.7296 39.5088 93.9312 38.3568 97.1376C37.2048 100.344 38.232 103.666 38.232 103.666C36.7298 101.744 35.897 99.3843 35.8608 96.9456C35.9232 93.1056 36.6288 86.0544 39.96 82.0224C43.2912 77.9904 48.5424 77.7936 51 78.3696C53.4576 78.9456 56.3808 81.8928 57.72 85.4784C59.0592 89.064 60.3456 95.9184 60.216 98.7984C60.1906 100.392 59.7735 101.955 59.0016 103.349C59.2252 100.301 58.6268 97.2495 57.2688 94.512C55.0272 90.2208 52.7856 88.3632 51.12 86.76C50.6347 86.3081 50.2636 85.7474 50.0375 85.124C49.8113 84.5006 49.7365 83.8324 49.8192 83.1744Z" fill="#263238" stroke="#263238" stroke-width="0.5" stroke-miterlimit="10"/>
<path d="M48.8544 109.368L45.912 113.53L43.3584 107.53L45.6528 105.59L48.8544 109.368Z" fill="white" stroke="#263238" stroke-width="0.5" stroke-miterlimit="10"/>
<path d="M48.8545 109.368L51.8689 113.851L54.2353 107.64L51.8689 105.845L48.8545 109.368Z" fill="white" stroke="#263238" stroke-width="0.5" stroke-miterlimit="10"/>
<path d="M33.643 110.462C33.643 110.462 21.643 126.6 21.0046 127.579C20.3662 128.558 19.8286 128.539 20.155 129.336C20.4814 130.133 22.699 132.533 24.331 132.6C25.963 132.667 26.4142 132.144 27.1342 131.098C27.8542 130.051 36.7726 119.04 36.7726 119.04C36.7726 119.04 34.363 110.789 33.643 110.462Z" fill="#5CB0FF" stroke="#263238" stroke-width="0.5" stroke-miterlimit="10"/>
<path d="M47.9038 214.416L47.4622 223.512H46.5742L46.3486 217.915L47.9038 214.416Z" fill="#263238" stroke="#263238" stroke-width="0.5" stroke-miterlimit="10"/>
<path d="M39.134 170.832C39.134 170.832 40.1324 177.552 39.9116 181.728C39.6908 185.904 39.3596 188.64 39.8012 192.422C40.2428 196.205 42.5756 209.515 42.5756 212.515C42.5756 215.515 41.5772 218.314 40.91 219.312C40.2428 220.31 36.47 222.811 36.2492 223.91C36.0284 225.01 38.9132 224.712 41.5772 224.314C44.2412 223.915 45.7964 223.81 46.1276 223.411C46.4588 223.013 46.0172 220.613 46.7948 217.814C47.5724 215.016 48.3452 215.117 48.014 213.418C47.6828 211.718 46.3484 209.818 46.3484 207.019C46.3484 204.221 48.1244 187.526 47.6828 183.226C47.2412 178.925 47.0396 170.933 47.0396 170.933L39.134 170.832Z" fill="white" stroke="#263238" stroke-width="0.5" stroke-miterlimit="10"/>
<path d="M45.0188 220.512C44.0531 220.156 43.0471 219.921 42.0236 219.811C41.525 219.734 41.0187 219.72 40.5164 219.768C39.3356 220.929 36.446 222.955 36.2492 223.91C36.0284 225.009 38.9132 224.712 41.5772 224.313C44.2412 223.915 45.7964 223.809 46.1276 223.411C46.4588 223.013 46.0172 220.613 46.7948 217.814C47.5724 215.016 48.3452 215.117 48.014 213.417C47.2364 215.213 46.6844 215.414 45.9068 216.912C45.3977 218.049 45.0969 219.268 45.0188 220.512Z" fill="#263238" stroke="#263238" stroke-width="0.5" stroke-miterlimit="10"/>
<path d="M62.7021 215.155L63.6333 224.218L64.5117 224.179L64.4253 218.578L62.7021 215.155Z" fill="#263238" stroke="#263238" stroke-width="0.5" stroke-miterlimit="10"/>
<path d="M60.3262 170.731C60.8623 174.587 61.8798 178.361 63.355 181.963C64.9534 185.909 65.1502 188.271 65.9182 192.043C66.6718 195.72 66.043 208.517 66.2446 212.237C66.4078 215.232 69.1534 218.784 69.8686 219.754C70.5838 220.723 74.4382 223.047 74.7166 224.136C74.995 225.226 72.1294 225.053 69.4798 224.775C66.8302 224.496 65.2942 224.463 64.9438 224.079C64.5934 223.695 64.9006 221.275 63.9838 218.515C63.067 215.755 62.3038 215.89 62.5438 214.195C62.7838 212.501 62.4142 210.149 61.867 207.552C61.2862 204.802 57.3982 189.663 56.4766 185.429C55.555 181.195 52.3198 171.034 52.3198 171.034L60.3262 170.731Z" fill="white" stroke="#263238" stroke-width="0.5" stroke-miterlimit="10"/>
<path d="M65.8802 221.112C66.8143 220.714 67.7948 220.435 68.7986 220.282C69.2863 220.182 69.7845 220.143 70.2817 220.167C71.5105 221.28 74.4722 223.167 74.717 224.117C74.9954 225.207 72.1298 225.034 69.4802 224.755C66.8306 224.477 65.2946 224.443 64.9442 224.059C64.5938 223.675 64.901 221.256 63.9842 218.496C63.0674 215.736 62.3042 215.871 62.5442 214.176C63.4082 215.938 63.9841 216.096 64.8145 217.575C65.3732 218.683 65.7338 219.88 65.8802 221.112Z" fill="#263238" stroke="#263238" stroke-width="0.5" stroke-miterlimit="10"/>
<path d="M35.04 144.442C34.338 146.887 33.9019 149.401 33.7392 151.939C33.5376 155.837 34.1376 177.734 34.1376 177.734C34.1376 177.734 37.92 178.934 45.12 179.131C52.32 179.328 65.5104 177.83 65.5104 177.83C65.5104 177.83 64.9104 155.64 63.4128 150.043C61.9152 144.446 61.0128 142.843 61.0128 142.843C61.0128 142.843 46.4352 133.147 35.04 144.442Z" fill="#263238" stroke="#263238" stroke-width="0.5" stroke-miterlimit="10"/>
<path d="M63.2734 110.765C63.2734 110.765 74.7838 127.2 75.4414 128.16C76.099 129.12 76.6174 129.12 76.2958 129.917C75.9742 130.713 73.7662 133.118 72.1342 133.19C70.5022 133.262 70.0462 132.744 69.3262 131.702C68.6062 130.661 59.6206 119.621 59.6206 119.621C59.6206 119.621 62.5582 111.091 63.2734 110.765Z" fill="#5CB0FF" stroke="#263238" stroke-width="0.5" stroke-miterlimit="10"/>
<path d="M43.3581 107.52L49.1181 120.96L54.2397 107.64L63.2301 110.755L56.0301 131.587L64.0461 148.411C64.0461 148.411 60.4797 150.24 54.2397 151.042C47.9997 151.843 42.5229 151.282 39.8397 150.432C37.1565 149.582 33.3837 147.552 33.5997 147.552C33.8157 147.552 40.3773 130.79 40.3773 130.79L33.6573 110.448L43.3581 107.52Z" fill="#5CB0FF" stroke="#263238" stroke-width="0.5" stroke-miterlimit="10"/>
<path d="M49.1855 124.45L55.6175 116.659L53.8223 114.063L57.5951 112.517L56.3279 108.567L54.2351 107.64L49.0991 120.96L43.3583 107.53L41.4047 108.12L40.4111 113.319L44.6735 114.187L42.8831 117.029L49.1855 124.45Z" fill="#5CB0FF" stroke="#263238" stroke-width="0.5" stroke-miterlimit="10"/>
<path d="M35.3373 142.046C36.1868 141.873 37.0226 141.639 37.8381 141.346C39.2349 140.866 39.9357 141.144 40.8381 141.826C41.7405 142.507 44.0349 143.995 43.7181 144.494C43.4013 144.994 43.2381 145.224 42.7197 144.922C42.2013 144.619 39.7245 142.622 39.2205 142.622C38.6027 142.751 38.0041 142.959 37.4397 143.242C38.2808 143.3 39.0993 143.539 39.8397 143.942C40.7421 144.542 42.7197 146.045 42.6381 146.544C42.5565 147.043 42.1581 147.115 41.6445 147.024C41.1309 146.933 39.1437 145.152 38.8413 145.152H36.6381C37.4872 145.549 38.3027 146.015 39.0765 146.544C39.4749 146.947 40.0365 147.35 40.0365 147.648C40.0365 147.946 39.8541 148.714 39.2589 148.517C38.6637 148.32 36.9597 146.842 36.9597 146.842C36.9597 146.842 38.5581 148.536 38.4621 148.824C38.3229 149.246 38.0589 149.242 37.7613 149.04C37.4637 148.838 35.2989 147.562 34.5981 146.962C34.0893 146.525 34.1613 146.443 33.5613 146.342C32.9613 146.242 32.3613 144.941 32.3613 144.941L35.3373 142.046Z" fill="white" stroke="#263238" stroke-width="0.5" stroke-miterlimit="10"/>
<path d="M36.9597 146.841C36.9597 146.841 35.9565 145.857 35.3613 145.857" stroke="#263238" stroke-width="0.5" stroke-miterlimit="10"/>
<path d="M62.3999 142.046C61.5504 141.873 60.7147 141.639 59.8991 141.346C58.5023 140.866 57.8015 141.144 56.9039 141.826C56.0063 142.507 53.7071 143.995 54.0239 144.494C54.3407 144.994 54.5039 145.224 55.0223 144.922C55.5407 144.619 58.0223 142.622 58.5215 142.622C59.1448 142.744 59.7498 142.946 60.3215 143.222C59.4805 143.281 58.662 143.52 57.9215 143.923C57.0239 144.523 55.0415 146.026 55.1231 146.525C55.2047 147.024 55.6031 147.096 56.1167 147.005C56.6303 146.914 58.6223 145.133 58.9199 145.133C59.3641 145.065 59.8023 144.962 60.2303 144.826L58.6175 146.443C58.2191 146.842 57.6575 147.499 57.6575 147.802C57.6575 148.104 57.9023 148.694 58.5023 148.498C59.1023 148.301 60.8015 146.189 60.8015 146.189C60.8015 146.189 59.1983 148.526 59.2943 148.814C59.4335 149.237 59.6975 149.232 59.9951 149.03C60.2927 148.829 61.9967 147.432 62.6975 146.832C63.2063 146.395 63.5951 146.434 64.1951 146.352C64.7951 146.27 65.3951 144.95 65.3951 144.95L62.3999 142.046Z" fill="white" stroke="#263238" stroke-width="0.5" stroke-miterlimit="10"/>
<path d="M60.8257 146.198C61.119 145.668 61.6055 145.27 62.1841 145.089" stroke="#263238" stroke-width="0.5" stroke-miterlimit="10"/>
<path d="M64.3295 139.843L61.9199 142.046L65.2175 146.04L67.7903 143.611L64.3295 139.843Z" fill="white" stroke="#263238" stroke-width="0.5" stroke-miterlimit="10"/>
<path d="M70.6127 128.64L63.3599 140.386L67.1519 145.272C67.1519 145.272 70.5695 140.75 72.2591 138.346C73.9487 135.941 76.6127 130.296 76.5119 129.595C76.4111 128.894 73.9967 126.504 73.9967 126.504" fill="#5CB0FF"/>
<path d="M70.6127 128.64L63.3599 140.386L67.1519 145.272C67.1519 145.272 70.5695 140.75 72.2591 138.346C73.9487 135.941 76.6127 130.296 76.5119 129.595C76.4111 128.894 73.9967 126.504 73.9967 126.504" stroke="#263238" stroke-width="0.5" stroke-miterlimit="10"/>
<path d="M32.9281 139.843L35.3377 142.046L32.0401 146.04L29.4673 143.611L32.9281 139.843Z" fill="white" stroke="#263238" stroke-width="0.5" stroke-miterlimit="10"/>
<path d="M25.8335 128.016L33.4415 140.246L29.8415 144.787C29.8415 144.787 24.4799 138.437 22.7903 136.037C21.1007 133.637 19.8335 129.715 19.9343 129.014C20.0351 128.314 22.4303 125.914 22.4303 125.914" fill="#5CB0FF"/>
<path d="M25.8335 128.016L33.4415 140.246L29.8415 144.787C29.8415 144.787 24.4799 138.437 22.7903 136.037C21.1007 133.637 19.8335 129.715 19.9343 129.014C20.0351 128.314 22.4303 125.914 22.4303 125.914" stroke="#263238" stroke-width="0.5" stroke-miterlimit="10"/>
<path d="M49.6273 85.4399C49.6273 85.4399 46.6753 89.5343 45.3409 90.9647L44.0065 92.4047L41.1265 92.9759C41.3195 93.665 41.5749 94.3349 41.8897 94.9775C42.2689 95.6447 43.3297 95.8319 43.3297 95.8319C43.3297 95.8319 43.6177 98.2319 44.4721 99.4559C45.3265 100.68 47.6497 102.634 51.1393 103.262C52.1905 103.45 54.3649 102.014 55.4113 97.2479C56.4577 92.4815 55.4113 91.0703 54.8545 89.4527C54.2977 87.8351 50.8801 85.4399 49.6273 85.4399Z" fill="white" stroke="#263238" stroke-width="0.5" stroke-miterlimit="10"/>
<path d="M55.1183 91.5504C55.1183 91.5504 53.8799 90.3984 53.2607 92.1696C53.0351 92.8032 54.3215 95.8896 53.8799 96.1536C53.4383 96.4176 53.2607 96.0672 52.6367 96.5088" stroke="#263238" stroke-width="0.5" stroke-miterlimit="10"/>
<path d="M53.3473 98.3711C53.3473 98.3711 50.9473 99.0815 49.9873 97.4111" stroke="#263238" stroke-width="0.5" stroke-miterlimit="10"/>
<path d="M51.0432 90.8399C51.0432 90.8399 49.0944 90.1295 47.9424 91.1951" stroke="#263238" stroke-width="0.5" stroke-miterlimit="10"/>
<path d="M50.6878 93.1776C50.6878 93.6576 50.4478 94.0272 50.1454 94.0272C49.843 94.0272 49.603 93.648 49.603 93.1776C49.603 92.7072 49.8478 92.3232 50.1454 92.3232C50.443 92.3232 50.6878 92.7072 50.6878 93.1776Z" fill="#263238"/>
<path d="M54.9408 93.3217C54.9408 93.8017 54.7008 94.1713 54.3984 94.1713C54.096 94.1713 53.8608 93.7921 53.8608 93.3217C53.8608 92.8513 54.1008 92.4673 54.3984 92.4673C54.696 92.4673 54.9408 92.8513 54.9408 93.3217Z" fill="#263238"/>
</svg>
