<svg width="240" height="240" viewBox="0 0 240 240" fill="none" xmlns="http://www.w3.org/2000/svg">
<path d="M81.1787 213.56C81.1787 213.56 118.139 226.697 154.408 205.779C190.676 184.86 209.003 143.336 224.704 110.062C240.404 76.7883 231.376 42.9579 203.684 27.5307C175.993 12.1035 157.163 34.8555 118.316 35.9547C79.4699 37.0539 69.0251 31.4955 36.7883 53.4507C4.55151 75.4059 -1.27089 127.222 24.1547 165.569C49.5803 203.916 81.1787 213.56 81.1787 213.56Z" fill="#5CB0FF"/>
<path opacity="0.7" d="M81.1787 213.56C81.1787 213.56 118.139 226.697 154.408 205.779C190.676 184.86 209.003 143.336 224.704 110.062C240.404 76.7883 231.376 42.9579 203.684 27.5307C175.993 12.1035 157.163 34.8555 118.316 35.9547C79.4699 37.0539 69.0251 31.4955 36.7883 53.4507C4.55151 75.4059 -1.27089 127.222 24.1547 165.569C49.5803 203.916 81.1787 213.56 81.1787 213.56Z" fill="white"/>
<path d="M60.552 142.263H18V180.917H60.552V142.263Z" stroke="#263238" stroke-width="0.5" stroke-miterlimit="10"/>
<path d="M56.0158 144.874H22.5454V178.301H56.0158V144.874Z" fill="#5CB0FF"/>
<path d="M18 140.895V222.48" stroke="#263238" stroke-width="0.5" stroke-linejoin="round"/>
<path d="M60.7056 140.895V222.48" stroke="#263238" stroke-width="0.5" stroke-linejoin="round"/>
<path d="M30.8594 152.986H33.677V154.968H30.8594V160.699H28.6802V146.818H34.4402V148.8H30.8594V152.986Z" fill="white"/>
<path d="M35.3232 150.149C35.3232 147.926 36.4944 146.659 38.6352 146.659C40.776 146.659 41.9472 147.926 41.9472 150.149V157.349C41.9472 159.571 40.776 160.838 38.6352 160.838C36.4944 160.838 35.3232 159.571 35.3232 157.349V150.149ZM37.5024 157.507C37.5024 158.496 37.9392 158.875 38.6352 158.875C39.3312 158.875 39.7632 158.496 39.7632 157.507V150.01C39.7632 149.016 39.3312 148.642 38.6352 148.642C37.9392 148.642 37.5024 149.016 37.5024 150.01V157.507Z" fill="white"/>
<path d="M47.9135 160.699C47.7354 160.15 47.6685 159.571 47.7167 158.995V156.811C47.7167 155.525 47.2799 155.05 46.2767 155.05H45.5375V160.699H43.3535V146.818H46.6463C48.9071 146.818 49.8767 147.869 49.8767 150.01V151.099C49.8767 152.539 49.3967 153.461 48.4367 153.917C49.5263 154.373 49.8767 155.424 49.8767 156.874V159.015C49.8372 159.587 49.9173 160.16 50.1119 160.699H47.9135ZM45.5375 148.8V153.063H46.3871C47.2031 153.063 47.6975 152.707 47.6975 151.599V150.24C47.6975 149.247 47.3615 148.8 46.5887 148.8H45.5375Z" fill="white"/>
<path d="M28.1856 162.687C30.3072 162.687 31.3968 163.954 31.3968 166.176V166.613H29.3328V166.037C29.3328 165.043 28.9392 164.669 28.2432 164.669C27.5472 164.669 27.1536 165.043 27.1536 166.037C27.1536 168.893 31.416 169.426 31.416 173.395C31.416 175.618 30.3072 176.885 28.1664 176.885C26.0256 176.885 24.9312 175.618 24.9312 173.395V172.541H26.9952V173.535C26.9952 174.523 27.4272 174.883 28.1232 174.883C28.8192 174.883 29.256 174.523 29.256 173.535C29.256 170.679 24.9888 170.141 24.9888 166.176C24.9696 163.954 26.064 162.687 28.1856 162.687Z" fill="white"/>
<path d="M39.7247 176.726H37.5263L37.1471 174.206H34.4687L34.0943 176.726H32.0879L34.3103 162.845H37.5023L39.7247 176.726ZM34.7471 172.32H36.8495L35.7983 165.298L34.7471 172.32Z" fill="white"/>
<path d="M40.7373 162.845H42.9165V174.744H46.5309V176.726H40.7709L40.7373 162.845Z" fill="white"/>
<path d="M49.6415 168.696H52.6367V170.678H49.6415V174.744H53.4095V176.726H47.4575V162.845H53.4095V164.827H49.6415V168.696Z" fill="white"/>
<path d="M218.853 125.246C218.853 125.246 218.853 123 215.704 119.851C212.555 116.702 210.534 114.907 210.534 114.907C210.534 114.907 208.96 120.077 211.883 123.221C214.033 125.436 216.364 127.467 218.853 129.293V125.246Z" fill="#5CB0FF"/>
<path d="M214.283 139.282C214.283 139.282 214.283 137.035 211.139 133.886C207.995 130.738 205.969 128.942 205.969 128.942C205.969 128.942 204.395 134.112 207.318 137.261C209.466 139.474 211.796 141.503 214.283 143.328V139.282Z" fill="#5CB0FF"/>
<path d="M218.651 129.072C218.651 129.072 218.891 126.84 222.352 124.042C225.812 121.243 228.016 119.674 228.016 119.674C228.016 119.674 229.033 124.978 225.793 127.8C223.422 129.769 220.89 131.535 218.224 133.08L218.651 129.072Z" fill="#5CB0FF"/>
<path d="M213.136 145.651C213.136 145.651 213.616 143.453 217.345 141.033C221.075 138.614 223.432 137.28 223.432 137.28C223.432 137.28 223.912 142.661 220.374 145.128C217.807 146.841 215.102 148.337 212.286 149.601L213.136 145.651Z" fill="#5CB0FF"/>
<path d="M214.173 163.723C214.173 163.723 214.173 161.477 217.322 158.328C220.47 155.179 222.491 153.384 222.491 153.384C222.491 153.384 224.061 158.554 221.142 161.703C218.992 163.915 216.661 165.945 214.173 167.77V163.723Z" fill="#5CB0FF"/>
<path d="M214.12 168.135C214.12 168.135 214.442 165.912 211.773 162.375C209.104 158.837 207.357 156.744 207.357 156.744C207.357 156.744 205.067 161.635 207.51 165.168C209.324 167.663 211.342 170.002 213.544 172.162L214.12 168.135Z" fill="#5CB0FF"/>
<path d="M211.019 181.209C211.019 181.209 211.019 178.963 214.163 175.814C217.307 172.665 219.333 170.88 219.333 170.88C219.333 170.88 220.907 176.049 217.984 179.198C215.836 181.416 213.506 183.451 211.019 185.28V181.209Z" fill="#5CB0FF"/>
<path d="M213.122 193.061C213.122 193.061 212.55 190.886 214.797 187.046C217.043 183.206 218.56 180.96 218.56 180.96C218.56 180.96 221.392 185.563 219.362 189.346C217.842 192.031 216.102 194.586 214.158 196.982L213.122 193.061Z" fill="#5CB0FF"/>
<path d="M219.136 124.67C218.978 127.011 218.69 129.341 218.272 131.65C217.029 138.077 213.918 142.21 212.675 148.027C211.432 153.845 215.003 161.309 214.048 168.763C213.093 176.218 210.208 180.365 211.019 185.338C211.83 190.31 216.299 204.797 216.299 204.797" stroke="#263238" stroke-width="0.5" stroke-linecap="round" stroke-linejoin="round"/>
<path d="M218.622 130.57L222.011 127.963" stroke="#263238" stroke-width="0.5" stroke-linecap="round" stroke-linejoin="round"/>
<path d="M218.781 127.57L217.36 125.05" stroke="#263238" stroke-width="0.5" stroke-linecap="round" stroke-linejoin="round"/>
<path d="M212.867 147.759C212.867 147.759 215.704 145.627 218.627 143.501" stroke="#263238" stroke-width="0.5" stroke-linecap="round" stroke-linejoin="round"/>
<path d="M214.283 143.328C214.283 143.328 211.917 138.691 209.238 135.614" stroke="#263238" stroke-width="0.5" stroke-linecap="round" stroke-linejoin="round"/>
<path d="M214.283 166.92C215.904 163.934 217.95 161.198 220.355 158.798" stroke="#263238" stroke-width="0.5" stroke-linecap="round" stroke-linejoin="round"/>
<path d="M213.731 170.073C212.872 168.047 211.844 166.096 210.659 164.241C209.003 161.793 208.739 161.481 208.739 161.481" stroke="#263238" stroke-width="0.5" stroke-linecap="round" stroke-linejoin="round"/>
<path d="M211.019 185.338C211.739 183.553 212.592 181.824 213.573 180.168C214.557 178.64 215.664 177.195 216.885 175.848" stroke="#263238" stroke-width="0.5" stroke-linecap="round" stroke-linejoin="round"/>
<path d="M214.144 196.978C213.98 195.273 214.273 193.555 214.993 192C216.179 189.711 217.518 186.72 218.07 185.53" stroke="#263238" stroke-width="0.5" stroke-linecap="round" stroke-linejoin="round"/>
<path d="M198.246 155.271C198.246 155.271 198.001 153.864 199.633 151.546C201.265 149.227 202.336 147.883 202.336 147.883C202.336 147.883 203.886 150.955 202.393 153.245C201.288 154.869 200.046 156.396 198.683 157.81L198.246 155.271Z" fill="#5CB0FF"/>
<path d="M202.634 163.579C202.634 163.579 202.389 162.168 204.021 159.854C205.653 157.541 206.728 156.192 206.728 156.192C206.728 156.192 208.274 159.264 206.781 161.553C205.674 163.175 204.433 164.7 203.07 166.113L202.634 163.579Z" fill="#5CB0FF"/>
<path d="M198.784 157.651C198.784 157.651 198.395 156.274 195.904 154.896C193.413 153.518 191.882 152.77 191.882 152.77C191.882 152.77 191.819 156.211 194.152 157.627C195.854 158.607 197.634 159.444 199.475 160.128L198.784 157.651Z" fill="#5CB0FF"/>
<path d="M204.045 167.448C204.045 167.448 203.512 166.118 200.906 165.009C198.299 163.901 196.677 163.32 196.677 163.32C196.677 163.32 196.979 166.742 199.451 167.909C201.246 168.702 203.103 169.344 205.005 169.829L204.045 167.448Z" fill="#5CB0FF"/>
<path d="M205.355 178.891C205.355 178.891 205.111 177.485 202.797 175.853C200.483 174.221 199.019 173.313 199.019 173.313C199.019 173.313 198.592 176.726 200.767 178.382C202.355 179.54 204.038 180.563 205.797 181.44L205.355 178.891Z" fill="#5CB0FF"/>
<path d="M205.869 181.651C205.869 181.651 205.427 180.293 206.713 177.768C208 175.243 208.869 173.76 208.869 173.76C208.869 173.76 210.837 176.582 209.689 179.04C208.822 180.802 207.811 182.489 206.665 184.085L205.869 181.651Z" fill="#5CB0FF"/>
<path d="M209.819 193.023C209.819 193.023 209.982 191.583 212.219 189.84C214.456 188.098 215.843 187.09 215.843 187.09C215.843 187.09 216.462 190.474 214.403 192.25C212.883 193.494 211.261 194.608 209.555 195.581L209.819 193.023Z" fill="#5CB0FF"/>
<path d="M209.233 189.514C209.233 189.514 208.988 188.107 206.675 186.475C204.361 184.843 202.897 183.936 202.897 183.936C202.897 183.936 202.47 187.349 204.644 189.005C206.232 190.159 207.913 191.179 209.67 192.053L209.233 189.514Z" fill="#5CB0FF"/>
<path d="M209.2 197.175C209.2 197.175 209.325 195.735 207.496 193.584C205.667 191.434 204.486 190.171 204.486 190.171C204.486 190.171 203.21 193.368 204.894 195.519C206.137 197.038 207.505 198.451 208.984 199.743L209.2 197.175Z" fill="#5CB0FF"/>
<path d="M198.006 154.939C198.359 156.391 198.792 157.822 199.302 159.226C200.781 163.119 203.181 165.379 204.582 168.888C205.984 172.397 204.582 177.466 205.974 182.04C207.366 186.615 209.651 188.895 209.67 192.12C209.69 195.346 208.422 204.25 208.422 204.25" stroke="#263238" stroke-width="0.5" stroke-linecap="round" stroke-linejoin="round"/>
<path d="M198.966 158.582L196.557 157.32" stroke="#263238" stroke-width="0.5" stroke-linecap="round" stroke-linejoin="round"/>
<path d="M198.544 156.72L199.158 154.987" stroke="#263238" stroke-width="0.5" stroke-linecap="round" stroke-linejoin="round"/>
<path d="M204.443 168.739C204.443 168.739 202.432 167.712 200.373 166.694" stroke="#263238" stroke-width="0.5" stroke-linecap="round" stroke-linejoin="round"/>
<path d="M203.07 166.114C203.663 164.245 204.443 162.44 205.398 160.728" stroke="#263238" stroke-width="0.5" stroke-linecap="round" stroke-linejoin="round"/>
<path d="M205.633 180.912C204.293 179.215 202.713 177.721 200.944 176.477" stroke="#263238" stroke-width="0.5" stroke-linecap="round" stroke-linejoin="round"/>
<path d="M206.32 182.827C206.641 181.462 207.074 180.127 207.616 178.834C208.389 177.12 208.504 176.914 208.504 176.914" stroke="#263238" stroke-width="0.5" stroke-linecap="round" stroke-linejoin="round"/>
<path d="M209.574 194.539C210.354 193.568 211.22 192.668 212.161 191.851C212.761 191.408 213.324 190.919 213.846 190.387" stroke="#263238" stroke-width="0.5" stroke-linecap="round" stroke-linejoin="round"/>
<path d="M209.68 192.106C209.039 191.056 208.317 190.057 207.52 189.12C206.738 188.266 205.887 187.478 204.976 186.763" stroke="#263238" stroke-width="0.5" stroke-linecap="round" stroke-linejoin="round"/>
<path d="M208.984 199.742C208.903 198.655 208.532 197.609 207.909 196.714C206.92 195.408 205.754 193.67 205.278 192.989" stroke="#263238" stroke-width="0.5" stroke-linecap="round" stroke-linejoin="round"/>
<path d="M216.203 222.11H207.141C206.747 222.11 206.431 221.63 206.431 221.074L204.16 204.365H219.146L216.899 221.074C216.919 221.645 216.602 222.11 216.203 222.11Z" fill="#263238" stroke="#263238" stroke-width="0.5" stroke-linecap="round" stroke-linejoin="round"/>
<path d="M204.77 207.273H215.555" stroke="white" stroke-width="0.5" stroke-linecap="round" stroke-linejoin="round"/>
<path d="M216.573 207.273H218.349" stroke="white" stroke-width="0.5" stroke-linecap="round" stroke-linejoin="round"/>
<path d="M132.789 213.268C132.789 213.268 130.259 216.427 128.743 217.185C127.226 217.944 122.93 219.46 122.8 220.598C122.671 221.736 122.675 222.494 122.675 222.494H142.653C142.653 222.494 143.032 222.014 142.903 220.219C142.773 218.424 141.515 212.889 141.515 212.889L132.789 213.268Z" fill="white" stroke="#263238" stroke-width="0.5" stroke-linecap="round" stroke-linejoin="round"/>
<path d="M142.927 220.978H122.767C122.68 221.904 122.68 222.494 122.68 222.494H142.658C142.658 222.494 142.917 222.139 142.927 220.978Z" fill="white" stroke="#263238" stroke-width="0.5" stroke-linecap="round" stroke-linejoin="round"/>
<path d="M164.522 221.865C164.522 221.865 164.383 218.352 164.522 216.806C164.588 215.541 164.546 214.272 164.397 213.014H172.739C172.739 213.014 173.627 216.427 174.511 217.689C175.394 218.952 176.407 220.728 176.407 221.357V222.494H164.651L164.522 221.865Z" fill="white" stroke="#263238" stroke-width="0.5" stroke-linecap="round" stroke-linejoin="round"/>
<path d="M176.407 221.357C176.404 221.272 176.391 221.188 176.368 221.107H164.498L164.522 221.865L164.652 222.494H176.407V221.357Z" fill="white" stroke="#263238" stroke-width="0.5" stroke-linecap="round" stroke-linejoin="round"/>
<path d="M136.586 127.075C136.586 127.075 133.043 147.365 132.573 157.752C132.102 168.139 131.392 180.403 132.338 186.302C133.283 192.201 133.043 208.248 133.043 208.248C133.043 208.248 130.686 209.899 131.392 212.025L132.102 214.147L142.365 216.624C142.674 215.266 142.871 213.886 142.955 212.496C143.19 209.664 142.475 208.718 142.475 207.067C142.475 205.416 147.779 173.577 148.014 172.637C148.25 171.696 150.736 145.713 150.736 145.713L152.243 150.96C152.243 150.96 156.904 175.07 158.32 182.16C159.736 189.249 163.24 203.28 163.24 205.2C163.24 207.12 163.475 208.737 163.475 210.389C163.475 212.04 162.77 211.569 163.475 213.221C164.181 214.872 164.656 216.293 164.656 216.293L173.776 216.537C173.407 214.591 173.269 212.608 173.363 210.629C173.598 208.032 173.363 204.019 173.598 200.246C173.834 196.473 175.25 185.366 174.309 179.952C173.368 174.537 172.418 175.229 172.418 170.275V140.049C172.418 135.806 170.061 126.835 170.061 126.835C170.061 126.835 153.304 128.491 147.405 128.016C141.506 127.541 136.586 127.075 136.586 127.075Z" fill="#263238" stroke="#263238" stroke-width="0.5" stroke-linecap="round" stroke-linejoin="round"/>
<path d="M142.749 128.419C148.472 130.452 154.712 130.506 160.47 128.572L159.99 126.086C159.99 126.086 150.506 126.24 147.395 125.774C144.285 125.308 142.595 125.155 142.595 125.155" fill="#5E5E5E"/>
<path d="M142.749 128.419C148.472 130.452 154.712 130.506 160.47 128.572L159.99 126.086C159.99 126.086 150.506 126.24 147.395 125.774C144.285 125.308 142.595 125.155 142.595 125.155" stroke="#263238" stroke-width="0.5" stroke-linecap="round" stroke-linejoin="round"/>
<path d="M151.921 127.909L148.755 127.629L148.59 129.499L151.756 129.778L151.921 127.909Z" fill="white" stroke="#263238" stroke-width="0.5" stroke-linecap="round" stroke-linejoin="round"/>
<path d="M155.2 77.731C155.2 77.731 148.514 79.2862 146.181 80.2174C143.848 81.1486 143.382 99.6526 143.382 106.497C143.382 113.342 141.515 124.997 141.986 125.621C142.456 126.245 145.091 127.795 151 127.795C154.239 127.842 157.473 127.53 160.643 126.864C160.643 126.864 158.152 116.304 161.123 106.185C164.094 96.067 165.63 82.8622 164.541 80.683C163.451 78.5038 155.2 77.731 155.2 77.731Z" fill="#5CB0FF" stroke="#263238" stroke-width="0.5" stroke-linecap="round" stroke-linejoin="round"/>
<path d="M151.921 90.2637C151.921 90.2637 149.493 110.692 149.493 126.264" stroke="#263238" stroke-width="0.5" stroke-linecap="round" stroke-linejoin="round"/>
<path d="M153.242 91.896C153.242 91.991 153.214 92.0838 153.161 92.1627C153.108 92.2416 153.033 92.3032 152.945 92.3395C152.858 92.3758 152.761 92.3853 152.668 92.3668C152.575 92.3483 152.489 92.3026 152.422 92.2354C152.355 92.1683 152.309 92.0828 152.291 91.9897C152.272 91.8966 152.282 91.8 152.318 91.7123C152.355 91.6246 152.416 91.5497 152.495 91.4969C152.574 91.4442 152.667 91.416 152.762 91.416C152.889 91.416 153.011 91.4666 153.101 91.5566C153.191 91.6466 153.242 91.7687 153.242 91.896Z" fill="#263238"/>
<path d="M152.483 98.8799C152.483 98.9748 152.455 99.0676 152.403 99.1466C152.35 99.2255 152.275 99.287 152.187 99.3234C152.099 99.3597 152.003 99.3692 151.91 99.3507C151.817 99.3322 151.731 99.2864 151.664 99.2193C151.597 99.1522 151.551 99.0667 151.533 98.9735C151.514 98.8804 151.524 98.7839 151.56 98.6962C151.596 98.6085 151.658 98.5335 151.737 98.4808C151.816 98.4281 151.909 98.3999 152.003 98.3999C152.131 98.3999 152.253 98.4505 152.343 98.5405C152.433 98.6305 152.483 98.7526 152.483 98.8799Z" fill="#263238"/>
<path d="M151.864 106.593C151.864 106.688 151.836 106.781 151.783 106.86C151.731 106.939 151.656 107 151.568 107.037C151.48 107.073 151.384 107.083 151.291 107.064C151.198 107.046 151.112 107 151.045 106.933C150.978 106.866 150.932 106.78 150.914 106.687C150.895 106.594 150.905 106.497 150.941 106.41C150.977 106.322 151.039 106.247 151.118 106.194C151.197 106.141 151.289 106.113 151.384 106.113C151.512 106.113 151.634 106.164 151.724 106.254C151.814 106.344 151.864 106.466 151.864 106.593Z" fill="#263238"/>
<path d="M151.034 114.739C151.301 114.739 151.518 114.522 151.518 114.254C151.518 113.987 151.301 113.77 151.034 113.77C150.766 113.77 150.549 113.987 150.549 114.254C150.549 114.522 150.766 114.739 151.034 114.739Z" fill="#263238"/>
<path d="M150.343 122.673C150.61 122.673 150.828 122.456 150.828 122.188C150.828 121.921 150.61 121.704 150.343 121.704C150.075 121.704 149.858 121.921 149.858 122.188C149.858 122.456 150.075 122.673 150.343 122.673Z" fill="#263238"/>
<path d="M134.819 84.4177C134.819 84.4177 134.215 89.1025 134.215 91.4977C134.215 93.8929 128.719 105.394 127.922 106.987C126.917 108.844 126.086 110.79 125.44 112.8C124.245 116.256 124.48 120.706 125.147 121.92C125.815 123.134 129.568 123.182 132.093 121.718C134.618 120.254 137.143 115.205 137.81 108.691C138.477 102.178 137.939 89.6737 137.675 87.2833C137.411 84.8929 136.355 83.8513 134.819 84.4177Z" fill="#5E5E5E" stroke="#263238" stroke-width="0.5" stroke-linecap="round" stroke-linejoin="round"/>
<path d="M129.822 108.35C129.822 108.35 134.541 109.612 134.699 114.643" stroke="#263238" stroke-width="0.5" stroke-linecap="round" stroke-linejoin="round"/>
<path d="M129.035 106.622C129.035 106.622 130.134 105.207 132.179 106.781" stroke="#263238" stroke-width="0.5" stroke-linecap="round" stroke-linejoin="round"/>
<path d="M148.346 87.0622C148.346 87.0622 145.701 109.296 145.077 117.845C144.453 126.393 141.972 137.592 140.57 140.702C139.168 143.813 132.487 148.008 132.487 148.008C132.487 148.008 133.73 136.968 134.508 129.509C135.285 122.049 136.375 112.709 136.375 107.909C136.375 103.109 134.661 86.1406 134.82 84.4318C134.978 82.723 147.88 78.835 147.88 78.835C148.566 81.5215 148.724 84.3154 148.346 87.0622Z" fill="#5E5E5E" stroke="#263238" stroke-width="0.5" stroke-linecap="round" stroke-linejoin="round"/>
<path d="M145.6 112.181C146.584 102.101 148.37 87.0624 148.37 87.0624C148.744 84.31 148.581 81.511 147.89 78.8208C147.89 78.8208 147.213 79.0224 146.176 79.3536L141.376 88.0704L145.96 89.5968L141.568 92.8464L145.6 112.181Z" fill="#263238" stroke="#263238" stroke-width="0.5" stroke-linecap="round" stroke-linejoin="round"/>
<path d="M200.219 108.552C200.219 108.552 201.439 102.984 201.093 101.419C200.747 99.8542 197.253 101.246 197.253 102.984C197.253 104.721 199.178 107.683 200.219 108.552Z" fill="#263238" stroke="#263238" stroke-width="0.5" stroke-linecap="round" stroke-linejoin="round"/>
<path d="M198.136 99.3309C198.136 99.3309 200.056 97.7661 200.743 96.7245C201.361 95.7951 202.06 94.9214 202.831 94.1133C203.354 93.5901 206.311 92.8941 207.18 91.5069C208.048 90.1197 209.268 89.9373 209.268 91.3293C209.268 92.7213 206.829 94.2861 206.829 94.2861C206.829 94.2861 210.669 95.3325 211.528 95.3325C212.388 95.3325 216.919 94.2861 216.919 95.3325C216.919 96.3789 214.135 99.6813 212.57 100.2C211.005 100.718 201.439 102.638 201.439 102.638L198.655 105.595C198.655 105.595 197.09 102.288 198.136 99.3309Z" fill="white" stroke="#263238" stroke-width="0.5" stroke-linecap="round" stroke-linejoin="round"/>
<path d="M216.376 95.3232C216.376 95.3232 217.149 92.8704 216.587 93.0096C216.026 93.1488 214.902 95.4624 214.763 96.3696C214.624 97.2768 216.376 95.3232 216.376 95.3232Z" fill="white" stroke="#263238" stroke-width="0.5" stroke-linecap="round" stroke-linejoin="round"/>
<path d="M214.586 98.8224C215.564 97.9342 216.377 96.8794 216.986 95.7072C217.836 93.9312 217.274 93.96 216.679 94.4064C216.084 94.8528 215.397 96.4944 214.922 97.2288C214.447 97.9632 213.962 98.6352 213.962 98.6352" fill="white"/>
<path d="M214.586 98.8224C215.564 97.9342 216.377 96.8794 216.986 95.7072C217.836 93.9312 217.274 93.96 216.679 94.4064C216.084 94.8528 215.397 96.4944 214.922 97.2288C214.447 97.9632 213.962 98.6352 213.962 98.6352" stroke="#263238" stroke-width="0.5" stroke-linecap="round" stroke-linejoin="round"/>
<path d="M212.901 99.6864C214.07 99.2912 215.04 98.4562 215.603 97.3584C216.515 95.5344 216.515 94.9584 215.887 95.3232C215.258 95.688 214.763 96.2832 214.135 97.2864C213.722 97.9181 213.168 98.4455 212.517 98.8272" fill="white"/>
<path d="M212.901 99.6864C214.07 99.2912 215.04 98.4562 215.603 97.3584C216.515 95.5344 216.515 94.9584 215.887 95.3232C215.258 95.688 214.763 96.2832 214.135 97.2864C213.722 97.9181 213.168 98.4455 212.517 98.8272" stroke="#263238" stroke-width="0.5" stroke-linecap="round" stroke-linejoin="round"/>
<path d="M201.03 100.872C201.03 100.872 202.216 98.7936 202.811 98.3472C203.406 97.9008 210.822 98.9424 210.822 98.9424C210.822 98.9424 214.182 95.5152 214.624 95.8128C215.065 96.1104 213.232 99.1727 212.901 99.6863C212.569 100.2 206.373 101.318 206.373 101.318" fill="white"/>
<path d="M201.03 100.872C201.03 100.872 202.216 98.7936 202.811 98.3472C203.406 97.9008 210.822 98.9424 210.822 98.9424C210.822 98.9424 214.182 95.5152 214.624 95.8128C215.065 96.1104 213.232 99.1727 212.901 99.6863C212.569 100.2 206.373 101.318 206.373 101.318" stroke="#263238" stroke-width="0.5" stroke-linecap="round" stroke-linejoin="round"/>
<path d="M177.28 83.1552C177.28 83.1552 179.368 93.9408 180.76 97.9392C182.152 101.938 183.194 105.072 183.194 105.072C183.319 105.026 183.453 105.007 183.587 105.019C183.72 105.03 183.849 105.07 183.965 105.136C184.082 105.202 184.182 105.293 184.259 105.402C184.336 105.512 184.389 105.636 184.413 105.768L184.758 106.81L198.501 98.2896C198.495 100.15 198.612 102.008 198.851 103.853C199.202 105.45 199.666 107.02 200.238 108.552C200.238 108.552 191.546 115.507 188.238 117.768C184.931 120.029 180.078 121.421 178.845 121.248C177.611 121.075 170.843 109.944 170.843 109.944C170.843 109.944 173.454 94.8096 173.8 89.784C174.146 84.7584 176.392 82.6368 177.28 83.1552Z" fill="#5E5E5E" stroke="#263238" stroke-width="0.5" stroke-linecap="round" stroke-linejoin="round"/>
<path d="M184.739 106.81C184.739 106.81 182.819 108.826 182.819 111.029" stroke="#263238" stroke-width="0.5" stroke-linecap="round" stroke-linejoin="round"/>
<path d="M183.174 105.072C183.174 105.072 180.16 108.197 179.531 111.792" stroke="#263238" stroke-width="0.5" stroke-linecap="round" stroke-linejoin="round"/>
<path d="M174.468 95.299C174.468 95.299 170.892 116.899 171.669 121.733C172.447 126.566 180.064 144.432 180.064 144.432C166.624 149.405 162.784 146.923 161.253 145.776C160.25 145.022 157.984 130.752 156.429 123.288C154.874 115.824 155.949 108.36 158.296 99.499C160.644 90.6382 161.407 78.043 161.407 78.043C161.407 78.043 167.935 81.307 171.823 81.7726C175.711 82.2382 176.796 81.931 177.266 83.9518C177.736 85.9726 176.488 89.5486 176.488 90.0142" fill="#5E5E5E"/>
<path d="M174.468 95.299C174.468 95.299 170.892 116.899 171.669 121.733C172.447 126.566 180.064 144.432 180.064 144.432C166.624 149.405 162.784 146.923 161.253 145.776C160.25 145.022 157.984 130.752 156.429 123.288C154.874 115.824 155.949 108.36 158.296 99.499C160.644 90.6382 161.407 78.043 161.407 78.043C161.407 78.043 167.935 81.307 171.823 81.7726C175.711 82.2382 176.796 81.931 177.266 83.9518C177.736 85.9726 176.488 89.5486 176.488 90.0142" stroke="#263238" stroke-width="0.5" stroke-linecap="round" stroke-linejoin="round"/>
<path d="M159.342 104.314C161.824 99.1535 167.2 90.7439 167.2 90.7439L162.232 88.8239L167.963 86.9039L166.139 80.0975C163.576 79.0943 161.43 78.0239 161.43 78.0239C161.43 78.0239 160.653 90.6191 158.32 99.4799C157 104.501 156.078 109.08 155.81 113.448C156.786 110.329 157.966 107.278 159.342 104.314Z" fill="#263238" stroke="#263238" stroke-width="0.5" stroke-linecap="round" stroke-linejoin="round"/>
<path d="M161.814 127.358L172.254 124.531L172.61 126.298L166.062 128.069" stroke="#263238" stroke-width="0.5" stroke-linecap="round" stroke-linejoin="round"/>
<path d="M149.339 79.5119C148.05 80.8603 147.221 82.5829 146.973 84.4319C146.651 86.7215 146.637 89.1599 145.422 91.1279C148.226 91.4639 149.949 87.2255 152.762 87.4559C154.034 87.5615 155.008 88.5695 156.011 89.3759C156.884 90.0757 157.854 90.6449 158.891 91.0655C158.984 91.1305 159.092 91.1685 159.205 91.1753C159.317 91.1822 159.43 91.1576 159.529 91.1043C159.629 91.0511 159.712 90.9713 159.768 90.8737C159.825 90.7762 159.854 90.6648 159.851 90.5519C160.328 88.5999 160.8 86.6479 161.267 84.6959C161.829 82.3823 162.314 79.6895 160.835 77.8175C159.65 76.3199 157.475 75.8975 155.608 76.2383C153.239 76.6823 151.057 77.822 149.339 79.5119Z" fill="#5CB0FF" stroke="#263238" stroke-width="0.5" stroke-linecap="round" stroke-linejoin="round"/>
<path d="M143.68 56.7406C143.68 56.7406 142.749 59.851 142.902 61.2478C143.056 62.6446 143.056 63.2734 142.422 63.5806C141.789 63.8878 139.792 65.2798 139.95 66.2398C140.109 67.1998 141.813 68.5726 141.813 68.5726C141.815 70.2351 141.919 71.8958 142.125 73.5454C142.437 75.571 143.368 75.8782 143.834 76.0366C144.299 76.195 146.632 76.0366 146.632 76.0366C146.632 76.0366 148.187 81.7966 149.742 85.051C151.298 88.3054 151.763 89.875 152.387 88.939C153.011 88.003 158.45 81.3214 159.227 78.379C160.005 75.4366 160.158 71.0398 160.158 71.0398C160.158 71.0398 163.269 66.3742 158.138 60.3118C153.006 54.2494 149.123 53.7838 147.098 54.0718C145.072 54.3598 143.68 56.7406 143.68 56.7406Z" fill="white" stroke="#263238" stroke-width="0.5" stroke-linecap="round" stroke-linejoin="round"/>
<path d="M144.611 52.5455C144.611 52.5455 138.395 52.387 139.015 55.8094C139.634 59.2318 149.431 56.587 149.431 56.587C149.431 56.587 147.568 59.539 149.123 60.475C150.679 61.411 152.075 61.2478 152.075 61.7182C152.075 62.1886 151.298 62.9615 152.699 63.5807C154.101 64.1999 155.963 64.0606 156.117 65.6014C156.271 67.1422 153.784 70.1134 154.874 71.0446C155.963 71.9758 160.005 72.5998 160.936 71.3566C161.867 70.1134 165.136 67.4686 166.067 60.475C166.999 53.4814 164.047 50.2126 161.095 49.123C158.143 48.0335 158.45 50.9903 158.45 50.9903C158.45 50.9903 150.832 46.7903 146.013 48.3455C141.194 49.9007 144.611 52.5455 144.611 52.5455Z" fill="#263238" stroke="#263238" stroke-width="0.5" stroke-linecap="round" stroke-linejoin="round"/>
<path d="M152.387 64.9822C152.387 64.9822 153.477 61.0942 155.498 61.7182C157.519 62.3422 157.053 66.379 155.978 67.7806C155.646 68.1828 155.207 68.4833 154.712 68.648C154.217 68.8127 153.686 68.8348 153.179 68.7118C153.179 68.7118 152.248 71.5102 149.915 72.5998L147.583 73.6894" fill="white"/>
<path d="M152.387 64.9822C152.387 64.9822 153.477 61.0942 155.498 61.7182C157.519 62.3422 157.053 66.379 155.978 67.7806C155.646 68.1828 155.207 68.4833 154.712 68.648C154.217 68.8127 153.686 68.8348 153.179 68.7118C153.179 68.7118 152.248 71.5102 149.915 72.5998L147.583 73.6894" stroke="#263238" stroke-width="0.5" stroke-linecap="round" stroke-linejoin="round"/>
<path d="M143.68 61.2478C143.68 61.2478 145.077 59.851 145.547 61.7278" stroke="#263238" stroke-width="0.5" stroke-linecap="round" stroke-linejoin="round"/>
<path d="M144.612 63.8926C144.612 64.579 144.439 65.1358 144.223 65.1358C144.007 65.1358 143.834 64.579 143.834 63.8926C143.834 63.2062 144.012 62.6494 144.223 62.6494C144.434 62.6494 144.612 63.2062 144.612 63.8926Z" fill="#263238"/>
<path d="M129.558 125.938C129.558 125.938 132.482 123.413 133.398 120.883C134.315 118.354 131.958 116.496 130.475 117.826C128.992 119.155 129.558 125.938 129.558 125.938Z" fill="white" stroke="#263238" stroke-width="0.5" stroke-linecap="round" stroke-linejoin="round"/>
<path d="M133.015 114.888L144.851 113.429L145.115 126.062H135.141L132.083 115.954L133.015 114.888Z" fill="#263238" stroke="#263238" stroke-width="0.5" stroke-linecap="round" stroke-linejoin="round"/>
<path d="M130.754 112.363C130.754 112.363 135.674 117.816 136.072 118.214C136.471 118.613 135.146 120.341 134.215 121.67C133.284 123 131.152 123.931 131.152 123.931L129.559 128.318C129.559 128.318 124.903 122.736 124.639 120.475C124.375 118.214 126.501 114.235 127.298 113.275C127.699 112.745 128.196 112.294 128.762 111.945" fill="#5E5E5E"/>
<path d="M130.754 112.363C130.754 112.363 135.674 117.816 136.072 118.214C136.471 118.613 135.146 120.341 134.215 121.67C133.284 123 131.152 123.931 131.152 123.931L129.559 128.318C129.559 128.318 124.903 122.736 124.639 120.475C124.375 118.214 126.501 114.235 127.298 113.275C127.699 112.745 128.196 112.294 128.762 111.945" stroke="#263238" stroke-width="0.5" stroke-linecap="round" stroke-linejoin="round"/>
<path d="M135.275 117.816C135.275 117.816 137.805 117.816 138.467 118.214C139.129 118.613 140.728 121.541 141.659 121.939C142.59 122.338 142.456 123.269 142.057 123.379C141.659 123.49 139.797 122.981 139.398 122.717C139 122.453 137.401 121.651 137.401 121.651C137.401 121.651 140.065 124.31 140.593 124.843C141.121 125.376 141.659 126.173 141.126 126.706C140.593 127.238 138.333 127.238 138.333 127.238C137.865 127.774 137.271 128.185 136.605 128.434C135.673 128.702 134.205 128.966 133.014 128.17C131.824 127.373 131.152 125.64 131.152 123.912C131.152 122.184 135.275 117.816 135.275 117.816Z" fill="white" stroke="#263238" stroke-width="0.5" stroke-linecap="round" stroke-linejoin="round"/>
<path d="M112.283 97.9197C112.283 97.9197 115.057 112.56 116.07 118.324C117.083 124.089 119.43 134.865 119.43 134.865C119.43 134.865 121.297 142.694 121.053 145.171C120.808 147.648 119.886 150.326 119.013 151.166C118.139 152.006 116.31 151.819 116.104 151.272C115.897 150.724 116.646 149.745 116.646 149.745C116.646 149.745 114.952 150.897 114.51 150.062C114.069 149.227 115.432 148.704 115.432 148.704C115.432 148.704 114.049 148.041 114.376 147.412C114.702 146.784 116.003 146.932 116.003 146.932C116.003 146.932 114.525 144.532 114.721 142.588C114.918 140.644 115.681 138.206 115.72 137.812C115.758 137.419 111.606 127.392 111.606 127.392C111.606 127.392 107.445 112.939 105.817 108.038C104.19 103.137 106.552 98.4381 107.531 97.8717C108.51 97.3053 112.283 97.9197 112.283 97.9197Z" fill="white" stroke="#263238" stroke-width="0.5" stroke-linecap="round" stroke-linejoin="round"/>
<path d="M118.504 140.438C118.504 140.438 117.064 142.934 117.674 144.84C118.283 146.745 118.605 147.432 118.552 147.955C118.499 148.478 117.213 150.835 117.136 151.636C117.059 152.438 118.269 152.145 119.027 151.156C119.786 150.168 120.525 150.643 120.837 147.513C120.976 145.285 120.797 143.048 120.304 140.87" fill="white"/>
<path d="M118.504 140.438C118.504 140.438 117.064 142.934 117.674 144.84C118.283 146.745 118.605 147.432 118.552 147.955C118.499 148.478 117.213 150.835 117.136 151.636C117.059 152.438 118.269 152.145 119.027 151.156C119.786 150.168 120.525 150.643 120.837 147.513C120.976 145.285 120.797 143.048 120.304 140.87" stroke="#263238" stroke-width="0.5" stroke-linecap="round" stroke-linejoin="round"/>
<path d="M119.445 134.88C119.445 134.88 117.084 124.104 116.085 118.339C115.087 112.574 112.284 97.9199 112.284 97.9199C112.284 97.9199 108.525 97.2863 107.546 97.8479C106.567 98.4095 104.186 103.128 105.832 108.019C107.479 112.91 111.621 127.373 111.621 127.373C111.621 127.373 115.773 137.405 115.735 137.794L119.815 136.488C119.599 135.514 119.445 134.88 119.445 134.88Z" fill="#5CB0FF" stroke="#263238" stroke-width="0.5" stroke-linecap="round" stroke-linejoin="round"/>
<path d="M116.172 212.894C116.172 212.894 123.055 213.537 125.613 213.057C128.172 212.577 130.893 213.696 131.215 214.814C131.536 215.932 131.052 217.056 127.692 218.496C124.332 219.936 122.095 219.777 117.933 220.737C113.772 221.697 112.495 222.336 111.213 221.856C109.932 221.376 109.452 215.616 109.452 215.616L116.172 212.894Z" fill="white" stroke="#263238" stroke-width="0.5" stroke-linecap="round" stroke-linejoin="round"/>
<path d="M116.172 212.894C116.172 212.894 123.055 213.537 125.613 213.057C128.172 212.577 130.893 213.696 131.215 214.814C131.536 215.932 131.052 217.056 127.692 218.496C124.332 219.936 122.095 219.777 117.933 220.737C113.772 221.697 112.495 222.336 111.213 221.856C109.932 221.376 109.452 215.616 109.452 215.616L116.172 212.894Z" fill="#263238" stroke="#263238" stroke-width="0.5" stroke-linecap="round" stroke-linejoin="round"/>
<path d="M131.2 214.814C130.888 213.729 128.32 212.644 125.819 213.023L126.558 217.214C126.558 217.214 121.6 218.015 116.637 219.297C114.555 219.835 112.435 220.214 110.296 220.43C110.541 221.159 110.838 221.721 111.198 221.87C112.48 222.35 113.757 221.711 117.918 220.751C122.08 219.791 124.317 219.95 127.677 218.51C131.037 217.07 131.531 215.937 131.2 214.814Z" fill="white" stroke="#263238" stroke-width="0.5" stroke-linecap="round" stroke-linejoin="round"/>
<path d="M85.1201 214.017C85.1201 214.017 85.7585 216.576 88.0001 217.056C90.2417 217.536 92.8001 219.777 92.8001 220.896C92.8001 222.014 91.6769 222.494 87.3569 222.494C83.0369 222.494 80.6081 222.878 78.6881 221.755C76.7681 220.632 77.5985 215.774 77.9201 214.017C78.2417 212.26 85.1201 214.017 85.1201 214.017Z" fill="#263238" stroke="#263238" stroke-width="0.5" stroke-linecap="round" stroke-linejoin="round"/>
<path d="M92.8003 220.896C92.8003 220.272 91.9987 219.297 90.9043 218.472C89.7955 218.635 88.1107 218.952 87.1987 219.456C85.7587 220.257 85.7587 221.054 85.7587 221.054C85.7587 221.054 81.6787 221.904 79.8067 220.958C78.944 220.505 78.1383 219.951 77.4067 219.307C77.5027 220.339 77.8531 221.265 78.6979 221.755C80.6179 222.878 83.0467 222.494 87.3667 222.494C91.6867 222.494 92.8003 222.014 92.8003 220.896Z" fill="white" stroke="#263238" stroke-width="0.5" stroke-linecap="round" stroke-linejoin="round"/>
<path d="M113.133 131.616C113.133 131.616 114.093 136.574 115.053 143.457C116.013 150.341 115.855 167.774 115.855 175.617C115.855 183.461 116.013 207.777 116.013 208.574V210.657C116.013 210.657 108.972 213.537 108.492 213.537C108.012 213.537 106.092 201.537 104.652 195.134C103.212 188.731 102.4 182.016 102.4 178.176C102.4 174.336 101.757 171.134 101.757 170.337C101.757 169.541 97.1203 145.214 97.1203 145.214C97.1203 145.214 92.9587 172.257 91.8403 177.854C90.7219 183.451 85.6003 207.936 85.2787 209.376C85.0675 210.537 84.9599 211.714 84.9571 212.894L78.2371 212.256C78.2371 212.256 78.0787 203.937 77.9203 197.217C77.7619 190.497 77.1187 184.737 77.5987 180.417C78.0787 176.097 79.5187 168.576 79.6771 167.774C79.8355 166.973 79.1971 148.896 79.1971 147.134C79.1971 145.373 79.6771 130.176 79.6771 130.176L101.757 130.497L113.133 131.616Z" fill="#263238" stroke="#263238" stroke-width="0.5" stroke-linecap="round" stroke-linejoin="round"/>
<path d="M106.571 211.296L108.654 217.377L118.413 212.736L116.651 207.297L106.571 211.296Z" fill="white" stroke="#263238" stroke-width="0.5" stroke-linecap="round" stroke-linejoin="round"/>
<path d="M76.8115 210.014L86.8915 210.974V214.814L76.9747 215.136L76.8115 210.014Z" fill="white" stroke="#263238" stroke-width="0.5" stroke-linecap="round" stroke-linejoin="round"/>
<path d="M90.2801 80.3899C90.2801 80.3899 81.8945 82.4203 79.0529 83.5003C76.2113 84.5803 75.5393 85.7995 75.1313 87.4219C74.7233 89.0443 79.1873 120.105 79.5953 123.35C80.0033 126.595 78.7841 131.059 81.0833 133.358C83.3825 135.657 94.9601 136.56 101.368 136.468C107.512 136.377 112.12 135.336 113.339 133.036C114.558 130.737 114.218 129.705 114.218 124.838C114.218 119.971 113.81 103.2 113.406 96.9979C113.003 90.7963 113.133 87.9355 110.834 86.3131C108.534 84.6907 104.478 80.4091 102.045 80.2747C99.6113 80.1403 92.1713 79.3099 90.2801 80.3899Z" fill="#5CB0FF" stroke="#263238" stroke-width="0.5" stroke-linecap="round" stroke-linejoin="round"/>
<path d="M94.0001 98.8892L90.1121 92.8364L86.2241 98.8892L90.1121 104.937L94.0001 98.8892Z" fill="white"/>
<path d="M102.861 98.8892L98.973 92.8364L95.085 98.8892L98.973 104.937L102.861 98.8892Z" fill="white"/>
<path d="M111.717 98.8892L107.829 92.8364L103.946 98.8892L107.829 104.937L111.717 98.8892Z" fill="white"/>
<path d="M94.0001 112.089L90.1121 106.037L86.2241 112.089L90.1121 118.142L94.0001 112.089Z" fill="white"/>
<path d="M102.861 112.089L98.973 106.037L95.085 112.089L98.973 118.142L102.861 112.089Z" fill="white"/>
<path d="M111.717 112.089L107.829 106.037L103.946 112.089L107.829 118.142L111.717 112.089Z" fill="white"/>
<path d="M94.0001 125.289L90.1121 119.241L86.2241 125.289L90.1121 131.342L94.0001 125.289Z" fill="white"/>
<path d="M102.861 125.289L98.973 119.241L95.085 125.289L98.973 131.342L102.861 125.289Z" fill="white"/>
<path d="M111.717 125.289L107.829 119.241L103.946 125.289L107.829 131.342L111.717 125.289Z" fill="white"/>
<path d="M93.7938 77.7598C93.7938 77.7598 91.2258 79.2478 90.8178 80.3278C90.4098 81.4078 89.061 84.2494 89.061 84.2494L91.629 91.555L95.5506 86.8174L97.0386 86.1406L100.691 86.2798L105.011 91.5598C105.011 91.5598 105.688 87.0958 105.011 83.7118C104.335 80.3278 103.091 78.979 101.627 78.4318C100.163 77.8846 95.013 77.7598 93.7938 77.7598Z" fill="white" stroke="#263238" stroke-width="0.5" stroke-linecap="round" stroke-linejoin="round"/>
<path d="M92.9825 75.8783C92.9825 75.8783 92.8481 80.1983 92.8481 81.0191C92.8481 81.8399 98.2577 90.3503 99.2033 89.5391C100.149 88.7279 102.563 81.9647 102.563 81.9647L103.643 73.3247L92.9825 75.8783Z" fill="white" stroke="#263238" stroke-width="0.5" stroke-linecap="round" stroke-linejoin="round"/>
<path d="M90.957 61.9486C90.957 61.9486 89.3298 59.107 88.7922 61.2719C88.2546 63.4367 89.061 65.5919 89.8722 65.4671C90.6834 65.3423 90.957 61.9486 90.957 61.9486Z" fill="white" stroke="#263238" stroke-width="0.5" stroke-linecap="round" stroke-linejoin="round"/>
<path d="M91.9025 51.3979C91.9025 51.3979 89.1953 55.3243 89.1953 57.6379C89.1978 59.0189 89.5725 60.3737 90.2801 61.5595L93.5249 52.4971L91.9025 51.3979Z" fill="#263238" stroke="#263238" stroke-width="0.5" stroke-linecap="round" stroke-linejoin="round"/>
<path d="M92.9828 51.8062C92.9828 51.8062 90.9572 56.539 90.818 57.8926C90.6788 59.2462 88.9268 67.4926 88.9268 70.1998C88.9268 72.907 89.8868 73.5598 92.1716 74.6638C94.4564 75.7678 100.015 75.7438 102.045 74.6638C104.076 73.5838 105.832 69.3838 105.832 69.3838C105.832 69.3838 109.754 68.4238 109.485 65.9998C109.216 63.5758 106.778 64.651 106.778 64.651C106.778 64.651 108.535 61.4014 108.535 58.699C108.535 55.9966 98.666 51.5326 97.0388 51.259C95.4116 50.9854 92.9828 51.8062 92.9828 51.8062Z" fill="white" stroke="#263238" stroke-width="0.5" stroke-linecap="round" stroke-linejoin="round"/>
<path d="M93.5056 47.3325C91.6769 47.5629 90.1024 48.2589 90.8176 50.0493C91.9024 52.7517 93.6593 54.1053 96.904 55.1853C100.149 56.2653 104.075 56.6733 104.747 57.7581C105.419 58.8429 103.398 59.6493 104.21 60.3261L105.832 61.6797C105.832 61.6797 102.722 71.1453 102.448 71.5533C102.174 71.9613 99.4768 71.6877 98.8 70.5933C98.1232 69.4989 98.392 67.6173 97.0384 67.2333C95.6848 66.8493 91.3601 65.7453 90.9569 66.2733C90.0281 67.2203 89.333 68.3708 88.9264 69.6333C88.384 71.5293 87.9664 75.7197 90.8176 76.5309C93.6688 77.3421 99.3376 77.2077 100.826 76.3965C102.314 75.5853 104.21 74.2317 104.747 72.6093C105.285 70.9869 106.374 66.6573 107.454 64.2237C108.534 61.7901 111.645 59.0829 110.296 55.4349C108.947 51.7869 99.736 47.5917 97.336 47.3181C96.0625 47.1836 94.7781 47.1884 93.5056 47.3325Z" fill="#263238" stroke="#263238" stroke-width="0.5" stroke-linecap="round" stroke-linejoin="round"/>
<path d="M98.1042 61.3295C97.9362 61.9439 97.5954 62.3855 97.3458 62.2895C97.0962 62.1935 97.0241 61.6655 97.1921 61.0559C97.3602 60.4463 97.701 60.0047 97.9554 60.0959C98.2098 60.1871 98.2722 60.7199 98.1042 61.3295Z" fill="#263238"/>
<path d="M93.0353 59.9133C92.8673 60.5229 92.5265 60.9645 92.2721 60.8733C92.0177 60.7821 91.9505 60.2541 92.1233 59.6397C92.2961 59.0253 92.6321 58.5885 92.8817 58.6557C93.1313 58.7229 93.2033 59.2989 93.0353 59.9133Z" fill="#263238"/>
<path d="M97.6001 58.0269C97.6001 58.0269 99.8993 57.6237 100.442 60.1917" stroke="#263238" stroke-width="0.5" stroke-linecap="round" stroke-linejoin="round"/>
<path d="M93.9281 57.2156C93.9281 57.2156 93.1169 56.2556 91.6289 57.0812" stroke="#263238" stroke-width="0.5" stroke-linecap="round" stroke-linejoin="round"/>
<path d="M94.8787 58.4351L94.3363 61.2719C94.3363 61.2719 90.9763 64.1135 91.6291 65.7359C92.2819 67.3583 95.5507 66.0047 95.5507 66.0047" stroke="#263238" stroke-width="0.5" stroke-linecap="round" stroke-linejoin="round"/>
<path d="M94.0387 69.9935C93.0059 70.0193 91.9991 69.6677 91.2067 69.0047C91.1006 68.8951 91.0395 68.7496 91.0354 68.5971C91.0313 68.4446 91.0846 68.2961 91.1846 68.1809C91.2847 68.0657 91.4244 67.9923 91.576 67.9751C91.7276 67.9579 91.8801 67.9981 92.0035 68.0879C92.8243 68.8031 94.0819 68.9759 95.4499 68.5679C95.6039 68.5221 95.7699 68.5393 95.9112 68.6159C96.0525 68.6924 96.1577 68.8219 96.2035 68.9759C96.2493 69.13 96.2321 69.2959 96.1556 69.4372C96.0791 69.5786 95.9495 69.6837 95.7955 69.7295C95.2255 69.9009 94.6339 69.9898 94.0387 69.9935Z" fill="white" stroke="#263238" stroke-width="0.5" stroke-linecap="round" stroke-linejoin="round"/>
<path d="M96.9523 150.955C96.144 148.341 95.0409 145.827 93.6643 143.462C92.7859 142.075 92.6515 141.994 91.7443 140.582L91.2211 139.838L86.6323 142.042C86.6323 142.042 87.6835 146.261 87.9811 147.322C88.4127 148.373 89.0143 149.346 89.7619 150.202L89.8387 150.586L90.1267 152.448C90.1939 152.928 89.9395 154.368 90.1267 154.949C90.3139 155.53 90.9427 154.829 91.0867 154.09C91.1827 153.533 91.2883 152.136 91.3363 151.507L91.4131 151.536C91.4947 152.069 91.6435 153.067 91.6963 153.403C91.8309 154.239 92.1154 155.044 92.5363 155.779C92.9923 156.427 93.3523 155.654 93.3619 154.939C93.3619 154.363 93.0643 152.218 92.9395 151.397H93.0259C93.3584 152.142 93.6453 152.906 93.8851 153.686C93.9523 154.166 94.1827 155.669 94.7059 155.947C95.2291 156.226 95.6035 155.573 95.5603 154.507C95.428 153.346 95.2276 152.194 94.9603 151.056H95.2003C95.5619 151.622 95.843 152.236 96.0355 152.88C96.1459 153.581 96.2515 154.282 96.9139 153.941C97.5763 153.6 97.1923 151.757 96.9523 150.955Z" fill="white" stroke="#263238" stroke-width="0.5" stroke-linecap="round" stroke-linejoin="round"/>
<path d="M77.6994 84.4463C77.6994 84.4463 74.7234 85.4063 73.9122 87.9647C73.101 90.5231 72.1458 117.725 72.8946 119.928C73.6434 122.131 86.5266 143.04 86.5266 143.04L91.7634 140.602L81.3618 117.12L83.517 93.7679" fill="#5CB0FF"/>
<path d="M77.6994 84.4463C77.6994 84.4463 74.7234 85.4063 73.9122 87.9647C73.101 90.5231 72.1458 117.725 72.8946 119.928C73.6434 122.131 86.5266 143.04 86.5266 143.04L91.7634 140.602L81.3618 117.12L83.517 93.7679" stroke="#263238" stroke-width="0.5" stroke-linecap="round" stroke-linejoin="round"/>
</svg>
