<svg width="230" height="230" viewBox="0 0 230 230" fill="none" xmlns="http://www.w3.org/2000/svg">
<path d="M216.623 128.828C209.852 146.965 196.015 166.598 176.543 172.408C147.103 181.194 143.607 204.912 90.9098 202.713C83.215 202.426 75.5741 201.305 68.1213 199.369C64.4772 198.412 60.8987 197.221 57.408 195.804C26.6201 183.338 10.5799 155.894 9.22754 127.176C7.46574 89.4102 33.8191 71.4104 50.945 60.8672C68.0708 50.324 88.711 9.4852 140.535 11.2424C148.448 11.4763 156.308 12.6232 163.958 14.6602C181.396 19.3798 199.12 29.8402 209.42 45.08C210.192 46.2239 210.931 47.3953 211.637 48.5944C225.423 71.9808 225.86 104.098 216.623 128.828Z" fill="#5CB0FF"/>
<path opacity="0.7" d="M216.623 128.828C209.852 146.965 196.015 166.598 176.543 172.408C147.103 181.194 143.607 204.912 90.9098 202.713C83.215 202.426 75.5741 201.305 68.1213 199.369C64.4772 198.412 60.8987 197.221 57.408 195.804C26.6201 183.338 10.5799 155.894 9.22754 127.176C7.46574 89.4102 33.8191 71.4104 50.945 60.8672C68.0708 50.324 88.711 9.4852 140.535 11.2424C148.448 11.4763 156.308 12.6232 163.958 14.6602C181.396 19.3798 199.12 29.8402 209.42 45.08C210.192 46.2239 210.931 47.3953 211.637 48.5944C225.423 71.9808 225.86 104.098 216.623 128.828Z" fill="white"/>
<path d="M115.23 145.231C109.88 133.087 110.672 113.197 113.151 111.541C115.879 109.724 120.198 119.048 124.522 116.32C128.846 113.592 131.799 107.677 128.161 98.3526C124.522 89.0284 119.747 95.1694 116.334 97.4326C112.921 99.6958 110.193 97.6626 110.879 89.4746C111.38 83.4348 113.735 72.335 114.94 66.9346C115.483 67.1692 116.026 67.3946 116.56 67.6568C105.874 62.652 94.0472 61.0604 89.047 62.652C84.0468 64.2436 84.953 64.699 87.4508 70.61C92.6718 82.9426 72.9056 87.17 67.2108 77.671C63.8022 71.9854 68.8162 68.793 67.45 64.699C66.0838 60.605 40.8436 65.3798 37.6604 67.2014C37.6604 67.2014 43.7968 85.6014 42.8906 92.2162C41.9844 98.831 38.7966 101.77 34.0218 96.991C29.247 92.2116 23.106 96.531 22.876 104.498C22.646 112.465 24.0122 118.823 29.4724 117.006C34.9326 115.189 39.252 108.592 41.069 117.006C42.886 125.419 39.689 136.326 37.8858 144.067C37.8858 144.067 52.2148 150.208 58.8066 149.753C65.3984 149.298 69.497 149.072 67.45 144.978C65.403 140.884 61.9898 138.156 64.4922 133.607C66.9946 129.058 76.9996 129.513 82.2298 130.649C87.46 131.785 89.737 135.654 88.1454 139.973C86.5538 144.293 83.8214 148.617 88.8262 149.523C93.5412 150.383 105.533 148.41 117.346 144.564C116.647 144.79 115.92 145.01 115.23 145.231Z" stroke="#263238" stroke-width="0.5" stroke-miterlimit="10"/>
<path d="M119.517 143.837C118.818 144.077 118.114 144.297 117.415 144.541C118.114 144.311 118.818 144.077 119.517 143.837Z" stroke="#263238" stroke-width="0.5" stroke-miterlimit="10"/>
<path d="M202.525 94.9394C198.205 94.9394 197.975 98.3526 193.426 97.6718C188.876 96.991 188.426 86.526 193.2 68.1076C193.2 68.1076 187.97 71.9716 176.144 72.2016C164.317 72.4316 159.542 71.0608 162.5 66.7414C165.458 62.422 167.73 59.0088 165.228 55.6002C162.725 52.1916 150.673 52.6424 146.828 55.6002C142.982 58.558 145.692 61.9666 148.419 65.8306C151.147 69.6946 147.959 71.9716 143.415 72.2016C138.87 72.4316 127.269 72.6616 116.578 67.6522C116.045 67.3992 115.502 67.1646 114.959 66.93C113.754 72.3442 111.399 83.444 110.897 89.47C110.212 97.658 112.94 99.705 116.353 97.428C119.766 95.151 124.541 89.0146 128.179 98.348C131.818 107.681 128.86 113.583 124.541 116.316C120.221 119.048 115.879 109.724 113.16 111.541C110.681 113.197 109.89 133.087 115.24 145.231C116.67 144.771 118.101 144.311 119.527 143.851C132.034 139.527 144.542 137.48 146.819 140.438C149.096 143.396 148.199 142.94 145.227 147.49C142.255 152.039 142.495 155.903 147.499 158.176C152.504 160.448 164.782 160.016 165.899 154.767C167.017 149.518 160.669 146.579 163.627 141.574C166.585 136.569 192.74 143.837 192.74 143.837C192.74 143.837 186.829 123.823 189.102 117.226C191.374 110.63 193.2 112.24 196.839 114.724C200.478 117.208 205.252 117.001 207.074 109.724C208.896 102.447 206.844 94.9394 202.525 94.9394Z" stroke="#263238" stroke-width="0.5" stroke-miterlimit="10"/>
<path d="M10.2257 178.351C11.2239 178.788 13.6665 178.733 13.6665 178.733C13.6665 178.733 13.1421 177.137 13.0961 177.04C12.5579 175.918 10.8651 174.069 9.48514 174.253C9.25695 174.29 9.0392 174.375 8.84607 174.502C8.65294 174.63 8.48876 174.796 8.36422 174.991C8.23968 175.186 8.15757 175.404 8.12324 175.633C8.0889 175.862 8.10311 176.095 8.16494 176.318C8.39494 177.27 9.37474 177.983 10.2257 178.351Z" fill="#5CB0FF"/>
<path d="M11.0677 185.431C12.1027 185.578 14.2877 184.948 14.4579 184.897C14.8153 186.144 15.2564 187.366 15.7781 188.554C16.0771 189.249 16.4037 189.934 16.7349 190.629C16.5371 190.334 16.3577 190.077 16.3255 190.044C15.5159 189.101 13.3907 187.744 12.1119 188.31C11.9014 188.406 11.7135 188.545 11.5604 188.718C11.4074 188.891 11.2925 189.094 11.2235 189.315C11.1545 189.536 11.1328 189.768 11.1598 189.998C11.1869 190.227 11.2621 190.449 11.3805 190.647C11.8405 191.507 12.9859 191.935 13.9059 192.068C14.8259 192.202 16.7073 191.705 17.1995 191.562C17.3283 191.825 17.4571 192.091 17.5905 192.354C18.2207 193.609 18.8555 194.861 19.4305 196.107C19.6375 196.544 19.8261 196.986 20.0147 197.427C19.8353 197.165 19.6881 196.967 19.6605 196.921C18.8463 196.001 16.7211 194.644 15.4423 195.187C15.233 195.285 15.0464 195.425 14.8947 195.599C14.7429 195.773 14.6294 195.977 14.5613 196.198C14.4932 196.418 14.4722 196.651 14.4996 196.88C14.5269 197.109 14.602 197.33 14.7201 197.529C15.1801 198.389 16.3301 198.812 17.2455 198.945C18.1609 199.079 19.8675 198.628 20.4655 198.485C20.6449 198.945 20.8243 199.405 20.9807 199.865C21.0773 200.174 21.1969 200.468 21.2751 200.785C21.3533 201.103 21.4499 201.402 21.5327 201.705C21.6753 202.299 21.8271 202.911 21.9513 203.495C22.0433 203.9 22.1215 204.291 22.1997 204.677C21.9973 204.24 21.5879 203.389 21.5465 203.32C20.8841 202.267 18.9889 200.624 17.6411 200.965C17.4224 201.029 17.2193 201.137 17.0446 201.283C16.8699 201.429 16.7272 201.61 16.6257 201.814C16.5242 202.018 16.4659 202.241 16.4547 202.468C16.4434 202.696 16.4793 202.923 16.5601 203.136C16.8959 204.056 17.9401 204.654 18.8601 204.925C19.8353 205.22 21.9973 204.948 22.2687 204.925C22.3975 205.574 22.5171 206.204 22.6229 206.798C22.8529 208.118 23.0277 209.295 23.1611 210.294H24.0811C23.9201 209.259 23.7131 208.03 23.4371 206.65C23.3083 205.993 23.1565 205.293 22.9771 204.576C23.6292 204.315 24.2651 204.015 24.8815 203.679C25.5945 204.452 27.4161 205.353 27.6415 205.468C27.3931 206.08 27.1447 206.673 26.9009 207.225C26.3949 208.389 25.9165 209.42 25.4933 210.294H26.4823C26.8457 209.484 27.2459 208.564 27.6599 207.534C27.9175 206.913 28.1751 206.246 28.4373 205.56C28.6995 205.615 30.8385 206.048 31.8367 205.822C32.7567 205.62 33.8377 205.109 34.2471 204.212C34.3487 204.004 34.4055 203.777 34.4136 203.546C34.4218 203.314 34.3812 203.084 34.2944 202.869C34.2077 202.654 34.0767 202.46 33.91 202.299C33.7434 202.138 33.5448 202.015 33.3271 201.935C32.0069 201.475 29.9967 202.993 29.2561 203.992C29.2147 204.051 28.7961 204.741 28.5661 205.183C28.6719 204.902 28.7777 204.631 28.8789 204.341C29.0905 203.766 29.2837 203.187 29.4953 202.566L29.7713 201.646C29.8679 201.337 29.9323 201.006 30.0197 200.68C30.1991 199.93 30.3417 199.157 30.4797 198.38C30.9857 198.564 32.7797 199.189 33.6997 199.12C34.6197 199.051 35.7881 198.715 36.3217 197.892C36.4552 197.703 36.5472 197.488 36.5918 197.261C36.6363 197.034 36.6324 196.8 36.5803 196.575C36.5282 196.349 36.429 196.137 36.2893 195.953C36.1496 195.769 35.9726 195.616 35.7697 195.505C34.5323 194.87 32.3151 196.043 31.4365 196.921C31.3813 196.977 30.8201 197.676 30.5165 198.067C30.5901 197.607 30.6683 197.147 30.7281 196.65C30.8983 195.27 31.0271 193.867 31.1881 192.469C31.2295 192.041 31.2755 191.613 31.3215 191.185C31.5009 191.254 33.6215 192.041 34.6611 191.972C35.5811 191.903 36.7449 191.567 37.2831 190.744C37.4158 190.554 37.5073 190.339 37.5514 190.113C37.5956 189.886 37.5915 189.652 37.5395 189.427C37.4874 189.202 37.3885 188.99 37.2492 188.806C37.11 188.621 36.9334 188.468 36.7311 188.356C35.4937 187.717 33.2765 188.89 32.3933 189.768C32.3289 189.833 31.5239 190.845 31.3307 191.112C31.4273 190.169 31.5377 189.235 31.6803 188.315C31.8695 187.073 32.1368 185.843 32.4807 184.635C32.5635 184.667 34.7807 185.5 35.8387 185.426C36.7587 185.362 37.9271 185.021 38.4607 184.198C38.5934 184.009 38.6849 183.794 38.729 183.567C38.7732 183.34 38.7691 183.106 38.7171 182.881C38.665 182.656 38.5661 182.444 38.4268 182.26C38.2876 182.075 38.111 181.922 37.9087 181.81C36.6713 181.171 34.4541 182.349 33.5755 183.223C33.5065 183.292 32.6555 184.377 32.4945 184.603C32.4945 184.534 32.5313 184.46 32.5497 184.391C32.9307 183.191 33.4187 182.027 34.0079 180.913C34.3207 180.292 34.6611 179.717 35.0015 179.17C35.3971 179.368 37.2095 180.246 38.1801 180.288C39.1507 180.329 40.2961 180.113 40.9401 179.368C41.0933 179.194 41.2081 178.991 41.2771 178.77C41.346 178.549 41.3675 178.316 41.3402 178.086C41.3128 177.856 41.2372 177.635 41.1183 177.437C40.9994 177.238 40.8399 177.067 40.6503 176.934C39.4911 176.162 37.1589 177.091 36.1883 177.854C36.1331 177.896 35.6455 178.383 35.2959 178.742C35.4523 178.498 35.6087 178.241 35.7559 178.006C36.3355 177.132 36.9243 176.364 37.4487 175.706C37.7523 175.324 38.0329 174.989 38.2997 174.671C38.7873 174.671 40.7561 174.602 41.6163 174.211C42.4765 173.82 43.4195 173.084 43.6219 172.123C43.6776 171.898 43.6853 171.664 43.6445 171.436C43.6037 171.208 43.5153 170.992 43.3851 170.8C43.2549 170.609 43.0858 170.447 42.8888 170.325C42.6918 170.204 42.4714 170.125 42.2419 170.094C40.8619 169.947 39.2151 171.842 38.7091 172.978C38.6677 173.075 38.1617 174.69 38.1847 174.69H38.1801C37.9179 174.989 37.6373 175.311 37.3429 175.669C36.8001 176.332 36.1975 177.091 35.5949 177.969C34.9237 178.896 34.3092 179.862 33.7549 180.863C33.1352 181.977 32.6164 183.143 32.2047 184.35V184.396C32.2047 183.986 32.2047 182.845 32.2047 182.758C32.0437 181.525 31.0087 179.239 29.6425 178.986C29.4139 178.95 29.1804 178.963 28.9571 179.024C28.7338 179.084 28.5258 179.191 28.3466 179.337C28.1673 179.483 28.0209 179.666 27.9169 179.872C27.8128 180.079 27.7535 180.305 27.7427 180.536C27.6645 181.516 28.3729 182.496 29.0629 183.112C29.8449 183.811 32.0115 184.492 32.1863 184.538C31.7955 185.777 31.4882 187.04 31.2663 188.319C31.1329 189.065 31.0225 189.819 30.9213 190.573C30.9213 190.224 30.9213 189.906 30.9213 189.865C30.7603 188.632 29.7253 186.346 28.3591 186.093C28.1309 186.057 27.8978 186.07 27.6748 186.13C27.4518 186.19 27.244 186.297 27.0648 186.443C26.8856 186.588 26.7391 186.77 26.6348 186.976C26.5305 187.182 26.4707 187.408 26.4593 187.639C26.3811 188.618 27.0895 189.598 27.7795 190.219C28.4695 190.84 30.3187 191.457 30.8063 191.599L30.6959 192.473C30.5303 193.853 30.3693 195.261 30.1715 196.613C30.1025 197.073 30.0151 197.561 29.9277 198.035C29.9277 197.722 29.9277 197.455 29.9277 197.418C29.7667 196.185 28.7363 193.895 27.3655 193.642C27.1371 193.607 26.9038 193.62 26.6808 193.681C26.4578 193.741 26.2501 193.848 26.071 193.994C25.8919 194.141 25.7455 194.323 25.6413 194.529C25.537 194.735 25.4772 194.961 25.4657 195.192C25.3875 196.172 26.0959 197.151 26.7905 197.768C27.4851 198.384 29.1457 198.95 29.7253 199.148C29.6241 199.608 29.5229 200.105 29.4033 200.569C29.3159 200.877 29.2515 201.186 29.1457 201.489C29.0399 201.793 28.9479 202.106 28.8513 202.409C28.6397 202.984 28.4281 203.578 28.2119 204.134L27.7519 205.257C27.8255 204.797 27.9543 203.844 27.9543 203.762C27.9375 202.669 27.643 201.599 27.0987 200.652C27.1078 200.531 27.1078 200.41 27.0987 200.289C27.0671 200.061 26.9882 199.842 26.8673 199.647C26.7463 199.451 26.5859 199.283 26.3962 199.153C26.2065 199.024 25.9919 198.935 25.7659 198.893C25.5399 198.85 25.3076 198.856 25.0839 198.909C23.7407 199.267 22.8851 201.627 22.8207 202.869C22.8207 202.943 22.8667 203.743 22.9035 204.249C22.8391 203.955 22.7747 203.674 22.7011 203.371C22.5585 202.777 22.4021 202.188 22.2411 201.554C22.1491 201.25 22.0525 200.942 21.9605 200.634C21.8685 200.325 21.7443 200.008 21.6339 199.691C21.3717 198.964 21.0635 198.242 20.7415 197.519C21.2613 197.395 23.1059 196.926 23.8419 196.356C24.5779 195.785 25.3599 194.865 25.3553 193.885C25.3612 193.654 25.3184 193.424 25.2298 193.211C25.1411 192.997 25.0086 192.804 24.8408 192.645C24.6729 192.486 24.4736 192.364 24.2555 192.287C24.0375 192.21 23.8057 192.179 23.5751 192.197C22.1951 192.349 20.9899 194.552 20.7415 195.771C20.7415 195.845 20.6449 196.737 20.6081 197.23C20.4103 196.797 20.2125 196.365 20.0009 195.932C19.3799 194.69 18.7175 193.448 18.0597 192.206L17.4617 191.066C17.6503 191.02 19.8491 190.509 20.6817 189.874C21.4223 189.308 22.1997 188.384 22.1951 187.404C22.201 187.173 22.1582 186.943 22.0696 186.729C21.9809 186.516 21.8484 186.323 21.6806 186.164C21.5127 186.005 21.3134 185.883 21.0953 185.805C20.8773 185.728 20.6455 185.698 20.4149 185.716C19.0349 185.868 17.8297 188.071 17.5813 189.29C17.5813 189.382 17.4433 190.67 17.4341 190.997C16.9741 190.155 16.5693 189.318 16.1829 188.471C15.6456 187.333 15.1846 186.161 14.8029 184.961C14.8903 184.961 17.1903 184.419 18.0229 183.77C18.7589 183.204 19.5409 182.28 19.5317 181.3C19.5382 181.069 19.4961 180.839 19.4079 180.625C19.3198 180.412 19.1877 180.219 19.0203 180.06C18.8528 179.901 18.6537 179.778 18.4359 179.701C18.2181 179.624 17.9865 179.593 17.7561 179.612C16.3761 179.763 15.1709 181.967 14.9179 183.181C14.9179 183.278 14.7753 184.662 14.7707 184.915L14.6971 184.704C14.3551 183.492 14.1196 182.253 13.9933 181.001C13.9151 180.311 13.8829 179.644 13.8599 179C14.3199 178.945 16.3025 178.678 17.1305 178.176C17.9585 177.675 18.8003 176.861 18.9015 175.876C18.9333 175.647 18.9164 175.414 18.8521 175.192C18.7877 174.97 18.6773 174.764 18.528 174.587C18.3787 174.411 18.1939 174.267 17.9857 174.167C17.7774 174.067 17.5502 174.011 17.3191 174.004C15.9391 174.004 14.4947 176.06 14.0991 177.224C14.0991 177.289 13.9381 177.965 13.8461 178.462C13.8461 178.167 13.8461 177.868 13.8461 177.588C13.8461 176.534 13.9151 175.568 13.9795 174.717C14.0209 174.257 14.0669 173.797 14.1175 173.388C14.5177 173.112 16.1277 171.976 16.6245 171.161C17.1213 170.347 17.5031 169.225 17.1397 168.314C17.0616 168.097 16.9387 167.899 16.7791 167.733C16.6195 167.567 16.4266 167.436 16.2132 167.35C15.9997 167.263 15.7704 167.222 15.5401 167.23C15.3098 167.237 15.0837 167.293 14.8765 167.394C13.6391 168.033 13.3125 170.522 13.4965 171.746C13.4965 171.851 13.9841 173.48 14.0025 173.466H14.0301C13.9749 173.857 13.9197 174.28 13.8737 174.74C13.7863 175.596 13.6989 176.557 13.6759 177.615C13.6369 178.754 13.663 179.893 13.7541 181.028C13.855 182.299 14.0674 183.558 14.3889 184.791V184.837C14.1681 184.492 13.5241 183.554 13.4689 183.485C12.6547 182.565 10.5295 181.208 9.2507 181.751C9.05451 181.85 8.88014 181.987 8.73786 182.155C8.59557 182.322 8.48826 182.516 8.42224 182.726C8.35623 182.936 8.33284 183.156 8.35345 183.375C8.37407 183.594 8.43828 183.806 8.5423 184C9.0161 184.869 10.1477 185.293 11.0677 185.431Z" fill="#5CB0FF"/>
<path d="M34.9324 178.889C34.9324 178.889 35.3924 177.266 35.3924 177.16C35.5672 175.932 35.1716 173.452 33.9204 172.845C33.7095 172.75 33.481 172.7 33.2496 172.699C33.0182 172.698 32.7892 172.746 32.5777 172.84C32.3662 172.934 32.1769 173.071 32.0222 173.243C31.8676 173.416 31.751 173.618 31.6802 173.839C31.3444 174.759 31.7676 175.895 32.2736 176.672C32.8624 177.588 34.9278 178.889 34.9324 178.889Z" fill="#5CB0FF"/>
<path d="M180.016 178.351C181.014 178.788 183.457 178.733 183.457 178.733C183.457 178.733 182.933 177.137 182.887 177.04C182.348 175.918 180.656 174.069 179.276 174.253C179.047 174.29 178.83 174.375 178.637 174.502C178.443 174.63 178.279 174.796 178.155 174.991C178.03 175.186 177.948 175.404 177.914 175.633C177.879 175.862 177.894 176.095 177.955 176.318C178.185 177.27 179.165 177.983 180.016 178.351Z" fill="#5CB0FF"/>
<path d="M180.858 185.431C181.893 185.578 184.078 184.948 184.248 184.897C184.608 186.144 185.049 187.365 185.568 188.554C185.867 189.249 186.194 189.934 186.525 190.629C186.327 190.334 186.148 190.077 186.116 190.044C185.306 189.101 183.181 187.744 181.902 188.31C181.692 188.406 181.504 188.545 181.351 188.718C181.198 188.891 181.083 189.095 181.014 189.315C180.945 189.536 180.923 189.768 180.95 189.998C180.977 190.227 181.052 190.449 181.171 190.647C181.631 191.507 182.776 191.935 183.696 192.068C184.616 192.202 186.498 191.705 186.99 191.562C187.119 191.825 187.247 192.091 187.381 192.354C188.011 193.609 188.646 194.861 189.221 196.107C189.428 196.544 189.616 196.986 189.805 197.427C189.626 197.165 189.478 196.967 189.451 196.921C188.637 196.001 186.516 194.644 185.233 195.187C185.023 195.284 184.835 195.424 184.682 195.597C184.53 195.771 184.415 195.975 184.346 196.195C184.277 196.416 184.255 196.649 184.282 196.878C184.309 197.108 184.384 197.33 184.501 197.529C184.961 198.389 186.111 198.812 187.027 198.945C187.942 199.079 189.649 198.628 190.247 198.485C190.426 198.945 190.61 199.405 190.762 199.865C190.858 200.174 190.978 200.468 191.056 200.785C191.134 201.103 191.231 201.402 191.314 201.705C191.456 202.299 191.608 202.911 191.732 203.495C191.824 203.9 191.903 204.291 191.981 204.677C191.778 204.24 191.369 203.389 191.328 203.32C190.665 202.267 188.77 200.624 187.422 200.965C187.2 201.029 186.994 201.138 186.817 201.287C186.64 201.436 186.496 201.62 186.394 201.827C186.293 202.035 186.236 202.262 186.228 202.493C186.219 202.724 186.26 202.954 186.346 203.168C186.682 204.088 187.726 204.686 188.646 204.958C189.621 205.252 191.783 204.981 192.054 204.958C192.183 205.606 192.303 206.236 192.409 206.83C192.639 208.15 192.813 209.328 192.947 210.326H193.867C193.706 209.291 193.499 208.063 193.223 206.683C193.094 206.025 192.942 205.326 192.763 204.608C193.415 204.347 194.051 204.048 194.667 203.711C195.38 204.484 197.202 205.385 197.427 205.5C197.179 206.112 196.93 206.706 196.687 207.258C196.181 208.421 195.702 209.452 195.279 210.326H196.268C196.631 209.516 197.032 208.596 197.446 207.566C197.703 206.945 197.961 206.278 198.223 205.592C198.485 205.648 200.624 206.08 201.622 205.855C202.542 205.652 203.623 205.142 204.033 204.245C204.135 204.037 204.191 203.809 204.199 203.578C204.208 203.347 204.167 203.116 204.08 202.901C203.993 202.686 203.862 202.492 203.696 202.332C203.529 202.171 203.331 202.047 203.113 201.968C201.793 201.508 199.782 203.026 199.042 204.024C199 204.084 198.582 204.774 198.352 205.215C198.458 204.935 198.563 204.663 198.669 204.373C198.876 203.798 199.069 203.219 199.281 202.598L199.557 201.678C199.654 201.37 199.718 201.038 199.805 200.712C199.985 199.962 200.127 199.189 200.265 198.412C200.771 198.596 202.565 199.221 203.485 199.152C204.405 199.083 205.574 198.748 206.107 197.924C206.241 197.735 206.333 197.52 206.378 197.293C206.422 197.066 206.418 196.832 206.366 196.607C206.314 196.382 206.215 196.17 206.075 195.985C205.935 195.801 205.758 195.648 205.555 195.537C204.318 194.902 202.101 196.075 201.222 196.954C201.167 197.009 200.606 197.708 200.302 198.099C200.376 197.639 200.454 197.179 200.514 196.682C200.684 195.302 200.813 193.899 200.951 192.501C200.992 192.073 201.038 191.645 201.084 191.217C201.264 191.286 203.384 192.073 204.424 192.004C205.344 191.935 206.508 191.599 207.046 190.776C207.179 190.587 207.27 190.372 207.314 190.145C207.358 189.918 207.354 189.684 207.302 189.459C207.25 189.234 207.151 189.022 207.012 188.838C206.873 188.653 206.696 188.5 206.494 188.388C205.256 187.749 203.039 188.922 202.156 189.801C202.092 189.865 201.287 190.877 201.093 191.144C201.19 190.201 201.3 189.267 201.443 188.347C201.632 187.105 201.9 185.876 202.243 184.667C202.326 184.699 204.543 185.532 205.601 185.458C206.521 185.394 207.69 185.053 208.223 184.23C208.356 184.041 208.448 183.826 208.492 183.599C208.536 183.372 208.532 183.138 208.48 182.913C208.428 182.688 208.329 182.476 208.19 182.292C208.05 182.107 207.874 181.954 207.671 181.843C206.434 181.203 204.217 182.381 203.338 183.255C203.269 183.324 202.418 184.409 202.257 184.635C202.257 184.566 202.294 184.492 202.312 184.423C202.693 183.223 203.182 182.059 203.771 180.946C204.083 180.325 204.424 179.75 204.764 179.202C205.16 179.4 206.972 180.279 207.943 180.32C208.913 180.361 210.059 180.145 210.703 179.4C210.856 179.227 210.971 179.023 211.04 178.802C211.109 178.581 211.13 178.348 211.103 178.118C211.076 177.889 211 177.667 210.881 177.469C210.762 177.27 210.603 177.099 210.413 176.967C209.254 176.194 206.922 177.123 205.951 177.887C205.9 177.928 205.408 178.416 205.059 178.774C205.215 178.531 205.371 178.273 205.519 178.038C206.103 177.164 206.687 176.396 207.211 175.738C207.515 175.357 207.796 175.021 208.062 174.703C208.55 174.703 210.519 174.634 211.379 174.243C212.239 173.852 213.182 173.116 213.385 172.155C213.44 171.93 213.448 171.696 213.407 171.469C213.367 171.241 213.278 171.024 213.148 170.832C213.018 170.641 212.849 170.479 212.652 170.358C212.455 170.236 212.234 170.157 212.005 170.126C210.625 169.979 208.973 171.874 208.467 173.011C208.426 173.107 207.92 174.722 207.943 174.722H207.975C207.713 175.021 207.432 175.343 207.138 175.702C206.595 176.364 205.992 177.123 205.39 178.002C204.727 178.929 204.12 179.895 203.573 180.895C202.953 182.009 202.434 183.176 202.023 184.382C202.025 184.397 202.025 184.413 202.023 184.428C202.023 184.018 202.023 182.878 202.023 182.79C201.862 181.557 200.827 179.271 199.46 179.018C199.232 178.982 198.998 178.995 198.775 179.056C198.552 179.116 198.344 179.223 198.165 179.369C197.985 179.516 197.839 179.698 197.735 179.905C197.631 180.111 197.571 180.337 197.561 180.568C197.482 181.548 198.191 182.528 198.881 183.144C199.663 183.844 201.83 184.524 202.004 184.57C201.614 185.809 201.306 187.072 201.084 188.352C200.951 189.097 200.84 189.851 200.739 190.606C200.739 190.256 200.739 189.939 200.739 189.897C200.578 188.664 199.543 186.378 198.177 186.125C197.949 186.09 197.716 186.102 197.493 186.162C197.27 186.223 197.062 186.329 196.883 186.475C196.704 186.621 196.557 186.802 196.453 187.008C196.349 187.214 196.289 187.44 196.277 187.671C196.199 188.651 196.907 189.63 197.597 190.251C198.287 190.872 200.137 191.489 200.624 191.631C200.592 191.921 200.551 192.211 200.514 192.505C200.348 193.885 200.187 195.293 199.989 196.645C199.92 197.105 199.833 197.593 199.746 198.067C199.746 197.754 199.746 197.487 199.746 197.45C199.585 196.218 198.554 193.927 197.183 193.674C196.955 193.639 196.722 193.652 196.499 193.713C196.276 193.774 196.068 193.881 195.889 194.027C195.71 194.173 195.564 194.355 195.459 194.561C195.355 194.767 195.295 194.993 195.284 195.224C195.205 196.204 195.914 197.184 196.608 197.8C197.303 198.416 198.968 198.982 199.543 199.18C199.442 199.64 199.341 200.137 199.221 200.601C199.134 200.91 199.069 201.218 198.964 201.521C198.858 201.825 198.766 202.138 198.669 202.441C198.458 203.016 198.246 203.61 198.03 204.166L197.57 205.289C197.643 204.829 197.772 203.877 197.772 203.794C197.758 202.701 197.463 201.631 196.917 200.684C196.918 200.563 196.911 200.441 196.894 200.321C196.862 200.093 196.783 199.875 196.662 199.679C196.541 199.484 196.381 199.316 196.191 199.186C196.002 199.056 195.787 198.967 195.561 198.925C195.335 198.883 195.103 198.888 194.879 198.941C193.536 199.3 192.68 201.659 192.616 202.901C192.616 202.975 192.662 203.775 192.698 204.281C192.634 203.987 192.57 203.706 192.496 203.403C192.353 202.809 192.197 202.221 192.036 201.586C191.944 201.282 191.847 200.974 191.755 200.666C191.663 200.358 191.539 200.04 191.429 199.723C191.167 198.996 190.858 198.274 190.536 197.552C191.056 197.427 192.901 196.958 193.637 196.388C194.373 195.817 195.155 194.897 195.15 193.918C195.156 193.686 195.113 193.457 195.025 193.243C194.936 193.029 194.804 192.837 194.636 192.678C194.468 192.518 194.269 192.396 194.051 192.319C193.832 192.242 193.601 192.211 193.37 192.229C191.99 192.381 190.785 194.585 190.536 195.804C190.536 195.877 190.44 196.77 190.403 197.262C190.205 196.829 190.007 196.397 189.796 195.965C189.175 194.723 188.512 193.481 187.855 192.239L187.257 191.098C187.445 191.052 189.644 190.541 190.477 189.906C191.217 189.341 191.995 188.416 191.99 187.436C191.996 187.205 191.953 186.975 191.865 186.762C191.776 186.548 191.643 186.355 191.476 186.196C191.308 186.037 191.108 185.915 190.89 185.838C190.672 185.76 190.44 185.73 190.21 185.748C188.83 185.9 187.625 188.103 187.376 189.322C187.376 189.414 187.238 190.702 187.229 191.029C186.792 190.187 186.364 189.35 185.978 188.503C185.448 187.365 184.995 186.192 184.621 184.994C184.708 184.994 187.008 184.451 187.841 183.802C188.577 183.236 189.359 182.312 189.35 181.332C189.356 181.101 189.314 180.871 189.226 180.658C189.138 180.444 189.006 180.251 188.838 180.092C188.671 179.933 188.472 179.811 188.254 179.733C188.036 179.656 187.804 179.626 187.574 179.644C186.194 179.796 184.989 181.999 184.736 183.213C184.736 183.31 184.593 184.695 184.589 184.948L184.515 184.736C184.173 183.525 183.938 182.286 183.811 181.033C183.738 180.343 183.701 179.676 183.678 179.032C184.138 178.977 186.12 178.71 186.948 178.209C187.776 177.707 188.618 176.893 188.719 175.909C188.751 175.68 188.734 175.446 188.67 175.224C188.606 175.002 188.495 174.796 188.346 174.62C188.197 174.443 188.012 174.3 187.804 174.199C187.595 174.099 187.368 174.043 187.137 174.036C185.757 174.036 184.313 176.093 183.917 177.256C183.917 177.321 183.756 177.997 183.664 178.494C183.664 178.199 183.664 177.9 183.664 177.62C183.664 176.566 183.733 175.6 183.797 174.749C183.839 174.289 183.885 173.829 183.935 173.42C184.336 173.144 185.946 172.008 186.442 171.194C186.939 170.379 187.321 169.257 186.958 168.346C186.88 168.129 186.757 167.932 186.597 167.765C186.437 167.599 186.245 167.469 186.031 167.382C185.818 167.295 185.588 167.254 185.358 167.262C185.128 167.269 184.902 167.325 184.694 167.426C183.457 168.066 183.13 170.554 183.337 171.778C183.337 171.884 183.797 173.512 183.843 173.498H183.866C183.811 173.889 183.756 174.312 183.71 174.772C183.623 175.628 183.535 176.589 183.512 177.647C183.473 178.786 183.499 179.925 183.59 181.061C183.691 182.331 183.904 183.59 184.225 184.823V184.869C184.004 184.524 183.36 183.586 183.305 183.517C182.491 182.597 180.366 181.24 179.087 181.783C178.876 181.879 178.689 182.018 178.535 182.192C178.382 182.365 178.267 182.569 178.198 182.79C178.129 183.011 178.108 183.244 178.135 183.474C178.162 183.704 178.237 183.925 178.356 184.124C178.806 184.869 179.938 185.293 180.858 185.431Z" fill="#5CB0FF"/>
<path d="M204.723 178.889C204.723 178.889 205.183 177.266 205.183 177.16C205.358 175.932 204.962 173.452 203.711 172.845C203.5 172.75 203.271 172.7 203.04 172.699C202.809 172.698 202.58 172.746 202.368 172.84C202.157 172.934 201.967 173.071 201.813 173.243C201.658 173.416 201.542 173.618 201.471 173.839C201.135 174.759 201.558 175.895 202.064 176.672C202.653 177.588 204.7 178.889 204.723 178.889Z" fill="#5CB0FF"/>
<path d="M160.692 82.6021C160.692 82.6021 160.835 77.4087 163.829 75.9367C166.824 74.4647 166.994 79.3269 166.994 79.3269C166.994 79.3269 173.844 74.9753 175.329 78.2735C176.815 81.5717 174.741 83.1679 174.741 83.1679C174.741 83.1679 180.822 82.9563 181.245 86.2913C181.668 89.6263 178.526 91.2593 178.526 91.2593C178.526 91.2593 182.285 94.3275 180.964 95.7443C179.644 97.1611 176.755 97.2623 176.755 97.2623C176.755 97.2623 178.393 100.551 175.536 101.72C172.68 102.888 169.414 100.712 169.414 100.712C169.414 100.712 169.92 102.221 167.776 101.839C165.633 101.458 163.466 100.459 162.137 97.3129C160.807 94.1665 159.091 85.2563 160.692 82.6021Z" fill="#263238" stroke="#263238" stroke-width="0.5" stroke-linecap="round" stroke-linejoin="round"/>
<path d="M129.071 182.905C129.071 182.905 127.365 189.419 127.392 190.141C127.42 190.863 126.827 192.501 127.328 192.965C128.266 193.731 129.261 194.424 130.304 195.04C130.729 195.034 131.144 194.908 131.5 194.677C131.615 194.573 131.708 194.447 131.772 194.306C131.836 194.165 131.87 194.013 131.873 193.858C131.873 193.614 131.187 192.593 131.095 192.354C131.003 192.114 132.351 189 132.862 187.45C133.244 186.066 133.518 184.654 133.681 183.227L129.071 182.905Z" fill="white" stroke="#263238" stroke-width="0.5" stroke-miterlimit="10"/>
<path d="M130.926 187.441C130.926 187.441 129.955 189.741 129.891 190.136C129.826 190.532 128.511 191.636 128.685 192.519C128.86 193.402 130.801 193.168 131.758 190.555" fill="white"/>
<path d="M130.926 187.441C130.926 187.441 129.955 189.741 129.891 190.136C129.826 190.532 128.511 191.636 128.685 192.519C128.86 193.402 130.801 193.168 131.758 190.555" stroke="#263238" stroke-width="0.5" stroke-miterlimit="10"/>
<path d="M135.272 147.522C135.272 147.522 134.458 160.807 134.15 161.98C133.842 163.153 130.143 173.866 129.329 177.16C128.83 179.199 128.475 181.271 128.267 183.361L133.23 184.405L136.018 172.16C136.018 172.16 139.661 161 138.92 155.77C138.54 152.722 137.272 149.853 135.272 147.522Z" fill="#5CB0FF" stroke="#263238" stroke-width="0.5" stroke-miterlimit="10"/>
<path d="M161.129 210.28C161.189 207.391 161.309 203.495 161.589 201.264C162.049 197.409 163.696 195.026 165.389 190.224C167.082 185.421 167.229 179.11 167.229 179.11L136.915 180.168C136.915 180.168 133.4 193.2 131.271 202.786C130.692 205.246 130.355 207.755 130.263 210.28" fill="#5CB0FF"/>
<path d="M161.129 210.28C161.189 207.391 161.309 203.495 161.589 201.264C162.049 197.409 163.696 195.026 165.389 190.224C167.082 185.421 167.229 179.11 167.229 179.11L136.915 180.168C136.915 180.168 133.4 193.2 131.271 202.786C130.692 205.246 130.355 207.755 130.263 210.28" stroke="#263238" stroke-width="0.5" stroke-miterlimit="10"/>
<path d="M140.884 185.053L166.106 185.762L166.64 183.811L140.884 185.053Z" fill="#263238" stroke="#263238" stroke-width="0.5" stroke-linecap="round" stroke-linejoin="round"/>
<path d="M139.61 209.82C139.61 209.82 139.113 194.046 139.1 185.486L139.61 209.82Z" fill="white"/>
<path d="M139.61 209.82C139.61 209.82 139.113 194.046 139.1 185.486" stroke="#263238" stroke-width="0.5" stroke-miterlimit="10"/>
<path d="M158.944 114.154L162.624 116.628C162.624 116.628 166.98 120.52 168.052 123.74C169.124 126.96 168.347 146.082 167.266 152.26C166.185 158.438 168.885 166.134 169.846 170.476C170.808 174.818 171.226 182.896 171.226 182.896C171.226 182.896 171.907 183.844 160.094 184.253C148.281 184.662 140.043 185.279 139.077 185.472C138.493 185.592 137.901 185.667 137.306 185.697L136.846 181.502L135.7 184.957L133.249 184.396C133.249 184.396 134.771 176.888 135.153 173.963C135.535 171.037 137.945 161.083 137.977 157.338C138.01 153.594 134.882 147.568 134.27 143.86C133.658 140.153 134.891 133.796 137.95 128.993C141.009 124.191 143.06 122.332 149.04 117.429C155.02 112.525 158.944 114.154 158.944 114.154Z" fill="#5CB0FF" stroke="#263238" stroke-width="0.5" stroke-miterlimit="10"/>
<path d="M149.357 170.205L161.699 171.603L161.005 168.374L153.304 167.711" stroke="#263238" stroke-width="0.5" stroke-miterlimit="10"/>
<path d="M145.043 167.532L144.417 169.648L147.513 169.998" stroke="#263238" stroke-width="0.5" stroke-miterlimit="10"/>
<path d="M149.675 146.386C149.095 145.849 148.563 145.262 148.083 144.633" stroke="#263238" stroke-width="0.5" stroke-miterlimit="10"/>
<path d="M153.967 150.011C153.967 150.011 152.665 149.026 151.239 147.803" stroke="#263238" stroke-width="0.5" stroke-miterlimit="10"/>
<path d="M158.944 114.154C158.944 114.154 155.02 112.521 149.04 117.429C143.06 122.337 141.013 124.2 137.941 128.993C136.105 131.956 134.885 135.259 134.353 138.704C134.426 139.063 134.504 139.426 134.592 139.799C136.303 147.03 138.207 150.526 138.207 150.526C138.207 150.526 141.519 134.049 147.283 127.369C153.047 120.69 162.62 116.628 162.62 116.628L158.944 114.154Z" fill="#5CB0FF" stroke="#263238" stroke-width="0.5" stroke-miterlimit="10"/>
<path d="M144.56 82.0134C144.56 82.0134 140.241 86.0476 139.919 89.2262C139.597 92.4048 139.261 95.1464 138.723 96.1722C138.184 97.198 135.47 97.8696 136.39 99.4198C137.31 100.97 138.171 100.938 138.171 100.938C138.171 100.938 139.551 107.796 140.599 108.758C141.648 109.719 145.36 109.167 145.36 109.167L146.51 117.484C146.51 117.484 138.787 124.333 137.283 133.878C135.779 143.423 137.499 148.87 137.499 148.87C137.499 148.87 138.506 133.832 141.984 128.202C145.462 122.572 153.539 117.24 154.731 116.279C155.922 115.317 158.944 114.144 158.944 114.144C158.944 114.144 157.509 110.924 157.316 109.471C157.123 108.017 157.187 105.878 157.458 105.294C157.73 104.71 162.555 102.957 164.358 97.428C166.162 91.8988 163.507 85.3714 160.678 82.593C157.849 79.8146 148.176 78.4346 144.56 82.0134Z" fill="white" stroke="#263238" stroke-width="0.5" stroke-miterlimit="10"/>
<path d="M164.377 97.4373C166.217 91.9173 163.526 85.3807 160.697 82.6023C157.868 79.8239 148.18 78.4347 144.564 82.0135C144.564 82.0135 144.334 82.2297 143.976 82.6023C145.35 82.2587 146.782 82.2116 148.175 82.4643C151.069 82.9243 151.004 85.2243 150.218 87.4277C149.431 89.6311 150.025 90.0221 151.501 91.1077C152.978 92.1933 151.464 94.2771 152.504 95.1051C153.544 95.9331 154.39 91.4251 156.644 94.6727C158.898 97.9203 157.385 99.3923 155.977 100.303C155.189 100.83 154.333 101.247 153.433 101.545C153.433 101.545 155.563 104.043 157.665 105.073C158.673 104.323 162.739 102.405 164.377 97.4373Z" fill="#263238" stroke="#263238" stroke-width="0.5" stroke-linecap="round" stroke-linejoin="round"/>
<path d="M140.512 102.152C140.512 102.152 143.525 101.904 144.919 100.561" stroke="#263238" stroke-width="0.5" stroke-miterlimit="10"/>
<path d="M142.426 95.036C142.449 95.749 142.177 96.3378 141.823 96.3516C141.469 96.3654 141.156 95.795 141.128 95.082C141.101 94.369 141.377 93.7802 141.731 93.7664C142.085 93.7526 142.398 94.323 142.426 95.036Z" fill="#263238"/>
<path d="M141.128 92.1242C141.128 92.1242 142.099 90.8178 143.488 92.3588" stroke="#263238" stroke-width="0.5" stroke-miterlimit="10"/>
<path d="M145.36 109.176L148.953 107.824L146.451 112.318L145.36 109.176Z" fill="#263238" stroke="#263238" stroke-width="0.5" stroke-miterlimit="10"/>
<path d="M135.015 175.2L130.304 195.04L134.532 196.024L136.859 181.516L135.015 175.2Z" fill="white" stroke="#263238" stroke-width="0.5" stroke-miterlimit="10"/>
<path d="M139.178 127.701C138.274 129.669 137.636 131.75 137.283 133.888C135.779 143.428 137.499 148.879 137.499 148.879C137.499 148.879 138.497 134.044 141.915 128.331C140.982 128.225 140.063 128.014 139.178 127.701Z" fill="white" stroke="#263238" stroke-width="0.5" stroke-miterlimit="10"/>
<path d="M153.732 133.892L153.41 150.728L123.947 155.586L124.591 163.521C124.591 163.521 140.944 163.843 148.553 163.194C156.161 162.546 162.813 162.063 163.769 161.253C164.726 160.443 167.5 144.794 168.632 133.786C169.763 122.779 167.5 119.066 162.969 119.701" fill="#5CB0FF"/>
<path d="M153.732 133.892L153.41 150.728L123.947 155.586L124.591 163.521C124.591 163.521 140.944 163.843 148.553 163.194C156.161 162.546 162.813 162.063 163.769 161.253C164.726 160.443 167.5 144.794 168.632 133.786C169.763 122.779 167.5 119.066 162.969 119.701" stroke="#263238" stroke-width="0.5" stroke-miterlimit="10"/>
<path d="M106.32 154.873L103.96 162.03L106.26 163.282C106.26 163.282 109.181 165.545 110.782 166.768C112.383 167.992 113.611 167.992 114.462 167.615C115.313 167.238 119.172 161.773 119.641 160.738C120.111 159.703 117.852 156.598 115.593 155.273C113.335 153.948 111.453 153.957 110.129 154.353C108.875 154.626 107.601 154.8 106.32 154.873Z" fill="white" stroke="#263238" stroke-width="0.5" stroke-miterlimit="10"/>
<path d="M123.947 155.586L120.221 155.264C119.052 154.959 117.862 154.742 116.661 154.615C115.69 154.615 114.393 155.586 113.745 156.073C113.096 156.561 105.975 164.33 105.975 164.33C105.975 164.33 106.624 165.623 107.594 165.301C108.565 164.979 110.354 164.165 110.354 164.165C110.354 164.165 108.413 166.111 109.384 167.081C110.354 168.052 111.973 168.052 111.973 168.052L113.11 167.403C113.587 167.78 114.137 168.055 114.724 168.213C115.534 168.374 116.831 168.052 117.944 167.403C119.058 166.755 121.951 163.378 121.951 163.378L124.435 162.417L123.947 155.586Z" fill="white" stroke="#263238" stroke-width="0.5" stroke-miterlimit="10"/>
<path d="M107.604 155.181C107.604 155.181 112.314 152.449 114.384 153.203C116.454 153.957 119.191 158.571 118.437 159.234C117.682 159.896 116.459 159.606 115.801 158.948C115.251 158.449 114.651 158.007 114.011 157.628C112.771 158.325 111.381 158.713 109.959 158.76" fill="white"/>
<path d="M107.604 155.181C107.604 155.181 112.314 152.449 114.384 153.203C116.454 153.957 119.191 158.571 118.437 159.234C117.682 159.896 116.459 159.606 115.801 158.948C115.251 158.449 114.651 158.007 114.011 157.628C112.771 158.325 111.381 158.713 109.959 158.76" stroke="#263238" stroke-width="0.5" stroke-miterlimit="10"/>
<path d="M121.652 165.876L120.157 165.076C120.036 165.012 119.93 164.925 119.843 164.82C119.756 164.715 119.691 164.593 119.651 164.463C119.612 164.333 119.598 164.196 119.611 164.06C119.625 163.924 119.665 163.793 119.729 163.673C119.793 163.553 119.88 163.446 119.986 163.36C120.091 163.274 120.212 163.209 120.343 163.17C120.473 163.131 120.61 163.117 120.745 163.131C120.881 163.145 121.012 163.185 121.132 163.249L122.627 164.045C122.869 164.175 123.05 164.395 123.13 164.658C123.211 164.921 123.183 165.205 123.055 165.448C122.925 165.691 122.705 165.872 122.442 165.952C122.179 166.032 121.895 166.005 121.652 165.876Z" fill="white" stroke="#263238" stroke-width="0.5" stroke-miterlimit="10"/>
<path d="M120.332 167.477L118.837 166.676C118.6 166.547 118.424 166.33 118.344 166.073C118.264 165.815 118.287 165.537 118.409 165.296C118.539 165.061 118.756 164.885 119.014 164.806C119.271 164.727 119.549 164.751 119.789 164.873L121.284 165.669C121.521 165.798 121.699 166.014 121.779 166.272C121.858 166.53 121.834 166.809 121.712 167.049C121.583 167.286 121.367 167.464 121.109 167.544C120.851 167.624 120.572 167.6 120.332 167.477Z" fill="white" stroke="#263238" stroke-width="0.5" stroke-miterlimit="10"/>
<path d="M118.823 168.889L117.328 168.089C117.207 168.025 117.101 167.938 117.014 167.833C116.927 167.727 116.863 167.606 116.823 167.475C116.784 167.345 116.771 167.208 116.785 167.072C116.799 166.937 116.839 166.805 116.904 166.686C116.969 166.566 117.056 166.459 117.161 166.373C117.267 166.287 117.388 166.222 117.518 166.183C117.649 166.144 117.785 166.13 117.921 166.144C118.056 166.158 118.188 166.198 118.308 166.262L119.803 167.063C119.923 167.127 120.029 167.214 120.115 167.32C120.201 167.425 120.266 167.546 120.305 167.676C120.344 167.807 120.358 167.944 120.344 168.079C120.33 168.214 120.29 168.346 120.226 168.466C120.161 168.586 120.074 168.692 119.969 168.778C119.864 168.864 119.742 168.929 119.612 168.968C119.482 169.008 119.345 169.021 119.209 169.007C119.074 168.994 118.943 168.953 118.823 168.889Z" fill="white" stroke="#263238" stroke-width="0.5" stroke-miterlimit="10"/>
<path d="M115.649 168.958L115.258 168.751C115.137 168.687 115.031 168.6 114.944 168.495C114.857 168.39 114.792 168.269 114.753 168.138C114.713 168.008 114.699 167.871 114.712 167.735C114.726 167.6 114.766 167.468 114.83 167.348C114.96 167.106 115.18 166.925 115.443 166.845C115.706 166.764 115.99 166.792 116.233 166.92L116.624 167.132C116.744 167.196 116.851 167.283 116.938 167.388C117.025 167.493 117.09 167.614 117.129 167.744C117.169 167.875 117.183 168.012 117.169 168.147C117.156 168.283 117.116 168.415 117.052 168.535C116.988 168.655 116.9 168.761 116.795 168.847C116.69 168.934 116.568 168.998 116.438 169.037C116.308 169.077 116.171 169.09 116.036 169.076C115.9 169.063 115.769 169.023 115.649 168.958Z" fill="white" stroke="#263238" stroke-width="0.5" stroke-miterlimit="10"/>
<path d="M106.32 154.873L86.5493 146.515L87.2807 159.611L103.606 163.351L106.32 154.873Z" fill="#263238" stroke="#263238" stroke-width="0.5" stroke-linecap="round" stroke-linejoin="round"/>
<path d="M103.606 163.351L106.32 154.873L103.555 153.649L103.5 153.93L100.97 162.711L103.606 163.351Z" fill="white" stroke="#263238" stroke-width="0.5" stroke-miterlimit="10"/>
<path d="M75.4399 102.488L80.4999 104.839C80.4999 104.839 82.6251 110.86 81.9167 111.035C81.2083 111.21 75.8953 106.964 75.8953 106.964L75.4399 102.488Z" fill="white" stroke="#263238" stroke-width="0.5" stroke-linecap="round" stroke-linejoin="round"/>
<path d="M78.3794 101.283L78.7336 99.2542C78.7336 99.2542 83.4256 99.5762 85.3024 99.5624C87.1792 99.5486 88.8168 99.3094 88.803 97.3176C88.7892 95.3258 87.6944 88.5316 87.6944 88.5316C87.6944 88.5316 89.8012 88.0486 90.6154 87.1056C91.4296 86.1626 90.252 84.9988 89.1894 83.5958C88.1268 82.1928 87.1746 80.6794 87.0504 79.0372C86.9262 77.395 84.0742 72.0222 84.0742 72.0222C84.0742 72.0222 84.5342 71.1988 83.0024 69.4508C81.4706 67.7028 73.6138 67.3992 68.586 69.9108C63.5582 72.4224 62.4128 76.0472 62.4358 80.0308C62.4588 84.0144 64.7358 89.631 64.7358 89.631C64.7358 89.631 63.25 95.7352 63.135 96.071C63.02 96.4068 61.686 99.0242 61.686 99.0242C61.686 99.0242 67.9742 103.408 70.2696 105.377C72.565 107.346 77.7492 110.713 77.7814 108.891C77.8136 107.07 78.0206 102.957 78.0206 102.957L78.3794 101.283Z" fill="white" stroke="#263238" stroke-width="0.5" stroke-linecap="round" stroke-linejoin="round"/>
<path d="M85.3117 82.2572C85.3393 82.938 85.1829 83.4946 84.9575 83.5038C84.7321 83.513 84.5205 82.9748 84.4975 82.294C84.4745 81.6132 84.6217 81.0566 84.8517 81.0474C85.0817 81.0382 85.2795 81.5764 85.3117 82.2572Z" fill="#263238"/>
<path d="M82.0137 80.0078C82.0137 80.0078 83.0579 78.2415 85.7627 79.2811" stroke="#263238" stroke-width="0.5" stroke-linecap="round" stroke-linejoin="round"/>
<path d="M88.8031 97.3176C88.8031 95.3212 87.6945 88.5316 87.6945 88.5316C87.6945 88.5316 86.4019 87.837 83.9409 88.435C81.4799 89.033 80.8083 93.035 80.3391 93.495C79.8699 93.955 76.8109 91.195 75.6241 89.3044C74.4373 87.4138 73.6001 84.18 73.4713 82.2894C73.3425 80.3988 77.7907 79.4466 78.4853 77.6894C79.1799 75.9322 75.9001 74.06 77.0455 72.887C78.1909 71.714 80.5599 72.1648 81.7329 72.3902C82.5325 72.4983 83.3464 72.3704 84.0743 72.0222C84.0743 72.0222 84.5343 71.1988 83.0025 69.4508C81.4707 67.7028 73.6139 67.3992 68.5861 69.9108C63.5583 72.4224 62.4129 76.0472 62.4359 80.0308C62.4589 83.2508 63.9493 87.5564 64.5105 89.0744C64.9854 89.2797 65.4972 89.3862 66.0147 89.3872C66.4747 89.2676 66.8243 87.86 67.0497 86.4478C67.2751 85.0356 70.6653 83.3796 70.6653 83.3796C70.6653 83.3796 71.2771 87.5978 71.2817 88.4166C71.2863 89.2354 70.8217 93.3432 73.0849 95.3166C74.8569 96.7855 76.7462 98.1071 78.7337 99.268C78.7337 99.268 83.4257 99.59 85.3025 99.5762C87.1793 99.5624 88.8169 99.3094 88.8031 97.3176Z" fill="#263238" stroke="#263238" stroke-width="0.5" stroke-linecap="round" stroke-linejoin="round"/>
<path d="M71.3878 86.2867C71.3878 86.2867 70.4126 80.6655 68.775 80.9093C67.1374 81.1531 66.2082 83.2691 67.0454 85.9693C67.8826 88.6695 69.5248 88.4165 70.4586 88.1773" fill="white"/>
<path d="M71.3878 86.2867C71.3878 86.2867 70.4126 80.6655 68.775 80.9093C67.1374 81.1531 66.2082 83.2691 67.0454 85.9693C67.8826 88.6695 69.5248 88.4165 70.4586 88.1773" stroke="#263238" stroke-width="0.5" stroke-linecap="round" stroke-linejoin="round"/>
<path d="M82.9014 90.551C82.9014 90.551 83.8444 91.7194 86.3054 91.7056" stroke="white" stroke-width="0.5" stroke-linecap="round" stroke-linejoin="round"/>
<path d="M56.5804 210.28H81.4204C81.5032 208.973 82.4692 203.95 82.4692 200.657C82.4692 196.852 85.0866 172.311 85.0866 172.311L52.7808 171.888L53.8388 186.907L56.5804 210.28Z" fill="#263238" stroke="#263238" stroke-width="0.5" stroke-linecap="round" stroke-linejoin="round"/>
<path d="M59.8002 99.8798C59.8002 99.8798 54.1376 107.143 52.5414 111.214C50.9452 115.285 49.7078 115.994 50.062 121.127C50.4162 126.261 52.9002 146.8 52.9002 146.8L47.9414 173.54C53.7942 175.636 59.9634 176.713 66.1804 176.723C76.4476 176.723 80.9004 175.84 81.5858 175.485C82.2712 175.131 88.4858 173.54 88.4858 173.54C88.4858 173.54 88.4858 143.262 86.5354 132.816C84.585 122.369 82.1102 114.416 81.227 112.452C80.3438 110.487 77.5056 104.13 77.5056 104.13L59.8002 99.8798Z" fill="#263238" stroke="#263238" stroke-width="0.5" stroke-linecap="round" stroke-linejoin="round"/>
<path d="M81.2409 112.452C80.3531 110.506 77.5195 104.13 77.5195 104.13L59.8003 99.8798C59.8003 99.8798 58.6043 101.416 57.1553 103.472C61.0147 105.713 70.5689 111.251 71.1347 111.389C71.8431 111.568 75.3851 111.214 75.3851 111.214L73.8027 113.16C73.8027 113.16 78.0531 116.527 79.4699 117.939C80.2151 118.685 82.3771 120.653 84.2631 122.355C82.9797 117.268 81.7929 113.675 81.2409 112.452Z" fill="#263238" stroke="#263238" stroke-width="0.5" stroke-linecap="round" stroke-linejoin="round"/>
<path d="M73.0942 108.026L79.1156 112.806L84.0698 121.661L80.8866 108.735L74.3362 105.018L73.0942 108.026Z" fill="white" stroke="#263238" stroke-width="0.5" stroke-linecap="round" stroke-linejoin="round"/>
<path d="M61.0563 96.5172L79.5943 104.871V111.421L58.3975 100.588L61.0563 96.5172Z" fill="white" stroke="#263238" stroke-width="0.5" stroke-linecap="round" stroke-linejoin="round"/>
<path d="M85.5696 163.525H53.5352V189.446H85.5696V163.525Z" fill="#5CB0FF" stroke="#263238" stroke-width="0.5" stroke-miterlimit="10"/>
<path d="M71.5167 175.881C71.5167 175.881 73.8995 178.986 74.8333 179.299C75.6194 179.622 76.2696 180.207 76.6733 180.955C77.0873 181.576 77.5933 186.236 77.9153 186.548C78.2373 186.861 78.2281 187.583 77.0873 187.064C75.9465 186.544 75.2473 184.764 75.2473 184.764L75.6613 188.904C75.6613 188.904 76.5813 189.111 75.8683 189.63C75.1553 190.15 74.5205 190.872 73.8995 190.55C73.3469 190.221 72.8277 189.839 72.3493 189.41C71.6094 189.658 70.8216 189.729 70.0493 189.617C68.9131 189.41 69.1293 189.824 68.0851 189.097C67.0409 188.37 67.0455 189.203 66.5303 187.855C65.7277 185.443 65.0703 182.985 64.5615 180.495C64.3545 179.147 64.1475 177.275 64.1475 177.275L71.5167 175.881Z" fill="white" stroke="#263238" stroke-width="0.5" stroke-linecap="round" stroke-linejoin="round"/>
<path d="M71.9348 173.912L72.657 177.123L63.7514 178.365L63.3374 175.154L71.9348 173.912Z" fill="white" stroke="#263238" stroke-width="0.5" stroke-linecap="round" stroke-linejoin="round"/>
<path d="M60.5226 106.26C60.5226 106.26 54.3264 108.206 54.1516 111.039C53.9768 113.873 51.9206 148.24 52.8084 150.54C53.6962 152.84 62.404 176.148 62.404 176.148L72.4964 174.91C72.4964 174.91 67.326 147.881 67.1604 147.347C66.9948 146.814 70.6288 116.702 70.6288 116.702" fill="#263238"/>
<path d="M60.5226 106.26C60.5226 106.26 54.3264 108.206 54.1516 111.039C53.9768 113.873 51.9206 148.24 52.8084 150.54C53.6962 152.84 62.404 176.148 62.404 176.148L72.4964 174.91C72.4964 174.91 67.326 147.881 67.1604 147.347C66.9948 146.814 70.6288 116.702 70.6288 116.702" stroke="#263238" stroke-width="0.5" stroke-linecap="round" stroke-linejoin="round"/>
<path d="M69.4281 125.35L67.1465 147.347L69.3223 161.014" stroke="#878787" stroke-width="0.5" stroke-linecap="round" stroke-linejoin="round"/>
<path d="M69.7778 121.983L69.6582 123.151" stroke="#878787" stroke-width="0.5" stroke-linecap="round" stroke-linejoin="round"/>
<path d="M53.4386 118.579L52.7578 139.233" stroke="#878787" stroke-width="0.5" stroke-linecap="round" stroke-linejoin="round"/>
<path d="M76.5855 157.407L83.3935 157.159L84.0053 159.611L72.7261 160.333" stroke="#878787" stroke-width="0.5" stroke-linecap="round" stroke-linejoin="round"/>
<path d="M70.9136 157.61L74.5384 157.481" stroke="#878787" stroke-width="0.5" stroke-linecap="round" stroke-linejoin="round"/>
<path d="M58.6592 104.057L71.1482 111.389L75.3986 111.214L73.8024 113.16L82.0318 119.715" stroke="#878787" stroke-width="0.5" stroke-linecap="round" stroke-linejoin="round"/>
<path d="M5.28076 210.28H215.266" stroke="#263238" stroke-width="0.5" stroke-miterlimit="10"/>
</svg>
