<svg width="280" height="280" viewBox="0 0 280 280" fill="none" xmlns="http://www.w3.org/2000/svg">
<path d="M256.727 110.341C256.217 120.203 257.892 130.055 261.633 139.193C266.712 151.797 270.949 173.134 257.188 197.572C235.215 236.641 205.996 243.818 167.898 239.194C129.8 234.57 69.9589 266.986 40.41 233.69C10.861 200.393 2.79891 154.927 33.4097 98.3628C64.0205 41.7985 89.5278 41.7367 126.746 44.4377C163.964 47.1387 182.91 28.681 219.513 40.1815C245.856 48.4553 258.173 84.4751 256.727 110.341Z" fill="#5CB0FF"/>
<path opacity="0.7" d="M256.727 110.341C256.216 120.203 257.891 130.055 261.633 139.193C266.712 151.797 270.949 173.134 257.187 197.572C235.215 236.641 205.996 243.818 167.898 239.194C129.8 234.57 69.9584 266.986 40.4095 233.689C10.8606 200.393 2.79842 154.927 33.4092 98.3628C64.02 41.7985 89.5273 41.7367 126.746 44.4377C163.964 47.1387 182.91 28.681 219.512 40.1815C245.855 48.4553 258.173 84.4751 256.727 110.341Z" fill="white"/>
<path d="M214.786 140.954L223.239 221.956" stroke="#263238" stroke-linecap="round" stroke-linejoin="round"/>
<path d="M221.577 206.116L218.044 202.404" stroke="#263238" stroke-linecap="round" stroke-linejoin="round"/>
<path d="M219.212 203.619C219.204 203 219.063 202.389 218.8 201.828C218.537 201.267 218.158 200.769 217.687 200.367C216.704 199.491 211.527 197.311 211.033 199.133C210.502 201.117 215.798 205.013 219.212 203.619Z" fill="#5CB0FF" stroke="#263238" stroke-linecap="round" stroke-linejoin="round"/>
<path d="M219.212 203.619L214.285 200.545" stroke="#263238" stroke-linecap="round" stroke-linejoin="round"/>
<path d="M222.453 214.48L219.009 211.62" stroke="#263238" stroke-linecap="round" stroke-linejoin="round"/>
<path d="M220.171 212.829C220.165 212.21 220.025 211.599 219.762 211.037C219.499 210.476 219.118 209.978 218.646 209.577C217.663 208.701 212.486 206.52 211.998 208.343C211.462 210.327 216.758 214.223 220.171 212.829Z" fill="#5CB0FF" stroke="#263238" stroke-linecap="round" stroke-linejoin="round"/>
<path d="M220.171 212.829L215.244 209.761" stroke="#263238" stroke-linecap="round" stroke-linejoin="round"/>
<path d="M219.182 183.055L215.703 179.927" stroke="#263238" stroke-linecap="round" stroke-linejoin="round"/>
<path d="M216.865 181.136C216.857 180.518 216.716 179.908 216.453 179.348C216.19 178.788 215.811 178.291 215.34 177.89C214.357 177.008 209.18 174.833 208.685 176.656C208.155 178.64 213.451 182.524 216.865 181.136Z" fill="#5CB0FF" stroke="#263238" stroke-linecap="round" stroke-linejoin="round"/>
<path d="M216.865 181.136L211.938 178.068" stroke="#263238" stroke-linecap="round" stroke-linejoin="round"/>
<path d="M220.153 192.854L216.662 189.137" stroke="#263238" stroke-linecap="round" stroke-linejoin="round"/>
<path d="M217.824 190.352C217.818 189.732 217.678 189.121 217.415 188.56C217.152 187.999 216.771 187.501 216.299 187.1C215.316 186.224 210.139 184.043 209.651 185.866C209.114 187.85 214.416 191.746 217.824 190.352Z" fill="#5CB0FF" stroke="#263238" stroke-linecap="round" stroke-linejoin="round"/>
<path d="M217.824 190.352L212.897 187.278" stroke="#263238" stroke-linecap="round" stroke-linejoin="round"/>
<path d="M217.627 168.518L214.136 164.962" stroke="#263238" stroke-linecap="round" stroke-linejoin="round"/>
<path d="M215.304 166.177C215.296 165.558 215.155 164.947 214.892 164.387C214.629 163.826 214.25 163.327 213.779 162.925C212.796 162.043 207.619 159.869 207.124 161.692C206.594 163.675 211.89 167.571 215.304 166.177Z" fill="#5CB0FF" stroke="#263238" stroke-linecap="round" stroke-linejoin="round"/>
<path d="M215.304 166.177L210.377 163.103" stroke="#263238" stroke-linecap="round" stroke-linejoin="round"/>
<path d="M215.947 152.517L212.569 149.932" stroke="#263238" stroke-linecap="round" stroke-linejoin="round"/>
<path d="M213.737 151.147C213.729 150.527 213.589 149.917 213.326 149.356C213.063 148.795 212.683 148.296 212.212 147.894C211.223 147.018 206.046 144.838 205.558 146.661C205.022 148.645 210.324 152.541 213.737 151.147Z" fill="#5CB0FF" stroke="#263238" stroke-linecap="round" stroke-linejoin="round"/>
<path d="M213.737 151.147L208.805 148.073" stroke="#263238" stroke-linecap="round" stroke-linejoin="round"/>
<path d="M221.237 201.004L224.15 196.25" stroke="#263238" stroke-linecap="round" stroke-linejoin="round"/>
<path d="M223.257 197.68C223.137 197.072 223.148 196.446 223.29 195.843C223.431 195.239 223.701 194.674 224.079 194.183C224.86 193.123 229.476 189.918 230.334 191.604C231.27 193.432 226.885 198.335 223.257 197.68Z" stroke="#263238" stroke-linecap="round" stroke-linejoin="round"/>
<path d="M223.257 197.68L226.724 194.421" stroke="#263238" stroke-linecap="round" stroke-linejoin="round"/>
<path d="M218.706 176.763L221.619 172.009" stroke="#263238" stroke-linecap="round" stroke-linejoin="round"/>
<path d="M220.731 173.433C220.611 172.827 220.622 172.201 220.764 171.599C220.906 170.997 221.175 170.432 221.553 169.942C222.334 168.876 225.944 166.219 226.802 167.899C227.749 169.728 224.359 174.095 220.731 173.433Z" fill="#5CB0FF" stroke="#263238" stroke-linecap="round" stroke-linejoin="round"/>
<path d="M220.731 173.434L225.169 169.192" stroke="#263238" stroke-linecap="round" stroke-linejoin="round"/>
<path d="M217.591 166.106L220.504 161.358" stroke="#263238" stroke-linecap="round" stroke-linejoin="round"/>
<path d="M219.617 162.782C219.497 162.174 219.508 161.547 219.649 160.944C219.791 160.341 220.06 159.775 220.439 159.285C221.219 158.224 225.836 155.025 226.694 156.705C227.624 158.54 223.245 163.461 219.617 162.782Z" fill="#5CB0FF" stroke="#263238" stroke-linecap="round" stroke-linejoin="round"/>
<path d="M219.617 162.782L224.055 158.54" stroke="#263238" stroke-linecap="round" stroke-linejoin="round"/>
<path d="M215.965 150.492L218.879 145.738" stroke="#263238" stroke-linecap="round" stroke-linejoin="round"/>
<path d="M217.99 147.167C217.868 146.56 217.878 145.933 218.018 145.33C218.159 144.727 218.428 144.161 218.807 143.67C219.593 142.61 224.204 139.405 225.062 141.091C225.997 142.92 221.613 147.823 217.99 147.167Z" fill="#5CB0FF" stroke="#263238" stroke-linecap="round" stroke-linejoin="round"/>
<path d="M217.991 147.167L222.423 142.926" stroke="#263238" stroke-linecap="round" stroke-linejoin="round"/>
<path d="M214.714 140.507C214.594 139.899 214.605 139.273 214.747 138.67C214.888 138.067 215.158 137.501 215.536 137.01C216.317 135.944 220.934 132.745 221.791 134.431C222.727 136.26 218.342 141.163 214.714 140.507Z" fill="#5CB0FF" stroke="#263238" stroke-linecap="round" stroke-linejoin="round"/>
<path d="M214.714 140.507L219.153 136.266" stroke="#263238" stroke-linecap="round" stroke-linejoin="round"/>
<path d="M214.977 140.686C214.359 140.74 213.738 140.662 213.153 140.457C212.568 140.251 212.034 139.923 211.587 139.494C210.61 138.607 207.911 133.68 209.675 133.001C211.593 132.28 216.007 137.147 214.977 140.686Z" fill="#5CB0FF" stroke="#263238" stroke-linecap="round" stroke-linejoin="round"/>
<path d="M214.976 140.686L211.223 135.831" stroke="#263238" stroke-linecap="round" stroke-linejoin="round"/>
<path d="M227.451 119.126V221.557" stroke="#263238" stroke-linecap="round" stroke-linejoin="round"/>
<path d="M237.084 152.112L228.678 233.114" stroke="#263238" stroke-linecap="round" stroke-linejoin="round"/>
<path d="M230.453 216.565L228.511 214.343" stroke="#263238" stroke-linecap="round" stroke-linejoin="round"/>
<path d="M228.511 214.343C228.632 213.734 228.62 213.107 228.477 212.504C228.334 211.901 228.064 211.335 227.683 210.846C226.903 209.785 222.286 206.586 221.428 208.272C220.499 210.101 224.883 215.004 228.511 214.343Z" fill="#5CB0FF" stroke="#263238" stroke-linecap="round" stroke-linejoin="round"/>
<path d="M228.511 214.342L224.317 210.321" stroke="#263238" stroke-linecap="round" stroke-linejoin="round"/>
<path d="M232.83 193.438L229.941 191.025" stroke="#263238" stroke-linecap="round" stroke-linejoin="round"/>
<path d="M230.841 191.859C230.961 191.252 230.95 190.627 230.808 190.025C230.666 189.423 230.397 188.858 230.019 188.368C229.238 187.302 224.622 184.109 223.764 185.789C222.834 187.618 227.213 192.521 230.841 191.859Z" fill="#5CB0FF" stroke="#263238" stroke-linecap="round" stroke-linejoin="round"/>
<path d="M230.841 191.86L226.653 187.838" stroke="#263238" stroke-linecap="round" stroke-linejoin="round"/>
<path d="M231.913 204.393L228.994 199.646" stroke="#263238" stroke-linecap="round" stroke-linejoin="round"/>
<path d="M229.888 201.076C230.008 200.468 229.997 199.841 229.855 199.238C229.713 198.635 229.444 198.069 229.066 197.579C228.279 196.518 223.662 193.319 222.81 194.999C221.875 196.822 226.26 201.737 229.888 201.076Z" fill="#5CB0FF" stroke="#263238" stroke-linecap="round" stroke-linejoin="round"/>
<path d="M229.888 201.075L225.694 197.054" stroke="#263238" stroke-linecap="round" stroke-linejoin="round"/>
<path d="M234.29 178.676L231.508 175.471" stroke="#263238" stroke-linecap="round" stroke-linejoin="round"/>
<path d="M232.396 176.895C232.516 176.287 232.505 175.66 232.363 175.057C232.221 174.454 231.952 173.888 231.574 173.398C230.787 172.337 226.17 169.144 225.318 170.824C224.383 172.653 228.768 177.556 232.396 176.895Z" fill="#5CB0FF" stroke="#263238" stroke-linecap="round" stroke-linejoin="round"/>
<path d="M232.396 176.895L228.202 172.874" stroke="#263238" stroke-linecap="round" stroke-linejoin="round"/>
<path d="M235.75 164.611L233.063 160.44" stroke="#263238" stroke-linecap="round" stroke-linejoin="round"/>
<path d="M233.956 161.864C234.077 161.256 234.065 160.629 233.922 160.026C233.779 159.423 233.509 158.857 233.128 158.367C232.348 157.307 227.731 154.114 226.873 155.794C225.962 157.623 230.328 162.525 233.956 161.864Z" fill="#5CB0FF" stroke="#263238" stroke-linecap="round" stroke-linejoin="round"/>
<path d="M233.957 161.864L229.763 157.843" stroke="#263238" stroke-linecap="round" stroke-linejoin="round"/>
<path d="M231.025 212.198L234.856 208.147" stroke="#263238" stroke-linecap="round" stroke-linejoin="round"/>
<path d="M233.707 209.362C233.713 208.742 233.852 208.131 234.115 207.57C234.379 207.009 234.759 206.51 235.232 206.109C236.215 205.234 241.392 203.047 241.88 204.87C242.404 206.854 237.108 210.756 233.707 209.362Z" fill="#5CB0FF" stroke="#263238" stroke-linecap="round" stroke-linejoin="round"/>
<path d="M233.694 209.362L238.913 206.127" stroke="#263238" stroke-linecap="round" stroke-linejoin="round"/>
<path d="M233.545 187.957L237.376 183.906" stroke="#263238" stroke-linecap="round" stroke-linejoin="round"/>
<path d="M236.208 185.116C236.216 184.497 236.357 183.888 236.62 183.328C236.883 182.768 237.262 182.27 237.733 181.869C238.716 180.987 243.893 178.807 244.382 180.63C244.918 182.614 239.622 186.51 236.208 185.116Z" fill="#5CB0FF" stroke="#263238" stroke-linecap="round" stroke-linejoin="round"/>
<path d="M236.208 185.116L241.427 181.881" stroke="#263238" stroke-linecap="round" stroke-linejoin="round"/>
<path d="M234.647 177.3L238.478 173.249" stroke="#263238" stroke-linecap="round" stroke-linejoin="round"/>
<path d="M237.316 174.464C237.323 173.844 237.462 173.233 237.725 172.672C237.988 172.111 238.369 171.613 238.841 171.211C239.824 170.336 244.995 168.155 245.489 169.978C246.026 171.962 240.729 175.858 237.316 174.464Z" fill="#5CB0FF" stroke="#263238" stroke-linecap="round" stroke-linejoin="round"/>
<path d="M237.316 174.464L242.529 171.229" stroke="#263238" stroke-linecap="round" stroke-linejoin="round"/>
<path d="M236.226 160.882L240.098 157.635" stroke="#263238" stroke-linecap="round" stroke-linejoin="round"/>
<path d="M238.937 158.844C238.943 158.225 239.083 157.615 239.346 157.055C239.609 156.494 239.99 155.997 240.462 155.597C241.445 154.715 246.616 152.535 247.11 154.358C247.646 156.342 242.35 160.238 238.937 158.844Z" fill="#5CB0FF" stroke="#263238" stroke-linecap="round" stroke-linejoin="round"/>
<path d="M238.937 158.844L244.149 155.609" stroke="#263238" stroke-linecap="round" stroke-linejoin="round"/>
<path d="M237.108 151.653C237.115 151.034 237.254 150.423 237.516 149.862C237.778 149.301 238.157 148.803 238.627 148.4C239.61 147.525 244.787 145.344 245.281 147.167C245.817 149.163 240.521 153.047 237.108 151.653Z" fill="#5CB0FF" stroke="#263238" stroke-linecap="round" stroke-linejoin="round"/>
<path d="M237.108 151.653L242.321 148.418" stroke="#263238" stroke-linecap="round" stroke-linejoin="round"/>
<path d="M237.322 151.886C236.707 151.814 236.115 151.612 235.584 151.292C235.054 150.973 234.599 150.543 234.248 150.033C233.474 148.961 231.865 143.587 233.712 143.289C235.743 142.962 239.068 148.639 237.322 151.886Z" fill="#5CB0FF" stroke="#263238" stroke-linecap="round" stroke-linejoin="round"/>
<path d="M237.322 151.886L234.647 146.357" stroke="#263238" stroke-linecap="round" stroke-linejoin="round"/>
<path d="M227.314 205.967L224.139 201.737" stroke="#263238" stroke-linecap="round" stroke-linejoin="round"/>
<path d="M225.175 203.059C225.23 202.442 225.151 201.82 224.946 201.236C224.74 200.651 224.412 200.117 223.984 199.67C223.096 198.693 218.169 195.988 217.496 197.751C216.769 199.67 221.637 204.096 225.175 203.059Z" fill="#5CB0FF" stroke="#263238" stroke-linecap="round" stroke-linejoin="round"/>
<path d="M225.176 203.059L220.588 199.497" stroke="#263238" stroke-linecap="round" stroke-linejoin="round"/>
<path d="M227.421 185.539L224.139 182.483" stroke="#263238" stroke-linecap="round" stroke-linejoin="round"/>
<path d="M225.175 183.811C225.23 183.193 225.151 182.572 224.946 181.987C224.74 181.402 224.412 180.869 223.984 180.421C223.096 179.444 218.169 176.739 217.496 178.503C216.769 180.421 221.637 184.841 225.175 183.811Z" fill="#5CB0FF" stroke="#263238" stroke-linecap="round" stroke-linejoin="round"/>
<path d="M225.176 183.811L220.588 180.243" stroke="#263238" stroke-linecap="round" stroke-linejoin="round"/>
<path d="M227.534 164.307L224.139 159.88" stroke="#263238" stroke-linecap="round" stroke-linejoin="round"/>
<path d="M225.175 161.209C225.23 160.591 225.151 159.97 224.946 159.385C224.74 158.8 224.412 158.267 223.984 157.819C223.096 156.842 218.169 154.137 217.496 155.901C216.769 157.819 221.637 162.269 225.175 161.209Z" fill="#5CB0FF" stroke="#263238" stroke-linecap="round" stroke-linejoin="round"/>
<path d="M225.176 161.209L220.588 157.646" stroke="#263238" stroke-linecap="round" stroke-linejoin="round"/>
<path d="M227.314 147.697L224.139 144.838" stroke="#263238" stroke-linecap="round" stroke-linejoin="round"/>
<path d="M225.175 146.184C225.229 145.566 225.151 144.944 224.946 144.358C224.74 143.773 224.412 143.238 223.984 142.789C223.096 141.818 218.169 139.113 217.496 140.876C216.769 142.771 221.637 147.197 225.175 146.184Z" fill="#5CB0FF" stroke="#263238" stroke-linecap="round" stroke-linejoin="round"/>
<path d="M225.176 146.167L220.588 142.598" stroke="#263238" stroke-linecap="round" stroke-linejoin="round"/>
<path d="M227.493 132.644L224.204 130.231" stroke="#263238" stroke-linecap="round" stroke-linejoin="round"/>
<path d="M225.175 131.053C225.23 130.436 225.151 129.814 224.946 129.229C224.74 128.645 224.412 128.111 223.984 127.663C223.096 126.686 218.169 123.982 217.496 125.745C216.769 127.663 221.637 132.084 225.175 131.053Z" fill="#5CB0FF" stroke="#263238" stroke-linecap="round" stroke-linejoin="round"/>
<path d="M225.176 131.053L220.588 127.484" stroke="#263238" stroke-linecap="round" stroke-linejoin="round"/>
<path d="M228.118 211.084L230.847 207.611" stroke="#263238" stroke-linecap="round" stroke-linejoin="round"/>
<path d="M229.816 208.939C229.762 208.322 229.84 207.7 230.045 207.116C230.251 206.531 230.579 205.997 231.008 205.549C231.895 204.572 236.816 201.868 237.495 203.631C238.222 205.549 233.355 209.97 229.816 208.939Z" fill="#5CB0FF" stroke="#263238" stroke-linecap="round" stroke-linejoin="round"/>
<path d="M229.816 208.939L234.671 205.18" stroke="#263238" stroke-linecap="round" stroke-linejoin="round"/>
<path d="M227.457 181.422L230.847 176.996" stroke="#263238" stroke-linecap="round" stroke-linejoin="round"/>
<path d="M229.816 178.354C229.762 177.736 229.84 177.114 230.046 176.528C230.251 175.943 230.579 175.407 231.007 174.959C231.895 173.988 236.816 171.283 237.495 173.046C238.222 174.929 233.355 179.355 229.816 178.354Z" fill="#5CB0FF" stroke="#263238" stroke-linecap="round" stroke-linejoin="round"/>
<path d="M229.816 178.325L234.671 174.565" stroke="#263238" stroke-linecap="round" stroke-linejoin="round"/>
<path d="M227.457 166.309L230.847 161.882" stroke="#263238" stroke-linecap="round" stroke-linejoin="round"/>
<path d="M229.816 163.211C229.762 162.593 229.84 161.972 230.045 161.387C230.251 160.802 230.579 160.268 231.008 159.821C231.895 158.844 236.816 156.139 237.495 157.903C238.222 159.821 233.355 164.241 229.816 163.211Z" fill="#5CB0FF" stroke="#263238" stroke-linecap="round" stroke-linejoin="round"/>
<path d="M229.816 163.211L234.671 159.452" stroke="#263238" stroke-linecap="round" stroke-linejoin="round"/>
<path d="M227.457 146.333L230.847 141.913" stroke="#263238" stroke-linecap="round" stroke-linejoin="round"/>
<path d="M229.816 143.241C229.762 142.623 229.84 142.001 230.046 141.415C230.251 140.829 230.579 140.294 231.007 139.846C231.895 138.869 236.816 136.17 237.495 137.933C238.222 139.846 233.355 144.272 229.816 143.241Z" fill="#5CB0FF" stroke="#263238" stroke-linecap="round" stroke-linejoin="round"/>
<path d="M229.816 143.242L234.671 139.482" stroke="#263238" stroke-linecap="round" stroke-linejoin="round"/>
<path d="M227.606 129.099L230.93 126.501" stroke="#263238" stroke-linecap="round" stroke-linejoin="round"/>
<path d="M229.816 127.538C229.762 126.92 229.84 126.297 230.046 125.712C230.251 125.126 230.579 124.591 231.007 124.142C231.895 123.171 236.816 120.467 237.495 122.23C238.222 124.142 233.355 128.569 229.816 127.538Z" fill="#5CB0FF" stroke="#263238" stroke-linecap="round" stroke-linejoin="round"/>
<path d="M229.816 127.538L234.671 123.779" stroke="#263238" stroke-linecap="round" stroke-linejoin="round"/>
<path d="M227.254 120.568C227.2 119.95 227.279 119.327 227.484 118.741C227.69 118.156 228.017 117.621 228.446 117.172C229.334 116.201 234.254 113.496 234.933 115.26C235.66 117.178 230.793 121.604 227.254 120.568Z" fill="#5CB0FF" stroke="#263238" stroke-linecap="round" stroke-linejoin="round"/>
<path d="M227.254 120.574L232.11 116.815" stroke="#263238" stroke-linecap="round" stroke-linejoin="round"/>
<path d="M227.493 120.782C226.873 120.774 226.262 120.633 225.7 120.369C225.139 120.105 224.641 119.724 224.24 119.251C223.364 118.268 221.19 113.085 223.019 112.597C225.003 112.067 228.887 117.369 227.493 120.782Z" fill="#5CB0FF" stroke="#263238" stroke-linecap="round" stroke-linejoin="round"/>
<path d="M227.493 120.783L224.264 115.558" stroke="#263238" stroke-linecap="round" stroke-linejoin="round"/>
<path d="M231.663 248.127H220.815L219.462 220.729H233.021L231.663 248.127Z" fill="#263238" stroke="#263238" stroke-linecap="round" stroke-linejoin="round"/>
<g opacity="0.3">
<path opacity="0.3" d="M222.383 186.777V131.916C222.383 129.829 221.555 127.827 220.081 126.349C218.606 124.872 216.606 124.039 214.519 124.035H142.435V187.326" stroke="black" stroke-linejoin="round"/>
<path opacity="0.3" d="M143.031 124.035H69.6183C68.5836 124.035 67.5589 124.239 66.603 124.635C65.6471 125.031 64.7787 125.612 64.0473 126.343C63.3159 127.075 62.7359 127.944 62.3405 128.901C61.945 129.857 61.7419 130.881 61.7427 131.916V186.777" stroke="black" stroke-linejoin="round"/>
<path opacity="0.3" d="M229.502 192.02V210.488H142.435V186.777H224.259C225.65 186.777 226.983 187.33 227.966 188.313C228.949 189.296 229.502 190.629 229.502 192.02V192.02Z" stroke="black" stroke-linejoin="round"/>
<path opacity="0.3" d="M143.126 186.777H59.8597C58.4693 186.777 57.1358 187.33 56.1527 188.313C55.1695 189.296 54.6172 190.629 54.6172 192.02V210.488H143.126" stroke="black" stroke-linejoin="round"/>
<path opacity="0.3" d="M229.644 210.47H54.6172V240.191H229.644V210.47Z" stroke="black" stroke-linejoin="round"/>
<path opacity="0.3" d="M61.7426 155.299C61.2484 154.784 60.6554 154.375 59.9993 154.096C59.3431 153.816 58.6372 153.672 57.924 153.672H34.9643C34.2707 153.672 33.5837 153.808 32.9426 154.072C32.3016 154.337 31.719 154.726 31.2282 155.216C30.7375 155.706 30.3482 156.289 30.0825 156.929C29.8169 157.57 29.6802 158.257 29.6802 158.951V234.913C29.6818 236.313 30.2392 237.656 31.23 238.645C32.2208 239.635 33.5639 240.191 34.9643 240.191H57.924" stroke="black" stroke-linejoin="round"/>
<path opacity="0.3" d="M224.367 240.191H247.32C248.721 240.191 250.064 239.635 251.055 238.645C252.045 237.656 252.603 236.313 252.604 234.913V158.951C252.603 157.55 252.045 156.208 251.055 155.218C250.064 154.228 248.721 153.672 247.32 153.672H224.367C223.686 153.671 223.012 153.802 222.383 154.06" stroke="black" stroke-linejoin="round"/>
</g>
<path d="M138.482 236.724C138.482 236.724 150.247 240.591 151.778 240.859C153.31 241.127 152.857 242.747 151.058 243.915C149.259 245.082 146.566 245.44 140.185 244.54C133.805 243.641 132.643 242.473 132.191 242.658C131.738 242.842 130.666 243.73 129.135 243.015C127.604 242.3 126.889 239.441 128.42 238.071C129.951 236.7 138.482 236.724 138.482 236.724Z" fill="#5CB0FF" stroke="#263238" stroke-linecap="round" stroke-linejoin="round"/>
<path d="M152.666 241.764C149.205 244.528 140.102 243.587 135.556 242.36C133.072 241.673 130.479 241.47 127.919 241.764C128.16 242.313 128.58 242.764 129.11 243.045C130.641 243.759 131.72 242.866 132.167 242.687C132.613 242.508 133.787 243.67 140.161 244.57C146.536 245.469 149.24 245.112 151.034 243.944C152.082 243.229 152.666 242.395 152.666 241.764Z" fill="#263238" stroke="#263238" stroke-linecap="round" stroke-linejoin="round"/>
<path d="M130.278 239.524C130.278 239.524 134.407 243.295 137.731 245.183C141.055 247.072 142.223 248.329 140.608 250.211C138.994 252.094 137.731 251.653 131.076 250.211C124.422 248.769 120.478 245.987 120.478 245.987C120.478 245.987 120.204 246.887 118.054 246.261C115.903 245.636 116.082 243.914 116.618 242.502C117.154 241.09 124.077 236.545 130.278 239.524Z" fill="#5CB0FF" stroke="#263238" stroke-linecap="round" stroke-linejoin="round"/>
<path d="M140.608 250.199C140.827 249.95 141.01 249.672 141.15 249.371C140.175 249.911 139.084 250.207 137.969 250.235C135.336 250.271 127.008 247.656 123.624 245.719C120.842 244.129 117.41 244.177 116.272 244.242C116.314 245.106 116.761 245.868 118.06 246.25C120.21 246.845 120.484 245.976 120.484 245.976C120.484 245.976 124.434 248.764 131.082 250.199C137.731 251.635 138.988 252.088 140.608 250.199Z" fill="#263238" stroke="#263238" stroke-linecap="round" stroke-linejoin="round"/>
<path d="M149.735 71.3838C152.69 73.1929 154.953 75.9408 156.163 79.1879C158.033 84.4959 159.177 108.802 159.177 108.802L167.845 103.268C167.845 103.268 173.344 101.784 173.523 103.982C173.701 106.181 172.974 110.172 172.974 110.172C172.974 110.172 161.364 120.032 159.797 121.759C158.23 123.487 156.431 125.423 153.804 125.149C151.177 124.875 152.779 109.553 152.779 109.553L149.735 71.3838Z" fill="#5CB0FF" stroke="#263238" stroke-linecap="round" stroke-linejoin="round"/>
<path d="M167.845 103.267C167.845 103.267 169.722 108.135 172.974 110.172C172.999 108.098 173.182 106.028 173.523 103.982C174.023 101.635 170.109 99.8002 167.845 103.267Z" fill="#263238" stroke="#263238" stroke-linecap="round" stroke-linejoin="round"/>
<path d="M151.504 138.887C151.08 150.066 149.962 161.208 148.156 172.248C145.314 188.547 138.624 200.629 138.118 206.8C137.612 212.972 137.522 225.036 137.522 227.55C137.522 230.064 138.332 229.26 138.422 231.506C138.511 233.752 138.422 236.712 138.422 236.712C136.943 237.425 135.411 238.023 133.841 238.5C132.953 238.736 132.052 238.915 131.142 239.036C131.142 239.036 131.505 239.757 129.617 235.175C127.728 230.594 126.996 222.558 127.15 214.742C127.305 206.926 130.999 193.075 132.411 185.199C133.823 177.323 137.826 157.2 138.267 152.964C138.708 148.728 139.715 138.356 139.715 138.356C141.972 138.723 144.271 138.769 146.542 138.493C150.17 138.053 151.504 138.887 151.504 138.887Z" fill="white" stroke="#263238" stroke-linecap="round" stroke-linejoin="round"/>
<path d="M141.317 139.399C136.585 140.529 131.639 140.399 126.972 139.023C119.376 136.718 114.64 135.449 114.461 136.081C114.426 136.156 114.406 136.238 114.404 136.321C114.402 136.404 114.418 136.487 114.45 136.564C114.482 136.641 114.53 136.71 114.59 136.768C114.651 136.825 114.722 136.869 114.801 136.897C114.801 136.897 116.523 181.934 115.051 188.195C113.58 194.457 112.734 195.517 112.722 200.801C112.71 206.085 113.204 227.186 114.283 233.293C115.361 239.399 115.182 238.523 114.998 240.138C114.813 241.752 115.361 242.926 115.718 243.194C116.076 243.462 117.249 245.69 122.188 243.897C125.339 242.736 128.429 241.415 131.446 239.941C131.68 238.064 131.77 236.172 131.714 234.282C131.714 230.058 129.539 226.93 129.605 223.695C129.671 220.46 129.242 205.895 132.143 195.797C134.359 188.052 137.737 168.006 139.661 156.175L143.438 153.887" fill="white"/>
<path d="M141.317 139.399C136.585 140.529 131.639 140.399 126.972 139.023C119.376 136.718 114.64 135.449 114.461 136.081C114.426 136.156 114.406 136.238 114.404 136.321C114.402 136.404 114.418 136.487 114.45 136.564C114.482 136.641 114.53 136.71 114.59 136.768C114.651 136.825 114.722 136.869 114.801 136.897C114.801 136.897 116.523 181.934 115.051 188.195C113.58 194.457 112.734 195.517 112.722 200.801C112.71 206.085 113.204 227.186 114.283 233.293C115.361 239.399 115.182 238.523 114.998 240.138C114.813 241.752 115.361 242.926 115.718 243.194C116.076 243.462 117.249 245.69 122.188 243.897C125.339 242.736 128.429 241.415 131.446 239.941C131.68 238.064 131.77 236.172 131.714 234.282C131.714 230.058 129.539 226.93 129.605 223.695C129.671 220.46 129.242 205.895 132.143 195.797C134.359 188.052 137.737 168.006 139.661 156.175L143.438 153.887" stroke="#263238" stroke-linecap="round" stroke-linejoin="round"/>
<path d="M117.154 206.812C116.846 208.84 116.703 210.891 116.725 212.942C116.928 219.686 118.912 233.966 119.108 234.758C119.305 235.55 118.114 237.737 118.513 239.125C118.912 240.513 119.901 243.295 119.901 243.295" stroke="#263238" stroke-linecap="round" stroke-linejoin="round"/>
<path d="M121.467 157.074C121.14 169.412 120.52 190.888 120.097 192.717C119.746 194.248 118.548 198.722 117.714 203.518" stroke="#263238" stroke-linecap="round" stroke-linejoin="round"/>
<path d="M121.688 148.49C121.688 148.49 121.64 150.331 121.569 153.256" stroke="#263238" stroke-linecap="round" stroke-linejoin="round"/>
<path d="M132.864 236.086C132.798 237.141 132.798 237.874 132.798 237.874" stroke="white" stroke-width="0.75" stroke-linecap="round" stroke-linejoin="round"/>
<path d="M131.738 65.0332L119.823 69.4595L121.205 140.549C121.205 140.549 140.001 145.171 151.534 138.886L151.951 125.78C151.951 125.78 151.201 94.7604 149.985 86.7835C148.77 78.8066 144.028 69.9242 144.028 69.9242C144.028 69.9242 138.613 66.5285 136.974 65.9447C135.259 65.4887 133.507 65.1837 131.738 65.0332Z" fill="#263238" stroke="#263238" stroke-linecap="round" stroke-linejoin="round"/>
<path d="M153.971 79.3964C153.971 79.3964 155.686 97.3697 155.52 105.948C155.353 114.527 154.775 143.11 154.775 143.11L151.093 145.118C151.093 145.118 150.599 117.809 150.069 105.317C149.538 92.8243 142.223 68.5004 142.223 68.5004L140.996 65.0928C140.996 65.0928 144.701 67.8153 148.299 69.9659C151.898 72.1165 153.869 77.6211 153.869 77.6211" fill="#5CB0FF"/>
<path d="M153.971 79.3964C153.971 79.3964 155.686 97.3697 155.52 105.948C155.353 114.527 154.775 143.11 154.775 143.11L151.093 145.118C151.093 145.118 150.599 117.809 150.069 105.317C149.538 92.8243 142.223 68.5004 142.223 68.5004L140.996 65.0928C140.996 65.0928 144.701 67.8153 148.299 69.9659C151.898 72.1165 153.869 77.6211 153.869 77.6211" stroke="#263238" stroke-linecap="round" stroke-linejoin="round"/>
<path d="M144.814 73.1348C144.814 73.1348 148.919 87.3847 150.211 94.3012C151.504 101.218 152.803 112.87 152.594 118.726C152.386 124.582 151.123 145.141 151.123 145.141" stroke="#263238" stroke-linecap="round" stroke-linejoin="round"/>
<path d="M138.964 69.1139L144.975 77.5733L141.734 67.1539L140.179 63.1685L138.964 69.1139Z" fill="white" stroke="#263238" stroke-linecap="round" stroke-linejoin="round"/>
<path d="M131.964 50.5388C131.964 50.5388 128.521 64.3122 128.39 64.9199C128.259 65.5275 138.345 75.2618 138.345 75.2618L142.235 63.3471C142.235 63.3471 136.003 59.4272 134.806 56.1507C133.609 52.8741 132.554 50.0444 131.964 50.5388Z" fill="white" stroke="#263238" stroke-linecap="round" stroke-linejoin="round"/>
<path d="M129.093 63.2933C131.252 71.037 132.574 78.9898 133.036 87.0155C133.573 99.2459 133.132 147.34 133.132 147.34L111.352 144.325C111.352 144.325 112.99 114.455 113.008 113.418C113.026 112.382 107.164 72.7178 107.188 71.3953C107.211 70.0728 126.894 62.8644 129.093 63.2933Z" fill="#5CB0FF" stroke="#263238" stroke-linecap="round" stroke-linejoin="round"/>
<path d="M130.445 123.665L130.773 145.487" stroke="#263238" stroke-linecap="round" stroke-linejoin="round"/>
<path d="M129.694 73.7783L130.409 121.294" stroke="#263238" stroke-linecap="round" stroke-linejoin="round"/>
<path d="M128.657 59.7905L136.908 69.5725L131.869 78.9077L125.345 63.502L128.657 59.7905Z" fill="white" stroke="#263238" stroke-linecap="round" stroke-linejoin="round"/>
<path d="M136.909 69.5728L138.321 75.262L135.038 73.1293L136.909 69.5728Z" fill="white" stroke="#263238" stroke-linecap="round" stroke-linejoin="round"/>
<path d="M156.139 40.429C156.139 40.429 155.061 44.8255 152.237 53.4994C149.413 62.1733 146.78 66.7605 143.569 65.8073C140.358 64.8541 133.376 60.6423 132.084 58.1104C130.791 55.5785 131.202 52.4569 131.202 52.4569C131.202 52.4569 128.444 52.2663 128.396 48.8825C128.348 45.4987 130.183 43.926 131.559 43.7532C132.935 43.5804 135.33 45.4213 136.325 42.663C137.32 39.9047 135.092 36.9856 137.278 35.4069C139.465 33.8282 144.463 33.8759 148.812 35.4069C151.529 36.3907 153.991 37.9727 156.014 40.0358L156.139 40.429Z" fill="white" stroke="#263238" stroke-linecap="round" stroke-linejoin="round"/>
<path d="M150.325 48.8291C150.325 48.8291 150.497 53.9882 150.104 54.6494C149.711 55.3107 145.285 53.7856 145.285 53.7856" stroke="#263238" stroke-linecap="round" stroke-linejoin="round"/>
<path d="M148.013 57.6577C146.332 57.5132 144.733 56.8701 143.42 55.8109C141.186 54.0237 140.989 52.731 140.989 52.731" stroke="#263238" stroke-linecap="round" stroke-linejoin="round"/>
<path d="M141.776 52.1172L140.09 52.9751" stroke="#263238" stroke-linecap="round" stroke-linejoin="round"/>
<path d="M141.156 53.4404C141.156 53.4404 140.936 56.5978 141.663 57.8846C142.39 59.1714 144.641 56.8302 144.641 56.8302C144.641 56.8302 141.693 54.4949 141.156 53.4404Z" fill="#263238" stroke="#263238" stroke-linecap="round" stroke-linejoin="round"/>
<path d="M147.34 48.12C147.114 48.823 146.661 49.3115 146.333 49.1983C146.005 49.0851 145.922 48.4357 146.148 47.7328C146.375 47.0298 146.828 46.5413 147.161 46.6545C147.495 46.7677 147.572 47.417 147.34 48.12Z" fill="#263238"/>
<path d="M152.618 49.7523C152.392 50.4553 151.939 50.9438 151.611 50.8306C151.284 50.7174 151.2 50.0681 151.427 49.3651C151.653 48.6621 152.106 48.1736 152.44 48.2868C152.773 48.4 152.851 49.0494 152.618 49.7523Z" fill="#263238"/>
<path d="M143.331 43.2946C143.331 43.2946 145.273 41.3763 148.096 43.2648" stroke="#263238" stroke-linecap="round" stroke-linejoin="round"/>
<path d="M151.462 44.8019C151.462 44.8019 153.542 43.807 154.167 45.9457" stroke="#263238" stroke-linecap="round" stroke-linejoin="round"/>
<path d="M158.051 37.4446C156.946 35.1408 155.109 33.268 152.827 32.1187C145.338 28.1392 133.727 24.7793 130.671 37.8616C130.188 40.1139 129.974 42.4157 130.034 44.7185C130.414 44.5262 130.846 44.4617 131.266 44.5347C131.685 44.6077 132.07 44.8142 132.363 45.1236C133.322 46.2317 132.435 47.6138 134.103 47.6257C135.771 47.6376 136.122 45.7313 136.432 44.7781C136.742 43.8249 139.852 45.63 140.423 43.8785C141.085 41.8411 138.04 39.1961 140.28 37.5459C142.008 36.271 144.32 38.0582 145.702 39.0352C147.971 40.6318 150.176 42.2224 152.85 43.0922C155.186 43.8487 158.587 44.8794 158.808 41.4837C158.889 40.0957 158.629 38.709 158.051 37.4446Z" fill="#263238" stroke="#263238" stroke-linecap="round" stroke-linejoin="round"/>
<path d="M168.947 100.068C168.664 98.7151 168.479 97.3434 168.393 95.9636C168.453 94.9568 171.771 91.436 171.771 91.436L173.951 93.8607L168.947 100.068Z" fill="white" stroke="#263238" stroke-linecap="round" stroke-linejoin="round"/>
<path d="M177.937 78.0615L168.453 94.9566L174.261 95.3855L182.929 80.1049L177.937 78.0615Z" fill="#263238" stroke="#263238" stroke-linecap="round" stroke-linejoin="round"/>
<path d="M179.146 92.1451C179.146 92.1451 181.142 89.4941 181.184 88.6481C181.088 87.1696 180.764 85.7147 180.224 84.335C179.79 83.4355 178.896 81.8985 178.366 82.8516C177.836 83.8048 178.646 85.598 178.664 85.9197C178.681 86.2414 178.83 88.3026 178.83 88.3026L178.312 89.6311L179.146 92.1451Z" fill="white" stroke="#263238" stroke-linecap="round" stroke-linejoin="round"/>
<path d="M168.167 101.313C168.294 100.755 168.451 100.204 168.637 99.6632C168.888 98.9901 170.925 96.4165 170.925 96.4165C170.925 96.4165 166.254 89.5953 166.826 89.1306C167.398 88.666 170.079 91.4183 170.079 91.4183L172.295 92.9076L173.088 93.4735C173.088 93.4735 172.087 92.4072 171.521 91.7578C170.955 91.1085 168.739 89.4821 168.06 88.8745C167.38 88.2668 166.731 87.8736 167.345 87.1409C167.958 86.4081 168.214 86.4915 168.81 86.8788C169.406 87.266 169.406 87.7426 171.688 88.797C173.969 89.8515 174.666 90.2447 175.125 90.9298C175.584 91.6149 176.203 92.7587 176.203 92.7587L176.144 89.4464C176.144 89.4464 172.796 85.9911 172.45 85.2762C172.105 84.5613 172.134 83.8048 172.885 83.7809C173.636 83.7571 176.823 86.1639 177.46 86.6822C178.098 87.2005 179.164 88.6302 179.206 89.22C179.181 90.8809 179.05 92.5385 178.813 94.1825C178.652 94.6948 173.522 103.976 173.522 103.976L171.735 107.509C171.735 107.509 170.448 109.016 168.971 105.978C167.494 102.94 168.167 101.313 168.167 101.313Z" fill="white" stroke="#263238" stroke-linecap="round" stroke-linejoin="round"/>
<path d="M156.89 95.7373C157.824 95.6012 158.736 95.3387 159.6 94.9569C161.018 94.3254 162.71 95.1356 161.512 96.4819C160.315 97.8283 160.875 97.7628 158.808 98.3585C156.741 98.9542 156.89 95.7373 156.89 95.7373Z" fill="white" stroke="#263238" stroke-linecap="round" stroke-linejoin="round"/>
<path d="M144.355 105.174C144.355 105.174 147.072 105.984 149.235 105.609C151.397 105.234 152.457 102.749 152.457 102.749C152.457 102.749 153.089 105.132 154.298 105.067C155.508 105.001 158.701 101.647 158.701 101.647L158.808 98.3588C158.825 97.7708 158.646 97.1938 158.299 96.719C157.951 96.2443 157.455 95.8989 156.89 95.7375L153.911 94.8976C155.028 94.0335 156.195 93.2378 157.408 92.5146C158.117 92.2287 161.292 92.5146 162.71 91.9546C164.128 91.3946 163.55 89.7206 160.631 89.6551C157.712 89.5896 154.572 89.7742 152.481 91.3529C150.813 92.7514 149.281 94.3053 147.906 95.9937L143.289 99.9077L140.644 100.307L141.442 105.597L144.355 105.174Z" fill="white" stroke="#263238" stroke-linecap="round" stroke-linejoin="round"/>
<path d="M151.624 98.8945C151.624 98.8945 152.499 98.2988 153.667 99.4903C154.835 100.682 155.77 104.107 155.77 104.107" stroke="#263238" stroke-linecap="round" stroke-linejoin="round"/>
<path d="M153.315 96.6074C153.315 96.6074 156.074 96.9887 156.681 98.0491C157.289 99.1095 157.474 102.219 157.474 102.219" stroke="#263238" stroke-linecap="round" stroke-linejoin="round"/>
<path d="M109.821 69.6084C109.821 69.6084 103.488 71.4254 103.202 73.5998C102.916 75.7743 101.278 115.134 100.98 117.797C100.682 120.46 100.384 122.629 101.826 124.112C103.268 125.596 143.861 108.623 143.861 108.623L143.313 99.8896L116.91 104.888L118.304 89.9944" fill="#5CB0FF"/>
<path d="M109.821 69.6084C109.821 69.6084 103.488 71.4254 103.202 73.5998C102.916 75.7743 101.278 115.134 100.98 117.797C100.682 120.46 100.384 122.629 101.826 124.112C103.268 125.596 143.861 108.623 143.861 108.623L143.313 99.8896L116.91 104.888L118.304 89.9944" stroke="#263238" stroke-linecap="round" stroke-linejoin="round"/>
<path d="M116.91 104.888C116.91 104.888 111.333 106.174 108.099 111.143" stroke="#263238" stroke-linecap="round" stroke-linejoin="round"/>
</svg>
