<svg width="188" height="188" viewBox="0 0 188 188" fill="none" xmlns="http://www.w3.org/2000/svg">
<path d="M152.783 32.4157C152.783 32.4157 135.368 15.9681 110.805 20.9344C86.2421 25.9008 74.6828 45.9182 59.8487 59.1778C52.0804 66.1177 41.1977 68.1086 32.2018 73.2354C3.42286 89.6353 4.53758 131.236 24.5723 148.369C41.9221 163.181 64.7414 166.239 95.2727 158.432C125.804 150.624 147.565 146.187 168.103 119.017C188.641 91.8474 174.106 54.5714 152.783 32.4157Z" fill="#5CB0FF"/>
<path opacity="0.7" d="M152.783 32.4157C152.783 32.4157 135.368 15.9681 110.805 20.9344C86.2421 25.9008 74.6828 45.9182 59.8487 59.1778C52.0804 66.1177 41.1977 68.1086 32.2018 73.2354C3.42286 89.6353 4.53758 131.236 24.5723 148.369C41.9221 163.181 64.7414 166.239 95.2727 158.432C125.804 150.624 147.565 146.187 168.103 119.017C188.641 91.8474 174.106 54.5714 152.783 32.4157Z" fill="white"/>
<path d="M96.4839 168.575C134.945 168.575 166.123 164.49 166.123 159.45C166.123 154.41 134.945 150.325 96.4839 150.325C58.0232 150.325 26.8447 154.41 26.8447 159.45C26.8447 164.49 58.0232 168.575 96.4839 168.575Z" fill="#5CB0FF"/>
<path opacity="0.5" d="M96.4839 168.575C134.945 168.575 166.123 164.49 166.123 159.45C166.123 154.41 134.945 150.325 96.4839 150.325C58.0232 150.325 26.8447 154.41 26.8447 159.45C26.8447 164.49 58.0232 168.575 96.4839 168.575Z" fill="white"/>
<path d="M103.106 151.916C103.106 151.916 73.7289 156.225 73.2793 156.449C72.8297 156.674 71.9358 157.222 72.2691 157.665C72.6023 158.109 77.204 157.665 77.204 157.665L78.7908 157.002L101.217 156.006L91.6967 165.851C91.6967 165.851 91.025 166.848 91.3582 167.176C91.6914 167.505 93.0402 167.729 93.2676 167.401C93.4951 167.072 94.0504 166.07 94.0504 166.07L106.496 156.679L128.928 160.107C128.928 160.107 128.701 160.55 129.489 160.775C130.277 160.999 133.414 162.1 133.525 161.437C133.636 160.775 133.525 159.872 132.625 159.668C131.726 159.465 105.343 152.135 105.343 152.135L103.106 151.916Z" fill="#263238" stroke="#263238" stroke-width="0.5" stroke-linecap="round" stroke-linejoin="round"/>
<path d="M104.591 143.839H104.083C102.924 143.839 101.983 144.766 101.983 145.91V151.389C101.983 152.533 102.924 153.46 104.083 153.46H104.591C105.751 153.46 106.691 152.533 106.691 151.389V145.91C106.691 144.766 105.751 143.839 104.591 143.839Z" fill="#263238" stroke="#263238" stroke-width="0.5" stroke-linecap="round" stroke-linejoin="round"/>
<path d="M100.751 135.089H108.04V145.352C108.04 145.944 107.802 146.512 107.377 146.931C106.952 147.35 106.377 147.585 105.776 147.585H103.021C102.42 147.585 101.844 147.35 101.42 146.931C100.995 146.512 100.757 145.944 100.757 145.352V135.089H100.751Z" fill="#263238" stroke="#263238" stroke-width="0.5" stroke-linecap="round" stroke-linejoin="round"/>
<path d="M135.963 119.505C134.82 121.337 134.217 123.45 133.101 125.318C130.808 129.159 127.516 132.328 123.566 134.495C119.616 136.662 115.151 137.75 110.632 137.646C101.884 137.531 96.166 136.081 89.8876 133.551C83.6092 131.02 78.5579 128.13 76.4316 125.036C74.3053 121.942 66.6622 114.22 63.076 110.104C59.4899 105.987 59.8231 105.346 57.2578 104.459C54.6925 103.572 55.9143 100.702 59.2783 98.3752C62.6423 96.0482 66.567 97.8221 68.3601 99.9404C70.1531 102.059 75.3155 104.589 82.2657 108.346C89.2158 112.102 97.7422 112.994 103.121 111.335C108.501 109.676 110.299 104.255 110.415 98.6152C110.532 92.9752 108.728 87.6587 103.46 80.6936C98.1918 73.7284 93.7065 69.6328 94.8278 64.3267C95.9491 59.0207 103.571 49.7182 106.824 50.6103C110.077 51.5025 114.673 59.1251 127.347 62.0885C140.02 65.052 149.884 64.4102 150.783 63.6537C151.683 62.8972 157.062 53.9234 160.426 52.3738C163.79 50.8243 167.265 53.8086 167.043 56.1355C166.821 58.4624 155.025 82.1179 153.476 86.2083C151.926 90.2987 137.772 116.631 137.772 116.631L135.963 119.505Z" fill="#5CB0FF"/>
<path opacity="0.2" d="M136.022 119.438C131.039 118.989 126.189 115.061 118.641 114.821C109.792 114.539 102.371 129.179 90.6715 129.179C85.7915 129.226 80.9902 127.964 76.7817 125.527C79.0773 128.448 83.9223 131.161 89.8886 133.577C96.1671 136.123 101.885 137.558 110.633 137.673C115.154 137.778 119.621 136.691 123.573 134.524C127.525 132.357 130.818 129.187 133.113 125.344C134.229 123.476 134.832 121.363 135.974 119.532L136.022 119.438Z" fill="black"/>
<path opacity="0.2" d="M151.164 81.5962C151.164 81.5962 165.149 54.0121 166.006 53.7303C166.863 53.4486 168 54.5756 168 56.5425C168 58.5094 153.475 86.2084 153.475 86.2084L151.164 81.5962Z" fill="black"/>
<path d="M135.963 119.505C134.82 121.337 134.217 123.45 133.101 125.318C130.808 129.159 127.516 132.328 123.566 134.495C119.616 136.662 115.151 137.75 110.632 137.646C101.884 137.531 96.166 136.081 89.8876 133.551C83.6092 131.02 78.5579 128.13 76.4316 125.036C74.3053 121.942 66.6622 114.22 63.076 110.104C59.4899 105.987 59.8231 105.346 57.2578 104.459C54.6925 103.572 55.9143 100.702 59.2783 98.3752C62.6423 96.0482 66.567 97.8221 68.3601 99.9404C70.1531 102.059 75.3155 104.589 82.2657 108.346C89.2158 112.102 97.7422 112.994 103.121 111.335C108.501 109.676 110.299 104.255 110.415 98.6152C110.532 92.9752 108.728 87.6587 103.46 80.6936C98.1918 73.7284 93.7065 69.6328 94.8278 64.3267C95.9491 59.0207 103.571 49.7182 106.824 50.6103C110.077 51.5025 114.673 59.1251 127.347 62.0885C140.02 65.052 149.884 64.4102 150.783 63.6537C151.683 62.8972 157.062 53.9234 160.426 52.3738C163.79 50.8243 167.265 53.8086 167.043 56.1355C166.821 58.4624 155.025 82.1179 153.476 86.2083C151.926 90.2987 137.772 116.631 137.772 116.631L135.963 119.505Z" stroke="#263238" stroke-width="0.5" stroke-linecap="round" stroke-linejoin="round"/>
<path d="M150.768 63.6431C150.768 63.6431 145.722 72.7161 145.479 73.5978L150.768 63.6431Z" fill="white"/>
<path d="M150.768 63.6431C150.768 63.6431 145.722 72.7161 145.479 73.5978" stroke="#263238" stroke-width="0.5" stroke-linecap="round" stroke-linejoin="round"/>
<path d="M87.1855 83.8292C87.1855 83.8292 86.5666 83.8292 84.8317 83.1144C83.0968 82.3996 82.0813 81.617 80.6003 81.5492C79.1193 81.4813 75.2739 84.6431 75.2739 86.3596C75.2739 88.0761 81.0446 88.1283 83.0122 88.1856C84.9798 88.243 87.2172 88.4048 87.6615 88.243C88.1058 88.0813 88.0582 84.0692 87.7197 83.9283C87.5562 83.8417 87.3696 83.807 87.1855 83.8292Z" fill="white" stroke="#263238" stroke-width="0.5" stroke-linecap="round" stroke-linejoin="round"/>
<path d="M89.2582 83.4377L86.7352 83.6621C87.0748 84.8672 87.2264 86.1163 87.1848 87.3664C87.1753 88.8804 86.9673 90.3868 86.5659 91.8481L89.9299 91.7907C89.9299 91.7907 91.5167 87.9195 91.5167 86.3125C91.5167 84.7056 89.2582 83.4377 89.2582 83.4377Z" fill="white" stroke="#263238" stroke-width="0.5" stroke-linecap="round" stroke-linejoin="round"/>
<path d="M116.51 68.6204C116.51 68.6204 110.792 75.8099 108.83 78.2986C106.867 80.7873 102.884 82.3369 102.435 82.5038C101.985 82.6708 89.2591 83.4429 89.2591 83.4429C89.886 84.6929 90.1199 86.0991 89.9308 87.4812C89.6505 89.9177 89.0898 92.4585 89.0898 92.4585C89.0898 92.4585 92.0095 92.6829 96.8281 91.6864C101.647 90.6898 104.397 91.5194 107.2 89.0777C110.004 86.636 115.219 73.9787 116.229 71.7665C117.24 69.5543 117.742 68.1822 116.51 68.6204Z" fill="#263238" stroke="#263238" stroke-width="0.5" stroke-linecap="round" stroke-linejoin="round"/>
<path d="M49.3928 142.289C49.3928 142.289 46.1399 145.054 42.7759 147.929C39.4119 150.804 32.4617 153.021 28.6481 153.794C24.8345 154.566 20.5766 154.9 20.2381 155.562C19.8996 156.225 19.5664 157.221 22.4808 157.999C25.6937 158.865 28.9513 159.562 32.2396 160.086C35.265 160.529 36.7249 160.31 38.1795 159.867C39.2821 159.562 40.4067 159.34 41.5435 159.204L41.2102 160.769C41.2102 160.769 42.797 161.098 47.0285 160.988C51.2599 160.879 52.413 160.769 52.8467 160.101C53.1299 159.626 53.283 159.087 53.291 158.536C53.291 158.536 55.3116 154.221 55.0894 152.228C54.9973 151.149 54.6918 150.098 54.1902 149.134L56.6815 145.055L49.3928 142.289Z" fill="white" stroke="#263238" stroke-width="0.5" stroke-linecap="round" stroke-linejoin="round"/>
<path d="M55.0949 152.245C54.9971 151.268 54.7399 150.313 54.3332 149.417C51.9924 149.886 49.623 150.203 47.2402 150.366C47.2402 150.366 48.589 148.279 47.6898 146.824C46.7906 145.368 44.5533 146.495 44.5533 146.495H44.4157L42.7549 147.909C39.3909 150.789 32.4407 153.001 28.6271 153.773C24.8135 154.546 20.5556 154.879 20.2171 155.542C19.8786 156.205 19.5454 157.201 22.4598 157.979C25.6728 158.845 28.9303 159.542 32.2186 160.065C35.2441 160.509 36.7039 160.29 38.1585 159.846C39.2611 159.542 40.3857 159.32 41.5225 159.184L41.1893 160.749C41.1893 160.749 42.776 161.078 47.0075 160.968C51.2389 160.858 52.392 160.749 52.8257 160.081C53.1089 159.606 53.262 159.067 53.27 158.516C53.27 158.516 55.3382 154.238 55.0949 152.245Z" fill="#263238" stroke="#263238" stroke-width="0.5" stroke-linecap="round" stroke-linejoin="round"/>
<path d="M20.7983 156.34C24.8768 158.07 29.2551 159.009 33.6937 159.105C40.5328 159.105 39.861 158.662 42.3311 158.662C44.8012 158.662 49.6198 159.324 52.3068 158.218" stroke="white" stroke-width="0.5" stroke-linecap="round" stroke-linejoin="round"/>
<path d="M68.3448 99.9246C68.3448 99.9246 67.0013 99.262 65.7689 102.58C64.5365 105.898 51.3926 129.679 49.2768 133.107C47.5309 135.764 45.6214 138.313 43.5591 140.74C43.5591 140.74 47.5948 144.058 50.6203 145.717C52.6078 146.784 54.6707 147.708 56.793 148.482C56.793 148.482 64.198 135.21 67.7789 128.244C71.3597 121.279 78.0983 109.66 78.0983 109.66C78.0983 109.66 79.7803 106.232 75.295 102.914C70.8096 99.5959 68.3448 99.9246 68.3448 99.9246Z" fill="#263238" stroke="#263238" stroke-width="0.5" stroke-linecap="round" stroke-linejoin="round"/>
<path d="M108.268 107.667C108.268 107.667 103.783 107.004 98.5097 101.365C93.2362 95.7246 91.221 94.342 91.221 94.342C91.221 94.342 86.7357 88.7542 82.3614 86.542C77.9871 84.3299 73.0575 84.6586 70.2542 91.1855C67.4508 97.7124 60.2732 119.615 59.4851 123.82C58.697 128.025 58.0305 130.676 58.3638 131.448C58.697 132.22 62.9655 133.441 65.991 134.328C69.0165 135.215 69.0165 134.881 69.6935 133.775C70.3705 132.669 78.2146 112.869 78.2146 112.869C78.2146 112.869 83.8212 121.608 92.6808 123.377C101.54 125.145 106.359 123.82 111.521 121.608C116.684 119.396 121.836 115.869 120.513 111.982C119.191 108.095 108.268 107.667 108.268 107.667Z" fill="#263238" stroke="#263238" stroke-width="0.5" stroke-linecap="round" stroke-linejoin="round"/>
<path d="M62.7383 124.593C62.7383 124.593 69.5774 110.876 71.2594 103.906" stroke="white" stroke-width="0.5" stroke-linecap="round" stroke-linejoin="round"/>
<path d="M78.2148 112.869C78.2148 112.869 83.3719 95.9438 83.7105 93.3977" stroke="white" stroke-width="0.5" stroke-linecap="round" stroke-linejoin="round"/>
<path d="M81.8003 101.255C81.8003 101.255 96.2666 105.126 104.788 107.777" stroke="white" stroke-width="0.5" stroke-linecap="round" stroke-linejoin="round"/>
<path d="M93.3521 98.1035C93.3521 98.1035 105.517 109.347 110.193 111.147" stroke="white" stroke-width="0.5" stroke-linecap="round" stroke-linejoin="round"/>
<path d="M134.509 71.2241L134.175 71.1875C132.483 70.9997 124.813 70.1441 122.227 69.4502C119.312 68.678 117.35 67.6815 116.509 68.6206C115.668 69.5597 105.068 90.4709 105.015 91.5196C104.962 92.5683 107.708 96.6639 107.427 97.7126C107.147 98.7613 104.957 100.321 104.783 101.198C104.721 101.615 104.609 102.023 104.449 102.413C104.391 102.58 104.28 103.076 104.28 103.076C104.28 103.076 98.0017 99.0952 94.9709 96.9404C91.9401 94.7857 90.9933 94.1752 91.2155 94.3317C91.4376 94.4883 94.0188 100.191 99.2923 103.676C104.566 107.161 106.861 108.434 110.558 109.937C114.256 111.439 123.512 114.966 124.633 115.154C125.755 115.342 128.22 116.26 131.25 113.719C134.281 111.179 154.407 83.4588 154.349 82.5822C154.291 81.7057 144.257 74.6153 142.294 73.8432C140.332 73.071 134.36 71.2345 134.36 71.2345" fill="#263238"/>
<path d="M134.509 71.2241L134.175 71.1875C132.483 70.9997 124.813 70.1441 122.227 69.4502C119.312 68.678 117.35 67.6815 116.509 68.6206C115.668 69.5597 105.068 90.4709 105.015 91.5196C104.962 92.5683 107.708 96.6639 107.427 97.7126C107.147 98.7613 104.957 100.321 104.783 101.198C104.721 101.615 104.609 102.023 104.449 102.413C104.391 102.58 104.28 103.076 104.28 103.076C104.28 103.076 98.0017 99.0952 94.9709 96.9404C91.9401 94.7857 90.9933 94.1752 91.2155 94.3317C91.4376 94.4883 94.0188 100.191 99.2923 103.676C104.566 107.161 106.861 108.434 110.558 109.937C114.256 111.439 123.512 114.966 124.633 115.154C125.755 115.342 128.22 116.26 131.25 113.719C134.281 111.179 154.407 83.4588 154.349 82.5822C154.291 81.7057 144.257 74.6153 142.294 73.8432C140.332 73.071 134.36 71.2345 134.36 71.2345" stroke="#263238" stroke-width="0.5" stroke-linecap="round" stroke-linejoin="round"/>
<path d="M113.763 102.027C113.831 102.27 113.819 102.527 113.731 102.764C113.642 103 113.48 103.203 113.268 103.343C113.057 103.484 112.805 103.556 112.55 103.549C112.295 103.542 112.048 103.455 111.845 103.303C111.642 103.15 111.493 102.938 111.418 102.697C111.343 102.456 111.347 102.198 111.428 101.96C111.51 101.721 111.665 101.514 111.873 101.367C112.08 101.219 112.329 101.14 112.584 101.14C112.86 101.106 113.137 101.18 113.358 101.345C113.578 101.511 113.724 101.756 113.763 102.027Z" fill="white" stroke="#263238" stroke-width="0.5" stroke-linecap="round" stroke-linejoin="round"/>
<path d="M111.293 104.458C111.361 104.7 111.351 104.958 111.263 105.194C111.176 105.431 111.016 105.634 110.805 105.776C110.594 105.918 110.344 105.991 110.089 105.985C109.834 105.98 109.587 105.895 109.383 105.744C109.179 105.593 109.028 105.383 108.951 105.143C108.875 104.903 108.876 104.645 108.956 104.406C109.035 104.167 109.189 103.958 109.394 103.809C109.6 103.661 109.848 103.579 110.103 103.577C110.379 103.539 110.659 103.611 110.882 103.776C111.104 103.941 111.252 104.186 111.293 104.458Z" fill="white" stroke="#263238" stroke-width="0.5" stroke-linecap="round" stroke-linejoin="round"/>
<path d="M130.303 74.9285C130.303 74.9285 124.02 79.2433 119.725 83.5528C115.43 87.8623 110.421 92.6832 110.304 93.7319C110.188 94.7806 112.547 97.1596 112.605 97.7127C112.868 98.7254 113.186 99.7234 113.557 100.702L120.962 96.111L142.273 74.3181C142.273 74.3181 136.661 74.0416 133.636 74.1512C130.61 74.2607 130.303 74.9285 130.303 74.9285Z" fill="white" stroke="#263238" stroke-width="0.5" stroke-linecap="round" stroke-linejoin="round"/>
<path d="M128.003 80.3075L127.833 82.3006C127.833 82.3006 119.762 89.0831 118.529 90.2622C117.297 91.4413 115.107 93.3039 114.938 94.0239C114.769 94.7439 114.996 96.0691 114.377 97.2326C114.027 97.9011 113.635 98.5475 113.203 99.1682L113.536 100.733L119.254 97.0813C119.254 97.0813 123.406 91.4414 125.369 88.6762C126.699 86.7467 127.897 84.7318 128.955 82.6449L132.43 81.2623L132.208 77.1145L128.003 80.3075Z" fill="#5CB0FF" stroke="#263238" stroke-width="0.5" stroke-linecap="round" stroke-linejoin="round"/>
<path d="M130.732 79.1285L125.802 81.8415L129.108 75.0589C129.108 75.0589 131.631 73.0137 131.631 74.2868C131.631 75.5598 130.732 79.1285 130.732 79.1285Z" fill="white" stroke="#263238" stroke-width="0.5" stroke-linecap="round" stroke-linejoin="round"/>
<path d="M130.277 61.3372H131.134" stroke="#263238" stroke-width="0.5" stroke-linecap="round" stroke-linejoin="round"/>
<path d="M128.563 52.6917C128.563 52.6917 126.448 55.3469 126.321 56.0095C126.194 56.672 126.939 58.0961 126.992 58.6178C127.045 59.1395 127.722 58.7847 128.05 57.6736C128.378 56.5624 129.896 53.0308 129.896 53.0308C129.896 53.0308 129.515 51.6431 128.563 52.6917Z" fill="#263238" stroke="#263238" stroke-width="0.5" stroke-linecap="round" stroke-linejoin="round"/>
<path d="M128.246 54.4501C128.246 54.4501 127.283 57.4605 126.802 59.6675C126.321 62.0398 126.239 64.474 126.559 66.8726C126.881 69.0117 127.283 74.6308 127.521 75.2673C127.759 75.9039 129.108 76.2169 129.849 76.3108C130.232 76.3715 130.625 76.3151 130.975 76.1491C130.975 76.1491 130.351 79.1386 130.748 79.1386C131.144 79.1386 140.269 73.9213 141.004 73.4621C141.739 73.003 142.527 68.1561 142.527 68.1561L144.526 66.4292C144.966 66.1385 145.301 65.7186 145.484 65.2292C145.653 64.3631 146.171 62.7248 146.013 61.9475C145.965 61.6244 145.833 61.319 145.63 61.0611C145.427 60.8033 145.16 60.6017 144.854 60.4762C144.854 60.4762 146.695 54.5388 146.378 52.7962C146.378 52.7962 147.018 50.7406 142.522 49.3945C138.026 48.0484 131.451 48.1267 129.362 49.8693C127.273 51.6119 127.775 52.7962 128.156 53.1927L128.558 53.5893L128.246 54.4501Z" fill="white" stroke="#263238" stroke-width="0.5" stroke-linecap="round" stroke-linejoin="round"/>
<path d="M142.527 49.3843C138.037 48.0382 131.457 48.1165 129.368 49.859C127.278 51.6016 127.781 52.786 128.162 53.1825L128.564 53.579C129.829 54.5906 131.433 55.0987 133.059 55.0034C135.789 54.8468 139.639 53.1825 141.729 53.1825C143.818 53.1825 142.612 55.2694 141.083 56.3494C139.555 57.4294 140.121 57.9146 141.327 58.8016C142.533 59.6885 142.046 60.3668 141.729 61.3372C141.411 62.3076 142.787 62.605 143.252 62.1303C143.594 61.7137 143.89 61.2625 144.135 60.7842C144.227 60.6847 144.339 60.605 144.464 60.5503C144.589 60.4955 144.723 60.4668 144.86 60.4659C144.86 60.4659 146.701 54.5286 146.383 52.786C146.383 52.786 147.023 50.7303 142.527 49.3843Z" fill="#263238" stroke="#263238" stroke-width="0.5" stroke-linecap="round" stroke-linejoin="round"/>
<path d="M130.97 69.1735L128.405 68.5422L130.515 63.8935V61.0918" stroke="#263238" stroke-width="0.5" stroke-linecap="round" stroke-linejoin="round"/>
<path d="M129.044 71.4695L131.371 71.7094" stroke="#263238" stroke-width="0.5" stroke-linecap="round" stroke-linejoin="round"/>
<path d="M130.976 76.1336C130.976 76.1336 138.91 72.6536 139.883 71.9597C140.856 71.2658 141.809 68.4797 141.809 68.4797" stroke="#263238" stroke-width="0.5" stroke-linecap="round" stroke-linejoin="round"/>
<path d="M131.134 61.3376H136.322C136.84 61.3376 137.336 61.5404 137.702 61.9014C138.068 62.2624 138.274 62.752 138.274 63.2626V63.7842C138.274 64.4511 138.005 65.0906 137.527 65.5622C137.049 66.0337 136.401 66.2987 135.725 66.2987H133.683C133.007 66.2987 132.359 66.0337 131.881 65.5622C131.403 65.0906 131.134 64.4511 131.134 63.7842V61.3115V61.3376Z" fill="#263238" stroke="#263238" stroke-width="0.5" stroke-linecap="round" stroke-linejoin="round"/>
<path d="M127.993 65.8035H126.168C125.562 65.8035 124.981 65.566 124.553 65.1434C124.124 64.7208 123.883 64.1476 123.883 63.5499V63.0647C123.883 62.6081 124.067 62.1703 124.395 61.8474C124.722 61.5246 125.166 61.3432 125.629 61.3432H130.304V63.529C130.304 64.1267 130.063 64.6999 129.635 65.1225C129.206 65.5452 128.625 65.7826 128.019 65.7826L127.993 65.8035Z" fill="#263238" stroke="#263238" stroke-width="0.5" stroke-linecap="round" stroke-linejoin="round"/>
<path d="M136.085 61.3376L144.135 60.6072L143.955 61.0037L138.312 62.1828C138.312 62.1828 136.804 61.3063 136.085 61.3376Z" fill="#263238" stroke="#263238" stroke-width="0.5" stroke-linecap="round" stroke-linejoin="round"/>
<path d="M145.383 63.5332C145.383 63.5332 145.458 62.0151 144.781 61.8743C144.104 61.7335 142.961 63.5332 142.808 63.7419C142.655 63.9505 143.416 63.674 143.49 64.2948C143.564 64.9156 143.115 64.9156 142.961 65.1921" stroke="#263238" stroke-width="0.5" stroke-linecap="round" stroke-linejoin="round"/>
<path d="M142.808 63.7422C142.808 63.7422 143.49 62.6367 144.246 63.4658C144.459 63.6977 144.589 63.9918 144.616 64.3035C144.644 64.6151 144.568 64.9271 144.399 65.192" stroke="#263238" stroke-width="0.5" stroke-linecap="round" stroke-linejoin="round"/>
<path d="M132.266 60.8779C132.266 60.8779 134.789 59.5528 136.19 59.6102C137.592 59.6676 137.925 60.3823 137.925 60.3823C137.925 60.3823 136.635 59.7198 135.852 59.9962C135.069 60.2727 133.736 61.1022 132.938 61.1543C132.139 61.2065 132.266 60.8779 132.266 60.8779Z" fill="#263238" stroke="#263238" stroke-width="0.5" stroke-linecap="round" stroke-linejoin="round"/>
<path d="M129.854 60.826C129.333 60.6088 128.785 60.4597 128.225 60.3826C126.712 60.0488 126.432 60.1635 126.77 60.3252C127.613 60.6338 128.473 60.8933 129.346 61.1025C130.277 61.3373 129.854 60.826 129.854 60.826Z" fill="#263238" stroke="#263238" stroke-width="0.5" stroke-linecap="round" stroke-linejoin="round"/>
<path d="M131.562 78.7942L131.986 84.1629L142.802 73.9891L141.517 72.6064L131.562 78.7942Z" fill="white" stroke="#263238" stroke-width="0.5" stroke-linecap="round" stroke-linejoin="round"/>
<path d="M74.3426 83.5532C74.3426 83.5532 73.1103 84.4974 73.0575 85.0504C73.0046 85.6033 74.57 88.2586 75.1729 88.6447C75.7758 89.0307 75.6224 89.0881 75.8498 88.5873C76.0772 88.0865 74.8397 83.668 74.7287 83.3706C74.6176 83.0733 74.3426 83.5532 74.3426 83.5532Z" fill="white" stroke="#263238" stroke-width="0.5" stroke-linecap="round" stroke-linejoin="round"/>
<path d="M76.2523 81.6745C76.2523 81.6745 74.7397 81.6745 74.2902 82.2849C73.8407 82.8952 74.1791 83.7195 74.5123 84.7158C74.8455 85.7122 75.4643 88.0336 75.8609 88.5866C76.2576 89.1395 77.2624 89.3065 77.3734 88.4196C77.4845 87.5328 76.9821 82.9996 76.8446 82.2849C76.7071 81.5702 76.2523 81.6745 76.2523 81.6745Z" fill="white" stroke="#263238" stroke-width="0.5" stroke-linecap="round" stroke-linejoin="round"/>
<path d="M80.2301 81.3506C80.2301 81.3506 77.6543 80.0828 77.0936 80.0828C76.5329 80.0828 75.9141 80.8549 75.9141 81.9036C75.9141 82.9523 76.5329 86.5992 76.5858 87.3818C76.6387 88.1644 76.9825 88.947 77.485 88.7644C77.9875 88.5818 78.2678 88.4305 78.5429 87.3244C78.7801 85.8228 78.9302 84.3091 78.9924 82.7906" fill="white"/>
<path d="M80.2301 81.3506C80.2301 81.3506 77.6543 80.0828 77.0936 80.0828C76.5329 80.0828 75.9141 80.8549 75.9141 81.9036C75.9141 82.9523 76.5329 86.5992 76.5858 87.3818C76.6387 88.1644 76.9825 88.947 77.485 88.7644C77.9875 88.5818 78.2678 88.4305 78.5429 87.3244C78.7801 85.8228 78.9302 84.3091 78.9924 82.7906" stroke="#263238" stroke-width="0.5" stroke-linecap="round" stroke-linejoin="round"/>
<path d="M84.4924 85.3269L81.5409 89.5843C81.5409 89.5843 81.8213 90.6904 82.5988 90.3564C83.3763 90.0225 84.503 88.7912 85.344 87.9252C86.185 87.0591 86.6927 86.986 86.3542 86.1565C86.0575 85.586 85.5879 85.121 85.0107 84.826C85.0107 84.826 83.662 82.5043 82.2074 81.5652C80.7528 80.6261 80.1287 80.5687 79.5627 81.4556C78.9968 82.3426 78.2192 87.4817 78.2192 88.4782C78.2192 89.4747 78.7482 90.0434 79.1713 89.7512C79.5945 89.4591 80.2927 88.3112 80.5148 87.4295C80.737 86.5478 82.1016 83.2556 82.1016 83.2556" fill="white"/>
<path d="M84.4924 85.3269L81.5409 89.5843C81.5409 89.5843 81.8213 90.6904 82.5988 90.3564C83.3763 90.0225 84.503 88.7912 85.344 87.9252C86.185 87.0591 86.6927 86.986 86.3542 86.1565C86.0575 85.586 85.5879 85.121 85.0107 84.826C85.0107 84.826 83.662 82.5043 82.2074 81.5652C80.7528 80.6261 80.1287 80.5687 79.5627 81.4556C78.9968 82.3426 78.2192 87.4817 78.2192 88.4782C78.2192 89.4747 78.7482 90.0434 79.1713 89.7512C79.5945 89.4591 80.2927 88.3112 80.5148 87.4295C80.737 86.5478 82.1016 83.2556 82.1016 83.2556" stroke="#263238" stroke-width="0.5" stroke-linecap="round" stroke-linejoin="round"/>
<path d="M58.3627 131.438L62.7369 124.582L67.7829 131.886C67.3146 133.036 66.9396 134.221 66.6616 135.429C66.4394 136.754 66.3284 139.3 65.8788 139.603C65.4292 139.905 61.6156 139.603 59.3729 138.606C57.1303 137.61 57.3577 135.956 57.5798 134.625C57.802 133.295 58.3627 131.438 58.3627 131.438Z" fill="white" stroke="#263238" stroke-width="0.5" stroke-linecap="round" stroke-linejoin="round"/>
<path d="M64.6468 136.206C64.6468 136.206 65.0911 133.551 62.8484 132.998C60.6057 132.445 58.1409 132.445 57.4692 133.441C56.7974 134.438 55.1154 137.093 54.4384 137.203C53.7614 137.312 45.9173 135.21 44.0132 134.657C42.109 134.104 42.1037 137.093 42.6644 138.972C43.2251 140.85 47.4882 143.839 50.0694 144.711C52.6506 145.582 55.2318 146.276 55.2318 146.276L55.0044 147.053C55.0044 147.053 63.3033 149.265 64.0914 149.265C64.8795 149.265 65.0964 147.7 65.0964 147.7C65.0964 147.7 67.4554 146.704 67.4554 144.492C67.4554 142.279 67.5665 138.074 67.5665 138.074C67.5665 138.074 66.2018 136.316 64.6468 136.206Z" fill="#263238" stroke="#263238" stroke-width="0.5" stroke-linecap="round" stroke-linejoin="round"/>
<path d="M63.6366 146.605C62.6899 146.175 61.7165 145.806 60.7222 145.498C60.7222 145.498 59.6009 145.832 59.0402 145.942C58.4795 146.051 57.9189 145.942 55.3377 143.949C52.7565 141.956 46.1395 137.312 44.2301 136.316C43.0823 135.716 42.5851 136.645 42.3735 137.474C42.4214 137.981 42.517 138.482 42.6592 138.972C43.2198 140.85 47.483 143.839 50.0642 144.711C52.6454 145.582 55.2266 146.276 55.2266 146.276L54.9991 147.053C54.9991 147.053 63.2981 149.265 64.0862 149.265C64.8743 149.265 65.0912 147.7 65.0912 147.7C64.7111 147.216 64.2097 146.839 63.6366 146.605Z" fill="white" stroke="#263238" stroke-width="0.5" stroke-linecap="round" stroke-linejoin="round"/>
<path d="M59.1511 148.154L59.4842 146.271H55.2269L54.9995 147.048L59.1511 148.154Z" fill="#263238" stroke="#263238" stroke-width="0.5" stroke-linecap="round" stroke-linejoin="round"/>
<path d="M78.1038 119.171C78.1038 119.171 80.3465 123.377 87.1855 123.82C94.0246 124.264 99.9698 123.043 103.334 119.724C106.698 116.406 108.491 112.201 112.527 109.989C116.562 107.777 119.593 109.66 125.649 111.21C131.706 112.759 134.393 111.872 134.393 111.872C134.393 111.872 138.434 111.648 139.682 109.879C140.93 108.111 141.142 105.679 142.374 106.895C143.607 108.111 145.178 115.963 143.496 119.171C141.814 122.38 141.702 123.043 131.272 120.737C120.841 118.431 120.381 117.564 117.467 119.333C114.552 121.102 111.294 126.429 105.032 129.298C97.7747 132.622 91.015 132.241 84.7366 130.91C78.4582 129.58 75.0889 123.502 75.0889 123.502" fill="#5CB0FF"/>
<path d="M78.1038 119.171C78.1038 119.171 80.3465 123.377 87.1855 123.82C94.0246 124.264 99.9698 123.043 103.334 119.724C106.698 116.406 108.491 112.201 112.527 109.989C116.562 107.777 119.593 109.66 125.649 111.21C131.706 112.759 134.393 111.872 134.393 111.872C134.393 111.872 138.434 111.648 139.682 109.879C140.93 108.111 141.142 105.679 142.374 106.895C143.607 108.111 145.178 115.963 143.496 119.171C141.814 122.38 141.702 123.043 131.272 120.737C120.841 118.431 120.381 117.564 117.467 119.333C114.552 121.102 111.294 126.429 105.032 129.298C97.7747 132.622 91.015 132.241 84.7366 130.91C78.4582 129.58 75.0889 123.502 75.0889 123.502" stroke="#263238" stroke-width="0.5" stroke-linecap="round" stroke-linejoin="round"/>
<path d="M120.999 90.711C120.999 90.711 119.317 89.1145 118.154 87.7789C117.159 86.7081 116.391 85.4522 115.895 84.085C115.186 82.3633 114.409 81.0224 113.504 81.3407C112.6 81.6589 109.437 81.2781 109.046 81.9146C108.654 82.5511 106.528 85.4833 106.337 86.1198C106.147 86.7563 107.432 87.6485 107.951 88.1598C108.469 88.6711 109.046 89.1771 109.5 89.1771C109.955 89.1771 110.468 88.3528 110.468 88.3528C110.998 88.9746 111.582 89.549 112.214 90.0693C112.814 90.3865 113.472 90.5817 114.15 90.6432L117.852 94.598L120.999 90.711Z" fill="white" stroke="#263238" stroke-width="0.5" stroke-linecap="round" stroke-linejoin="round"/>
<path d="M115.124 91.7904L118.736 88.4778L119.703 89.3698L116.023 92.6198L115.124 91.7904Z" fill="#263238" stroke="#263238" stroke-width="0.5" stroke-linecap="round" stroke-linejoin="round"/>
<path d="M110.467 88.3526L108.918 87.8416" stroke="#263238" stroke-width="0.5" stroke-linecap="round" stroke-linejoin="round"/>
<path d="M120.153 89.2128C120.159 89.4794 120.084 89.7417 119.939 89.9663C119.793 90.1909 119.583 90.3675 119.335 90.4736C119.087 90.5797 118.813 90.6105 118.547 90.5619C118.281 90.5134 118.036 90.3878 117.843 90.2011C117.65 90.0145 117.518 89.7753 117.463 89.5141C117.409 89.253 117.435 88.9817 117.537 88.7351C117.64 88.4885 117.815 88.2776 118.04 88.1296C118.264 87.9815 118.529 87.9029 118.799 87.9039C118.975 87.9018 119.15 87.9341 119.313 87.9988C119.477 88.0635 119.626 88.1595 119.751 88.2811C119.877 88.4027 119.977 88.5476 120.046 88.7075C120.115 88.8674 120.151 89.0391 120.153 89.2128Z" fill="white" stroke="#263238" stroke-width="0.5" stroke-linecap="round" stroke-linejoin="round"/>
<path d="M150.303 79.4619C150.303 79.4619 152.657 80.568 153.667 81.5489C154.677 82.5297 155.349 83.208 154.566 85.5297C153.783 87.8514 139.756 112.41 138.862 113.735C137.968 115.06 136.059 115.947 134.493 115.065C132.927 114.183 115.542 95.0409 115.542 95.0409L121.259 89.6253L132.848 99.6113L142.491 85.3419" fill="#263238"/>
<path d="M150.303 79.4619C150.303 79.4619 152.657 80.568 153.667 81.5489C154.677 82.5297 155.349 83.208 154.566 85.5297C153.783 87.8514 139.756 112.41 138.862 113.735C137.968 115.06 136.059 115.947 134.493 115.065C132.927 114.183 115.542 95.0409 115.542 95.0409L121.259 89.6253L132.848 99.6113L142.491 85.3419" stroke="#263238" stroke-width="0.5" stroke-linecap="round" stroke-linejoin="round"/>
<path d="M139.537 104.343L132.826 99.5959L140.056 101.286" stroke="white" stroke-width="0.5" stroke-linecap="round" stroke-linejoin="round"/>
<path d="M124.951 92.9755L132.826 99.5964L141.236 86.4539" stroke="white" stroke-width="0.5" stroke-linecap="round" stroke-linejoin="round"/>
</svg>
