<svg width="110" height="102" viewBox="0 0 110 102" fill="none" xmlns="http://www.w3.org/2000/svg">
<path d="M2.56827 69.3885C5.40046 63.9425 6.72854 58.6711 5.17004 52.6393C3.51874 46.2839 0.340928 39.5272 1.32979 32.8062C2.82109 22.8071 9.93195 12.7239 19.1005 6.66942C27.9363 0.844713 38.6858 -1.26189 48.168 4.05154C55.9797 8.43301 60.8953 17.6425 70.3679 18.9369C81.431 20.4643 85.9113 12.6009 98.1681 17.7364C102.988 19.7556 107.129 23.4252 109.049 28.415C111.199 34.065 109.343 38.2879 107.049 43.5527C104.578 49.2657 103.416 55.4692 103.65 61.6999C103.852 67.2205 106.069 72.3786 106.079 77.8797C106.098 87.5875 100.245 97.2371 90.718 99.8841C78.7716 103.204 67.1197 85.0829 53.9764 83.8759C47.1216 83.2449 43.5085 88.8269 39.0378 92.9592C33.6807 97.9134 26.589 101.308 19.219 100.978C3.47073 100.282 -4.43698 82.8501 2.56827 69.3885Z" fill="#5CB0FF"/>
<path opacity="0.7" d="M2.56827 69.3885C5.40046 63.9425 6.72854 58.6711 5.17004 52.6393C3.51874 46.2839 0.340928 39.5272 1.32979 32.8062C2.82109 22.8071 9.93195 12.7239 19.1005 6.66942C27.9363 0.844713 38.6858 -1.26189 48.168 4.05154C55.9797 8.43301 60.8953 17.6425 70.3679 18.9369C81.431 20.4643 85.9113 12.6009 98.1681 17.7364C102.988 19.7556 107.129 23.4252 109.049 28.415C111.199 34.065 109.343 38.2879 107.049 43.5527C104.578 49.2657 103.416 55.4692 103.65 61.6999C103.852 67.2205 106.069 72.3786 106.079 77.8797C106.098 87.5875 100.245 97.2371 90.718 99.8841C78.7716 103.204 67.1197 85.0829 53.9764 83.8759C47.1216 83.2449 43.5085 88.8269 39.0378 92.9592C33.6807 97.9134 26.589 101.308 19.219 100.978C3.47073 100.282 -4.43698 82.8501 2.56827 69.3885Z" fill="white"/>
<path d="M29.2014 43.5679C30.5663 36.5848 27.2562 30.0605 21.8079 28.9955C16.3597 27.9306 10.8365 32.7282 9.47151 39.7114C8.10653 46.6945 11.4167 53.2188 16.8649 54.2837C22.3132 55.3487 27.8364 50.5511 29.2014 43.5679Z" fill="white" stroke="#263238" stroke-width="0.5" stroke-miterlimit="10"/>
<path d="M67.0889 29.4802C67.0889 29.4802 75.0966 17.1156 84.4266 19.1165C90.6402 20.4505 86.9893 32.273 86.9893 32.273" fill="white"/>
<path d="M67.0889 29.4802C67.0889 29.4802 75.0966 17.1156 84.4266 19.1165C90.6402 20.4505 86.9893 32.273 86.9893 32.273" stroke="#263238" stroke-width="0.5" stroke-miterlimit="10"/>
<path d="M84.9066 33.4314H84.9339L85.5034 33.2831C85.5034 33.2831 89.0723 22.4397 83.8729 22.5762C79.4849 22.6893 73.5834 32.819 71.8477 35.9706C75.2294 33.6186 79.9334 32.5654 84.9066 33.4314Z" fill="#263238" stroke="#263238" stroke-width="0.5" stroke-miterlimit="10"/>
<path d="M46.2525 86.2248L44.0643 95.8825C43.73 97.3362 42.9127 98.6337 41.746 99.5631C40.5792 100.493 39.1319 100.999 37.6402 101V101C36.1453 101.001 34.6946 100.493 33.5265 99.56C32.3584 98.6272 31.5422 97.3248 31.2121 95.8669L27.3584 78.8723" fill="#263238"/>
<path d="M46.2525 86.2248L44.0643 95.8825C43.73 97.3362 42.9127 98.6337 41.746 99.5631C40.5792 100.493 39.1319 100.999 37.6402 101V101C36.1453 101.001 34.6946 100.493 33.5265 99.56C32.3584 98.6272 31.5422 97.3248 31.2121 95.8669L27.3584 78.8723" stroke="#263238" stroke-width="0.5" stroke-miterlimit="10"/>
<path d="M79.7033 86.2248L77.5073 95.9293C77.1736 97.3722 76.3605 98.6594 75.2007 99.5804C74.041 100.501 72.6031 101.002 71.1221 101V101C69.6222 101.001 68.1676 100.486 67.0017 99.5424C65.8358 98.5987 65.0294 97.2833 64.7175 95.8162L62.5254 85.5383" fill="#263238"/>
<path d="M79.7033 86.2248L77.5073 95.9293C77.1736 97.3722 76.3605 98.6594 75.2007 99.5804C74.041 100.501 72.6031 101.002 71.1221 101V101C69.6222 101.001 68.1676 100.486 67.0017 99.5424C65.8358 98.5987 65.0294 97.2833 64.7175 95.8162L62.5254 85.5383" stroke="#263238" stroke-width="0.5" stroke-miterlimit="10"/>
<path d="M98.9952 57.3492C98.9952 69.1405 92.7543 79.707 82.9055 86.8176C74.8705 92.6216 64.4366 96.1242 53.0315 96.1242C27.647 96.1242 7.06787 78.763 7.06787 57.3492C7.06787 35.9354 27.647 18.5703 53.0315 18.5703C78.4161 18.5703 98.9952 35.9315 98.9952 57.3492Z" fill="white" stroke="#263238" stroke-width="0.5" stroke-miterlimit="10"/>
<path d="M90.5469 76.2083C88.0259 79.7357 84.9393 82.8223 81.4119 85.3432C78.9758 87.0969 76.3703 88.6022 73.6343 89.8366" stroke="#263238" stroke-width="0.5" stroke-miterlimit="10"/>
<path d="M95.5278 65.8447C94.9425 67.9309 94.1507 69.9536 93.1641 71.8827Z" fill="white"/>
<path d="M95.5278 65.8447C94.9425 67.9309 94.1507 69.9536 93.1641 71.8827" stroke="#263238" stroke-width="0.5" stroke-miterlimit="10"/>
<path d="M16.2188 37.531C17.6861 35.5998 19.3329 33.8119 21.1373 32.1912" stroke="#263238" stroke-width="0.5" stroke-miterlimit="10"/>
<path d="M14.0304 73.9305C10.9782 68.9362 9.36328 63.1966 9.36328 57.3435C9.36328 51.4905 10.9782 45.7509 14.0304 40.7566" stroke="#263238" stroke-width="0.5" stroke-miterlimit="10"/>
<path d="M73.6343 89.8368C67.1529 92.7308 60.13 94.2133 53.0318 94.1858C44.9568 94.2297 36.9936 92.2988 29.8354 88.5613" stroke="#263238" stroke-width="0.5" stroke-miterlimit="10"/>
<path d="M74.079 36.033C74.079 38.2992 73.0961 40.1324 71.883 40.1324C70.787 40.1324 69.8743 38.6346 69.7104 36.6726" stroke="#263238" stroke-width="0.5" stroke-miterlimit="10"/>
<path d="M85.4215 35.0579C85.4215 36.7351 84.6921 38.0925 83.795 38.0925C82.9798 38.0925 82.3089 36.9808 82.188 35.5259" stroke="#263238" stroke-width="0.5" stroke-miterlimit="10"/>
<path d="M62.502 21.6712C61.7479 21.9354 61.0106 22.2454 60.2943 22.5996C59.8535 22.8141 59.5142 23.0169 59.2216 23.1846C58.6405 23.1144 58.0515 23.0559 57.4703 23.0091C56.0154 22.8804 54.5371 22.818 53.0432 22.818C46.6083 22.7995 40.2289 24.0082 34.2467 26.3792C33.2481 26.777 32.2717 27.2061 31.3174 27.6663C32.9391 25.9948 34.7942 24.5667 36.8249 23.4265C42.0539 21.6832 47.5313 20.8006 53.0432 20.8131C56.2158 20.8082 59.3821 21.0955 62.502 21.6712V21.6712Z" fill="white" stroke="#263238" stroke-width="0.5" stroke-miterlimit="10"/>
<path d="M60.2942 22.5996L57.4585 22.9897C56.0036 22.861 54.5253 22.7986 53.0314 22.7986C46.5965 22.7801 40.2171 23.9888 34.2349 26.3597C35.0596 25.7503 35.9206 25.1915 36.8131 24.6864C42.0424 22.9437 47.5194 22.0598 53.0314 22.0692C55.4618 22.0767 57.8886 22.2539 60.2942 22.5996Z" fill="#263238" stroke="#263238" stroke-width="0.5" stroke-miterlimit="10"/>
<path d="M84.5436 63.8865C87.2278 63.8865 89.4037 58.7663 89.4037 52.4502C89.4037 46.1341 87.2278 41.0139 84.5436 41.0139C81.8595 41.0139 79.6836 46.1341 79.6836 52.4502C79.6836 58.7663 81.8595 63.8865 84.5436 63.8865Z" fill="#263238" stroke="#263238" stroke-width="0.5" stroke-miterlimit="10"/>
<path d="M87.8904 60.2747C94.2065 60.2747 99.3267 55.1545 99.3267 48.8384C99.3267 42.5223 94.2065 37.4021 87.8904 37.4021C81.5743 37.4021 76.4541 42.5223 76.4541 48.8384C76.4541 55.1545 81.5743 60.2747 87.8904 60.2747Z" fill="white" stroke="#263238" stroke-width="0.5" stroke-miterlimit="10"/>
<path d="M91.0188 60.2747C97.3349 60.2747 102.455 55.1545 102.455 48.8384C102.455 42.5223 97.3349 37.4021 91.0188 37.4021C84.7027 37.4021 79.5825 42.5223 79.5825 48.8384C79.5825 55.1545 84.7027 60.2747 91.0188 60.2747Z" fill="white" stroke="#263238" stroke-width="0.5" stroke-miterlimit="10"/>
<path d="M87.7191 52.9808C89.0482 52.9808 90.1257 51.203 90.1257 49.01C90.1257 46.8171 89.0482 45.0393 87.7191 45.0393C86.39 45.0393 85.3125 46.8171 85.3125 49.01C85.3125 51.203 86.39 52.9808 87.7191 52.9808Z" fill="#263238" stroke="#263238" stroke-width="0.5" stroke-miterlimit="10"/>
<path d="M96.3353 52.3645C97.6645 52.3645 98.7419 50.5868 98.7419 48.3938C98.7419 46.2008 97.6645 44.4231 96.3353 44.4231C95.0062 44.4231 93.9287 46.2008 93.9287 48.3938C93.9287 50.5868 95.0062 52.3645 96.3353 52.3645Z" fill="#263238" stroke="#263238" stroke-width="0.5" stroke-miterlimit="10"/>
<path d="M35.1675 86.2248L32.991 95.8825C32.6566 97.3398 31.8366 98.6402 30.6657 99.5701C29.4949 100.5 28.0426 101.004 26.5474 101V101C25.0548 101.001 23.6062 100.495 22.4385 99.5652C21.2708 98.6356 20.4532 97.3372 20.1193 95.8825L16.2656 78.8879" fill="white"/>
<path d="M35.1675 86.2248L32.991 95.8825C32.6566 97.3398 31.8366 98.6402 30.6657 99.5701C29.4949 100.5 28.0426 101.004 26.5474 101V101C25.0548 101.001 23.6062 100.495 22.4385 99.5652C21.2708 98.6356 20.4532 97.3372 20.1193 95.8825L16.2656 78.8879" stroke="#263238" stroke-width="0.5" stroke-miterlimit="10"/>
<path d="M67.9313 86.2248L65.7314 95.9293C65.3978 97.3722 64.5846 98.6594 63.4249 99.5804C62.2651 100.501 60.8272 101.002 59.3462 101V101C57.8465 101 56.3923 100.485 55.2265 99.5415C54.0608 98.598 53.2542 97.283 52.9416 95.8162L50.7495 85.5383" fill="white"/>
<path d="M67.9313 86.2248L65.7314 95.9293C65.3978 97.3722 64.5846 98.6594 63.4249 99.5804C62.2651 100.501 60.8272 101.002 59.3462 101V101C57.8465 101 56.3923 100.485 55.2265 99.5415C54.0608 98.598 53.2542 97.283 52.9416 95.8162L50.7495 85.5383" stroke="#263238" stroke-width="0.5" stroke-miterlimit="10"/>
<path d="M48.7764 35.803C48.7764 35.803 49.9465 21.4569 59.768 17.4082C66.317 14.709 68.9888 26.0283 68.9888 26.0283" fill="white"/>
<path d="M48.7764 35.803C48.7764 35.803 49.9465 21.4569 59.768 17.4082C66.317 14.709 68.9888 26.0283 68.9888 26.0283" stroke="#263238" stroke-width="0.5" stroke-miterlimit="10"/>
<path d="M67.6196 28.1697H67.6508L68.111 27.7133C68.111 27.7133 65.8721 17.2053 61.0394 20.4272C56.9595 23.1575 56.6279 34.5041 56.624 37.9795C58.5938 34.118 62.4826 30.4827 67.6196 28.1697Z" fill="#263238" stroke="#263238" stroke-width="0.5" stroke-miterlimit="10"/>
<path d="M47.0092 22.3436C52.9031 22.3436 57.681 17.5657 57.681 11.6718C57.681 5.77793 52.9031 1 47.0092 1C41.1153 1 36.3374 5.77793 36.3374 11.6718C36.3374 17.5657 41.1153 22.3436 47.0092 22.3436Z" fill="white" stroke="#263238" stroke-width="0.5" stroke-linejoin="round"/>
<path d="M45.7533 22.3436C51.6472 22.3436 56.4251 17.5657 56.4251 11.6718C56.4251 5.77793 51.6472 1 45.7533 1C39.8595 1 35.0815 5.77793 35.0815 11.6718C35.0815 17.5657 39.8595 22.3436 45.7533 22.3436Z" fill="white" stroke="#263238" stroke-width="0.5" stroke-linejoin="round"/>
<path d="M45.7535 20.2489C50.4906 20.2489 54.3307 16.4088 54.3307 11.6717C54.3307 6.93464 50.4906 3.09448 45.7535 3.09448C41.0164 3.09448 37.1763 6.93464 37.1763 11.6717C37.1763 16.4088 41.0164 20.2489 45.7535 20.2489Z" fill="white" stroke="#263238" stroke-width="0.5" stroke-linejoin="round"/>
<path d="M37.913 11.6717C37.9109 9.45862 38.7639 7.33031 40.2939 5.73127C41.8239 4.13224 43.9125 3.18614 46.1236 3.09058H45.753C43.4771 3.09058 41.2945 3.99466 39.6852 5.60393C38.076 7.2132 37.1719 9.39585 37.1719 11.6717C37.1719 13.9476 38.076 16.1302 39.6852 17.7395C41.2945 19.3488 43.4771 20.2528 45.753 20.2528C45.8778 20.2528 45.9987 20.2528 46.1236 20.2528C43.9125 20.1573 41.8239 19.2112 40.2939 17.6121C38.7639 16.0131 37.9109 13.8848 37.913 11.6717Z" fill="white" stroke="#263238" stroke-width="0.5" stroke-linejoin="round"/>
<path d="M53.7063 3.44165H52.8911" stroke="#263238" stroke-width="0.5" stroke-linejoin="round"/>
<path d="M54.7438 4.40503H54.1509" stroke="#263238" stroke-width="0.5" stroke-linejoin="round"/>
<path d="M56.0742 5.88721H55.4111" stroke="#263238" stroke-width="0.5" stroke-linejoin="round"/>
<path d="M56.8151 7.73999H55.9258" stroke="#263238" stroke-width="0.5" stroke-linejoin="round"/>
<path d="M57.4822 9.74097H56.667" stroke="#263238" stroke-width="0.5" stroke-linejoin="round"/>
<path d="M57.4821 13.9653H56.5928" stroke="#263238" stroke-width="0.5" stroke-linejoin="round"/>
<path d="M54.0029 19.0046H54.744" stroke="#263238" stroke-width="0.5" stroke-linejoin="round"/>
<path d="M52.7432 19.9683H53.5584" stroke="#263238" stroke-width="0.5" stroke-linejoin="round"/>
<path d="M51.4087 21.0056H52.2239" stroke="#263238" stroke-width="0.5" stroke-linejoin="round"/>
<path d="M52.2984 2.40796H51.0386" stroke="#263238" stroke-width="0.5" stroke-linejoin="round"/>
<path d="M45.3124 8.75023C45.3124 7.97013 45.6205 7.68929 46.1588 7.68929C46.6971 7.68929 47.0052 7.98183 47.0052 8.75023V9.19099H48.5927V8.85555C48.5927 7.39286 47.9764 6.46843 46.779 6.2227V5.4231H45.3943V6.2227C44.2241 6.48404 43.6118 7.39286 43.6118 8.85555C43.6118 11.9292 46.9155 12.0384 46.9155 14.2539C46.9155 15.034 46.58 15.2992 46.0418 15.2992C45.5035 15.2992 45.1642 15.0223 45.1642 14.2539V13.4074H43.5649V14.1446C43.5649 15.6073 44.1773 16.5435 45.3943 16.7892V17.5693H46.779V16.7892C47.9764 16.5435 48.6083 15.619 48.6083 14.1446C48.62 11.071 45.3124 10.9657 45.3124 8.75023Z" fill="#263238"/>
</svg>
