<svg width="130" height="130" viewBox="0 0 130 130" fill="none" xmlns="http://www.w3.org/2000/svg">
<path d="M119.823 81.3052C119.823 81.3052 117.931 97.8009 103.913 104.848C89.8943 111.894 76.1644 105.04 63.5622 103.389C56.9618 102.523 50.8397 105.769 44.3649 106.448C23.6686 108.621 7.42409 84.2313 10.3395 66.29C12.8621 50.7563 22.7867 39.7949 40.8723 31.9706C58.958 24.1463 71.3972 17.9254 92.4035 25.29C113.41 32.6547 121.32 59.9488 119.823 81.3052Z" fill="#5CB0FF"/>
<path opacity="0.8" d="M119.823 81.3052C119.823 81.3052 117.931 97.8009 103.913 104.848C89.8943 111.894 76.1644 105.04 63.5622 103.389C56.9618 102.523 50.8397 105.769 44.3649 106.448C23.6686 108.621 7.42409 84.2313 10.3395 66.29C12.8621 50.7563 22.7867 39.7949 40.8723 31.9706C58.958 24.1463 71.3972 17.9254 92.4035 25.29C113.41 32.6547 121.32 59.9488 119.823 81.3052Z" fill="white"/>
<path d="M67.0608 45.8938C67.0608 45.8938 69.1465 42.2897 69.918 43.8081C70.6894 45.3265 70.4894 48.5469 69.3506 50.0653C68.2118 51.5836 67.8323 52.3387 67.2649 51.1999C66.6976 50.0612 67.0608 45.8938 67.0608 45.8938Z" fill="white" stroke="#263238" stroke-width="0.5" stroke-linecap="round" stroke-linejoin="round"/>
<path d="M42.224 48.7346C42.224 48.7346 39.775 45.702 39.1873 47.7877C38.5995 49.8734 41.4648 52.5265 42.224 52.9061C42.8275 53.1353 43.4807 53.2015 44.1179 53.0979L42.224 48.7346Z" fill="white" stroke="#263238" stroke-width="0.5" stroke-linecap="round" stroke-linejoin="round"/>
<path d="M51.3015 61.7551C51.3015 61.7551 24.6525 69.8285 24.6525 71.3428C24.6525 72.8571 23.8893 102.714 24.4974 104.404C25.1056 106.094 30.1342 107.751 32.877 107.751V108.363H91.3546L88.4688 92.2163C88.4688 92.2163 104.918 91.6041 105.204 90.3877C105.489 89.1714 90.775 64.8122 89.4035 64.0449C88.0321 63.2775 67.1423 60.9959 64.7056 60.9959C62.2689 60.9959 57.0893 59.9143 51.3015 61.7551Z" fill="white"/>
<path d="M51.3015 61.7551C51.3015 61.7551 24.6525 69.8285 24.6525 71.3428C24.6525 72.8571 23.8893 102.714 24.4974 104.404C25.1056 106.094 30.1342 107.751 32.877 107.751V108.363V115L66 122.5L91.3546 108.363L88.4688 92.2163C88.4688 92.2163 104.918 91.6041 105.204 90.3877C105.489 89.1714 90.775 64.8122 89.4035 64.0449C88.0321 63.2775 67.1423 60.9959 64.7056 60.9959C62.2689 60.9959 57.0893 59.9143 51.3015 61.7551Z" stroke="#263238" stroke-width="0.5" stroke-linecap="round" stroke-linejoin="round"/>
<path d="M87.9469 84.7144L83.5796 71.6165" stroke="#263238" stroke-width="0.5" stroke-linecap="round" stroke-linejoin="round"/>
<path d="M29.7266 71.9062C29.7266 71.9062 37.0041 75.9879 39.3347 85.5879" stroke="#263238" stroke-width="0.5" stroke-linecap="round" stroke-linejoin="round"/>
<path d="M29.6937 90.0815C29.6937 90.0815 24.8202 93.2815 23.7549 94.0407C22.6896 94.7999 22.3835 102.877 23.4488 105.159C24.5141 107.441 29.0855 108.51 32.1304 106.988C35.1753 105.465 36.5468 98.306 35.4815 94.653C34.4162 90.9999 29.6937 90.0815 29.6937 90.0815Z" fill="#263238" stroke="#263238" stroke-width="0.5" stroke-linecap="round" stroke-linejoin="round"/>
<path d="M47.4976 63.2774C47.4976 63.2774 47.9547 70.5876 49.322 75.4611C50.6894 80.3345 53.2812 86.7305 53.2812 86.7305L61.9629 79.8774L73.6894 82.7713C73.6894 82.7713 71.4078 70.7427 69.7302 66.7835C68.0527 62.8243 64.7057 59.6243 64.7057 59.6243C64.7057 59.6243 51.9139 57.9468 47.4976 63.2774Z" fill="#263238" stroke="#263238" stroke-width="0.5" stroke-linecap="round" stroke-linejoin="round"/>
<path d="M49.1714 62.0614C49.1714 62.0614 51.302 67.392 53.5877 71.9593C55.8734 76.5267 61.3428 82.9266 62.7265 81.5552C64.1102 80.1838 65.4653 69.5226 65.4653 67.0858V59.7756C65.4653 59.7756 61.204 63.2777 57.853 63.2777C54.502 63.2777 49.1714 62.0614 49.1714 62.0614Z" fill="white"/>
<path d="M49.1714 62.0614C49.1714 62.0614 51.302 67.392 53.5877 71.9593C55.8734 76.5267 61.3428 82.9266 62.7265 81.5552C64.1102 80.1838 65.4653 69.5226 65.4653 67.0858V59.7756C65.4653 59.7756 61.204 63.2777 57.853 63.2777C54.502 63.2777 49.1714 62.0614 49.1714 62.0614Z" stroke="#263238" stroke-width="0.5" stroke-linecap="round" stroke-linejoin="round"/>
<path d="M41.6527 47.2203C41.6527 47.2203 44.8772 57.8326 46.9588 60.6897C49.0404 63.5469 54.7343 66.3795 58.9057 66.1877C63.0772 65.9958 66.4894 61.8285 67.2486 57.6571C68.0078 53.4856 67.4363 44.004 67.4363 44.004C67.4363 44.004 66.6812 39.8326 63.4567 34.3346C60.2323 28.8367 43.9261 33.3836 42.2323 37.555C40.5384 41.7265 41.6527 47.2203 41.6527 47.2203Z" fill="white" stroke="#263238" stroke-width="0.5" stroke-linecap="round" stroke-linejoin="round"/>
<path d="M54.5464 55.5632C54.5464 55.5632 56.4443 58.2162 58.7178 55.3713" stroke="#263238" stroke-width="0.5" stroke-linecap="round" stroke-linejoin="round"/>
<path d="M48.6689 51.3919C48.6689 51.3919 50.3751 49.8735 52.6526 51.3919" stroke="#263238" stroke-width="0.5" stroke-linecap="round" stroke-linejoin="round"/>
<path d="M59.2896 50.253C59.2896 50.253 60.0487 48.7346 62.8896 48.7346" stroke="#263238" stroke-width="0.5" stroke-linecap="round" stroke-linejoin="round"/>
<path d="M47.7222 48.355C47.7222 48.355 48.8609 46.4611 52.6528 46.0815" stroke="#263238" stroke-width="0.5" stroke-linecap="round" stroke-linejoin="round"/>
<path d="M58.3223 47.7754C58.3223 47.7754 60.1672 43.9427 63.461 45.1346" stroke="#263238" stroke-width="0.5" stroke-linecap="round" stroke-linejoin="round"/>
<path d="M58.91 59.9144C58.9323 60.125 58.8903 60.3374 58.7895 60.5236C58.6888 60.7099 58.534 60.8613 58.3456 60.9579C58.1572 61.0545 57.944 61.0919 57.7339 61.0651C57.5239 61.0382 57.3269 60.9485 57.1688 60.8076C57.0108 60.6667 56.899 60.4812 56.8484 60.2756C56.7977 60.07 56.8104 59.8539 56.8849 59.6557C56.9593 59.4575 57.092 59.2864 57.2655 59.165C57.4391 59.0436 57.6452 58.9776 57.857 58.9756C58.1209 58.9611 58.3799 59.0517 58.5773 59.2277C58.7746 59.4036 58.8942 59.6505 58.91 59.9144Z" fill="#263238"/>
<path d="M52.7672 51.9591C52.768 52.0731 52.735 52.1848 52.6722 52.28C52.6095 52.3751 52.5199 52.4495 52.4148 52.4937C52.3097 52.5379 52.1939 52.5499 52.082 52.5282C51.97 52.5064 51.8671 52.4519 51.7862 52.3716C51.7053 52.2913 51.6501 52.1887 51.6276 52.077C51.605 51.9652 51.6162 51.8493 51.6596 51.7439C51.7031 51.6385 51.7768 51.5484 51.8715 51.485C51.9663 51.4216 52.0777 51.3877 52.1917 51.3877C52.3436 51.3877 52.4894 51.4478 52.5972 51.5548C52.705 51.6619 52.7661 51.8072 52.7672 51.9591Z" fill="#263238"/>
<path d="M62.755 49.8162C62.755 49.9302 62.7212 50.0417 62.6577 50.1364C62.5943 50.2311 62.5042 50.3049 62.3988 50.3483C62.2934 50.3918 62.1775 50.4029 62.0657 50.3804C61.954 50.3578 61.8514 50.3026 61.7711 50.2217C61.6908 50.1408 61.6363 50.0379 61.6146 49.926C61.5928 49.8141 61.6048 49.6982 61.649 49.5932C61.6932 49.4881 61.7676 49.3985 61.8628 49.3357C61.9579 49.273 62.0696 49.2399 62.1836 49.2407C62.259 49.2407 62.3336 49.2556 62.4032 49.2846C62.4728 49.3136 62.536 49.356 62.5891 49.4095C62.6422 49.463 62.6842 49.5265 62.7127 49.5963C62.7412 49.6661 62.7556 49.7409 62.755 49.8162Z" fill="#263238"/>
<path d="M50.5673 24.2776H43.9305C40.1387 24.2776 35.2081 34.3265 35.3958 39.0653C35.5836 43.8041 39.7591 46.8408 40.8979 47.4082C42.0366 47.9755 44.1183 48.9265 44.1183 48.3551C44.1183 47.7837 46.3958 43.2367 46.3958 43.2367C46.3958 43.2367 45.8244 45.8939 47.3428 45.8939C48.8611 45.8939 53.5999 40.9633 53.5999 40.9633C53.5999 40.9633 53.7917 44.9429 55.306 44.9429C56.8203 44.9429 60.0489 39.0653 60.0489 39.0653L63.4611 42.8571L64.5999 40.5837C64.5999 40.5837 65.9264 45.8898 67.0489 45.8898C68.1713 45.8898 69.1346 43.2327 69.706 40.5837C70.2775 37.9347 71.4122 33.5673 69.5142 29.5837C67.6162 25.6 62.1224 22 57.5713 22C53.0203 22 50.5673 24.2776 50.5673 24.2776Z" fill="#263238" stroke="#263238" stroke-width="0.5" stroke-linecap="round" stroke-linejoin="round"/>
<path d="M48.2202 25.7918C48.2202 25.7918 43.5508 26.3306 41.3957 27.7674C40.1614 28.5584 39.1719 29.6778 38.5386 31L43.208 28.8449C43.208 28.8449 40.1549 31.1796 39.7957 32.2572C39.4905 33.3795 39.252 34.5189 39.0814 35.6694L41.9386 34.7714C41.9386 34.7714 40.7508 35.7674 40.861 36.747C40.9712 37.7265 41.3998 39.9796 41.3998 39.9796L44.812 36.747L45.71 39.0816L48.5671 36.747L48.7467 38.5429L50.7223 35.849L52.3549 37.4816L53.4325 35.5061C53.4325 35.5061 54.3304 36.4041 54.6896 34.249C55.0488 32.0939 55.2284 31.1959 55.2284 31.1959L57.2039 33.5306L57.9223 36.5837L58.461 33.351L60.0937 34.7878L60.6325 32.0939L62.608 33.1714L63.3263 30.6572L67.6365 32.0939C67.6365 32.0939 66.3794 27.6041 65.3018 26.3469C64.2243 25.0898 59.0161 24.551 59.0161 24.551L58.4774 23.6531C58.4774 23.6531 52.3549 24.9102 51.6529 25.2857C51.0577 25.6341 50.5091 26.0565 50.0202 26.5429" stroke="#6B6B6B" stroke-width="0.5" stroke-linecap="round" stroke-linejoin="round"/>
<path d="M36.9877 58.2531C36.3096 57.4995 35.9306 56.5239 35.9224 55.5102C35.9224 53.8368 37.7509 50.2041 38.2081 50.2041C38.6652 50.2041 39.5754 51.1143 39.5754 51.1143C39.5754 51.1143 38.8162 54.7878 38.5101 56.1429C38.2737 57.0069 37.733 57.7563 36.9877 58.2531Z" fill="white" stroke="#263238" stroke-width="0.5" stroke-linecap="round" stroke-linejoin="round"/>
<path d="M38.0527 59.7756C38.0527 59.7756 36.5303 57.9471 36.5303 57.1879C36.5303 56.4287 38.9793 51.094 39.5752 51.094C40.1711 51.094 42.0242 51.8573 42.4691 52.1634C42.9139 52.4695 42.7752 53.9879 42.7752 55.0573C42.7752 56.1266 40.0323 60.8409 40.0323 60.8409L38.0527 59.7756Z" fill="white" stroke="#263238" stroke-width="0.5" stroke-linecap="round" stroke-linejoin="round"/>
<path d="M41.2528 51.8572C41.2528 51.8572 37.4447 58.7102 38.0528 59.7755C38.661 60.8408 44.7549 67.3919 44.7549 67.3919C44.7549 67.3919 27.3916 93.2817 25.7181 95.8694C24.0447 98.4572 23.7386 102.265 24.4937 104.4C25.2488 106.535 29.8243 108.51 33.0243 108.359C36.2243 108.208 38.6569 104.245 39.5549 100.604C40.4528 96.9633 48.7141 70.1184 49.4773 68C50.2406 65.8817 51.3018 64.1919 50.2365 63.1266C49.1712 62.0613 45.061 58.1021 45.061 58.1021C45.061 58.1021 46.2855 57.0368 46.1263 55.8164C45.9671 54.5959 43.3835 52.1592 41.2528 51.8572Z" fill="white"/>
<path d="M41.2528 51.8572C41.2528 51.8572 37.4447 58.7102 38.0528 59.7755C38.661 60.8408 44.7549 67.3919 44.7549 67.3919C44.7549 67.3919 27.3916 93.2817 25.7181 95.8694C24.0447 98.4572 23.7386 102.265 24.4937 104.4C25.2488 106.535 29.8243 108.51 33.0243 108.359C36.2243 108.208 38.6569 104.245 39.5549 100.604C40.4528 96.9633 48.7141 70.1184 49.4773 68C50.2406 65.8817 51.3018 64.1919 50.2365 63.1266C49.1712 62.0613 45.061 58.1021 45.061 58.1021C45.061 58.1021 46.2855 57.0368 46.1263 55.8164C45.9671 54.5959 43.3835 52.1592 41.2528 51.8572Z" stroke="#263238" stroke-width="0.5" stroke-linecap="round" stroke-linejoin="round"/>
<path d="M43.5346 55.2083L42.7754 57.0572L45.0611 58.1225L45.1591 58.245" stroke="#263238" stroke-width="0.5" stroke-linecap="round" stroke-linejoin="round"/>
<path d="M88.918 83.3838C88.918 83.3838 90.2894 81.0981 91.9669 80.4899C93.6445 79.8818 100.191 79.2655 102.779 80.1838C105.367 81.1022 106.889 84.4491 107.347 86.2736C107.804 88.0981 107.653 90.694 106.122 92.0614C104.591 93.4287 102.62 93.1308 100.485 92.5185C98.3506 91.9063 94.0894 89.4736 91.8037 88.1022C89.518 86.7308 89.0731 84.294 88.918 83.3838Z" fill="#263238" stroke="#263238" stroke-width="0.5" stroke-linecap="round" stroke-linejoin="round"/>
<path d="M67.5999 80.7918C67.5999 80.7918 55.5672 90.6939 53.8938 91.6041C52.2203 92.5143 52.9795 94.1959 53.5876 94.8041C54.1958 95.4122 58.155 99.0694 59.9836 100.286C61.8121 101.502 64.3999 99.3714 65.0081 99.0612C65.6162 98.751 64.857 97.3837 64.857 97.3837C64.857 97.3837 69.5795 94.7959 70.3387 92.3592C70.8486 90.468 71.1551 88.5277 71.253 86.5714C71.253 86.5714 90.4366 94.3265 95.0121 96.0122C99.5876 97.698 102.473 97.8408 104.608 95.7102C106.743 93.5796 106.89 89.1592 105.833 86.8775C104.775 84.5959 98.0774 82.4612 95.0203 82.4612C91.9632 82.4612 70.3468 79.8694 68.9795 80.3265L67.5999 80.7918Z" fill="white"/>
<path d="M67.5999 80.7918C67.5999 80.7918 55.5672 90.6939 53.8938 91.6041C52.2203 92.5143 52.9795 94.1959 53.5876 94.8041C54.1958 95.4122 58.155 99.0694 59.9836 100.286C61.8121 101.502 64.3999 99.3714 65.0081 99.0612C65.6162 98.751 64.857 97.3837 64.857 97.3837C64.857 97.3837 69.5795 94.7959 70.3387 92.3592C70.8486 90.468 71.1551 88.5277 71.253 86.5714C71.253 86.5714 90.4366 94.3265 95.0121 96.0122C99.5876 97.698 102.473 97.8408 104.608 95.7102C106.743 93.5796 106.89 89.1592 105.833 86.8775C104.775 84.5959 98.0774 82.4612 95.0203 82.4612C91.9632 82.4612 70.3468 79.8694 68.9795 80.3265L67.5999 80.7918Z" stroke="#263238" stroke-width="0.5" stroke-linecap="round" stroke-linejoin="round"/>
<path d="M64.857 97.3918L62.8774 98.3061" stroke="#263238" stroke-width="0.5" stroke-linecap="round" stroke-linejoin="round"/>
<path d="M70.4937 83.9918L71.2528 86.5795L73.3875 87.6449L72.1671 82.6204L70.4937 83.9918Z" fill="#263238" stroke="#263238" stroke-width="0.5" stroke-linecap="round" stroke-linejoin="round"/>
<path d="M70.2651 84.5999C72.2421 84.5999 73.8447 83.339 73.8447 81.7836C73.8447 80.2282 72.2421 78.9673 70.2651 78.9673C68.2882 78.9673 66.6855 80.2282 66.6855 81.7836C66.6855 83.339 68.2882 84.5999 70.2651 84.5999Z" fill="white" stroke="#263238" stroke-width="0.5" stroke-linecap="round" stroke-linejoin="round"/>
</svg>
