<svg width="130" height="130" viewBox="0 0 130 130" fill="none" xmlns="http://www.w3.org/2000/svg">
<path d="M116.778 76.5427C113.293 85.8773 106.173 95.9898 96.15 98.9725C81.008 103.494 79.1994 115.699 52.0781 114.567C48.1184 114.419 44.1865 113.842 40.3515 112.846C38.4762 112.354 36.6347 111.741 34.8382 111.013C18.9937 104.595 10.7287 90.4717 10.0432 75.6943C9.13651 56.2473 22.6984 46.9929 31.5128 41.5672C40.3272 36.1414 50.9501 15.124 77.6193 16.0283C81.6922 16.153 85.7372 16.7469 89.6741 17.798C98.6465 20.2289 107.77 25.5987 113.071 33.4529C113.47 34.0412 113.849 34.6464 114.211 35.2615C121.307 47.287 121.531 63.8146 116.778 76.5427Z" fill="#5CB0FF"/>
<path opacity="0.7" d="M116.778 76.5427C113.293 85.8773 106.173 95.9898 96.15 98.9725C81.008 103.494 79.1994 115.699 52.0781 114.567C48.1184 114.419 44.1865 113.842 40.3515 112.846C38.4762 112.354 36.6347 111.741 34.8382 111.013C18.9937 104.595 10.7287 90.4717 10.0432 75.6943C9.13651 56.2473 22.6984 46.9929 31.5128 41.5672C40.3272 36.1414 50.9501 15.124 77.6193 16.0283C81.6922 16.153 85.7372 16.7469 89.6741 17.798C98.6465 20.2289 107.77 25.5987 113.071 33.4529C113.47 34.0412 113.849 34.6464 114.211 35.2615C121.307 47.287 121.531 63.8146 116.778 76.5427Z" fill="white"/>
<path d="M80.0513 57.2879C89.4123 54.713 94.9135 45.0369 92.3386 35.6759C89.7636 26.3148 80.0876 20.8136 70.7265 23.3885C61.3655 25.9635 55.8643 35.6395 58.4392 45.0006C61.0142 54.3616 70.6902 59.8629 80.0513 57.2879Z" fill="white" stroke="#263238" stroke-width="0.5" stroke-linecap="round" stroke-linejoin="round"/>
<path d="M92.9424 39.1027C93.5453 29.4127 86.1787 21.0686 76.4887 20.4658C66.7987 19.8629 58.4547 27.2295 57.8518 36.9195C57.249 46.6095 64.6156 54.9536 74.3056 55.5564C83.9956 56.1593 92.3396 48.7927 92.9424 39.1027Z" fill="white" stroke="#263238" stroke-width="0.5" stroke-linecap="round" stroke-linejoin="round"/>
<path d="M89.7212 33.7939C89.015 31.3852 87.7136 29.1931 85.937 27.4198L89.7212 33.7939Z" fill="white"/>
<path d="M89.7212 33.7939C89.015 31.3852 87.7136 29.1931 85.937 27.4198" stroke="#263238" stroke-width="0.5" stroke-linecap="round" stroke-linejoin="round"/>
<path d="M77.0405 52.8491C77.7767 52.768 78.5057 52.6312 79.2212 52.4398C82.6654 51.5236 85.6689 49.4069 87.6902 46.4715C89.7115 43.5361 90.6176 39.9752 90.2451 36.4307" fill="white"/>
<path d="M77.0405 52.8491C77.7767 52.768 78.5057 52.6312 79.2212 52.4398C82.6654 51.5236 85.6689 49.4069 87.6902 46.4715C89.7115 43.5361 90.6176 39.9752 90.2451 36.4307" stroke="#263238" stroke-width="0.5" stroke-linecap="round" stroke-linejoin="round"/>
<path d="M83.7706 25.635C81.8339 24.3213 79.6157 23.4808 77.2946 23.1814C74.9736 22.882 72.6147 23.1319 70.408 23.911C68.2012 24.6902 66.2084 25.9768 64.5899 27.6671C62.9714 29.3575 61.7726 31.4044 61.0901 33.6429C60.4075 35.8814 60.2603 38.2489 60.6603 40.5548C61.0603 42.8606 61.9962 45.0402 63.3928 46.9181C64.7894 48.7959 66.6076 50.3195 68.7008 51.366C70.794 52.4125 73.1038 52.9528 75.444 52.9432" fill="white"/>
<path d="M83.7706 25.635C81.8339 24.3213 79.6157 23.4808 77.2946 23.1814C74.9736 22.882 72.6147 23.1319 70.408 23.911C68.2012 24.6902 66.2084 25.9768 64.5899 27.6671C62.9714 29.3575 61.7726 31.4044 61.0901 33.6429C60.4075 35.8814 60.2603 38.2489 60.6603 40.5548C61.0603 42.8606 61.9962 45.0402 63.3928 46.9181C64.7894 48.7959 66.6076 50.3195 68.7008 51.366C70.794 52.4125 73.1038 52.9528 75.444 52.9432" stroke="#263238" stroke-width="0.5" stroke-linecap="round" stroke-linejoin="round"/>
<path d="M70.834 45.6563C70.5415 45.5477 70.2936 45.3446 70.1295 45.0793C69.9787 44.8361 69.9039 44.5534 69.9148 44.2674C69.9306 43.9804 70.0108 43.7006 70.1497 43.4488C70.2921 43.1842 70.5332 42.9865 70.8206 42.8987C71.1522 42.79 71.5071 42.7737 71.8472 42.8517L72.4511 42.9926C72.7798 43.0664 73.0683 43.1335 73.3032 43.1737C73.6343 43.2198 73.9686 43.24 74.3029 43.2341C74.7339 43.2333 75.1636 43.1861 75.5844 43.0932C75.9101 43.0452 76.2295 42.9619 76.5372 42.845C76.8508 42.7332 77.1539 42.594 77.443 42.429C77.7071 42.2865 77.9256 42.0726 78.0737 41.8117C78.1449 41.6828 78.1892 41.5409 78.2042 41.3945C78.2192 41.2481 78.2045 41.1002 78.161 40.9596C78.1095 40.819 78.0265 40.692 77.9183 40.5885C77.8101 40.485 77.6797 40.4076 77.5369 40.3624C77.0922 40.1926 76.6165 40.1194 76.1413 40.1477H74.0412C73.2495 40.1477 72.6121 40.1141 72.1223 40.0739C71.6158 40.0358 71.1132 39.9572 70.6193 39.8391C70.1735 39.7501 69.7495 39.5746 69.3713 39.3224C69.0327 39.0721 68.7418 38.7631 68.5125 38.4099C68.2287 37.9712 68.02 37.4882 67.8952 36.9808C67.7071 36.34 67.695 35.6604 67.8603 35.0134C68.0256 34.3664 68.3621 33.7759 68.8346 33.3039C70.0706 32.1009 71.6563 31.321 73.3636 31.0763C73.9224 30.9574 74.4902 30.8856 75.0611 30.8616C75.4833 30.8322 75.907 30.8322 76.3292 30.8616C76.6311 30.8951 77.0002 30.9488 77.5034 31.036C77.8506 31.0861 78.1727 31.246 78.4226 31.4923C78.6462 31.6947 78.7951 31.9665 78.8453 32.2639C78.8912 32.5439 78.8729 32.8307 78.7916 33.1026C78.7532 33.2463 78.685 33.3803 78.5913 33.4959C78.4977 33.6115 78.3808 33.7061 78.2482 33.7736C77.9295 33.9282 77.574 33.9909 77.2216 33.9547C76.2019 33.86 75.1746 33.8893 74.162 34.0419C73.7943 34.1139 73.4314 34.208 73.075 34.3237C72.7125 34.4292 72.3794 34.6176 72.1022 34.8739C71.982 34.9664 71.891 35.0915 71.8398 35.2342C71.7887 35.3769 71.7796 35.5313 71.8136 35.6791C71.8518 35.8297 71.9252 35.9692 72.0279 36.0858C72.1305 36.2025 72.2595 36.2931 72.4041 36.35C72.8375 36.4866 73.2929 36.539 73.746 36.5044L75.8193 36.4641C76.5407 36.4578 77.262 36.4914 77.9798 36.5648C78.5533 36.6331 79.1151 36.7775 79.6505 36.9942C80.1554 37.2012 80.6022 37.5282 80.9521 37.9469C81.4242 38.585 81.7323 39.3293 81.8493 40.1143C81.9663 40.8993 81.8886 41.7011 81.6231 42.4491C81.2476 43.3519 80.6094 44.121 79.7914 44.6566C78.8361 45.2789 77.77 45.7117 76.6513 45.9314C74.7265 46.4055 72.7055 46.3099 70.834 45.6563ZM71.1293 28.4864C71.0825 28.3498 71.0679 28.2043 71.0865 28.0612C71.1052 27.9181 71.1565 27.7811 71.2366 27.6611C71.3726 27.4419 71.5896 27.2851 71.8405 27.225C72.092 27.1662 72.3562 27.1996 72.5852 27.3189C72.7138 27.3853 72.8254 27.4803 72.9115 27.5967C72.9976 27.713 73.0558 27.8475 73.0818 27.9899L74.0345 31.5661L72.0753 32.0894L71.1293 28.4864ZM75.8797 45.2604L77.8523 44.7371L78.7984 48.2865C78.857 48.4621 78.8629 48.6511 78.8151 48.83C78.7674 49.0089 78.6683 49.1698 78.53 49.2929C78.4029 49.4172 78.2465 49.5076 78.0753 49.5557C77.9041 49.6037 77.7236 49.608 77.5504 49.568C77.3683 49.5272 77.2023 49.4334 77.0734 49.2985C76.9444 49.1636 76.8583 48.9936 76.8257 48.8098L75.8797 45.2604Z" fill="#263238"/>
<path d="M60.8569 47.8441V50.065" stroke="#263238" stroke-width="0.5" stroke-linecap="round" stroke-linejoin="round"/>
<path d="M62.4263 50.0648V52.4266" stroke="#263238" stroke-width="0.5" stroke-linecap="round" stroke-linejoin="round"/>
<path d="M65.5674 52.688V54.9089" stroke="#263238" stroke-width="0.5" stroke-linecap="round" stroke-linejoin="round"/>
<path d="M70.0151 54.9089V56.8749" stroke="#263238" stroke-width="0.5" stroke-linecap="round" stroke-linejoin="round"/>
<path d="M74.8599 55.8282V56.7407" stroke="#263238" stroke-width="0.5" stroke-linecap="round" stroke-linejoin="round"/>
<path d="M84.4146 55.4326V53.9967" stroke="#263238" stroke-width="0.5" stroke-linecap="round" stroke-linejoin="round"/>
<path d="M86.5068 53.9964V51.7688" stroke="#263238" stroke-width="0.5" stroke-linecap="round" stroke-linejoin="round"/>
<path d="M53.312 72.0998C62.875 70.4239 69.2688 61.313 67.5929 51.75C65.917 42.187 56.8061 35.7932 47.2431 37.4691C37.6801 39.145 31.2863 48.2559 32.9622 57.8189C34.6381 67.3819 43.749 73.7756 53.312 72.0998Z" fill="white" stroke="#263238" stroke-width="0.5" stroke-linecap="round" stroke-linejoin="round"/>
<path d="M53.3081 69.7464C62.8711 68.0705 69.2649 58.9596 67.589 49.3966C65.9131 39.8336 56.8022 33.4398 47.2392 35.1157C37.6762 36.7916 31.2824 45.9025 32.9583 55.4655C34.6342 65.0285 43.7451 71.4223 53.3081 69.7464Z" fill="white" stroke="#263238" stroke-width="0.5" stroke-linecap="round" stroke-linejoin="round"/>
<path d="M63.0108 60.2499C64.5575 57.7312 65.3226 54.8104 65.2091 51.8569C65.0957 48.9033 64.1089 46.0498 62.3735 43.6572C60.6381 41.2646 58.2321 39.4404 55.4598 38.4154C52.6876 37.3903 49.6736 37.2105 46.7991 37.8986C43.9246 38.5867 41.3188 40.1119 39.3112 42.2811C37.3036 44.4504 35.9845 47.1663 35.5206 50.0854C35.0568 53.0045 35.469 55.9955 36.7053 58.6803C37.9416 61.365 39.9463 63.6228 42.4659 65.168C45.8433 67.2373 49.9038 67.8816 53.7559 66.9594C57.6079 66.0373 60.9365 63.6242 63.0108 60.2499Z" fill="white" stroke="#263238" stroke-width="0.5" stroke-linecap="round" stroke-linejoin="round"/>
<path d="M41.6002 54.4194C41.4784 54.1332 41.4549 53.8147 41.5331 53.5136C41.6031 53.2343 41.7578 52.9836 41.9759 52.7957C42.1917 52.6116 42.4463 52.4786 42.7207 52.4065C43.0026 52.3256 43.3046 52.3544 43.5661 52.487C43.8727 52.6574 44.1294 52.9049 44.3109 53.205C44.3511 53.2653 44.4585 53.4398 44.6262 53.735C44.794 54.0302 44.9483 54.2785 45.0825 54.4798C45.2842 54.7532 45.5087 55.0091 45.7534 55.2447C46.0525 55.5554 46.3831 55.8343 46.7398 56.0767C46.9999 56.2786 47.2811 56.4518 47.5785 56.5933C47.8758 56.7448 48.1856 56.8706 48.5044 56.9691C48.7919 57.0495 49.0959 57.0495 49.3834 56.9691C49.5238 56.9315 49.6554 56.8665 49.7705 56.7779C49.8857 56.6892 49.9821 56.5786 50.0543 56.4524C50.1217 56.3169 50.1568 56.1676 50.1568 56.0163C50.1568 55.865 50.1217 55.7157 50.0543 55.5802C49.8692 55.1417 49.5951 54.7464 49.2492 54.4194L47.8066 52.8963C47.2698 52.3193 46.8471 51.8362 46.5385 51.4605C46.2195 51.0641 45.9302 50.6447 45.6729 50.2058C45.4269 49.823 45.2624 49.3936 45.1898 48.9443C45.1367 48.5255 45.1594 48.1005 45.2569 47.6896C45.3794 47.1847 45.5858 46.7038 45.8675 46.2672C46.1997 45.6872 46.6825 45.2076 47.2647 44.8793C47.847 44.551 48.5071 44.3861 49.1754 44.4019C50.8972 44.4728 52.5527 45.0856 53.9056 46.1531C54.3851 46.4714 54.8343 46.833 55.2476 47.2334C55.5535 47.5276 55.8425 47.839 56.1131 48.166C56.301 48.4076 56.5224 48.7296 56.7841 49.1389C56.9898 49.4237 57.098 49.7673 57.0927 50.1185C57.0951 50.4196 57.0011 50.7135 56.8243 50.9572C56.6451 51.1856 56.4155 51.3693 56.1534 51.494C56.0258 51.56 55.8858 51.5983 55.7424 51.6063C55.599 51.6144 55.4555 51.5922 55.3214 51.541C54.9916 51.414 54.7019 51.2009 54.4827 50.9237C53.8493 50.1171 53.1192 49.3915 52.3088 48.7632C52.0013 48.5505 51.6833 48.3535 51.356 48.1727C51.0305 47.9832 50.6651 47.8729 50.2892 47.8507C50.1386 47.8263 49.9841 47.8463 49.8447 47.9082C49.7053 47.9702 49.5869 48.0714 49.5041 48.1996C49.4158 48.3302 49.361 48.4805 49.3446 48.6374C49.3282 48.7942 49.3508 48.9526 49.4102 49.0987C49.6111 49.5175 49.894 49.8916 50.2422 50.199L51.6982 51.6752C52.2004 52.1939 52.673 52.7405 53.1139 53.3123C53.461 53.7725 53.7432 54.2782 53.9526 54.8153C54.1566 55.3236 54.2282 55.8754 54.1606 56.4189C54.0719 57.0144 53.8618 57.5853 53.5433 58.0963C53.065 58.9708 52.2995 59.6533 51.3761 60.0287C50.4641 60.378 49.4677 60.4435 48.5178 60.2165C47.4081 59.9562 46.3598 59.4821 45.4314 58.8209C43.7511 57.7603 42.419 56.2299 41.6002 54.4194ZM54.2411 42.7983C54.3083 42.6704 54.4036 42.5593 54.5198 42.4733C54.636 42.3873 54.7701 42.3287 54.9121 42.3018C55.1649 42.2569 55.4254 42.3071 55.6434 42.4427C55.8605 42.587 56.0197 42.8032 56.093 43.0533C56.1331 43.1885 56.1425 43.331 56.1204 43.4703C56.0984 43.6096 56.0454 43.7422 55.9655 43.8585L54.0331 47.012L52.3088 45.9317L54.2411 42.7983ZM45.3374 57.8078L47.0752 58.8746L45.1764 62.0348C45.0905 62.1971 44.9589 62.3305 44.7979 62.4188C44.6369 62.507 44.4536 62.5461 44.2706 62.5313C44.0919 62.5286 43.917 62.4795 43.763 62.389C43.6089 62.2984 43.481 62.1695 43.3917 62.0147C43.2938 61.8556 43.2459 61.6708 43.2543 61.4841C43.2626 61.2975 43.3269 61.1177 43.4386 60.968L45.3374 57.8078Z" fill="#263238"/>
<path d="M35.749 62.2764V64.504" stroke="#263238" stroke-width="0.5" stroke-linecap="round" stroke-linejoin="round"/>
<path d="M37.3193 64.5035V66.8586" stroke="#263238" stroke-width="0.5" stroke-linecap="round" stroke-linejoin="round"/>
<path d="M40.459 67.1207V69.3416" stroke="#263238" stroke-width="0.5" stroke-linecap="round" stroke-linejoin="round"/>
<path d="M44.9072 69.3418V71.3077" stroke="#263238" stroke-width="0.5" stroke-linecap="round" stroke-linejoin="round"/>
<path d="M49.7524 70.2607V71.18" stroke="#263238" stroke-width="0.5" stroke-linecap="round" stroke-linejoin="round"/>
<path d="M59.3066 69.8648V68.429" stroke="#263238" stroke-width="0.5" stroke-linecap="round" stroke-linejoin="round"/>
<path d="M61.4004 68.4289V66.2013" stroke="#263238" stroke-width="0.5" stroke-linecap="round" stroke-linejoin="round"/>
<path d="M53.8824 68.3767C63.3842 66.383 69.4708 57.064 67.4771 47.5622C65.4834 38.0604 56.1644 31.9738 46.6626 33.9675C37.1608 35.9612 31.0742 45.2802 33.0679 54.782C35.0616 64.2838 44.3805 70.3704 53.8824 68.3767Z" fill="white" stroke="#263238" stroke-width="0.5" stroke-linecap="round" stroke-linejoin="round"/>
<path d="M53.8829 66.0246C63.3847 64.0309 69.4713 54.712 67.4776 45.2101C65.4839 35.7083 56.1649 29.6218 46.6631 31.6154C37.1612 33.6091 31.0747 42.9281 33.0684 52.4299C35.0621 61.9318 44.381 68.0183 53.8829 66.0246Z" fill="white" stroke="#263238" stroke-width="0.5" stroke-linecap="round" stroke-linejoin="round"/>
<path d="M53.7213 63.3781C61.75 61.4698 66.7117 53.4143 64.8034 45.3855C62.8951 37.3568 54.8396 32.3951 46.8108 34.3034C38.782 36.2117 33.8204 44.2673 35.7287 52.296C37.637 60.3248 45.6925 65.2864 53.7213 63.3781Z" fill="white" stroke="#263238" stroke-width="0.5" stroke-linecap="round" stroke-linejoin="round"/>
<path d="M41.6 50.8028C41.4844 50.528 41.4585 50.2238 41.526 49.9334C41.5935 49.6431 41.7508 49.3814 41.9757 49.1858C42.1912 48.9997 42.4457 48.8644 42.7205 48.7899C43.0035 48.7143 43.3043 48.7454 43.5659 48.8771C43.8732 49.0436 44.1303 49.2891 44.3107 49.5884C44.351 49.6555 44.4583 49.8299 44.6261 50.1251C44.7938 50.4203 44.9481 50.6686 45.0823 50.8699C45.284 51.1433 45.5085 51.3992 45.7533 51.6348C46.0525 51.9434 46.383 52.22 46.7396 52.4601C46.9979 52.6665 47.2793 52.8422 47.5783 52.9834C47.8757 53.1329 48.1855 53.2563 48.5042 53.3524C48.788 53.4472 49.093 53.4588 49.3832 53.386C49.524 53.3473 49.6558 53.2812 49.771 53.1914C49.8861 53.1015 49.9823 52.9898 50.0541 52.8626C50.1215 52.7271 50.1566 52.5779 50.1566 52.4265C50.1566 52.2752 50.1215 52.1259 50.0541 51.9904C49.8688 51.554 49.5946 51.161 49.249 50.8363L47.7863 49.2864C47.2495 48.7027 46.8268 48.2263 46.5182 47.8439C46.1976 47.4487 45.9082 47.0292 45.6526 46.5892C45.4057 46.2068 45.2411 45.7772 45.1695 45.3277C45.1165 44.9111 45.1392 44.4883 45.2366 44.0797C45.3602 43.573 45.5665 43.0902 45.8472 42.6506C46.1797 42.0713 46.6627 41.5927 47.2451 41.2656C47.8274 40.9384 48.4873 40.7748 49.155 40.792C50.8776 40.8596 52.534 41.4729 53.8853 42.5433C54.3648 42.8615 54.814 43.2231 55.2273 43.6235C55.529 43.9276 55.8114 44.2503 56.0727 44.5897C56.2605 44.8312 56.482 45.1533 56.7436 45.5559C56.9477 45.8415 57.0557 46.1845 57.0523 46.5355C57.0562 46.8388 56.962 47.1353 56.7839 47.3809C56.6029 47.6074 56.3737 47.7908 56.1129 47.9176C55.9849 47.9825 55.8446 48.0197 55.7012 48.0266C55.5579 48.0335 55.4146 48.0101 55.2809 47.9579C54.9514 47.8337 54.6616 47.6228 54.4422 47.3473C53.8107 46.5391 53.0804 45.8133 52.2683 45.1868C51.9806 44.9736 51.6828 44.7743 51.3759 44.5897C51.0505 44.4002 50.685 44.2899 50.3091 44.2676C50.1587 44.2465 50.0054 44.2681 49.8667 44.3297C49.7279 44.3914 49.6092 44.4908 49.5241 44.6165C49.4357 44.7484 49.381 44.8999 49.3646 45.0577C49.3482 45.2156 49.3707 45.3751 49.4301 45.5223C49.6254 45.9316 49.8989 46.2986 50.2353 46.6026L51.6913 48.0787C52.1967 48.5945 52.6695 49.1413 53.107 49.7158C53.4555 50.1752 53.7378 50.6811 53.9457 51.2188C54.15 51.727 54.2216 52.2789 54.1537 52.8224C54.0639 53.4176 53.8539 53.9883 53.5364 54.4998C53.056 55.3711 52.2909 56.0509 51.3692 56.4255C50.4579 56.777 49.4615 56.8448 48.5109 56.62C47.4023 56.3566 46.3545 55.8829 45.4245 55.2244C43.7429 54.1584 42.4127 52.6205 41.6 50.8028ZM54.2409 39.1817C54.3065 39.063 54.3959 38.9591 54.5035 38.8765C54.611 38.7939 54.7345 38.7344 54.8661 38.7017C54.9977 38.6689 55.1346 38.6637 55.2683 38.6862C55.4021 38.7088 55.5297 38.7587 55.6432 38.8328C55.8632 38.974 56.0233 39.1914 56.0928 39.4434C56.1328 39.5775 56.1422 39.7189 56.1201 39.8571C56.098 39.9954 56.0451 40.1268 55.9653 40.2418L54.0329 43.3954L52.3086 42.3353L54.2409 39.1817ZM45.3373 54.1979L47.0751 55.2647L45.1561 58.3914C45.0718 58.5554 44.9407 58.6908 44.7795 58.7804C44.6183 58.8699 44.4341 58.9097 44.2503 58.8946C44.0714 58.8892 43.8968 58.8384 43.743 58.7468C43.5892 58.6552 43.4613 58.526 43.3714 58.3713C43.2735 58.2122 43.2256 58.0273 43.234 57.8407C43.2423 57.6541 43.3066 57.4743 43.4183 57.3246L45.3373 54.1979Z" fill="#263238"/>
<path d="M35.749 58.6664V60.8873" stroke="#263238" stroke-width="0.5" stroke-linecap="round" stroke-linejoin="round"/>
<path d="M37.3193 60.8873V63.2424" stroke="#263238" stroke-width="0.5" stroke-linecap="round" stroke-linejoin="round"/>
<path d="M40.459 63.5039V65.7315" stroke="#263238" stroke-width="0.5" stroke-linecap="round" stroke-linejoin="round"/>
<path d="M44.9072 65.7318V67.6977" stroke="#263238" stroke-width="0.5" stroke-linecap="round" stroke-linejoin="round"/>
<path d="M49.7524 66.651V67.5635" stroke="#263238" stroke-width="0.5" stroke-linecap="round" stroke-linejoin="round"/>
<path d="M59.3066 66.2548V64.819" stroke="#263238" stroke-width="0.5" stroke-linecap="round" stroke-linejoin="round"/>
<path d="M61.4004 64.8194V62.5918" stroke="#263238" stroke-width="0.5" stroke-linecap="round" stroke-linejoin="round"/>
<path d="M65.0905 57.0189C70.3213 48.8398 67.9312 37.9689 59.752 32.7381C51.5729 27.5073 40.7019 29.8974 35.4712 38.0766C30.2404 46.2557 32.6305 57.1266 40.8097 62.3574C48.9888 67.5882 59.8597 65.1981 65.0905 57.0189Z" fill="white" stroke="#263238" stroke-width="0.5" stroke-linecap="round" stroke-linejoin="round"/>
<path d="M65.091 54.6666C70.3218 46.4875 67.9316 35.6166 59.7525 30.3858C51.5733 25.155 40.7024 27.5451 35.4717 35.7243C30.2409 43.9034 32.631 54.7743 40.8102 60.0051C48.9893 65.2359 59.8602 62.8458 65.091 54.6666Z" fill="white" stroke="#263238" stroke-width="0.5" stroke-linecap="round" stroke-linejoin="round"/>
<path d="M64.4143 49.9835C67.0738 42.1713 62.8967 33.6824 55.0846 31.0229C47.2724 28.3634 38.7835 32.5405 36.124 40.3527C33.4645 48.1648 37.6416 56.6537 45.4538 59.3132C53.2659 61.9727 61.7548 57.7956 64.4143 49.9835Z" fill="white" stroke="#263238" stroke-width="0.5" stroke-linecap="round" stroke-linejoin="round"/>
<path d="M41.6002 47.166C41.4785 46.8821 41.4548 46.5657 41.5331 46.2669C41.6046 45.9864 41.7589 45.7339 41.9759 45.5422C42.194 45.3616 42.4478 45.229 42.7207 45.1531C43.0031 45.0707 43.3065 45.102 43.5661 45.2403C43.8733 45.4067 44.1305 45.6523 44.3109 45.9515C44.3511 46.0119 44.4585 46.1931 44.6262 46.4816C44.794 46.7701 44.9483 47.0251 45.0825 47.2263C45.2808 47.5025 45.5055 47.7587 45.7534 47.9913C46.0525 48.302 46.3831 48.5808 46.7398 48.8232C46.998 49.0297 47.2795 49.2053 47.5785 49.3466C47.8772 49.4932 48.1867 49.6166 48.5044 49.7156C48.7914 49.7993 49.0963 49.7993 49.3834 49.7156C49.5244 49.6795 49.6566 49.6151 49.7719 49.5263C49.8873 49.4374 49.9833 49.3261 50.0543 49.199C50.1217 49.0635 50.1568 48.9142 50.1568 48.7629C50.1568 48.6115 50.1217 48.4622 50.0543 48.3267C49.8689 47.8903 49.5947 47.4973 49.2492 47.1727L47.8066 45.6496C47.2698 45.0658 46.8471 44.5828 46.5385 44.207C46.2195 43.8107 45.9302 43.3913 45.6729 42.9523C45.4268 42.5696 45.2624 42.1401 45.1898 41.6909C45.1368 41.2743 45.1595 40.8515 45.2569 40.4429C45.3797 39.9359 45.586 39.4529 45.8675 39.0138C46.1989 38.4335 46.6817 37.9541 47.2643 37.6268C47.8469 37.2995 48.5074 37.1365 49.1754 37.1552C50.8973 37.22 52.554 37.8309 53.9056 38.8997C54.3835 39.2201 54.8325 39.5815 55.2476 39.98C55.5555 40.2746 55.8446 40.5883 56.1131 40.9193C56.301 41.1609 56.5224 41.4829 56.7841 41.8855C56.9889 42.1707 57.0971 42.514 57.0927 42.8651C57.0966 43.1684 57.0025 43.4649 56.8243 43.7105C56.6429 43.9349 56.4137 44.116 56.1534 44.2406C56.0258 44.3065 55.8858 44.3448 55.7424 44.3529C55.599 44.361 55.4555 44.3387 55.3214 44.2875C54.9903 44.163 54.7 43.9494 54.4827 43.6703C53.8493 42.8637 53.1192 42.1381 52.3088 41.5098C52.0013 41.2971 51.6833 41.1 51.356 40.9193C51.0305 40.7298 50.6651 40.6195 50.2892 40.5972C50.1387 40.5745 49.9848 40.5953 49.8457 40.6571C49.7066 40.7189 49.5881 40.8192 49.5041 40.9461C49.4158 41.078 49.361 41.2295 49.3446 41.3874C49.3283 41.5453 49.3508 41.7048 49.4102 41.852C49.6115 42.2685 49.8944 42.6404 50.2422 42.9456L51.6982 44.4217C52.2004 44.9405 52.673 45.4871 53.1139 46.0589C53.4625 46.5206 53.7448 47.0287 53.9526 47.5685C54.1569 48.0744 54.2285 48.6241 54.1606 49.1654C54.0721 49.7631 53.862 50.3362 53.5433 50.8495C53.0629 51.7208 52.2978 52.4007 51.3761 52.7752C50.464 53.1235 49.4687 53.1912 48.5178 52.9698C47.4092 52.7064 46.3614 52.2326 45.4314 51.5742C43.7522 50.5094 42.4205 48.9772 41.6002 47.166ZM54.2411 35.5449C54.3083 35.4176 54.4037 35.3073 54.52 35.2224C54.6362 35.1375 54.7703 35.0803 54.9121 35.0551C55.1641 35.0048 55.4257 35.0528 55.6434 35.1893C55.8605 35.3335 56.0197 35.5498 56.093 35.7999C56.1331 35.9351 56.1425 36.0776 56.1204 36.2169C56.0984 36.3562 56.0454 36.4888 55.9655 36.605L54.06 39.7585L52.3356 38.6984L54.2411 35.5449ZM45.3374 50.561L47.0752 51.6279L45.1563 54.7546C45.07 54.9169 44.9385 55.0508 44.7778 55.1401C44.617 55.2294 44.4339 55.2702 44.2505 55.2578C44.0716 55.2524 43.897 55.2015 43.7432 55.11C43.5894 55.0184 43.4615 54.8891 43.3715 54.7344C43.2736 54.5753 43.2258 54.3905 43.2341 54.2039C43.2425 54.0172 43.3067 53.8374 43.4185 53.6877L45.3374 50.561Z" fill="#263238"/>
<path d="M35.749 55.0232V57.2508" stroke="#263238" stroke-width="0.5" stroke-linecap="round" stroke-linejoin="round"/>
<path d="M37.3193 57.2509V59.6059" stroke="#263238" stroke-width="0.5" stroke-linecap="round" stroke-linejoin="round"/>
<path d="M40.459 59.8677V62.0953" stroke="#263238" stroke-width="0.5" stroke-linecap="round" stroke-linejoin="round"/>
<path d="M44.9072 62.0948V64.0541" stroke="#263238" stroke-width="0.5" stroke-linecap="round" stroke-linejoin="round"/>
<path d="M49.7524 63.0076V63.9268" stroke="#263238" stroke-width="0.5" stroke-linecap="round" stroke-linejoin="round"/>
<path d="M59.3066 62.6186V61.176" stroke="#263238" stroke-width="0.5" stroke-linecap="round" stroke-linejoin="round"/>
<path d="M61.4004 61.1757V58.9548" stroke="#263238" stroke-width="0.5" stroke-linecap="round" stroke-linejoin="round"/>
<path d="M53.312 61.5695C62.875 59.8936 69.2688 50.7827 67.5929 41.2197C65.917 31.6567 56.8061 25.2629 47.2431 26.9388C37.6801 28.6147 31.2863 37.7256 32.9622 47.2886C34.6381 56.8516 43.749 63.2454 53.312 61.5695Z" fill="white" stroke="#263238" stroke-width="0.5" stroke-linecap="round" stroke-linejoin="round"/>
<path d="M53.2056 59.2291C62.7792 57.615 69.2317 48.5456 67.6176 38.972C66.0035 29.3983 56.9341 22.9459 47.3604 24.56C37.7868 26.1741 31.3344 35.2435 32.9485 44.8171C34.5626 54.3908 43.632 60.8432 53.2056 59.2291Z" fill="white" stroke="#263238" stroke-width="0.5" stroke-linecap="round" stroke-linejoin="round"/>
<path d="M64.4089 46.705C67.0684 38.8929 62.8913 30.4039 55.0792 27.7444C47.267 25.085 38.7781 29.2621 36.1186 37.0742C33.4591 44.8864 37.6362 53.3753 45.4484 56.0348C53.2605 58.6942 61.7494 54.5172 64.4089 46.705Z" fill="white" stroke="#263238" stroke-width="0.5" stroke-linecap="round" stroke-linejoin="round"/>
<path d="M41.6 43.9186C41.4844 43.6439 41.4585 43.3396 41.526 43.0493C41.5935 42.7589 41.7508 42.4973 41.9757 42.3016C42.1912 42.1155 42.4457 41.9802 42.7205 41.9058C43.0032 41.8269 43.3053 41.8581 43.5659 41.993C43.8732 42.1594 44.1303 42.405 44.3107 42.7042C44.351 42.7646 44.4583 42.9457 44.6261 43.241C44.7938 43.5362 44.9481 43.7845 45.0823 43.9857C45.284 44.2591 45.5085 44.515 45.7533 44.7506C46.0525 45.0592 46.383 45.3358 46.7396 45.5759C46.9979 45.7824 47.2793 45.958 47.5783 46.0993C47.8757 46.2487 48.1855 46.3722 48.5042 46.4683C48.7887 46.5594 49.0926 46.5711 49.3832 46.5019C49.524 46.4632 49.6558 46.397 49.771 46.3072C49.8861 46.2174 49.9823 46.1057 50.0541 45.9785C50.1215 45.843 50.1566 45.6937 50.1566 45.5424C50.1566 45.391 50.1215 45.2417 50.0541 45.1062C49.8688 44.6698 49.5946 44.2768 49.249 43.9522L47.8064 42.4291C47.2696 41.8454 46.8469 41.369 46.5383 40.9865C46.2177 40.5913 45.9284 40.1718 45.6728 39.7318C45.4258 39.3495 45.2613 38.9199 45.1897 38.4704C45.1366 38.0538 45.1593 37.631 45.2568 37.2224C45.3803 36.7157 45.5866 36.2329 45.8673 35.7933C46.1999 35.214 46.6829 34.7354 47.2652 34.4082C47.8475 34.0811 48.5075 33.9174 49.1752 33.9347C50.8977 34.0023 52.5542 34.6156 53.9055 35.6859C54.3849 36.0042 54.8341 36.3657 55.2474 36.7662C55.555 37.0588 55.844 37.3703 56.1129 37.6988C56.3008 37.9404 56.5222 38.2624 56.7839 38.665C56.9879 38.9506 57.096 39.2936 57.0925 39.6446C57.0964 39.948 57.0023 40.2445 56.8241 40.49C56.6431 40.7166 56.4139 40.8999 56.1532 41.0268C56.0251 41.0917 55.8849 41.1288 55.7415 41.1357C55.5981 41.1427 55.4549 41.1193 55.3212 41.067C54.9901 40.9425 54.6998 40.7289 54.4825 40.4498C53.8491 39.6453 53.1189 38.9219 52.3086 38.296C52.0012 38.081 51.6832 37.8817 51.3558 37.6988C51.0304 37.5093 50.6649 37.399 50.289 37.3768C50.1386 37.3557 49.9853 37.3772 49.8465 37.4389C49.7078 37.5005 49.5891 37.5999 49.5039 37.7256C49.4156 37.8575 49.3608 38.009 49.3445 38.1669C49.3281 38.3248 49.3506 38.4843 49.41 38.6315C49.6109 39.0502 49.8938 39.4244 50.242 39.7318L51.698 41.2079C52.2034 41.7238 52.6762 42.2705 53.1137 42.8451C53.4622 43.3044 53.7445 43.8103 53.9524 44.3481C54.1567 44.8563 54.2283 45.4081 54.1604 45.9517C54.0706 46.5469 53.8606 47.1176 53.5431 47.6291C53.0628 48.5003 52.2977 49.1801 51.3759 49.5547C50.4646 49.9063 49.4682 49.9741 48.5176 49.7493C47.409 49.4859 46.3612 49.0121 45.4312 48.3537C43.7451 47.2851 42.4123 45.7421 41.6 43.9186ZM54.2409 32.2976C54.3065 32.1789 54.3959 32.075 54.5035 31.9924C54.611 31.9098 54.7345 31.8503 54.8661 31.8175C54.9977 31.7848 55.1346 31.7795 55.2683 31.8021C55.4021 31.8246 55.5297 31.8745 55.6432 31.9487C55.8615 32.0886 56.0213 32.3033 56.0928 32.5525C56.1329 32.6878 56.1423 32.8302 56.1202 32.9695C56.0982 33.1089 56.0452 33.2415 55.9653 33.3577L54.0329 36.5112L52.3086 35.4511L54.2409 32.2976ZM45.3373 47.2735L47.0751 48.3403L45.1561 51.467C45.0718 51.631 44.9407 51.7664 44.7795 51.856C44.6183 51.9455 44.4341 51.9853 44.2503 51.9702C44.0714 51.9648 43.8968 51.9139 43.743 51.8224C43.5892 51.7308 43.4613 51.6016 43.3714 51.4468C43.2735 51.2877 43.2256 51.1029 43.234 50.9163C43.2423 50.7296 43.3066 50.5498 43.4183 50.4001L45.3373 47.2735Z" fill="#263238"/>
<path d="M35.749 51.7484V53.9693" stroke="#263238" stroke-width="0.5" stroke-linecap="round" stroke-linejoin="round"/>
<path d="M37.3193 53.9696V56.3247" stroke="#263238" stroke-width="0.5" stroke-linecap="round" stroke-linejoin="round"/>
<path d="M40.459 56.5864V58.814" stroke="#263238" stroke-width="0.5" stroke-linecap="round" stroke-linejoin="round"/>
<path d="M44.9072 58.8138V60.7798" stroke="#263238" stroke-width="0.5" stroke-linecap="round" stroke-linejoin="round"/>
<path d="M49.7524 59.7335V60.646" stroke="#263238" stroke-width="0.5" stroke-linecap="round" stroke-linejoin="round"/>
<path d="M59.3066 59.3378V57.902" stroke="#263238" stroke-width="0.5" stroke-linecap="round" stroke-linejoin="round"/>
<path d="M61.4004 57.9017V55.6741" stroke="#263238" stroke-width="0.5" stroke-linecap="round" stroke-linejoin="round"/>
<path d="M53.3105 58.2975C62.8735 56.6216 69.2673 47.5107 67.5914 37.9477C65.9155 28.3847 56.8046 21.9909 47.2416 23.6668C37.6786 25.3427 31.2848 34.4536 32.9607 44.0166C34.6366 53.5796 43.7475 59.9734 53.3105 58.2975Z" fill="white" stroke="#263238" stroke-width="0.5" stroke-linecap="round" stroke-linejoin="round"/>
<path d="M53.313 55.9374C62.876 54.2615 69.2698 45.1506 67.5939 35.5876C65.918 26.0246 56.807 19.6308 47.244 21.3067C37.681 22.9826 31.2873 32.0935 32.9632 41.6565C34.6391 51.2195 43.75 57.6133 53.313 55.9374Z" fill="white" stroke="#263238" stroke-width="0.5" stroke-linecap="round" stroke-linejoin="round"/>
<path d="M64.4094 43.4269C67.0689 35.6148 62.8918 27.1258 55.0797 24.4664C47.2675 21.8069 38.7786 25.984 36.1191 33.7961C33.4596 41.6083 37.6367 50.0972 45.4489 52.7567C53.261 55.4162 61.75 51.2391 64.4094 43.4269Z" fill="white" stroke="#263238" stroke-width="0.5" stroke-linecap="round" stroke-linejoin="round"/>
<path d="M41.5998 40.6107C41.4786 40.3243 41.455 40.006 41.5327 39.7049C41.6028 39.4256 41.7574 39.1748 41.9756 38.9869C42.1914 38.8028 42.446 38.6698 42.7203 38.5978C43.0022 38.5169 43.3042 38.5456 43.5657 38.6783C43.8723 38.8487 44.129 39.0961 44.3105 39.3962C44.3508 39.4566 44.4581 39.6311 44.6259 39.9263C44.7936 40.2215 44.9479 40.4698 45.0821 40.6711C45.2839 40.9445 45.5083 41.2003 45.7531 41.436C46.0522 41.7467 46.3827 42.0255 46.7394 42.268C46.9996 42.4699 47.2808 42.6431 47.5781 42.7846C47.8767 42.9333 48.1863 43.0589 48.504 43.1603C48.7915 43.2408 49.0955 43.2408 49.383 43.1603C49.5238 43.1217 49.6556 43.0555 49.7708 42.9657C49.8859 42.8759 49.9822 42.7642 50.054 42.637C50.1213 42.5026 50.1563 42.3545 50.1563 42.2042C50.1563 42.054 50.1213 41.9058 50.054 41.7714C49.8689 41.3329 49.5947 40.9376 49.2488 40.6107L47.8062 39.0876C47.2695 38.5038 46.8468 38.0275 46.5381 37.645C46.2161 37.2509 45.9266 36.8313 45.6726 36.3903C45.4256 36.008 45.2611 35.5784 45.1895 35.1289C45.1364 34.7123 45.1591 34.2895 45.2566 33.8809C45.3791 33.376 45.5855 32.8951 45.8672 32.4585C46.1994 31.8785 46.6821 31.3989 47.2644 31.0706C47.8466 30.7423 48.5067 30.5773 49.175 30.5932C50.8969 30.664 52.5524 31.2769 53.9053 32.3444C54.3847 32.6626 54.8339 33.0242 55.2472 33.4247C55.5531 33.7189 55.8421 34.0303 56.1128 34.3573C56.3006 34.5989 56.522 34.9209 56.7837 35.3302C56.9894 35.615 57.0977 35.9586 57.0924 36.3098C57.0948 36.6109 57.0007 36.9048 56.824 37.1485C56.643 37.375 56.4137 37.5584 56.153 37.6853C56.0255 37.7512 55.8854 37.7895 55.742 37.7976C55.5987 37.8057 55.4552 37.7834 55.321 37.7322C54.9912 37.6053 54.7015 37.3921 54.4823 37.115C53.849 36.3084 53.1189 35.5828 52.3084 34.9545C52.0009 34.7418 51.6829 34.5448 51.3556 34.364C51.0316 34.1714 50.6653 34.0608 50.2888 34.042C50.1382 34.0175 49.9837 34.0375 49.8443 34.0995C49.7049 34.1615 49.5866 34.2627 49.5038 34.3908C49.4154 34.5215 49.3607 34.6718 49.3443 34.8286C49.3279 34.9855 49.3504 35.1439 49.4098 35.29C49.6107 35.7087 49.8936 36.0829 50.2418 36.3903L51.6978 37.8664C52.2016 38.3838 52.6744 38.9304 53.1135 39.5036C53.4606 39.9638 53.7428 40.4695 53.9523 41.0065C54.1565 41.5148 54.2281 42.0666 54.1602 42.6101C54.0716 43.2057 53.8615 43.7766 53.543 44.2875C53.0648 45.1606 52.299 45.841 51.3758 46.2132C50.4644 46.5648 49.468 46.6326 48.5174 46.4078C47.4078 46.1474 46.3595 45.6734 45.431 45.0122C43.7507 43.9516 42.4186 42.4212 41.5998 40.6107ZM54.2408 28.9896C54.308 28.8617 54.4032 28.7505 54.5194 28.6646C54.6356 28.5786 54.7697 28.52 54.9117 28.4931C55.1645 28.4482 55.425 28.4984 55.6431 28.634C55.8601 28.7783 56.0193 28.9945 56.0926 29.2446C56.1327 29.3798 56.1421 29.5223 56.1201 29.6616C56.098 29.8009 56.0451 29.9335 55.9651 30.0497L54.0596 33.1831L52.3352 32.123L54.2408 28.9896ZM45.3371 43.999L47.0749 45.0659L45.1559 48.1993C45.07 48.3615 44.9384 48.495 44.7774 48.5832C44.6164 48.6714 44.4331 48.7106 44.2501 48.6958C44.0715 48.693 43.8965 48.644 43.7425 48.5534C43.5884 48.4629 43.4605 48.3339 43.3712 48.1791C43.2733 48.02 43.2254 47.8352 43.2338 47.6486C43.2422 47.4619 43.3064 47.2821 43.4181 47.1324L45.3371 43.999Z" fill="#263238"/>
<path d="M35.749 48.4679V50.6955" stroke="#263238" stroke-width="0.5" stroke-linecap="round" stroke-linejoin="round"/>
<path d="M37.3193 50.6956V53.0506" stroke="#263238" stroke-width="0.5" stroke-linecap="round" stroke-linejoin="round"/>
<path d="M40.459 53.3124V55.5333" stroke="#263238" stroke-width="0.5" stroke-linecap="round" stroke-linejoin="round"/>
<path d="M44.9072 55.5328V57.4988" stroke="#263238" stroke-width="0.5" stroke-linecap="round" stroke-linejoin="round"/>
<path d="M49.7524 56.4523V57.3648" stroke="#263238" stroke-width="0.5" stroke-linecap="round" stroke-linejoin="round"/>
<path d="M59.3066 56.0563V54.6205" stroke="#263238" stroke-width="0.5" stroke-linecap="round" stroke-linejoin="round"/>
<path d="M61.4004 54.6205V52.3929" stroke="#263238" stroke-width="0.5" stroke-linecap="round" stroke-linejoin="round"/>
<path d="M53.3076 55.012C62.8706 53.3361 69.2644 44.2252 67.5885 34.6622C65.9126 25.0992 56.8017 18.7054 47.2387 20.3813C37.6757 22.0572 31.2819 31.1681 32.9578 40.7311C34.6337 50.2941 43.7446 56.6879 53.3076 55.012Z" fill="white" stroke="#263238" stroke-width="0.5" stroke-linecap="round" stroke-linejoin="round"/>
<path d="M53.3115 52.6652C62.8745 50.9893 69.2683 41.8784 67.5924 32.3154C65.9165 22.7524 56.8056 16.3586 47.2426 18.0345C37.6796 19.7104 31.2858 28.8213 32.9617 38.3843C34.6376 47.9473 43.7485 54.3411 53.3115 52.6652Z" fill="white" stroke="#263238" stroke-width="0.5" stroke-linecap="round" stroke-linejoin="round"/>
<path d="M49.4512 50.266C52.772 50.4491 56.059 49.5192 58.7916 47.6234C61.5242 45.7276 63.5462 42.9744 64.5375 39.7997C65.5287 36.625 65.4324 33.2103 64.264 30.0965C63.0955 26.9827 60.9215 24.3477 58.0865 22.6089L57.7309 22.4009" fill="white"/>
<path d="M49.4512 50.266C52.772 50.4491 56.059 49.5192 58.7916 47.6234C61.5242 45.7276 63.5462 42.9744 64.5375 39.7997C65.5287 36.625 65.4324 33.2103 64.264 30.0965C63.0955 26.9827 60.9215 24.3477 58.0865 22.6089L57.7308 22.4009" stroke="#263238" stroke-width="0.5" stroke-linecap="round" stroke-linejoin="round"/>
<path d="M42.4653 48.0853C44.1822 49.1401 46.0948 49.8362 48.088 50.1318L42.4653 48.0853Z" fill="white"/>
<path d="M42.4653 48.0853C44.1822 49.1401 46.0948 49.8362 48.088 50.1318" stroke="#263238" stroke-width="0.5" stroke-linecap="round" stroke-linejoin="round"/>
<path d="M56.287 21.6696C53.0122 20.2307 49.3298 20.0142 45.909 21.0596C42.4882 22.105 39.5558 24.3428 37.6448 27.3665C35.7337 30.3902 34.9708 33.9992 35.4946 37.5376C36.0184 41.076 37.7941 44.3092 40.4992 46.6496" fill="white"/>
<path d="M56.287 21.6696C53.0122 20.2307 49.3298 20.0142 45.909 21.0596C42.4882 22.105 39.5558 24.3428 37.6448 27.3665C35.7337 30.3902 34.9708 33.9992 35.4946 37.5376C36.0184 41.076 37.7941 44.3092 40.4992 46.6496" stroke="#263238" stroke-width="0.5" stroke-linecap="round" stroke-linejoin="round"/>
<path d="M41.6002 37.3298C41.4785 37.0459 41.4548 36.7295 41.5331 36.4307C41.6031 36.1495 41.7576 35.8966 41.9759 35.7061C42.194 35.5254 42.4478 35.3928 42.7207 35.3169C43.0031 35.2345 43.3065 35.2659 43.5661 35.4041C43.8747 35.5686 44.1323 35.8146 44.3109 36.1153C44.3511 36.1757 44.4585 36.3569 44.6262 36.6454C44.794 36.9339 44.9483 37.1889 45.0825 37.3902C45.2808 37.6663 45.5055 37.9225 45.7534 38.1551C46.0525 38.4658 46.3831 38.7446 46.7398 38.9871C46.998 39.1935 47.2795 39.3692 47.5785 39.5104C47.8772 39.657 48.1867 39.7804 48.5044 39.8795C48.7914 39.9631 49.0963 39.9631 49.3834 39.8795C49.5244 39.8433 49.6566 39.7789 49.7719 39.6901C49.8873 39.6013 49.9833 39.4899 50.0543 39.3628C50.1217 39.2273 50.1568 39.078 50.1568 38.9267C50.1568 38.7753 50.1217 38.6261 50.0543 38.4906C49.8705 38.0533 49.5961 37.6599 49.2492 37.3365L47.7865 35.8671C47.2497 35.2834 46.827 34.8003 46.5183 34.4245C46.1993 34.0282 45.91 33.6088 45.6528 33.1698C45.4067 32.7871 45.2423 32.3576 45.1697 31.9084C45.1167 31.4895 45.1394 31.0645 45.2368 30.6537C45.3593 30.1487 45.5657 29.6679 45.8474 29.2313C46.1796 28.6512 46.6623 28.1717 47.2446 27.8434C47.8268 27.5151 48.487 27.3501 49.1552 27.366C50.8771 27.4368 52.5326 28.0497 53.8855 29.1172C54.365 29.4354 54.8142 29.797 55.2274 30.1974C55.5354 30.4921 55.8245 30.8058 56.093 31.1368C56.2808 31.3716 56.5023 31.7004 56.7639 32.103C56.9688 32.3882 57.077 32.7315 57.0726 33.0826C57.075 33.3857 56.9811 33.6818 56.8042 33.928C56.6228 34.1524 56.3935 34.3335 56.1332 34.4581C56.0057 34.524 55.8656 34.5623 55.7223 34.5704C55.5789 34.5785 55.4354 34.5562 55.3012 34.505C54.9701 34.3805 54.6799 34.1669 54.4625 33.8877C53.8292 33.0812 53.0991 32.3556 52.2886 31.7272C51.9811 31.5146 51.6631 31.3175 51.3359 31.1368C51.0104 30.9473 50.645 30.837 50.269 30.8147C50.1185 30.792 49.9647 30.8128 49.8256 30.8746C49.6865 30.9364 49.568 31.0367 49.484 31.1636C49.3956 31.2955 49.3409 31.447 49.3245 31.6049C49.3081 31.7628 49.3306 31.9222 49.3901 32.0694C49.5914 32.486 49.8743 32.8579 50.2221 33.1631L51.6781 34.6392C52.1802 35.158 52.6529 35.7046 53.0938 36.2764C53.4423 36.738 53.7246 37.2462 53.9325 37.786C54.1368 38.2919 54.2084 38.8416 54.1405 39.3829C54.0518 39.9784 53.8417 40.5494 53.5232 41.0603C53.0449 41.9348 52.2794 42.6174 51.356 42.9927C50.4439 43.341 49.4485 43.4088 48.4977 43.1873C47.39 42.9211 46.3427 42.4475 45.4112 41.7917C43.7315 40.7095 42.4063 39.1581 41.6002 37.3298ZM54.2411 25.7087C54.3083 25.5814 54.4037 25.4711 54.52 25.3862C54.6362 25.3013 54.7703 25.2441 54.9121 25.2189C55.1641 25.1687 55.4257 25.2166 55.6434 25.3531C55.8605 25.4974 56.0197 25.7136 56.093 25.9637C56.1331 26.0989 56.1425 26.2414 56.1204 26.3807C56.0984 26.52 56.0454 26.6526 55.9655 26.7688L54.0331 29.9224L52.3088 28.8622L54.2411 25.7087ZM45.3374 40.7249L47.0752 41.7917L45.1563 44.9184C45.07 45.0807 44.9385 45.2146 44.7778 45.3039C44.617 45.3932 44.4339 45.4341 44.2505 45.4216C44.0716 45.4162 43.897 45.3653 43.7432 45.2738C43.5894 45.1822 43.4615 45.053 43.3715 44.8982C43.2736 44.7391 43.2258 44.5543 43.2341 44.3677C43.2425 44.1811 43.3067 44.0012 43.4185 43.8515L45.3374 40.7249Z" fill="#263238"/>
<path d="M35.749 45.1868V47.4143" stroke="#263238" stroke-width="0.5" stroke-linecap="round" stroke-linejoin="round"/>
<path d="M37.3193 47.4141V49.7691" stroke="#263238" stroke-width="0.5" stroke-linecap="round" stroke-linejoin="round"/>
<path d="M40.459 50.0309V52.2585" stroke="#263238" stroke-width="0.5" stroke-linecap="round" stroke-linejoin="round"/>
<path d="M44.9072 52.2588V54.218" stroke="#263238" stroke-width="0.5" stroke-linecap="round" stroke-linejoin="round"/>
<path d="M49.7524 53.1711V54.0904" stroke="#263238" stroke-width="0.5" stroke-linecap="round" stroke-linejoin="round"/>
<path d="M59.3066 52.7822V51.3396" stroke="#263238" stroke-width="0.5" stroke-linecap="round" stroke-linejoin="round"/>
<path d="M61.4004 51.3397V49.1188" stroke="#263238" stroke-width="0.5" stroke-linecap="round" stroke-linejoin="round"/>
<path d="M97.4844 84.0954C99.1452 74.5298 92.7371 65.429 83.1715 63.7681C73.6059 62.1072 64.505 68.5153 62.8442 78.0809C61.1833 87.6465 67.5914 96.7474 77.157 98.4083C86.7226 100.069 95.8235 93.6611 97.4844 84.0954Z" fill="white" stroke="#263238" stroke-width="0.5" stroke-linecap="round" stroke-linejoin="round"/>
<path d="M87.3241 94.7987C96.1948 90.8528 100.187 80.463 96.2415 71.5922C92.2957 62.7215 81.9058 58.729 73.0351 62.6748C64.1643 66.6206 60.1719 77.0105 64.1177 85.8813C68.0635 94.752 78.4533 98.7445 87.3241 94.7987Z" fill="white" stroke="#263238" stroke-width="0.5" stroke-linecap="round" stroke-linejoin="round"/>
<path d="M92.8116 83.3933C95.2874 75.5535 90.9389 67.1912 83.0991 64.7154C75.2593 62.2397 66.8969 66.5881 64.4212 74.4279C61.9455 82.2677 66.2939 90.6301 74.1337 93.1059C81.9735 95.5816 90.3359 91.2331 92.8116 83.3933Z" fill="white" stroke="#263238" stroke-width="0.5" stroke-linecap="round" stroke-linejoin="round"/>
<path d="M75.6317 86.4107C75.3516 86.2958 75.1162 86.0934 74.9607 85.8337C74.8067 85.5919 74.7317 85.3082 74.746 85.0218C74.7618 84.7348 74.842 84.455 74.9809 84.2032C75.1165 83.9461 75.3441 83.7496 75.6183 83.653C75.9522 83.5436 76.3101 83.5296 76.6516 83.6128C76.7254 83.6128 76.9267 83.6665 77.2554 83.747C77.5842 83.8275 77.8727 83.8879 78.1075 83.9281C78.4387 83.9745 78.773 83.9946 79.1073 83.9885C79.5383 83.9877 79.9679 83.9405 80.3888 83.8476C80.7151 83.8028 81.0349 83.7194 81.3416 83.5994C81.6546 83.4863 81.9576 83.3471 82.2474 83.1834C82.5114 83.0409 82.73 82.827 82.8781 82.5661C82.9492 82.4372 82.9936 82.2953 83.0086 82.1489C83.0236 82.0025 83.0089 81.8545 82.9653 81.714C82.9132 81.5726 82.8291 81.4452 82.7198 81.3417C82.6104 81.2381 82.4786 81.1611 82.3346 81.1168C81.8924 80.9464 81.4187 80.8731 80.9457 80.9021H78.8456C78.0539 80.9021 77.4097 80.8686 76.9266 80.8283C76.4202 80.7902 75.9176 80.7116 75.4237 80.5935C74.9779 80.5045 74.5539 80.329 74.1757 80.0768C73.8371 79.8265 73.5462 79.5174 73.3169 79.1643C73.0337 78.7276 72.8251 78.2469 72.6996 77.7419C72.5109 77.1001 72.4985 76.4194 72.6638 75.7712C72.8291 75.123 73.1659 74.5313 73.6389 74.0583C74.8749 72.8554 76.4606 72.0754 78.1679 71.8307C78.7268 71.7118 79.2946 71.64 79.8655 71.616C80.2878 71.5901 80.7113 71.5901 81.1336 71.616C81.4355 71.6495 81.8046 71.7032 82.3078 71.7904C82.6542 71.8432 82.9755 72.0027 83.227 72.2467C83.4506 72.4491 83.5995 72.7209 83.6497 73.0183C83.6956 73.2983 83.6772 73.5851 83.596 73.857C83.5534 73.9955 83.4826 74.1237 83.3879 74.2335C83.2931 74.3432 83.1767 74.432 83.0458 74.4944C82.7297 74.6495 82.3762 74.7123 82.026 74.6756C81.0063 74.5809 79.979 74.6102 78.9664 74.7628C78.5987 74.8347 78.2357 74.9288 77.8794 75.0446C77.5169 75.1501 77.1838 75.3384 76.9065 75.5948C76.7864 75.6873 76.6953 75.8123 76.6442 75.9551C76.5931 76.0978 76.584 76.2522 76.618 76.3999C76.6561 76.5506 76.7296 76.69 76.8323 76.8067C76.9349 76.9233 77.0639 77.0139 77.2085 77.0709C77.6418 77.2074 78.0973 77.2598 78.5504 77.2252L80.6237 77.185C81.3453 77.1771 82.0668 77.2129 82.7842 77.2923C83.3579 77.3552 83.9202 77.4974 84.4548 77.715C84.9598 77.922 85.4066 78.2491 85.7565 78.6678C86.2286 79.3058 86.5367 80.0501 86.6537 80.8352C86.7707 81.6202 86.693 82.422 86.4275 83.17C86.0538 84.0738 85.4152 84.8434 84.5958 85.3774C83.6405 85.9998 82.5744 86.4326 81.4556 86.6522C79.532 87.1385 77.5085 87.0545 75.6317 86.4107ZM75.9269 69.2408C75.8807 69.1045 75.8658 68.9595 75.8832 68.8167C75.9006 68.6738 75.95 68.5367 76.0276 68.4155C76.1697 68.1992 76.3874 68.0437 76.6381 67.9793C76.8896 67.9206 77.1539 67.954 77.3829 68.0733C77.5115 68.1397 77.6231 68.2347 77.7092 68.351C77.7952 68.4674 77.8535 68.6019 77.8794 68.7443L78.8322 72.3205L76.873 72.8438L75.9269 69.2408ZM80.6773 86.0148L82.65 85.4915L83.596 89.0409C83.6529 89.2167 83.6579 89.4051 83.6103 89.5837C83.5627 89.7622 83.4645 89.9232 83.3276 90.0473C83.2012 90.1727 83.0449 90.2638 82.8735 90.3119C82.7021 90.36 82.5212 90.3637 82.348 90.3224C82.1652 90.2833 81.9983 90.19 81.869 90.0548C81.7398 89.9196 81.6542 89.7487 81.6234 89.5642L80.6773 86.0148Z" fill="#263238"/>
<path d="M65.6401 88.5983V90.8259" stroke="#263238" stroke-width="0.5" stroke-linecap="round" stroke-linejoin="round"/>
<path d="M67.2173 90.8257V93.1808" stroke="#263238" stroke-width="0.5" stroke-linecap="round" stroke-linejoin="round"/>
<path d="M70.3579 93.4425V95.6634" stroke="#263238" stroke-width="0.5" stroke-linecap="round" stroke-linejoin="round"/>
<path d="M74.8062 95.6637V97.6296" stroke="#263238" stroke-width="0.5" stroke-linecap="round" stroke-linejoin="round"/>
<path d="M79.6504 96.5824V97.4949" stroke="#263238" stroke-width="0.5" stroke-linecap="round" stroke-linejoin="round"/>
<path d="M89.2046 96.1865V94.7506" stroke="#263238" stroke-width="0.5" stroke-linecap="round" stroke-linejoin="round"/>
<path d="M91.2988 94.7509V92.5233" stroke="#263238" stroke-width="0.5" stroke-linecap="round" stroke-linejoin="round"/>
<path d="M95.1565 86.9877C96.9774 84.0243 97.8783 80.5873 97.7452 77.1117C97.6121 73.6361 96.451 70.2781 94.4087 67.4626C92.3665 64.6472 89.535 62.5008 86.2725 61.2951C83.01 60.0895 79.4631 59.8787 76.0808 60.6895C72.6985 61.5004 69.6327 63.2963 67.2714 65.8501C64.9102 68.4039 63.3595 71.6008 62.8158 75.0362C62.272 78.4716 62.7596 81.9911 64.2168 85.1492C65.6739 88.3074 68.0352 90.9624 71.0018 92.7781C74.9738 95.2093 79.7482 95.965 84.2769 94.8793C88.8055 93.7937 92.7184 90.9555 95.1565 86.9877Z" fill="white" stroke="#263238" stroke-width="0.5" stroke-linecap="round" stroke-linejoin="round"/>
<path d="M97.6993 77.0311C98.5675 67.3613 91.4322 58.8186 81.7624 57.9505C72.0925 57.0824 63.5498 64.2176 62.6817 73.8874C61.8136 83.5573 68.9488 92.1 78.6187 92.9681C88.2885 93.8362 96.8312 86.701 97.6993 77.0311Z" fill="white" stroke="#263238" stroke-width="0.5" stroke-linecap="round" stroke-linejoin="round"/>
<path d="M93.7538 81.674C95.1869 78.5381 95.4915 75.0032 94.616 71.6684C93.7404 68.3336 91.7385 65.4042 88.9497 63.3768" fill="white"/>
<path d="M93.7538 81.674C95.1869 78.5381 95.4915 75.0032 94.616 71.6684C93.7404 68.3336 91.7385 65.4042 88.9497 63.3768" stroke="#263238" stroke-width="0.5" stroke-linecap="round" stroke-linejoin="round"/>
<path d="M85.9041 61.6453C83.2815 60.5554 80.4027 60.2355 77.6048 60.723C74.8069 61.2106 72.206 62.4853 70.1066 64.398C68.0072 66.3107 66.4964 68.7821 65.7512 71.5226C65.0059 74.263 65.0571 77.1592 65.8987 79.8716C66.7404 82.5841 68.3376 85.0005 70.5032 86.8378C72.6689 88.6751 75.3133 89.8572 78.1266 90.2455C80.9399 90.6339 83.8057 90.2124 86.3881 89.0306C88.9705 87.8487 91.1627 85.9554 92.7077 83.5724" fill="white"/>
<path d="M85.9041 61.6453C83.2815 60.5554 80.4027 60.2355 77.6048 60.723C74.8069 61.2106 72.206 62.4853 70.1066 64.398C68.0072 66.3107 66.4964 68.7821 65.7512 71.5226C65.0059 74.263 65.0571 77.1592 65.8987 79.8716C66.7404 82.5841 68.3376 85.0005 70.5032 86.8378C72.6689 88.6751 75.3133 89.8572 78.1266 90.2455C80.9399 90.6339 83.8057 90.2124 86.3881 89.0306C88.9705 87.8487 91.1627 85.9554 92.7077 83.5724" stroke="#263238" stroke-width="0.5" stroke-linecap="round" stroke-linejoin="round"/>
<path d="M75.6317 83.0964C75.3521 82.9841 75.1166 82.784 74.9607 82.5261C74.8066 82.2819 74.7316 81.996 74.746 81.7075C74.7619 81.4226 74.8422 81.145 74.9809 80.8956C75.1143 80.6368 75.3427 80.4396 75.6183 80.3455C75.9522 80.2369 76.3092 80.2206 76.6516 80.2985C76.7254 80.2985 76.9267 80.3522 77.2554 80.4327C77.5842 80.5132 77.8727 80.5736 78.1075 80.6139C78.4381 80.6664 78.7727 80.6889 79.1073 80.681C79.5383 80.6745 79.9676 80.6251 80.3888 80.5333C80.7142 80.4877 81.0337 80.4067 81.3416 80.2918C81.6534 80.1758 81.9562 80.0367 82.2474 79.8758C82.51 79.7314 82.7281 79.5179 82.8781 79.2585C82.9492 79.1297 82.9936 78.9878 83.0086 78.8413C83.0236 78.6949 83.0089 78.547 82.9653 78.4064C82.915 78.264 82.8316 78.1356 82.722 78.0317C82.6123 77.9279 82.4796 77.8517 82.3346 77.8092C81.8924 77.6388 81.4187 77.5656 80.9457 77.5945H78.8456C78.0539 77.5945 77.4097 77.561 76.9266 77.5207C76.4204 77.4769 75.9181 77.3962 75.4237 77.2792C74.9761 77.1961 74.551 77.0201 74.1757 76.7625C73.8356 76.5139 73.5444 76.2046 73.3169 75.85C73.0328 75.4138 72.8242 74.933 72.6996 74.4276C72.5109 73.7858 72.4985 73.1051 72.6638 72.4569C72.8291 71.8087 73.1659 71.217 73.6389 70.744C74.8758 69.5435 76.4614 68.766 78.1679 68.5231C78.7262 68.4009 79.2943 68.3291 79.8655 68.3084C80.2877 68.2791 80.7114 68.2791 81.1336 68.3084C81.4355 68.3084 81.8046 68.3956 82.3078 68.4828C82.6535 68.5333 82.9749 68.6905 83.227 68.9324C83.4491 69.1387 83.5975 69.4121 83.6497 69.7107C83.6955 69.9885 83.6772 70.2731 83.596 70.5427C83.5568 70.687 83.4876 70.8214 83.3927 70.937C83.2979 71.0527 83.1797 71.147 83.0458 71.2137C82.7275 71.362 82.3759 71.4244 82.026 71.3948C81.0067 71.2945 79.9789 71.3216 78.9664 71.4753C78.6175 71.5514 78.2552 71.6453 77.8794 71.7571C77.5164 71.8651 77.1834 72.0557 76.9065 72.314C76.7864 72.4065 76.6953 72.5316 76.6442 72.6743C76.5931 72.817 76.584 72.9714 76.618 73.1192C76.6551 73.2703 76.7282 73.4102 76.831 73.5271C76.9338 73.6439 77.0633 73.7341 77.2085 73.7902C77.6411 73.9299 78.0973 73.9824 78.5504 73.9445L80.6237 73.9109C81.3452 73.8978 82.0669 73.9314 82.7842 74.0116C83.3577 74.0799 83.9195 74.2243 84.4548 74.441C84.9628 74.6425 85.4109 74.9705 85.7565 75.3938C86.2297 76.0313 86.5385 76.7756 86.6555 77.5609C86.7725 78.3461 86.6942 79.1481 86.4275 79.8959C86.0537 80.798 85.415 81.5654 84.5958 82.0967C83.6419 82.7218 82.5753 83.1548 81.4556 83.3715C79.5294 83.8536 77.5039 83.758 75.6317 83.0964ZM75.9269 65.9265C75.8807 65.7902 75.8658 65.6452 75.8832 65.5024C75.9006 65.3595 75.95 65.2224 76.0276 65.1012C76.1682 64.8869 76.3843 64.7334 76.633 64.6712C76.8816 64.609 77.1446 64.6428 77.3695 64.7657C77.498 64.8321 77.6097 64.9272 77.6958 65.0435C77.7818 65.1598 77.8401 65.2943 77.866 65.4367L78.8188 69.0129L76.8596 69.5296L75.9269 65.9265ZM80.6773 82.7005L82.65 82.1772L83.596 85.7199C83.6538 85.8956 83.6592 86.0843 83.6115 86.263C83.5639 86.4417 83.4652 86.6027 83.3276 86.7263C83.2012 86.8517 83.0449 86.9428 82.8735 86.9909C82.7021 87.039 82.5212 87.0427 82.348 87.0014C82.1649 86.9653 81.9972 86.8739 81.8676 86.7395C81.7381 86.6052 81.6528 86.4343 81.6234 86.2499L80.6773 82.7005Z" fill="#263238"/>
<path d="M65.6401 85.2837V87.5113" stroke="#263238" stroke-width="0.5" stroke-linecap="round" stroke-linejoin="round"/>
<path d="M67.2173 87.511V89.8661" stroke="#263238" stroke-width="0.5" stroke-linecap="round" stroke-linejoin="round"/>
<path d="M70.3579 90.1281V92.3557" stroke="#263238" stroke-width="0.5" stroke-linecap="round" stroke-linejoin="round"/>
<path d="M74.8062 92.3553V94.3145" stroke="#263238" stroke-width="0.5" stroke-linecap="round" stroke-linejoin="round"/>
<path d="M79.6504 93.2681V94.1873" stroke="#263238" stroke-width="0.5" stroke-linecap="round" stroke-linejoin="round"/>
<path d="M89.2046 92.8791V91.4365" stroke="#263238" stroke-width="0.5" stroke-linecap="round" stroke-linejoin="round"/>
<path d="M91.2988 91.4365V89.2156" stroke="#263238" stroke-width="0.5" stroke-linecap="round" stroke-linejoin="round"/>
<path d="M61.7134 105.068C69.7242 99.5832 71.7717 88.6425 66.2866 80.6317C60.8015 72.6209 49.8609 70.5734 41.8501 76.0586C33.8392 81.5437 31.7918 92.4843 37.2769 100.495C42.762 108.506 53.7026 110.553 61.7134 105.068Z" fill="white" stroke="#263238" stroke-width="0.5" stroke-linecap="round" stroke-linejoin="round"/>
<path d="M55.9217 105.337C65.3563 103.046 71.1471 93.5405 68.8559 84.106C66.5648 74.6715 57.0592 68.8806 47.6247 71.1718C38.1902 73.463 32.3994 82.9685 34.6905 92.403C36.9817 101.838 46.4872 107.628 55.9217 105.337Z" fill="white" stroke="#263238" stroke-width="0.5" stroke-linecap="round" stroke-linejoin="round"/>
<path d="M58.649 101.501C61.0018 100.285 62.9892 98.4663 64.4075 96.23C65.8258 93.9936 66.6239 91.4204 66.7202 88.7739C66.8165 86.1275 66.2074 83.503 64.9553 81.1695C63.7033 78.836 61.8533 76.8774 59.595 75.4943C59.1318 75.2075 58.6523 74.9476 58.1592 74.7159" fill="white"/>
<path d="M58.649 101.501C61.0018 100.285 62.9892 98.4663 64.4075 96.23C65.8258 93.9936 66.6239 91.4204 66.7202 88.7739C66.8165 86.1275 66.2074 83.503 64.9553 81.1695C63.7033 78.836 61.8533 76.8774 59.595 75.4943C59.1318 75.2075 58.6523 74.9476 58.1592 74.7159" stroke="#263238" stroke-width="0.5" stroke-linecap="round" stroke-linejoin="round"/>
<path d="M51.6309 103.171C53.2221 103.197 54.8073 102.971 56.3276 102.5L51.6309 103.171Z" fill="white"/>
<path d="M51.6309 103.171C53.2221 103.197 54.8073 102.971 56.3276 102.5" stroke="#263238" stroke-width="0.5" stroke-linecap="round" stroke-linejoin="round"/>
<path d="M43.9956 100.95C45.6801 101.98 47.5527 102.664 49.5042 102.963L43.9956 100.95Z" fill="white"/>
<path d="M43.9956 100.95C45.6801 101.98 47.5527 102.664 49.5042 102.963" stroke="#263238" stroke-width="0.5" stroke-linecap="round" stroke-linejoin="round"/>
<path d="M55.9786 73.8841C52.906 72.9881 49.6271 73.1019 46.6241 74.2087C43.6211 75.3155 41.0526 77.3569 39.2964 80.0325C37.5402 82.7081 36.689 85.8766 36.8682 89.0721C37.0473 92.2676 38.2473 95.3212 40.2915 97.7837" fill="white"/>
<path d="M55.9786 73.8841C52.906 72.9881 49.6271 73.1019 46.6241 74.2087C43.6211 75.3155 41.0526 77.3569 39.2964 80.0325C37.5402 82.7081 36.689 85.8766 36.8682 89.0721C37.0473 92.2676 38.2473 95.3212 40.2915 97.7837" stroke="#263238" stroke-width="0.5" stroke-linecap="round" stroke-linejoin="round"/>
<path d="M43.1028 90.215C42.9849 89.9279 42.9614 89.6106 43.0357 89.3092C43.1057 89.03 43.2604 88.7792 43.4785 88.5913C43.6973 88.4063 43.9537 88.2712 44.23 88.1954C44.5108 88.1203 44.8094 88.1514 45.0687 88.2827C45.3804 88.4461 45.6388 88.6952 45.8135 89.0006C45.8537 89.061 45.9611 89.2354 46.1355 89.5307C46.31 89.8259 46.4576 90.0741 46.5851 90.2754C46.7868 90.5488 47.0113 90.8047 47.256 91.0403C47.556 91.3528 47.8889 91.6317 48.2491 91.8723C48.5068 92.0742 48.7858 92.2474 49.0811 92.3889C49.3785 92.5384 49.6883 92.6619 50.007 92.758C50.2941 92.8413 50.5989 92.8413 50.886 92.758C51.0268 92.7193 51.1586 92.6532 51.2737 92.5633C51.3889 92.4735 51.4851 92.3618 51.5569 92.2346C51.6242 92.1003 51.6593 91.9521 51.6593 91.8018C51.6593 91.6516 51.6242 91.5034 51.5569 91.3691C51.3615 90.9263 51.0705 90.5321 50.7048 90.215L49.2622 88.6919C48.7255 88.1082 48.3027 87.6318 47.9941 87.2494C47.6721 86.8553 47.3826 86.4357 47.1286 85.9947C46.8872 85.6095 46.7231 85.1811 46.6455 84.7333C46.5958 84.3165 46.6185 83.8943 46.7126 83.4853C46.8361 82.9786 47.0424 82.4957 47.3231 82.0561C47.6573 81.4768 48.1416 80.9984 48.725 80.6713C49.3083 80.3442 49.9691 80.1805 50.6377 80.1976C52.3591 80.2706 54.014 80.8833 55.368 81.9488C55.8464 82.2684 56.2955 82.6299 56.7099 83.029C57.0211 83.3181 57.3104 83.6298 57.5755 83.9616C57.7633 84.2032 57.9914 84.5253 58.2464 84.9346C58.4463 85.2193 58.5519 85.5595 58.5484 85.9074C58.5573 86.2115 58.4627 86.5096 58.28 86.7529C58.1011 86.9816 57.8714 87.1654 57.609 87.2896C57.4802 87.3559 57.3387 87.3938 57.194 87.4007C57.0493 87.4077 56.9049 87.3835 56.7703 87.3299C56.4395 87.2082 56.1491 86.9967 55.9316 86.7193C55.2989 85.9144 54.5712 85.189 53.7644 84.5588C53.4692 84.3575 53.1538 84.1562 52.8049 83.9616C52.4803 83.7711 52.1141 83.6629 51.7381 83.6463C51.5891 83.6217 51.4363 83.641 51.2981 83.7017C51.1599 83.7625 51.0423 83.8621 50.9598 83.9885C50.8692 84.1193 50.8126 84.2706 50.795 84.4287C50.7775 84.5868 50.7995 84.7468 50.8591 84.8943C51.0624 85.3116 51.345 85.6853 51.6911 85.9947L53.1471 87.4708C53.6528 87.9863 54.1256 88.5331 54.5628 89.1079C54.9099 89.5682 55.1921 90.0739 55.4015 90.6109C55.6058 91.1191 55.6774 91.671 55.6095 92.2145C55.478 92.997 55.1558 93.7351 54.6713 94.3635C54.1869 94.9919 53.5551 95.4913 52.8318 95.8176C51.9204 96.1691 50.924 96.237 49.9735 96.0122C48.8627 95.7489 47.8127 95.2752 46.8803 94.6165C45.2217 93.5459 43.9094 92.0169 43.1028 90.215ZM55.7437 78.5873C55.8129 78.4614 55.9088 78.3523 56.0247 78.2677C56.1407 78.1831 56.2738 78.1249 56.4147 78.0974C56.6675 78.0505 56.9287 78.1009 57.146 78.2383C57.3644 78.3798 57.5223 78.5974 57.5889 78.8489C57.6285 78.9827 57.6381 79.1236 57.6173 79.2616C57.5964 79.3995 57.5455 79.5312 57.4681 79.6474L55.5357 82.8344L53.8114 81.7743L55.7437 78.5873ZM46.8602 93.6034L48.6047 94.6702L46.679 97.7969C46.5936 97.9615 46.4613 98.0971 46.2989 98.1867C46.1366 98.2762 45.9513 98.3157 45.7665 98.3001C45.5878 98.2941 45.4134 98.243 45.2597 98.1515C45.1061 98.06 44.978 97.9311 44.8875 97.7768C44.7914 97.6171 44.7446 97.4326 44.7529 97.2463C44.7613 97.0601 44.8244 96.8805 44.9345 96.7301L46.8602 93.6034Z" fill="#263238"/>
<path d="M37.2524 98.0719V100.293" stroke="#263238" stroke-width="0.5" stroke-linecap="round" stroke-linejoin="round"/>
<path d="M38.8223 100.293V102.655" stroke="#263238" stroke-width="0.5" stroke-linecap="round" stroke-linejoin="round"/>
<path d="M41.9624 102.916V105.137" stroke="#263238" stroke-width="0.5" stroke-linecap="round" stroke-linejoin="round"/>
<path d="M46.4111 105.137V107.103" stroke="#263238" stroke-width="0.5" stroke-linecap="round" stroke-linejoin="round"/>
<path d="M51.2549 106.057V106.969" stroke="#263238" stroke-width="0.5" stroke-linecap="round" stroke-linejoin="round"/>
<path d="M60.8101 105.66V104.225" stroke="#263238" stroke-width="0.5" stroke-linecap="round" stroke-linejoin="round"/>
<path d="M62.9033 104.225V101.997" stroke="#263238" stroke-width="0.5" stroke-linecap="round" stroke-linejoin="round"/>
</svg>
